%TF.GenerationSoftware,KiCad,Pcbnew,9.0.7*%
%TF.CreationDate,2026-01-30T01:35:17+02:00*%
%TF.ProjectId,HM-Collector-Rev2,484d2d43-6f6c-46c6-9563-746f722d5265,rev?*%
%TF.SameCoordinates,Original*%
%TF.FileFunction,Copper,L1,Top*%
%TF.FilePolarity,Positive*%
%FSLAX46Y46*%
G04 Gerber Fmt 4.6, Leading zero omitted, Abs format (unit mm)*
G04 Created by KiCad (PCBNEW 9.0.7) date 2026-01-30 01:35:17*
%MOMM*%
%LPD*%
G01*
G04 APERTURE LIST*
G04 Aperture macros list*
%AMRoundRect*
0 Rectangle with rounded corners*
0 $1 Rounding radius*
0 $2 $3 $4 $5 $6 $7 $8 $9 X,Y pos of 4 corners*
0 Add a 4 corners polygon primitive as box body*
4,1,4,$2,$3,$4,$5,$6,$7,$8,$9,$2,$3,0*
0 Add four circle primitives for the rounded corners*
1,1,$1+$1,$2,$3*
1,1,$1+$1,$4,$5*
1,1,$1+$1,$6,$7*
1,1,$1+$1,$8,$9*
0 Add four rect primitives between the rounded corners*
20,1,$1+$1,$2,$3,$4,$5,0*
20,1,$1+$1,$4,$5,$6,$7,0*
20,1,$1+$1,$6,$7,$8,$9,0*
20,1,$1+$1,$8,$9,$2,$3,0*%
G04 Aperture macros list end*
%TA.AperFunction,SMDPad,CuDef*%
%ADD10RoundRect,0.218750X-0.218750X-0.256250X0.218750X-0.256250X0.218750X0.256250X-0.218750X0.256250X0*%
%TD*%
%TA.AperFunction,SMDPad,CuDef*%
%ADD11R,0.575000X0.350000*%
%TD*%
%TA.AperFunction,SMDPad,CuDef*%
%ADD12R,0.350000X0.575000*%
%TD*%
%TA.AperFunction,SMDPad,CuDef*%
%ADD13R,2.750000X1.500000*%
%TD*%
%TA.AperFunction,SMDPad,CuDef*%
%ADD14R,2.950000X1.500000*%
%TD*%
%TA.AperFunction,SMDPad,CuDef*%
%ADD15R,2.550000X1.500000*%
%TD*%
%TA.AperFunction,SMDPad,CuDef*%
%ADD16R,0.850000X0.300000*%
%TD*%
%TA.AperFunction,SMDPad,CuDef*%
%ADD17R,0.300000X0.850000*%
%TD*%
%TA.AperFunction,SMDPad,CuDef*%
%ADD18R,2.650000X2.650000*%
%TD*%
%TA.AperFunction,SMDPad,CuDef*%
%ADD19RoundRect,0.218750X0.256250X-0.218750X0.256250X0.218750X-0.256250X0.218750X-0.256250X-0.218750X0*%
%TD*%
%TA.AperFunction,SMDPad,CuDef*%
%ADD20RoundRect,0.200000X0.200000X0.275000X-0.200000X0.275000X-0.200000X-0.275000X0.200000X-0.275000X0*%
%TD*%
%TA.AperFunction,SMDPad,CuDef*%
%ADD21RoundRect,0.140000X0.170000X-0.140000X0.170000X0.140000X-0.170000X0.140000X-0.170000X-0.140000X0*%
%TD*%
%TA.AperFunction,SMDPad,CuDef*%
%ADD22RoundRect,0.225000X-0.225000X-0.250000X0.225000X-0.250000X0.225000X0.250000X-0.225000X0.250000X0*%
%TD*%
%TA.AperFunction,SMDPad,CuDef*%
%ADD23RoundRect,0.200000X-0.200000X-0.275000X0.200000X-0.275000X0.200000X0.275000X-0.200000X0.275000X0*%
%TD*%
%TA.AperFunction,SMDPad,CuDef*%
%ADD24RoundRect,0.225000X0.225000X0.250000X-0.225000X0.250000X-0.225000X-0.250000X0.225000X-0.250000X0*%
%TD*%
%TA.AperFunction,SMDPad,CuDef*%
%ADD25RoundRect,0.200000X-0.275000X0.200000X-0.275000X-0.200000X0.275000X-0.200000X0.275000X0.200000X0*%
%TD*%
%TA.AperFunction,SMDPad,CuDef*%
%ADD26RoundRect,0.225000X-0.335876X-0.017678X-0.017678X-0.335876X0.335876X0.017678X0.017678X0.335876X0*%
%TD*%
%TA.AperFunction,SMDPad,CuDef*%
%ADD27RoundRect,0.250000X0.475000X-0.250000X0.475000X0.250000X-0.475000X0.250000X-0.475000X-0.250000X0*%
%TD*%
%TA.AperFunction,SMDPad,CuDef*%
%ADD28RoundRect,0.250000X-0.250000X-0.475000X0.250000X-0.475000X0.250000X0.475000X-0.250000X0.475000X0*%
%TD*%
%TA.AperFunction,SMDPad,CuDef*%
%ADD29RoundRect,0.150000X-0.150000X-0.425000X0.150000X-0.425000X0.150000X0.425000X-0.150000X0.425000X0*%
%TD*%
%TA.AperFunction,SMDPad,CuDef*%
%ADD30RoundRect,0.075000X-0.075000X-0.500000X0.075000X-0.500000X0.075000X0.500000X-0.075000X0.500000X0*%
%TD*%
%TA.AperFunction,HeatsinkPad*%
%ADD31O,1.000000X2.100000*%
%TD*%
%TA.AperFunction,HeatsinkPad*%
%ADD32O,1.000000X1.800000*%
%TD*%
%TA.AperFunction,SMDPad,CuDef*%
%ADD33RoundRect,0.140000X-0.170000X0.140000X-0.170000X-0.140000X0.170000X-0.140000X0.170000X0.140000X0*%
%TD*%
%TA.AperFunction,SMDPad,CuDef*%
%ADD34RoundRect,0.200000X0.275000X-0.200000X0.275000X0.200000X-0.275000X0.200000X-0.275000X-0.200000X0*%
%TD*%
%TA.AperFunction,ComponentPad*%
%ADD35R,1.700000X1.700000*%
%TD*%
%TA.AperFunction,ComponentPad*%
%ADD36C,1.700000*%
%TD*%
%TA.AperFunction,SMDPad,CuDef*%
%ADD37RoundRect,0.140000X0.140000X0.170000X-0.140000X0.170000X-0.140000X-0.170000X0.140000X-0.170000X0*%
%TD*%
%TA.AperFunction,SMDPad,CuDef*%
%ADD38RoundRect,0.140000X-0.140000X-0.170000X0.140000X-0.170000X0.140000X0.170000X-0.140000X0.170000X0*%
%TD*%
%TA.AperFunction,SMDPad,CuDef*%
%ADD39RoundRect,0.250000X-0.350000X0.450000X-0.350000X-0.450000X0.350000X-0.450000X0.350000X0.450000X0*%
%TD*%
%TA.AperFunction,SMDPad,CuDef*%
%ADD40RoundRect,0.225000X0.250000X-0.225000X0.250000X0.225000X-0.250000X0.225000X-0.250000X-0.225000X0*%
%TD*%
%TA.AperFunction,SMDPad,CuDef*%
%ADD41RoundRect,0.075000X-0.700000X-0.075000X0.700000X-0.075000X0.700000X0.075000X-0.700000X0.075000X0*%
%TD*%
%TA.AperFunction,SMDPad,CuDef*%
%ADD42RoundRect,0.075000X-0.075000X-0.700000X0.075000X-0.700000X0.075000X0.700000X-0.075000X0.700000X0*%
%TD*%
%TA.AperFunction,SMDPad,CuDef*%
%ADD43RoundRect,0.225000X-0.250000X0.225000X-0.250000X-0.225000X0.250000X-0.225000X0.250000X0.225000X0*%
%TD*%
%TA.AperFunction,SMDPad,CuDef*%
%ADD44R,1.000000X1.800000*%
%TD*%
%TA.AperFunction,ViaPad*%
%ADD45C,0.600000*%
%TD*%
%TA.AperFunction,ViaPad*%
%ADD46C,0.500000*%
%TD*%
%TA.AperFunction,Conductor*%
%ADD47C,0.200000*%
%TD*%
%TA.AperFunction,Conductor*%
%ADD48C,0.400000*%
%TD*%
%TA.AperFunction,Conductor*%
%ADD49C,0.600000*%
%TD*%
%TA.AperFunction,Conductor*%
%ADD50C,0.300000*%
%TD*%
%TA.AperFunction,Conductor*%
%ADD51C,0.500000*%
%TD*%
%TA.AperFunction,Conductor*%
%ADD52C,0.150000*%
%TD*%
G04 APERTURE END LIST*
D10*
%TO.P,D6,2,A*%
%TO.N,Net-(D6-A)*%
X141000000Y-80000000D03*
%TO.P,D6,1,K*%
%TO.N,GND*%
X139425000Y-80000000D03*
%TD*%
D11*
%TO.P,U2,1,SDO/TA0*%
%TO.N,Net-(U2-SDO{slash}TA0)*%
X152214000Y-87848299D03*
%TO.P,U2,2,RES*%
%TO.N,GND*%
X152214000Y-88348300D03*
%TO.P,U2,3,RES*%
X152214000Y-88848300D03*
%TO.P,U2,4,INT1*%
%TO.N,INT1*%
X152214000Y-89348301D03*
D12*
%TO.P,U2,5,VDDIO*%
%TO.N,+2V8*%
X152857001Y-89500000D03*
%TO.P,U2,6,AH1/BIO1*%
%TO.N,GND*%
X153357000Y-89500000D03*
%TO.P,U2,7,GND*%
X153856999Y-89500000D03*
D11*
%TO.P,U2,8,VDD*%
%TO.N,+2V8*%
X154500000Y-89348301D03*
%TO.P,U2,9,AH2/BIO2*%
%TO.N,GND*%
X154500000Y-88848300D03*
%TO.P,U2,10,INT2*%
%TO.N,INT2*%
X154500000Y-88348300D03*
%TO.P,U2,11,RES*%
%TO.N,unconnected-(U2-RES-Pad11)*%
X154500000Y-87848299D03*
D12*
%TO.P,U2,12,CS*%
%TO.N,CS*%
X153856999Y-87696600D03*
%TO.P,U2,13,SCL*%
%TO.N,Net-(U2-SCL)*%
X153357000Y-87696600D03*
%TO.P,U2,14,SDA*%
%TO.N,Net-(U2-SDA)*%
X152857001Y-87696600D03*
%TD*%
D13*
%TO.P,J2,1,SLEEVE*%
%TO.N,RL*%
X165850000Y-96000000D03*
D14*
%TO.P,J2,2,TIP*%
%TO.N,RA*%
X165750000Y-89200000D03*
D15*
%TO.P,J2,3,RING*%
%TO.N,LA*%
X159000000Y-93200000D03*
%TO.P,J2,10,TIP_SWITCH*%
%TO.N,unconnected-(J2-TIP_SWITCH-Pad10)*%
X159000000Y-87400000D03*
%TD*%
D16*
%TO.P,IC2,1,HPDRIVE*%
%TO.N,Net-(IC2-HPDRIVE)*%
X164700000Y-79250000D03*
%TO.P,IC2,2,+IN*%
%TO.N,Net-(IC2-+IN)*%
X164700000Y-78750000D03*
%TO.P,IC2,3,-IN*%
%TO.N,Net-(IC2--IN)*%
X164700000Y-78250000D03*
%TO.P,IC2,4,RLDFB*%
%TO.N,Net-(IC2-RLDFB)*%
X164700000Y-77750000D03*
%TO.P,IC2,5,RLD*%
%TO.N,Net-(IC2-RLD)*%
X164700000Y-77250000D03*
D17*
%TO.P,IC2,6,SW*%
%TO.N,Net-(IC2-SW)*%
X163750000Y-76300000D03*
%TO.P,IC2,7,OPAMP+*%
%TO.N,Net-(IC2-OPAMP+)*%
X163250000Y-76300000D03*
%TO.P,IC2,8,REFOUT*%
%TO.N,AIN1*%
X162750000Y-76300000D03*
%TO.P,IC2,9,OPAMP-*%
%TO.N,Net-(IC2-OPAMP-)*%
X162250000Y-76300000D03*
%TO.P,IC2,10,OUT*%
%TO.N,AIN0*%
X161750000Y-76300000D03*
D16*
%TO.P,IC2,11,LOD-*%
%TO.N,LO-*%
X160800000Y-77250000D03*
%TO.P,IC2,12,LOD+*%
%TO.N,LO+*%
X160800000Y-77750000D03*
%TO.P,IC2,13,~{SDN}*%
%TO.N,SDN*%
X160800000Y-78250000D03*
%TO.P,IC2,14,AC/~{DC}*%
%TO.N,GND*%
X160800000Y-78750000D03*
%TO.P,IC2,15,FR*%
%TO.N,VDDA*%
X160800000Y-79250000D03*
D17*
%TO.P,IC2,16,GND_1*%
%TO.N,GND*%
X161750000Y-80200000D03*
%TO.P,IC2,17,+VS*%
%TO.N,VDDA*%
X162250000Y-80200000D03*
%TO.P,IC2,18,REFIN*%
%TO.N,Net-(IC2-REFIN)*%
X162750000Y-80200000D03*
%TO.P,IC2,19,IAOUT*%
%TO.N,Net-(IC2-IAOUT)*%
X163250000Y-80200000D03*
%TO.P,IC2,20,HPSENSE*%
%TO.N,Net-(IC2-HPSENSE)*%
X163750000Y-80200000D03*
D18*
%TO.P,IC2,21,GND_2*%
%TO.N,GND*%
X162750000Y-78250000D03*
%TD*%
D19*
%TO.P,D7,1,K*%
%TO.N,GND*%
X142500000Y-90522500D03*
%TO.P,D7,2,A*%
%TO.N,Net-(D7-A)*%
X142500000Y-88947500D03*
%TD*%
D10*
%TO.P,D5,1,K*%
%TO.N,GND*%
X139425000Y-78500000D03*
%TO.P,D5,2,A*%
%TO.N,Net-(D5-A)*%
X141000000Y-78500000D03*
%TD*%
%TO.P,D4,1,K*%
%TO.N,GND*%
X139425000Y-77000000D03*
%TO.P,D4,2,A*%
%TO.N,Net-(D4-A)*%
X141000000Y-77000000D03*
%TD*%
%TO.P,D3,1,K*%
%TO.N,GND*%
X139425000Y-75500000D03*
%TO.P,D3,2,A*%
%TO.N,Net-(D3-A)*%
X141000000Y-75500000D03*
%TD*%
D20*
%TO.P,R32,1*%
%TO.N,VIN*%
X146000000Y-89250000D03*
%TO.P,R32,2*%
%TO.N,Net-(D7-A)*%
X144350000Y-89250000D03*
%TD*%
D21*
%TO.P,C19,1*%
%TO.N,Net-(U1-PC14)*%
X144750000Y-76810000D03*
%TO.P,C19,2*%
%TO.N,GND*%
X144750000Y-75850000D03*
%TD*%
D22*
%TO.P,C30,1*%
%TO.N,+2V8*%
X152807000Y-91000000D03*
%TO.P,C30,2*%
%TO.N,GND*%
X154357000Y-91000000D03*
%TD*%
D23*
%TO.P,R9,1*%
%TO.N,VDDA*%
X167350000Y-83250000D03*
%TO.P,R9,2*%
%TO.N,LA*%
X169000000Y-83250000D03*
%TD*%
D24*
%TO.P,C27,1*%
%TO.N,Net-(C27-Pad1)*%
X161250000Y-71750000D03*
%TO.P,C27,2*%
%TO.N,AIN0*%
X159700000Y-71750000D03*
%TD*%
D25*
%TO.P,R12,1*%
%TO.N,Net-(C27-Pad1)*%
X166000000Y-72000000D03*
%TO.P,R12,2*%
%TO.N,Net-(IC2-OPAMP+)*%
X166000000Y-73650000D03*
%TD*%
D26*
%TO.P,C8,1*%
%TO.N,GND*%
X157403984Y-72903984D03*
%TO.P,C8,2*%
%TO.N,+2V8*%
X158500000Y-74000000D03*
%TD*%
D25*
%TO.P,R11,1*%
%TO.N,Net-(C27-Pad1)*%
X167500000Y-72000000D03*
%TO.P,R11,2*%
%TO.N,Net-(IC2-SW)*%
X167500000Y-73650000D03*
%TD*%
D27*
%TO.P,C24,1*%
%TO.N,Net-(IC2-HPSENSE)*%
X166500000Y-81650000D03*
%TO.P,C24,2*%
%TO.N,Net-(IC2-HPDRIVE)*%
X166500000Y-79750000D03*
%TD*%
D28*
%TO.P,C28,1*%
%TO.N,Net-(IC2-SW)*%
X167750000Y-75500000D03*
%TO.P,C28,2*%
%TO.N,Net-(IC2-IAOUT)*%
X169650000Y-75500000D03*
%TD*%
D29*
%TO.P,J3,A1,GND*%
%TO.N,GND*%
X148050000Y-92820000D03*
%TO.P,J3,A4,VBUS*%
%TO.N,Net-(D2-A)*%
X148850000Y-92820000D03*
D30*
%TO.P,J3,A5,CC1*%
%TO.N,Net-(J3-CC1)*%
X150000000Y-92820000D03*
%TO.P,J3,A6,D+*%
%TO.N,D+*%
X151000000Y-92820000D03*
%TO.P,J3,A7,D-*%
%TO.N,D-*%
X151500000Y-92820000D03*
%TO.P,J3,A8,SBU1*%
%TO.N,unconnected-(J3-SBU1-PadA8)*%
X152500000Y-92820000D03*
D29*
%TO.P,J3,A9,VBUS*%
%TO.N,Net-(D2-A)*%
X153650000Y-92820000D03*
%TO.P,J3,A12,GND*%
%TO.N,GND*%
X154450000Y-92820000D03*
%TO.P,J3,B1,GND*%
X154450000Y-92820000D03*
%TO.P,J3,B4,VBUS*%
%TO.N,Net-(D2-A)*%
X153650000Y-92820000D03*
D30*
%TO.P,J3,B5,CC2*%
%TO.N,Net-(J3-CC2)*%
X153000000Y-92820000D03*
%TO.P,J3,B6,D+*%
%TO.N,D+*%
X152000000Y-92820000D03*
%TO.P,J3,B7,D-*%
%TO.N,D-*%
X150500000Y-92820000D03*
%TO.P,J3,B8,SBU2*%
%TO.N,unconnected-(J3-SBU2-PadB8)*%
X149500000Y-92820000D03*
D29*
%TO.P,J3,B9,VBUS*%
%TO.N,Net-(D2-A)*%
X148850000Y-92820000D03*
%TO.P,J3,B12,GND*%
%TO.N,GND*%
X148050000Y-92820000D03*
D31*
%TO.P,J3,S1,SHIELD*%
X146930000Y-93395000D03*
D32*
X146930000Y-97575000D03*
D31*
X155570000Y-93395000D03*
D32*
X155570000Y-97575000D03*
%TD*%
D33*
%TO.P,C18,1*%
%TO.N,GND*%
X143750000Y-75850000D03*
%TO.P,C18,2*%
%TO.N,Net-(U1-PC15)*%
X143750000Y-76810000D03*
%TD*%
D34*
%TO.P,R13,1*%
%TO.N,Net-(IC2-SW)*%
X164500000Y-73650000D03*
%TO.P,R13,2*%
%TO.N,AIN1*%
X164500000Y-72000000D03*
%TD*%
D35*
%TO.P,J1,1,Pin_1*%
%TO.N,+2V8*%
X172365000Y-79170000D03*
D36*
%TO.P,J1,2,Pin_2*%
%TO.N,SWCLK*%
X172365000Y-81710000D03*
%TO.P,J1,3,Pin_3*%
%TO.N,GND*%
X172365000Y-84250000D03*
%TO.P,J1,4,Pin_4*%
%TO.N,SWDIO*%
X172365000Y-86790000D03*
%TO.P,J1,5,Pin_5*%
%TO.N,NRST*%
X172365000Y-89330000D03*
%TD*%
D25*
%TO.P,R7,1*%
%TO.N,Net-(IC2--IN)*%
X168250000Y-78675000D03*
%TO.P,R7,2*%
%TO.N,RA*%
X168250000Y-80325000D03*
%TD*%
D34*
%TO.P,R16,1*%
%TO.N,Net-(U2-SDO{slash}TA0)*%
X150500000Y-89650000D03*
%TO.P,R16,2*%
%TO.N,SDO*%
X150500000Y-88000000D03*
%TD*%
D25*
%TO.P,R14,1*%
%TO.N,AIN1*%
X162750000Y-72000000D03*
%TO.P,R14,2*%
%TO.N,Net-(IC2-OPAMP-)*%
X162750000Y-73650000D03*
%TD*%
D20*
%TO.P,R10,1*%
%TO.N,RA*%
X167500000Y-84750000D03*
%TO.P,R10,2*%
%TO.N,VDDA*%
X165850000Y-84750000D03*
%TD*%
D24*
%TO.P,C22,1*%
%TO.N,VDDA*%
X161250000Y-81750000D03*
%TO.P,C22,2*%
%TO.N,GND*%
X159700000Y-81750000D03*
%TD*%
D25*
%TO.P,R6,1*%
%TO.N,Net-(IC2-+IN)*%
X169750000Y-79500000D03*
%TO.P,R6,2*%
%TO.N,LA*%
X169750000Y-81150000D03*
%TD*%
D37*
%TO.P,C26,1*%
%TO.N,Net-(IC2-OPAMP+)*%
X163750000Y-75000000D03*
%TO.P,C26,2*%
%TO.N,AIN1*%
X162790000Y-75000000D03*
%TD*%
D38*
%TO.P,C17,1*%
%TO.N,GND*%
X144040000Y-79350000D03*
%TO.P,C17,2*%
%TO.N,Net-(U1-PH1)*%
X145000000Y-79350000D03*
%TD*%
%TO.P,C16,1*%
%TO.N,GND*%
X144040000Y-78100000D03*
%TO.P,C16,2*%
%TO.N,Net-(U1-PH0)*%
X145000000Y-78100000D03*
%TD*%
D39*
%TO.P,Y1,1,1*%
%TO.N,Net-(U1-PH0)*%
X142800000Y-80850000D03*
%TO.P,Y1,2,G*%
%TO.N,GND*%
X142800000Y-83050000D03*
%TO.P,Y1,3,3*%
%TO.N,Net-(U1-PH1)*%
X144500000Y-83050000D03*
%TO.P,Y1,4,G*%
%TO.N,GND*%
X144500000Y-80850000D03*
%TD*%
D40*
%TO.P,C23,1*%
%TO.N,GND*%
X161250000Y-84775000D03*
%TO.P,C23,2*%
%TO.N,Net-(IC2-REFIN)*%
X161250000Y-83225000D03*
%TD*%
D41*
%TO.P,U1,1,VBAT*%
%TO.N,+2V8*%
X146575000Y-75850000D03*
%TO.P,U1,2,PC13*%
%TO.N,unconnected-(U1-PC13-Pad2)*%
X146575000Y-76350000D03*
%TO.P,U1,3,PC14*%
%TO.N,Net-(U1-PC14)*%
X146575000Y-76850000D03*
%TO.P,U1,4,PC15*%
%TO.N,Net-(U1-PC15)*%
X146575000Y-77350000D03*
%TO.P,U1,5,PH0*%
%TO.N,Net-(U1-PH0)*%
X146575000Y-77850000D03*
%TO.P,U1,6,PH1*%
%TO.N,Net-(U1-PH1)*%
X146575000Y-78350000D03*
%TO.P,U1,7,NRST*%
%TO.N,NRST*%
X146575000Y-78850000D03*
%TO.P,U1,8,PC0*%
%TO.N,unconnected-(U1-PC0-Pad8)*%
X146575000Y-79350000D03*
%TO.P,U1,9,PC1*%
%TO.N,unconnected-(U1-PC1-Pad9)*%
X146575000Y-79850000D03*
%TO.P,U1,10,PC2*%
%TO.N,unconnected-(U1-PC2-Pad10)*%
X146575000Y-80350000D03*
%TO.P,U1,11,PC3*%
%TO.N,unconnected-(U1-PC3-Pad11)*%
X146575000Y-80850000D03*
%TO.P,U1,12,VSSA*%
%TO.N,GND*%
X146575000Y-81350000D03*
%TO.P,U1,13,VDDA*%
%TO.N,VDDA*%
X146575000Y-81850000D03*
%TO.P,U1,14,PA0*%
%TO.N,INT1*%
X146575000Y-82350000D03*
%TO.P,U1,15,PA1*%
%TO.N,INT2*%
X146575000Y-82850000D03*
%TO.P,U1,16,PA2*%
%TO.N,PA2*%
X146575000Y-83350000D03*
D42*
%TO.P,U1,17,PA3*%
%TO.N,CS*%
X148500000Y-85275000D03*
%TO.P,U1,18,VSS*%
%TO.N,GND*%
X149000000Y-85275000D03*
%TO.P,U1,19,VDD*%
%TO.N,+2V8*%
X149500000Y-85275000D03*
%TO.P,U1,20,PA4*%
%TO.N,unconnected-(U1-PA4-Pad20)*%
X150000000Y-85275000D03*
%TO.P,U1,21,PA5*%
%TO.N,SCL*%
X150500000Y-85275000D03*
%TO.P,U1,22,PA6*%
%TO.N,SDO*%
X151000000Y-85275000D03*
%TO.P,U1,23,PA7*%
%TO.N,SDA*%
X151500000Y-85275000D03*
%TO.P,U1,24,PB0*%
%TO.N,AIN0*%
X152000000Y-85275000D03*
%TO.P,U1,25,PB1*%
%TO.N,AIN1*%
X152500000Y-85275000D03*
%TO.P,U1,26,PB2*%
%TO.N,unconnected-(U1-PB2-Pad26)*%
X153000000Y-85275000D03*
%TO.P,U1,27,PB10*%
%TO.N,unconnected-(U1-PB10-Pad27)*%
X153500000Y-85275000D03*
%TO.P,U1,28,VLXSMPS*%
%TO.N,Net-(U1-VLXSMPS)*%
X154000000Y-85275000D03*
%TO.P,U1,29,VDDSMPS*%
%TO.N,+2V8*%
X154500000Y-85275000D03*
%TO.P,U1,30,VSSSMPS*%
%TO.N,GND*%
X155000000Y-85275000D03*
%TO.P,U1,31,VDD11*%
%TO.N,Net-(C10-Pad2)*%
X155500000Y-85275000D03*
%TO.P,U1,32,VSS*%
%TO.N,GND*%
X156000000Y-85275000D03*
D41*
%TO.P,U1,33,VDD*%
%TO.N,+2V8*%
X157925000Y-83350000D03*
%TO.P,U1,34,PB13*%
%TO.N,unconnected-(U1-PB13-Pad34)*%
X157925000Y-82850000D03*
%TO.P,U1,35,PB14*%
%TO.N,unconnected-(U1-PB14-Pad35)*%
X157925000Y-82350000D03*
%TO.P,U1,36,PB15*%
%TO.N,unconnected-(U1-PB15-Pad36)*%
X157925000Y-81850000D03*
%TO.P,U1,37,PC6*%
%TO.N,unconnected-(U1-PC6-Pad37)*%
X157925000Y-81350000D03*
%TO.P,U1,38,PC7*%
%TO.N,unconnected-(U1-PC7-Pad38)*%
X157925000Y-80850000D03*
%TO.P,U1,39,PC8*%
%TO.N,LO+*%
X157925000Y-80350000D03*
%TO.P,U1,40,PC9*%
%TO.N,LO-*%
X157925000Y-79850000D03*
%TO.P,U1,41,PA8*%
%TO.N,SDN*%
X157925000Y-79350000D03*
%TO.P,U1,42,PA9*%
%TO.N,unconnected-(U1-PA9-Pad42)*%
X157925000Y-78850000D03*
%TO.P,U1,43,PA10*%
%TO.N,unconnected-(U1-PA10-Pad43)*%
X157925000Y-78350000D03*
%TO.P,U1,44,PA11*%
%TO.N,D-*%
X157925000Y-77850000D03*
%TO.P,U1,45,PA12*%
%TO.N,D+*%
X157925000Y-77350000D03*
%TO.P,U1,46,PA13*%
%TO.N,SWDIO*%
X157925000Y-76850000D03*
%TO.P,U1,47,VSS*%
%TO.N,GND*%
X157925000Y-76350000D03*
%TO.P,U1,48,VDDUSB*%
%TO.N,+2V8*%
X157925000Y-75850000D03*
D42*
%TO.P,U1,49,PA14*%
%TO.N,SWCLK*%
X156000000Y-73925000D03*
%TO.P,U1,50,PA15*%
%TO.N,unconnected-(U1-PA15-Pad50)*%
X155500000Y-73925000D03*
%TO.P,U1,51,PC10*%
%TO.N,CLK-Flash*%
X155000000Y-73925000D03*
%TO.P,U1,52,PC11*%
%TO.N,DO-Flash*%
X154500000Y-73925000D03*
%TO.P,U1,53,PC12*%
%TO.N,DI-Flash*%
X154000000Y-73925000D03*
%TO.P,U1,54,PD2*%
%TO.N,CS-Flash*%
X153500000Y-73925000D03*
%TO.P,U1,55,PB3*%
%TO.N,Net-(U1-PB3)*%
X153000000Y-73925000D03*
%TO.P,U1,56,PB4*%
%TO.N,Net-(U1-PB4)*%
X152500000Y-73925000D03*
%TO.P,U1,57,PB5*%
%TO.N,Net-(U1-PB5)*%
X152000000Y-73925000D03*
%TO.P,U1,58,PB6*%
%TO.N,Net-(U1-PB6)*%
X151500000Y-73925000D03*
%TO.P,U1,59,PB7*%
%TO.N,unconnected-(U1-PB7-Pad59)*%
X151000000Y-73925000D03*
%TO.P,U1,60,PH3*%
%TO.N,Net-(U1-PH3)*%
X150500000Y-73925000D03*
%TO.P,U1,61,PB8*%
%TO.N,unconnected-(U1-PB8-Pad61)*%
X150000000Y-73925000D03*
%TO.P,U1,62,VDD11*%
%TO.N,Net-(C10-Pad2)*%
X149500000Y-73925000D03*
%TO.P,U1,63,VSS*%
%TO.N,GND*%
X149000000Y-73925000D03*
%TO.P,U1,64,VDD*%
%TO.N,+2V8*%
X148500000Y-73925000D03*
%TD*%
D43*
%TO.P,C29,1*%
%TO.N,+2V8*%
X155857000Y-89450000D03*
%TO.P,C29,2*%
%TO.N,GND*%
X155857000Y-91000000D03*
%TD*%
D24*
%TO.P,C6,1*%
%TO.N,GND*%
X149750000Y-72100000D03*
%TO.P,C6,2*%
%TO.N,+2V8*%
X148200000Y-72100000D03*
%TD*%
D23*
%TO.P,R4,1*%
%TO.N,GND*%
X162850000Y-84750000D03*
%TO.P,R4,2*%
%TO.N,Net-(IC2-REFIN)*%
X164500000Y-84750000D03*
%TD*%
D34*
%TO.P,R3,1*%
%TO.N,VDDA*%
X162750000Y-83250000D03*
%TO.P,R3,2*%
%TO.N,Net-(IC2-REFIN)*%
X162750000Y-81600000D03*
%TD*%
D20*
%TO.P,R8,1*%
%TO.N,RL*%
X169500000Y-77250000D03*
%TO.P,R8,2*%
%TO.N,Net-(IC2-RLD)*%
X167850000Y-77250000D03*
%TD*%
D25*
%TO.P,R15,1*%
%TO.N,AIN0*%
X161250000Y-73250000D03*
%TO.P,R15,2*%
%TO.N,Net-(IC2-OPAMP-)*%
X161250000Y-74900000D03*
%TD*%
D44*
%TO.P,Y2,1,1*%
%TO.N,Net-(U1-PC14)*%
X145500000Y-74100000D03*
%TO.P,Y2,2,2*%
%TO.N,Net-(U1-PC15)*%
X143000000Y-74100000D03*
%TD*%
D34*
%TO.P,R5,1*%
%TO.N,Net-(IC2-IAOUT)*%
X164750000Y-83250000D03*
%TO.P,R5,2*%
%TO.N,Net-(IC2-HPSENSE)*%
X164750000Y-81600000D03*
%TD*%
D35*
%TO.P,J4,1,Pin_1*%
%TO.N,Net-(D1-A)*%
X140000000Y-87225000D03*
D36*
%TO.P,J4,2,Pin_2*%
%TO.N,GND*%
X140000000Y-89765000D03*
%TD*%
D43*
%TO.P,C25,1*%
%TO.N,Net-(IC2-RLD)*%
X166250000Y-75950000D03*
%TO.P,C25,2*%
%TO.N,Net-(IC2-RLDFB)*%
X166250000Y-77500000D03*
%TD*%
D45*
%TO.N,GND*%
X143250000Y-91500000D03*
X141150000Y-82900000D03*
X138850000Y-82900000D03*
%TO.N,+2V8*%
X148750000Y-79000000D03*
%TO.N,Net-(U1-VLXSMPS)*%
X154048563Y-83998334D03*
%TO.N,GND*%
X160750000Y-95250000D03*
X164000000Y-94250000D03*
%TO.N,Net-(D5-A)*%
X139000000Y-81250000D03*
%TO.N,Net-(D4-A)*%
X139250000Y-74250000D03*
%TO.N,Net-(D6-A)*%
X140000000Y-81000000D03*
%TO.N,Net-(D3-A)*%
X140250000Y-74750000D03*
%TO.N,GND*%
X146500000Y-71750000D03*
D46*
X149125000Y-72725000D03*
D45*
%TO.N,Net-(U1-PB3)*%
X153100000Y-72250000D03*
%TO.N,Net-(U1-PB4)*%
X152452326Y-71366930D03*
%TO.N,Net-(U1-PB5)*%
X151750000Y-71750000D03*
%TO.N,Net-(U1-PB6)*%
X151250000Y-72500000D03*
D46*
%TO.N,GND*%
X150847637Y-71759246D03*
D45*
X138300000Y-76750000D03*
X138300000Y-78750000D03*
%TO.N,VIN*%
X145500000Y-88250000D03*
D46*
%TO.N,Net-(D2-A)*%
X149500000Y-91500000D03*
X153250000Y-94200000D03*
%TO.N,Net-(J3-CC2)*%
X152550000Y-93952541D03*
D45*
%TO.N,+2V8*%
X152000000Y-90650000D03*
D46*
%TO.N,LO+*%
X155717465Y-78222068D03*
D45*
%TO.N,GND*%
X156609287Y-75609287D03*
D46*
%TO.N,LO-*%
X156372225Y-77974499D03*
D45*
%TO.N,GND*%
X154000000Y-97000000D03*
X151500000Y-96750000D03*
X151500000Y-97750000D03*
D46*
%TO.N,Net-(D2-A)*%
X146250000Y-95500000D03*
D45*
%TO.N,GND*%
X147500000Y-94750000D03*
%TO.N,Net-(J3-CC1)*%
X150000000Y-94000000D03*
%TO.N,GND*%
X152941234Y-88712500D03*
X148850000Y-86550000D03*
X149250000Y-88250000D03*
X162000000Y-85500000D03*
D46*
X143717598Y-79989502D03*
X144250000Y-75100000D03*
D45*
X152250000Y-80250000D03*
X161250000Y-80500000D03*
X151250000Y-80250000D03*
X159841177Y-79091177D03*
X155000000Y-86500000D03*
X148000000Y-80850000D03*
D46*
X147750000Y-84100000D03*
D45*
X155874265Y-81375735D03*
X159750000Y-83850000D03*
X145250000Y-90500000D03*
D46*
X143750000Y-81850000D03*
D45*
X141500000Y-85250000D03*
X156142229Y-88034458D03*
X156712528Y-73782730D03*
X167650000Y-82250000D03*
X156500000Y-85000000D03*
X165500000Y-80750000D03*
X164000000Y-88000000D03*
X156607000Y-91000000D03*
X152112737Y-75304094D03*
X149000000Y-77000000D03*
D46*
X144250000Y-74350000D03*
X143250000Y-78100000D03*
X149784794Y-84068242D03*
D45*
X143687080Y-90054437D03*
D46*
X160250000Y-82500000D03*
D45*
X164438180Y-75688180D03*
X163250000Y-87250000D03*
%TO.N,+2V8*%
X164500000Y-80000000D03*
X146500000Y-75250000D03*
X144899000Y-84750000D03*
X149649675Y-86527124D03*
D46*
X150254809Y-75123012D03*
D45*
X143500000Y-88000000D03*
X156500000Y-88750000D03*
X158500000Y-75000000D03*
X153249031Y-84025768D03*
X152550000Y-76250000D03*
X144250000Y-88000000D03*
X142500000Y-88000000D03*
X168500000Y-73250000D03*
X158750000Y-84000000D03*
X149750000Y-77500000D03*
X147750000Y-73250000D03*
X151512487Y-76025787D03*
%TO.N,Net-(C10-Pad2)*%
X155500000Y-84000000D03*
X150765840Y-75738519D03*
%TO.N,VDDA*%
X159945475Y-80775000D03*
X166250000Y-83250000D03*
X162750000Y-82500000D03*
X152507573Y-77999999D03*
D46*
X148780331Y-81130331D03*
D45*
%TO.N,AIN1*%
X162160931Y-72748999D03*
X156000000Y-76250000D03*
%TO.N,Net-(IC2-IAOUT)*%
X170500000Y-77109000D03*
X165500000Y-82500000D03*
%TO.N,LO+*%
X159250000Y-77750000D03*
%TO.N,LO-*%
X159752983Y-77008949D03*
D46*
%TO.N,Net-(U1-PH3)*%
X150500000Y-72850000D03*
D45*
%TO.N,Net-(U2-SDA)*%
X153000000Y-86750000D03*
%TO.N,SDA*%
X151750000Y-86750000D03*
%TO.N,Net-(U2-SCL)*%
X153712498Y-88500000D03*
%TO.N,SCL*%
X150282071Y-87026100D03*
%TO.N,CS*%
X154000000Y-86750000D03*
X148048675Y-86500000D03*
%TO.N,INT2*%
X144250000Y-84250000D03*
X150500000Y-83500000D03*
%TO.N,NRST*%
X142500000Y-84250000D03*
X148129283Y-77347091D03*
%TO.N,SWCLK*%
X157500000Y-71250000D03*
%TO.N,SWDIO*%
X159500000Y-76250000D03*
%TO.N,PA2*%
X146250000Y-84000000D03*
%TO.N,CS-Flash*%
X169250000Y-73750000D03*
D46*
%TO.N,CLK-Flash*%
X155442227Y-75149999D03*
D45*
%TO.N,DI-Flash*%
X153296890Y-75666123D03*
%TO.N,DO-Flash*%
X154750000Y-72500000D03*
%TD*%
D47*
%TO.N,Net-(D4-A)*%
X139250000Y-74250000D02*
X139351000Y-74149000D01*
X139351000Y-74149000D02*
X140865100Y-74149000D01*
X140865100Y-74149000D02*
X141738500Y-75022400D01*
X141738500Y-75022400D02*
X141738500Y-76261500D01*
X141738500Y-76261500D02*
X141000000Y-77000000D01*
%TO.N,Net-(D3-A)*%
X140250000Y-74750000D02*
X141000000Y-75500000D01*
%TO.N,Net-(D5-A)*%
X139000000Y-81250000D02*
X139351000Y-81601000D01*
X139351000Y-81601000D02*
X140615100Y-81601000D01*
X140615100Y-81601000D02*
X141738500Y-80477600D01*
X141738500Y-80477600D02*
X141738500Y-79238500D01*
X141738500Y-79238500D02*
X141000000Y-78500000D01*
%TO.N,Net-(D6-A)*%
X140000000Y-81000000D02*
X141000000Y-80000000D01*
%TO.N,GND*%
X142500000Y-90522500D02*
X142500000Y-90750000D01*
X142500000Y-90750000D02*
X143250000Y-91500000D01*
%TO.N,Net-(D7-A)*%
X144350000Y-89250000D02*
X142802500Y-89250000D01*
X142802500Y-89250000D02*
X142500000Y-88947500D01*
%TO.N,Net-(IC2-IAOUT)*%
X164750000Y-83250000D02*
X165500000Y-82500000D01*
%TO.N,LO-*%
X160800000Y-77250000D02*
X159994034Y-77250000D01*
X159994034Y-77250000D02*
X159752983Y-77008949D01*
%TO.N,+2V8*%
X154500000Y-85275000D02*
X154500000Y-84396840D01*
X154500000Y-84396840D02*
X154750000Y-84146840D01*
X154750000Y-84146840D02*
X154750000Y-83625000D01*
X154750000Y-83625000D02*
X154375000Y-83250000D01*
X154375000Y-83250000D02*
X153750000Y-83250000D01*
X153750000Y-83250000D02*
X153249031Y-83750969D01*
X153249031Y-83750969D02*
X153249031Y-84025768D01*
%TO.N,Net-(U1-VLXSMPS)*%
X154000000Y-85275000D02*
X154000000Y-84046897D01*
X154000000Y-84046897D02*
X154048563Y-83998334D01*
%TO.N,CLK-Flash*%
X155287214Y-75149999D02*
X155000000Y-74862785D01*
X155442227Y-75149999D02*
X155287214Y-75149999D01*
X155000000Y-74862785D02*
X155000000Y-73925000D01*
D48*
%TO.N,GND*%
X138500000Y-78750000D02*
X139000000Y-78250000D01*
X139000000Y-78250000D02*
X139500000Y-78250000D01*
X138300000Y-78750000D02*
X138500000Y-78750000D01*
X138500000Y-78750000D02*
X139010000Y-79260000D01*
X139010000Y-79260000D02*
X139500000Y-79260000D01*
X138300000Y-76750000D02*
X138500000Y-76750000D01*
X138500000Y-76750000D02*
X139000000Y-77250000D01*
X139000000Y-77250000D02*
X139500000Y-77250000D01*
X138500000Y-76750000D02*
X139000000Y-76250000D01*
X139000000Y-76250000D02*
X139500000Y-76250000D01*
D47*
%TO.N,Net-(U1-PB3)*%
X153000000Y-72350000D02*
X153000000Y-73925000D01*
X153100000Y-72250000D02*
X153000000Y-72350000D01*
%TO.N,Net-(U1-PB4)*%
X152500000Y-73925000D02*
X152500000Y-71414604D01*
X152500000Y-71414604D02*
X152452326Y-71366930D01*
%TO.N,Net-(U1-PB5)*%
X151750000Y-71750000D02*
X152000000Y-72000000D01*
X152000000Y-72000000D02*
X152000000Y-73925000D01*
%TO.N,Net-(U1-PB6)*%
X151250000Y-72500000D02*
X151500000Y-72750000D01*
X151500000Y-72750000D02*
X151500000Y-73925000D01*
D49*
%TO.N,GND*%
X149750000Y-72100000D02*
X150506883Y-72100000D01*
X150506883Y-72100000D02*
X150847637Y-71759246D01*
D47*
%TO.N,VIN*%
X146000000Y-88750000D02*
X145500000Y-88250000D01*
X146000000Y-89250000D02*
X146000000Y-88750000D01*
%TO.N,Net-(D2-A)*%
X153650000Y-92820000D02*
X153464000Y-93006000D01*
X153464000Y-93006000D02*
X153464000Y-93986000D01*
X153464000Y-93986000D02*
X153250000Y-94200000D01*
X149500000Y-91500000D02*
X148850000Y-92150000D01*
X148850000Y-92150000D02*
X148850000Y-92820000D01*
%TO.N,Net-(J3-CC2)*%
X153000000Y-93502541D02*
X152550000Y-93952541D01*
X153000000Y-92820000D02*
X153000000Y-93502541D01*
%TO.N,D+*%
X159977000Y-85750000D02*
X158250000Y-85750000D01*
X160576000Y-86349000D02*
X159977000Y-85750000D01*
X154500000Y-82000000D02*
X154500000Y-78004244D01*
X160576000Y-88451000D02*
X160576000Y-86349000D01*
X155504244Y-77000000D02*
X156750000Y-77000000D01*
X156500000Y-92527000D02*
X160576000Y-88451000D01*
X156500000Y-94250000D02*
X156500000Y-92527000D01*
X156000000Y-94750000D02*
X156500000Y-94250000D01*
X158250000Y-85750000D02*
X154500000Y-82000000D01*
X152000000Y-92820000D02*
X152000000Y-94182900D01*
X152567100Y-94750000D02*
X156000000Y-94750000D01*
X154500000Y-78004244D02*
X155504244Y-77000000D01*
X157100000Y-77350000D02*
X157925000Y-77350000D01*
X152000000Y-94182900D02*
X152567100Y-94750000D01*
X156750000Y-77000000D02*
X157100000Y-77350000D01*
%TO.N,D-*%
X155000000Y-78102885D02*
X155679386Y-77423499D01*
X155679386Y-77423499D02*
X156606399Y-77423499D01*
X155000000Y-81849000D02*
X155000000Y-78102885D01*
X160044100Y-85250000D02*
X158401000Y-85250000D01*
X157032900Y-77850000D02*
X157925000Y-77850000D01*
X160977000Y-86182900D02*
X160044100Y-85250000D01*
X156901000Y-92693100D02*
X160977000Y-88617100D01*
X156901000Y-94416100D02*
X156901000Y-92693100D01*
X158401000Y-85250000D02*
X155000000Y-81849000D01*
X156166100Y-95151000D02*
X156901000Y-94416100D01*
X160977000Y-88617100D02*
X160977000Y-86182900D01*
X156606399Y-77423499D02*
X157032900Y-77850000D01*
X152401000Y-95151000D02*
X156166100Y-95151000D01*
X151500000Y-94250000D02*
X152401000Y-95151000D01*
X151500000Y-92820000D02*
X151500000Y-94250000D01*
%TO.N,INT2*%
X156564463Y-91892479D02*
X152248403Y-91892479D01*
X152248403Y-91892479D02*
X151107924Y-90752000D01*
X144250000Y-85156164D02*
X144250000Y-84250000D01*
X151107924Y-90752000D02*
X149845836Y-90752000D01*
X149845836Y-90752000D02*
X144250000Y-85156164D01*
D49*
%TO.N,+2V8*%
X152807000Y-91000000D02*
X152350000Y-91000000D01*
X152350000Y-91000000D02*
X152000000Y-90650000D01*
D47*
%TO.N,D+*%
X151000000Y-92820000D02*
X151000000Y-92211176D01*
X151000000Y-92211176D02*
X151267176Y-91944000D01*
X151267176Y-91944000D02*
X151732824Y-91944000D01*
X151732824Y-91944000D02*
X152000000Y-92211176D01*
X152000000Y-92211176D02*
X152000000Y-92820000D01*
%TO.N,D-*%
X150500000Y-92820000D02*
X150500000Y-93428824D01*
X150767176Y-93696000D02*
X151304000Y-93696000D01*
X151500000Y-93500000D02*
X151500000Y-92820000D01*
X150500000Y-93428824D02*
X150767176Y-93696000D01*
X151304000Y-93696000D02*
X151500000Y-93500000D01*
%TO.N,LO+*%
X155717465Y-78222068D02*
X155717465Y-79067465D01*
X155717465Y-79067465D02*
X157000000Y-80350000D01*
X157000000Y-80350000D02*
X157925000Y-80350000D01*
%TO.N,LO-*%
X157116176Y-79850000D02*
X157925000Y-79850000D01*
X156372225Y-77974499D02*
X156372225Y-78027774D01*
X156372225Y-78027774D02*
X156297724Y-78102275D01*
X156297724Y-78102275D02*
X156297724Y-79031548D01*
X156297724Y-79031548D02*
X157116176Y-79850000D01*
%TO.N,AIN1*%
X156000000Y-76250000D02*
X155687144Y-76250000D01*
X155687144Y-76250000D02*
X153252000Y-78685144D01*
X153252000Y-78685144D02*
X153252000Y-82899000D01*
X153252000Y-82899000D02*
X152500000Y-83651000D01*
X152500000Y-83651000D02*
X152500000Y-85275000D01*
%TO.N,GND*%
X156609287Y-75843111D02*
X156609287Y-75609287D01*
X157116176Y-76350000D02*
X156609287Y-75843111D01*
X157925000Y-76350000D02*
X157116176Y-76350000D01*
D50*
%TO.N,Net-(C10-Pad2)*%
X149500000Y-73925000D02*
X149500000Y-75288857D01*
X149500000Y-75288857D02*
X149985155Y-75774012D01*
X149985155Y-75774012D02*
X150730347Y-75774012D01*
X150730347Y-75774012D02*
X150765840Y-75738519D01*
D47*
%TO.N,NRST*%
X146575000Y-78850000D02*
X147400000Y-78850000D01*
X147400000Y-78850000D02*
X148129283Y-78120717D01*
X148129283Y-78120717D02*
X148129283Y-77347091D01*
D49*
%TO.N,GND*%
X162000000Y-85500000D02*
X161275000Y-84775000D01*
X161275000Y-84775000D02*
X161250000Y-84775000D01*
X154450000Y-92820000D02*
X154995000Y-92820000D01*
X154995000Y-92820000D02*
X155570000Y-93395000D01*
D47*
%TO.N,NRST*%
X172365000Y-89330000D02*
X172365000Y-92212000D01*
X172365000Y-92212000D02*
X167526000Y-97051000D01*
X155578785Y-96051000D02*
X145952057Y-96051000D01*
X167526000Y-97051000D02*
X156578785Y-97051000D01*
X156578785Y-97051000D02*
X155578785Y-96051000D01*
X142500000Y-85099943D02*
X142500000Y-84250000D01*
X145952057Y-96051000D02*
X141399000Y-91497943D01*
X141399000Y-91497943D02*
X141399000Y-86200943D01*
X141399000Y-86200943D02*
X142500000Y-85099943D01*
%TO.N,GND*%
X153357000Y-89500000D02*
X153357000Y-90000000D01*
X153357000Y-90000000D02*
X154357000Y-91000000D01*
%TO.N,INT2*%
X154500000Y-88348300D02*
X154901700Y-88348300D01*
X154901700Y-88348300D02*
X155816542Y-87433458D01*
X155816542Y-87433458D02*
X156391172Y-87433458D01*
X156391172Y-87433458D02*
X157208000Y-88250286D01*
X157208000Y-88250286D02*
X157208000Y-91248942D01*
X157208000Y-91248942D02*
X156564463Y-91892479D01*
D48*
%TO.N,Net-(D2-A)*%
X146029000Y-95279000D02*
X146250000Y-95500000D01*
X146656794Y-91844000D02*
X146029000Y-92471794D01*
X146029000Y-92471794D02*
X146029000Y-95279000D01*
X148594000Y-91844000D02*
X146656794Y-91844000D01*
X148850000Y-92100000D02*
X148594000Y-91844000D01*
X148850000Y-92820000D02*
X148850000Y-92100000D01*
D49*
%TO.N,GND*%
X148050000Y-92820000D02*
X147484000Y-93386000D01*
X147484000Y-93386000D02*
X147484000Y-94734000D01*
X147484000Y-94734000D02*
X147500000Y-94750000D01*
D47*
%TO.N,Net-(J3-CC1)*%
X150000000Y-92820000D02*
X150000000Y-94000000D01*
%TO.N,Net-(IC2-IAOUT)*%
X170500000Y-77109000D02*
X170500000Y-76350000D01*
X170500000Y-76350000D02*
X169650000Y-75500000D01*
%TO.N,GND*%
X155965542Y-88034458D02*
X155151700Y-88848300D01*
X153856999Y-90499999D02*
X154357000Y-91000000D01*
X152214000Y-88848300D02*
X152805434Y-88848300D01*
D50*
X146575000Y-81350000D02*
X147500000Y-81350000D01*
D47*
X152214000Y-88348300D02*
X152214000Y-88848300D01*
D50*
X161250000Y-80500000D02*
X161450000Y-80500000D01*
X160182354Y-78750000D02*
X160800000Y-78750000D01*
D49*
X159700000Y-81750000D02*
X159700000Y-81950000D01*
X157403984Y-73091274D02*
X156712528Y-73782730D01*
D47*
X161750000Y-80200000D02*
X161750000Y-79250000D01*
X153357000Y-89500000D02*
X153856999Y-89500000D01*
X156142229Y-88034458D02*
X155965542Y-88034458D01*
X162250000Y-78750000D02*
X162750000Y-78250000D01*
X162850000Y-84750000D02*
X161275000Y-84750000D01*
D49*
X155857000Y-91000000D02*
X154357000Y-91000000D01*
X157403984Y-72903984D02*
X157403984Y-73091274D01*
X155857000Y-91000000D02*
X156607000Y-91000000D01*
D50*
X147500000Y-81350000D02*
X148000000Y-80850000D01*
D47*
X161275000Y-84750000D02*
X161250000Y-84775000D01*
D50*
X161450000Y-80500000D02*
X161750000Y-80200000D01*
X149000000Y-86400000D02*
X148850000Y-86550000D01*
D49*
X159700000Y-81950000D02*
X160250000Y-82500000D01*
D47*
X157403984Y-73197514D02*
X157403984Y-72903984D01*
D50*
X159841177Y-79091177D02*
X160182354Y-78750000D01*
X156225000Y-85275000D02*
X156500000Y-85000000D01*
X156000000Y-85275000D02*
X156225000Y-85275000D01*
D47*
X152805434Y-88848300D02*
X152941234Y-88712500D01*
D50*
X155000000Y-85275000D02*
X155000000Y-86500000D01*
D47*
X155151700Y-88848300D02*
X154500000Y-88848300D01*
X161750000Y-79250000D02*
X162750000Y-78250000D01*
X153856999Y-89500000D02*
X153856999Y-90499999D01*
D49*
X149750000Y-72100000D02*
X149151000Y-72699000D01*
D50*
X149000000Y-85275000D02*
X149000000Y-86400000D01*
D47*
X160800000Y-78750000D02*
X162250000Y-78750000D01*
D50*
%TO.N,+2V8*%
X149500000Y-86377449D02*
X149649675Y-86527124D01*
X149500000Y-85275000D02*
X149500000Y-86377449D01*
X158100000Y-83350000D02*
X158750000Y-84000000D01*
D47*
X152857001Y-90949999D02*
X152807000Y-91000000D01*
D50*
X146575000Y-75850000D02*
X146575000Y-75325000D01*
D49*
X156500000Y-88750000D02*
X156500000Y-88807000D01*
D47*
X152857001Y-89500000D02*
X152857001Y-90949999D01*
D49*
X147750000Y-72550000D02*
X148200000Y-72100000D01*
D50*
X148500000Y-73925000D02*
X148500000Y-72400000D01*
D47*
X154500000Y-89348301D02*
X155755301Y-89348301D01*
D50*
X148500000Y-72400000D02*
X148200000Y-72100000D01*
D49*
X156500000Y-88807000D02*
X155857000Y-89450000D01*
D47*
X157925000Y-75850000D02*
X158500000Y-75275000D01*
D50*
X146575000Y-75325000D02*
X146500000Y-75250000D01*
D49*
X158500000Y-75000000D02*
X158500000Y-74000000D01*
X147750000Y-73250000D02*
X147750000Y-72550000D01*
D47*
X158500000Y-75275000D02*
X158500000Y-75000000D01*
X155755301Y-89348301D02*
X155857000Y-89450000D01*
D50*
X157925000Y-83350000D02*
X158100000Y-83350000D01*
D47*
%TO.N,Net-(C10-Pad2)*%
X155500000Y-85275000D02*
X155500000Y-84000000D01*
D50*
%TO.N,VDDA*%
X162250000Y-80840226D02*
X161340226Y-81750000D01*
X162250000Y-80200000D02*
X162250000Y-80840226D01*
X162750000Y-83250000D02*
X161250000Y-81750000D01*
X152507572Y-78000000D02*
X151910662Y-78000000D01*
D51*
X162750000Y-82500000D02*
X162750000Y-83250000D01*
D50*
X148060662Y-81850000D02*
X148780331Y-81130331D01*
X161340226Y-81750000D02*
X161250000Y-81750000D01*
D51*
X162750000Y-82500000D02*
X162000000Y-82500000D01*
D50*
X146575000Y-81850000D02*
X148060662Y-81850000D01*
X159945475Y-80775000D02*
X160026459Y-80775000D01*
D47*
X167350000Y-83250000D02*
X166250000Y-83250000D01*
D51*
X162000000Y-82500000D02*
X161250000Y-81750000D01*
D50*
X160800000Y-79920475D02*
X159945475Y-80775000D01*
D47*
X165850000Y-84750000D02*
X165850000Y-83650000D01*
D50*
X160800000Y-79250000D02*
X160800000Y-79920475D01*
D47*
X165850000Y-83650000D02*
X166250000Y-83250000D01*
D50*
X151910662Y-78000000D02*
X148780331Y-81130331D01*
X152507573Y-77999999D02*
X152507572Y-78000000D01*
D52*
%TO.N,Net-(U1-PH0)*%
X145250000Y-77850000D02*
X145000000Y-78100000D01*
X142800000Y-80850000D02*
X142800000Y-79609806D01*
X143723806Y-78686000D02*
X144414000Y-78686000D01*
X144414000Y-78686000D02*
X145000000Y-78100000D01*
X146575000Y-77850000D02*
X145250000Y-77850000D01*
X142800000Y-79609806D02*
X143723806Y-78686000D01*
%TO.N,Net-(U1-PH1)*%
X146575000Y-78350000D02*
X145800001Y-78350000D01*
X145000000Y-79150001D02*
X145000000Y-79350000D01*
X145800001Y-78350000D02*
X145000000Y-79150001D01*
X144500000Y-83050000D02*
X145376000Y-82174000D01*
X145376000Y-79726000D02*
X145000000Y-79350000D01*
X145376000Y-82174000D02*
X145376000Y-79726000D01*
%TO.N,Net-(U1-PC15)*%
X146575000Y-77350000D02*
X146559000Y-77366000D01*
X143000000Y-76060000D02*
X143750000Y-76810000D01*
X143000000Y-74100000D02*
X143000000Y-76060000D01*
X146559000Y-77366000D02*
X144306000Y-77366000D01*
X144306000Y-77366000D02*
X143750000Y-76810000D01*
%TO.N,Net-(U1-PC14)*%
X146575000Y-76850000D02*
X144790000Y-76850000D01*
X145500000Y-74100000D02*
X145500000Y-76060000D01*
X145500000Y-76060000D02*
X144750000Y-76810000D01*
X144790000Y-76850000D02*
X144750000Y-76810000D01*
D47*
%TO.N,Net-(IC2-REFIN)*%
X164500000Y-84750000D02*
X163526000Y-83776000D01*
X163526000Y-83776000D02*
X163526000Y-82376000D01*
X163526000Y-82376000D02*
X162750000Y-81600000D01*
X162750000Y-81600000D02*
X162750000Y-80200000D01*
X163701000Y-83951000D02*
X164500000Y-84750000D01*
X161250000Y-83225000D02*
X161976000Y-83951000D01*
X161976000Y-83951000D02*
X163701000Y-83951000D01*
%TO.N,Net-(IC2-HPDRIVE)*%
X166000000Y-79250000D02*
X166500000Y-79750000D01*
X164700000Y-79250000D02*
X166000000Y-79250000D01*
%TO.N,Net-(IC2-HPSENSE)*%
X163750000Y-80200000D02*
X163750000Y-80600000D01*
X166500000Y-81650000D02*
X164800000Y-81650000D01*
X163750000Y-80600000D02*
X164750000Y-81600000D01*
X164800000Y-81650000D02*
X164750000Y-81600000D01*
%TO.N,Net-(IC2-RLD)*%
X164700000Y-77250000D02*
X164950000Y-77250000D01*
X166550000Y-75950000D02*
X167850000Y-77250000D01*
X164950000Y-77250000D02*
X166250000Y-75950000D01*
X166250000Y-75950000D02*
X166550000Y-75950000D01*
%TO.N,Net-(IC2-RLDFB)*%
X166000000Y-77750000D02*
X166250000Y-77500000D01*
X164700000Y-77750000D02*
X166000000Y-77750000D01*
%TO.N,Net-(IC2-OPAMP+)*%
X163250000Y-75500000D02*
X163750000Y-75000000D01*
X163750000Y-75000000D02*
X164650000Y-75000000D01*
X163250000Y-76300000D02*
X163250000Y-75500000D01*
X164650000Y-75000000D02*
X166000000Y-73650000D01*
%TO.N,AIN1*%
X162750000Y-75040000D02*
X162790000Y-75000000D01*
X163526000Y-72776000D02*
X162750000Y-72000000D01*
X162750000Y-72159930D02*
X162160931Y-72748999D01*
X162750000Y-72000000D02*
X162750000Y-72159930D01*
X163526000Y-74264000D02*
X163526000Y-72776000D01*
X162790000Y-75000000D02*
X163526000Y-74264000D01*
X162750000Y-76300000D02*
X162750000Y-75040000D01*
X164500000Y-72000000D02*
X163000000Y-72000000D01*
%TO.N,Net-(C27-Pad1)*%
X161701000Y-71299000D02*
X161250000Y-71750000D01*
X166000000Y-72000000D02*
X167500000Y-72000000D01*
X165299000Y-71299000D02*
X161701000Y-71299000D01*
X166000000Y-72000000D02*
X165299000Y-71299000D01*
%TO.N,AIN0*%
X161250000Y-73250000D02*
X159750000Y-71750000D01*
X160474000Y-75374000D02*
X160474000Y-74026000D01*
X152851000Y-82615176D02*
X152000000Y-83466176D01*
X161750000Y-76300000D02*
X161400000Y-76300000D01*
X161400000Y-76300000D02*
X160474000Y-75374000D01*
X152000000Y-83466176D02*
X152000000Y-85275000D01*
X159750000Y-71750000D02*
X159700000Y-71750000D01*
X160474000Y-74026000D02*
X161250000Y-73250000D01*
X159620044Y-71750000D02*
X152851000Y-78519044D01*
X159700000Y-71750000D02*
X159620044Y-71750000D01*
X152851000Y-78519044D02*
X152851000Y-82615176D01*
%TO.N,Net-(IC2-SW)*%
X163750000Y-76300000D02*
X164674890Y-76300000D01*
X167324890Y-73650000D02*
X167500000Y-73650000D01*
X164674890Y-76300000D02*
X167324890Y-73650000D01*
X167500000Y-73650000D02*
X166799000Y-72949000D01*
X167750000Y-73900000D02*
X167500000Y-73650000D01*
X167750000Y-75500000D02*
X167750000Y-73900000D01*
X166799000Y-72949000D02*
X165201000Y-72949000D01*
X165201000Y-72949000D02*
X164500000Y-73650000D01*
%TO.N,Net-(IC2-IAOUT)*%
X163250000Y-80910936D02*
X163974000Y-81634936D01*
X163250000Y-80200000D02*
X163250000Y-80910936D01*
X163974000Y-82474000D02*
X164750000Y-83250000D01*
X163974000Y-81634936D02*
X163974000Y-82474000D01*
%TO.N,SDN*%
X160800000Y-78250000D02*
X159833824Y-78250000D01*
X158733824Y-79350000D02*
X157925000Y-79350000D01*
X159833824Y-78250000D02*
X158733824Y-79350000D01*
%TO.N,Net-(IC2--IN)*%
X164700000Y-78250000D02*
X167825000Y-78250000D01*
X167825000Y-78250000D02*
X168250000Y-78675000D01*
%TO.N,LO+*%
X160800000Y-77750000D02*
X159250000Y-77750000D01*
%TO.N,Net-(IC2-+IN)*%
X167885936Y-79500000D02*
X169750000Y-79500000D01*
X167135936Y-78750000D02*
X167885936Y-79500000D01*
X164700000Y-78750000D02*
X167135936Y-78750000D01*
%TO.N,Net-(IC2-OPAMP-)*%
X161725000Y-74900000D02*
X161250000Y-74900000D01*
X162250000Y-75425000D02*
X161725000Y-74900000D01*
X161250000Y-74900000D02*
X161500000Y-74900000D01*
X162250000Y-76300000D02*
X162250000Y-75425000D01*
X161500000Y-74900000D02*
X162750000Y-73650000D01*
%TO.N,LA*%
X169750000Y-82500000D02*
X169750000Y-88027000D01*
X169750000Y-81150000D02*
X169750000Y-82500000D01*
X169750000Y-88027000D02*
X164577000Y-93200000D01*
X169000000Y-83250000D02*
X169750000Y-82500000D01*
X164577000Y-93200000D02*
X159000000Y-93200000D01*
%TO.N,RL*%
X170526000Y-91324000D02*
X165850000Y-96000000D01*
X170526000Y-78276000D02*
X170526000Y-91324000D01*
X169500000Y-77250000D02*
X170526000Y-78276000D01*
%TO.N,RA*%
X168250000Y-86700000D02*
X165750000Y-89200000D01*
X167500000Y-84750000D02*
X168250000Y-84000000D01*
X168250000Y-80325000D02*
X168250000Y-84000000D01*
X168250000Y-84000000D02*
X168250000Y-86700000D01*
%TO.N,Net-(U1-PH3)*%
X150500000Y-73925000D02*
X150500000Y-72850000D01*
%TO.N,Net-(U2-SDO{slash}TA0)*%
X151649501Y-87848299D02*
X151276000Y-88221800D01*
X151276000Y-88221800D02*
X151276000Y-88874000D01*
X151276000Y-88874000D02*
X150500000Y-89650000D01*
X152214000Y-87848299D02*
X151649501Y-87848299D01*
%TO.N,SDO*%
X150500000Y-88000000D02*
X151000000Y-87500000D01*
X151000000Y-87500000D02*
X151000000Y-85275000D01*
%TO.N,Net-(U2-SDA)*%
X152857001Y-86892999D02*
X153000000Y-86750000D01*
X152857001Y-87696600D02*
X152857001Y-86892999D01*
%TO.N,SDA*%
X151500000Y-85275000D02*
X151500000Y-86500000D01*
X151500000Y-86500000D02*
X151750000Y-86750000D01*
%TO.N,Net-(U2-SCL)*%
X153357000Y-87696600D02*
X153357000Y-88144502D01*
X153357000Y-88144502D02*
X153712498Y-88500000D01*
%TO.N,SCL*%
X150500000Y-85275000D02*
X150500000Y-86808171D01*
X150500000Y-86808171D02*
X150282071Y-87026100D01*
%TO.N,CS*%
X154000000Y-86750000D02*
X153856999Y-86893001D01*
X148048675Y-86500000D02*
X148500000Y-86048675D01*
X148500000Y-86048675D02*
X148500000Y-85275000D01*
X153856999Y-86893001D02*
X153856999Y-87696600D01*
%TO.N,INT1*%
X145499000Y-84499943D02*
X145500000Y-84498943D01*
X150011936Y-90351000D02*
X145499000Y-85838064D01*
X145499000Y-85838064D02*
X145499000Y-84499943D01*
X145766176Y-82350000D02*
X146575000Y-82350000D01*
X145500000Y-84001057D02*
X145499000Y-84000057D01*
X145499000Y-82617176D02*
X145766176Y-82350000D01*
X151211301Y-90351000D02*
X150011936Y-90351000D01*
X145500000Y-84498943D02*
X145500000Y-84001057D01*
X152214000Y-89348301D02*
X151211301Y-90351000D01*
X145499000Y-84000057D02*
X145499000Y-82617176D01*
%TO.N,INT2*%
X149850000Y-82850000D02*
X146575000Y-82850000D01*
X150500000Y-83500000D02*
X149850000Y-82850000D01*
%TO.N,SWCLK*%
X156000000Y-72750000D02*
X156000000Y-73925000D01*
X157500000Y-71250000D02*
X156000000Y-72750000D01*
%TO.N,SWDIO*%
X159500000Y-76250000D02*
X158900000Y-76850000D01*
X158900000Y-76850000D02*
X157925000Y-76850000D01*
%TO.N,PA2*%
X146575000Y-83350000D02*
X146575000Y-83675000D01*
X146575000Y-83675000D02*
X146250000Y-84000000D01*
%TO.N,CS-Flash*%
X169250000Y-72560936D02*
X169250000Y-73750000D01*
X167338064Y-70649000D02*
X169250000Y-72560936D01*
X155751057Y-70649000D02*
X167338064Y-70649000D01*
X153500000Y-73925000D02*
X153500000Y-72900057D01*
X153500000Y-72900057D02*
X155751057Y-70649000D01*
%TO.N,DI-Flash*%
X153296890Y-75666123D02*
X153365417Y-75666123D01*
X154000000Y-75031540D02*
X154000000Y-73925000D01*
X153365417Y-75666123D02*
X154000000Y-75031540D01*
%TO.N,DO-Flash*%
X154500000Y-72750000D02*
X154750000Y-72500000D01*
X154500000Y-73925000D02*
X154500000Y-72750000D01*
D50*
%TO.N,GND*%
X149000000Y-72850000D02*
X149125000Y-72725000D01*
X149000000Y-73925000D02*
X149000000Y-72850000D01*
%TD*%
%TA.AperFunction,Conductor*%
%TO.N,GND*%
G36*
X170094834Y-88280362D02*
G01*
X170150767Y-88322234D01*
X170175184Y-88387698D01*
X170175500Y-88396544D01*
X170175500Y-91127456D01*
X170155815Y-91194495D01*
X170139181Y-91215137D01*
X166391137Y-94963181D01*
X166329814Y-94996666D01*
X166303456Y-94999500D01*
X164450323Y-94999500D01*
X164377264Y-95014032D01*
X164377260Y-95014033D01*
X164294399Y-95069399D01*
X164239033Y-95152260D01*
X164239032Y-95152264D01*
X164224500Y-95225321D01*
X164224500Y-96576500D01*
X164204815Y-96643539D01*
X164152011Y-96689294D01*
X164100500Y-96700500D01*
X162814558Y-96700500D01*
X162747519Y-96680815D01*
X162701764Y-96628011D01*
X162691820Y-96558853D01*
X162720845Y-96495297D01*
X162767106Y-96461939D01*
X162948907Y-96386635D01*
X162948907Y-96386634D01*
X162948914Y-96386632D01*
X163112782Y-96277139D01*
X163252139Y-96137782D01*
X163361632Y-95973914D01*
X163437051Y-95791835D01*
X163458835Y-95682321D01*
X163475500Y-95598543D01*
X163475500Y-95401456D01*
X163437052Y-95208170D01*
X163437051Y-95208169D01*
X163437051Y-95208165D01*
X163437049Y-95208160D01*
X163361635Y-95026092D01*
X163361628Y-95026079D01*
X163252139Y-94862218D01*
X163252136Y-94862214D01*
X163112785Y-94722863D01*
X163112781Y-94722860D01*
X162948920Y-94613371D01*
X162948907Y-94613364D01*
X162766839Y-94537950D01*
X162766829Y-94537947D01*
X162573543Y-94499500D01*
X162573541Y-94499500D01*
X162376459Y-94499500D01*
X162376457Y-94499500D01*
X162183170Y-94537947D01*
X162183160Y-94537950D01*
X162001092Y-94613364D01*
X162001079Y-94613371D01*
X161837218Y-94722860D01*
X161837214Y-94722863D01*
X161697863Y-94862214D01*
X161697860Y-94862218D01*
X161588371Y-95026079D01*
X161588364Y-95026092D01*
X161512950Y-95208160D01*
X161512947Y-95208170D01*
X161474500Y-95401456D01*
X161474500Y-95401459D01*
X161474500Y-95598541D01*
X161474500Y-95598543D01*
X161474499Y-95598543D01*
X161512947Y-95791829D01*
X161512950Y-95791839D01*
X161588364Y-95973907D01*
X161588371Y-95973920D01*
X161697860Y-96137781D01*
X161697863Y-96137785D01*
X161837214Y-96277136D01*
X161837218Y-96277139D01*
X162001079Y-96386628D01*
X162001092Y-96386635D01*
X162182894Y-96461939D01*
X162237298Y-96505780D01*
X162259363Y-96572074D01*
X162242084Y-96639773D01*
X162190947Y-96687384D01*
X162135442Y-96700500D01*
X156775329Y-96700500D01*
X156708290Y-96680815D01*
X156687648Y-96664181D01*
X155793998Y-95770531D01*
X155793997Y-95770530D01*
X155728796Y-95732886D01*
X155680582Y-95682321D01*
X155667358Y-95613714D01*
X155693326Y-95548849D01*
X155750240Y-95508320D01*
X155790797Y-95501500D01*
X156212242Y-95501500D01*
X156212244Y-95501500D01*
X156301388Y-95477614D01*
X156314756Y-95469896D01*
X156314757Y-95469896D01*
X156381305Y-95431474D01*
X156381304Y-95431474D01*
X156381312Y-95431470D01*
X157181470Y-94631312D01*
X157227614Y-94551388D01*
X157238834Y-94509514D01*
X157251500Y-94462244D01*
X157251500Y-94097673D01*
X157271185Y-94030634D01*
X157323989Y-93984879D01*
X157393147Y-93974935D01*
X157456703Y-94003960D01*
X157481372Y-94038170D01*
X157482249Y-94037585D01*
X157489033Y-94047739D01*
X157489034Y-94047740D01*
X157544399Y-94130601D01*
X157627260Y-94185966D01*
X157627264Y-94185967D01*
X157700321Y-94200499D01*
X157700324Y-94200500D01*
X157700326Y-94200500D01*
X160299676Y-94200500D01*
X160299677Y-94200499D01*
X160372740Y-94185966D01*
X160455601Y-94130601D01*
X160510966Y-94047740D01*
X160525500Y-93974674D01*
X160525500Y-93674500D01*
X160545185Y-93607461D01*
X160597989Y-93561706D01*
X160649500Y-93550500D01*
X164623142Y-93550500D01*
X164623144Y-93550500D01*
X164712288Y-93526614D01*
X164792212Y-93480470D01*
X169963819Y-88308863D01*
X170025142Y-88275378D01*
X170094834Y-88280362D01*
G37*
%TD.AperFunction*%
%TA.AperFunction,Conductor*%
G36*
X148242539Y-92314185D02*
G01*
X148288294Y-92366989D01*
X148299500Y-92418500D01*
X148299500Y-93220260D01*
X148279815Y-93287299D01*
X148227011Y-93333054D01*
X148207595Y-93340035D01*
X148181163Y-93347117D01*
X148137865Y-93358719D01*
X148137864Y-93358719D01*
X148137862Y-93358720D01*
X148006635Y-93434485D01*
X148006632Y-93434487D01*
X147899487Y-93541632D01*
X147899485Y-93541635D01*
X147823719Y-93672863D01*
X147808086Y-93731207D01*
X147784500Y-93819234D01*
X147784500Y-93970766D01*
X147800541Y-94030634D01*
X147823719Y-94117136D01*
X147847147Y-94157714D01*
X147899485Y-94248365D01*
X148006635Y-94355515D01*
X148137865Y-94431281D01*
X148284234Y-94470500D01*
X148284236Y-94470500D01*
X148435764Y-94470500D01*
X148435766Y-94470500D01*
X148582135Y-94431281D01*
X148713365Y-94355515D01*
X148820515Y-94248365D01*
X148896281Y-94117135D01*
X148935500Y-93970766D01*
X148935500Y-93819234D01*
X148930395Y-93800181D01*
X148930599Y-93791578D01*
X148927156Y-93783693D01*
X148931418Y-93757181D01*
X148932058Y-93730333D01*
X148936881Y-93723206D01*
X148938248Y-93714709D01*
X148956170Y-93694708D01*
X148971221Y-93672471D01*
X148980351Y-93667722D01*
X148984875Y-93662674D01*
X149003034Y-93655925D01*
X149017219Y-93648548D01*
X149028280Y-93645499D01*
X149031518Y-93645499D01*
X149125304Y-93630646D01*
X149176142Y-93604741D01*
X149188267Y-93601400D01*
X149211125Y-93601780D01*
X149233589Y-93597561D01*
X149251383Y-93602449D01*
X149258127Y-93602562D01*
X149262570Y-93605523D01*
X149273616Y-93608557D01*
X149339455Y-93639259D01*
X149380176Y-93644619D01*
X149444069Y-93672884D01*
X149482541Y-93731207D01*
X149483764Y-93799651D01*
X149478517Y-93819234D01*
X149449500Y-93927525D01*
X149449500Y-94072475D01*
X149483805Y-94200500D01*
X149487017Y-94212488D01*
X149559488Y-94338011D01*
X149559490Y-94338013D01*
X149559491Y-94338015D01*
X149661985Y-94440509D01*
X149661986Y-94440510D01*
X149661988Y-94440511D01*
X149787511Y-94512982D01*
X149787512Y-94512982D01*
X149787515Y-94512984D01*
X149927525Y-94550500D01*
X149927528Y-94550500D01*
X150072472Y-94550500D01*
X150072475Y-94550500D01*
X150212485Y-94512984D01*
X150338015Y-94440509D01*
X150440509Y-94338015D01*
X150512984Y-94212485D01*
X150536324Y-94125378D01*
X150572688Y-94065720D01*
X150635535Y-94035191D01*
X150688188Y-94037699D01*
X150721032Y-94046500D01*
X151025500Y-94046500D01*
X151027935Y-94047215D01*
X151030397Y-94046597D01*
X151061273Y-94057004D01*
X151092539Y-94066185D01*
X151094200Y-94068103D01*
X151096607Y-94068914D01*
X151116962Y-94094370D01*
X151138294Y-94118989D01*
X151139144Y-94122112D01*
X151140241Y-94123484D01*
X151142130Y-94133076D01*
X151148839Y-94157714D01*
X151149500Y-94164090D01*
X151149500Y-94296144D01*
X151169278Y-94369956D01*
X151171825Y-94379465D01*
X151171826Y-94379466D01*
X151173386Y-94385289D01*
X151219527Y-94465208D01*
X151219529Y-94465211D01*
X151219530Y-94465212D01*
X152120531Y-95366212D01*
X152185788Y-95431469D01*
X152258625Y-95473522D01*
X152265569Y-95478975D01*
X152280936Y-95500523D01*
X152299203Y-95519681D01*
X152300907Y-95528526D01*
X152306138Y-95535860D01*
X152307416Y-95562298D01*
X152312425Y-95588289D01*
X152309077Y-95596651D01*
X152309512Y-95605648D01*
X152296293Y-95628581D01*
X152286456Y-95653153D01*
X152279119Y-95658377D01*
X152274621Y-95666182D01*
X152251103Y-95678326D01*
X152229542Y-95693681D01*
X152217428Y-95695717D01*
X152212541Y-95698242D01*
X152206065Y-95697628D01*
X152188987Y-95700500D01*
X146874173Y-95700500D01*
X146807134Y-95680815D01*
X146761379Y-95628011D01*
X146753291Y-95574019D01*
X146750500Y-95574019D01*
X146750500Y-95434110D01*
X146750500Y-95434108D01*
X146716392Y-95306814D01*
X146650500Y-95192686D01*
X146557314Y-95099500D01*
X146557313Y-95099499D01*
X146557312Y-95099498D01*
X146541497Y-95090367D01*
X146493283Y-95039799D01*
X146479500Y-94982982D01*
X146479500Y-92709759D01*
X146499185Y-92642720D01*
X146515819Y-92622078D01*
X146807079Y-92330819D01*
X146868402Y-92297334D01*
X146894760Y-92294500D01*
X148175500Y-92294500D01*
X148242539Y-92314185D01*
G37*
%TD.AperFunction*%
%TA.AperFunction,Conductor*%
G36*
X156075627Y-92250022D02*
G01*
X156100451Y-92252991D01*
X156108572Y-92259696D01*
X156118678Y-92262664D01*
X156135049Y-92281557D01*
X156154329Y-92297476D01*
X156157536Y-92307508D01*
X156164433Y-92315468D01*
X156167991Y-92340213D01*
X156175604Y-92364028D01*
X156173702Y-92379933D01*
X156174377Y-92384626D01*
X156171414Y-92399072D01*
X156149500Y-92480856D01*
X156149500Y-94053456D01*
X156129815Y-94120495D01*
X156113181Y-94141137D01*
X155891137Y-94363181D01*
X155829814Y-94396666D01*
X155803456Y-94399500D01*
X154728032Y-94399500D01*
X154660993Y-94379815D01*
X154615238Y-94327011D01*
X154605294Y-94257853D01*
X154620645Y-94213500D01*
X154672615Y-94123484D01*
X154676281Y-94117135D01*
X154715500Y-93970766D01*
X154715500Y-93819234D01*
X154676281Y-93672865D01*
X154600515Y-93541635D01*
X154493365Y-93434485D01*
X154427750Y-93396602D01*
X154362136Y-93358719D01*
X154340910Y-93353032D01*
X154292404Y-93340034D01*
X154232746Y-93303671D01*
X154202216Y-93240825D01*
X154200499Y-93220272D01*
X154200499Y-92366978D01*
X154220184Y-92299940D01*
X154272988Y-92254185D01*
X154324499Y-92242979D01*
X156051639Y-92242979D01*
X156075627Y-92250022D01*
G37*
%TD.AperFunction*%
%TA.AperFunction,Conductor*%
G36*
X162075326Y-76975500D02*
G01*
X162424674Y-76975500D01*
X162475811Y-76965328D01*
X162524189Y-76965328D01*
X162575326Y-76975500D01*
X162924674Y-76975500D01*
X162975811Y-76965328D01*
X163024189Y-76965328D01*
X163075326Y-76975500D01*
X163424674Y-76975500D01*
X163475811Y-76965328D01*
X163524189Y-76965328D01*
X163575326Y-76975500D01*
X163900500Y-76975500D01*
X163967539Y-76995185D01*
X164013294Y-77047989D01*
X164024500Y-77099500D01*
X164024500Y-77424673D01*
X164034671Y-77475810D01*
X164034671Y-77524190D01*
X164025068Y-77572472D01*
X164024500Y-77575326D01*
X164024500Y-77924674D01*
X164026585Y-77935159D01*
X164034671Y-77975810D01*
X164034671Y-78024190D01*
X164034042Y-78027354D01*
X164024500Y-78075326D01*
X164024500Y-78424674D01*
X164024501Y-78424678D01*
X164034671Y-78475810D01*
X164034671Y-78524190D01*
X164030851Y-78543396D01*
X164024500Y-78575326D01*
X164024500Y-78924674D01*
X164025956Y-78931993D01*
X164034671Y-78975810D01*
X164034671Y-79024190D01*
X164024500Y-79075326D01*
X164024500Y-79400500D01*
X164004815Y-79467539D01*
X163952011Y-79513294D01*
X163900500Y-79524500D01*
X163575326Y-79524500D01*
X163524190Y-79534671D01*
X163475810Y-79534671D01*
X163424674Y-79524500D01*
X163075326Y-79524500D01*
X163024190Y-79534671D01*
X162975810Y-79534671D01*
X162924674Y-79524500D01*
X162575326Y-79524500D01*
X162524190Y-79534671D01*
X162475810Y-79534671D01*
X162424674Y-79524500D01*
X162075326Y-79524500D01*
X162075323Y-79524500D01*
X162002264Y-79539032D01*
X162002260Y-79539033D01*
X161919399Y-79594399D01*
X161864033Y-79677260D01*
X161864032Y-79677264D01*
X161849500Y-79750321D01*
X161849500Y-80622971D01*
X161829815Y-80690010D01*
X161813181Y-80710652D01*
X161535651Y-80988181D01*
X161474328Y-81021666D01*
X161447970Y-81024500D01*
X160979518Y-81024500D01*
X160979509Y-81024501D01*
X160922885Y-81030587D01*
X160794773Y-81078372D01*
X160685313Y-81160313D01*
X160603373Y-81269771D01*
X160555587Y-81397889D01*
X160549500Y-81454498D01*
X160549500Y-82045481D01*
X160549501Y-82045490D01*
X160555587Y-82102114D01*
X160588163Y-82189451D01*
X160603372Y-82230226D01*
X160680229Y-82332896D01*
X160685314Y-82339688D01*
X160754360Y-82391375D01*
X160796232Y-82447309D01*
X160801216Y-82517000D01*
X160767731Y-82578323D01*
X160754361Y-82589908D01*
X160660315Y-82660310D01*
X160578373Y-82769771D01*
X160530587Y-82897889D01*
X160524500Y-82954498D01*
X160524500Y-83495481D01*
X160524501Y-83495490D01*
X160530587Y-83552114D01*
X160577934Y-83679053D01*
X160578372Y-83680226D01*
X160660313Y-83789687D01*
X160737074Y-83847149D01*
X160750962Y-83857546D01*
X160769774Y-83871628D01*
X160897886Y-83919412D01*
X160954515Y-83925500D01*
X161403455Y-83925499D01*
X161470494Y-83945183D01*
X161491136Y-83961818D01*
X161760788Y-84231470D01*
X161830436Y-84271681D01*
X161840712Y-84277614D01*
X161929856Y-84301500D01*
X163504456Y-84301500D01*
X163571495Y-84321185D01*
X163592137Y-84337819D01*
X163813181Y-84558863D01*
X163846666Y-84620186D01*
X163849500Y-84646544D01*
X163849500Y-85079269D01*
X163852353Y-85109699D01*
X163852353Y-85109701D01*
X163895491Y-85232978D01*
X163897207Y-85237882D01*
X163977850Y-85347150D01*
X164087118Y-85427793D01*
X164129845Y-85442744D01*
X164215299Y-85472646D01*
X164245730Y-85475500D01*
X164245734Y-85475500D01*
X164754270Y-85475500D01*
X164784699Y-85472646D01*
X164784701Y-85472646D01*
X164848790Y-85450219D01*
X164912882Y-85427793D01*
X165022150Y-85347150D01*
X165075230Y-85275229D01*
X165130877Y-85232978D01*
X165200533Y-85227519D01*
X165262083Y-85260586D01*
X165274770Y-85275229D01*
X165327848Y-85347148D01*
X165327849Y-85347148D01*
X165327850Y-85347150D01*
X165437118Y-85427793D01*
X165479845Y-85442744D01*
X165565299Y-85472646D01*
X165595730Y-85475500D01*
X165595734Y-85475500D01*
X166104270Y-85475500D01*
X166134699Y-85472646D01*
X166134701Y-85472646D01*
X166198790Y-85450219D01*
X166262882Y-85427793D01*
X166372150Y-85347150D01*
X166452793Y-85237882D01*
X166484913Y-85146088D01*
X166497646Y-85109701D01*
X166497646Y-85109699D01*
X166500500Y-85079269D01*
X166500500Y-84420730D01*
X166497646Y-84390300D01*
X166497646Y-84390298D01*
X166458215Y-84277614D01*
X166452793Y-84262118D01*
X166372150Y-84152850D01*
X166262882Y-84072207D01*
X166262881Y-84072206D01*
X166255405Y-84066689D01*
X166256862Y-84064714D01*
X166256306Y-84064174D01*
X166243297Y-84058233D01*
X166231768Y-84040293D01*
X166216485Y-84025420D01*
X166212532Y-84010362D01*
X166205523Y-83999455D01*
X166200500Y-83964520D01*
X166200500Y-83924500D01*
X166220185Y-83857461D01*
X166272989Y-83811706D01*
X166314560Y-83802662D01*
X166314415Y-83801561D01*
X166322471Y-83800500D01*
X166322475Y-83800500D01*
X166462485Y-83762984D01*
X166579327Y-83695525D01*
X166647223Y-83679053D01*
X166713250Y-83701905D01*
X166739569Y-83731969D01*
X166741689Y-83730405D01*
X166747206Y-83737881D01*
X166747207Y-83737882D01*
X166827850Y-83847150D01*
X166937118Y-83927793D01*
X166950160Y-83932356D01*
X167006935Y-83973076D01*
X167032683Y-84038028D01*
X167019228Y-84106590D01*
X166982846Y-84149162D01*
X166977851Y-84152848D01*
X166897207Y-84262117D01*
X166897206Y-84262119D01*
X166852353Y-84390298D01*
X166852353Y-84390300D01*
X166849500Y-84420730D01*
X166849500Y-85079269D01*
X166852353Y-85109699D01*
X166852353Y-85109701D01*
X166895491Y-85232978D01*
X166897207Y-85237882D01*
X166977850Y-85347150D01*
X167087118Y-85427793D01*
X167129845Y-85442744D01*
X167215299Y-85472646D01*
X167245730Y-85475500D01*
X167245734Y-85475500D01*
X167754260Y-85475500D01*
X167754266Y-85475500D01*
X167763918Y-85474594D01*
X167832500Y-85487930D01*
X167882988Y-85536228D01*
X167899500Y-85598052D01*
X167899500Y-86503456D01*
X167879815Y-86570495D01*
X167863181Y-86591137D01*
X166291137Y-88163181D01*
X166229814Y-88196666D01*
X166203456Y-88199500D01*
X164250323Y-88199500D01*
X164177264Y-88214032D01*
X164177260Y-88214033D01*
X164094399Y-88269399D01*
X164039033Y-88352260D01*
X164039032Y-88352264D01*
X164024500Y-88425321D01*
X164024500Y-89974678D01*
X164039032Y-90047735D01*
X164039033Y-90047739D01*
X164039034Y-90047740D01*
X164094399Y-90130601D01*
X164152488Y-90169414D01*
X164177260Y-90185966D01*
X164177264Y-90185967D01*
X164250321Y-90200499D01*
X164250324Y-90200500D01*
X164250326Y-90200500D01*
X166781456Y-90200500D01*
X166848495Y-90220185D01*
X166894250Y-90272989D01*
X166904194Y-90342147D01*
X166875169Y-90405703D01*
X166869137Y-90412181D01*
X164468137Y-92813181D01*
X164406814Y-92846666D01*
X164380456Y-92849500D01*
X160649500Y-92849500D01*
X160582461Y-92829815D01*
X160536706Y-92777011D01*
X160525500Y-92725500D01*
X160525500Y-92425323D01*
X160525499Y-92425321D01*
X160510967Y-92352264D01*
X160510966Y-92352260D01*
X160507647Y-92347293D01*
X160455601Y-92269399D01*
X160372740Y-92214034D01*
X160372739Y-92214033D01*
X160372735Y-92214032D01*
X160299677Y-92199500D01*
X160299674Y-92199500D01*
X158189644Y-92199500D01*
X158122605Y-92179815D01*
X158076850Y-92127011D01*
X158066906Y-92057853D01*
X158095931Y-91994297D01*
X158101963Y-91987819D01*
X160491239Y-89598543D01*
X161474499Y-89598543D01*
X161512947Y-89791829D01*
X161512950Y-89791839D01*
X161588364Y-89973907D01*
X161588371Y-89973920D01*
X161697860Y-90137781D01*
X161697863Y-90137785D01*
X161837214Y-90277136D01*
X161837218Y-90277139D01*
X162001079Y-90386628D01*
X162001092Y-90386635D01*
X162183160Y-90462049D01*
X162183165Y-90462051D01*
X162183169Y-90462051D01*
X162183170Y-90462052D01*
X162376456Y-90500500D01*
X162376459Y-90500500D01*
X162573543Y-90500500D01*
X162703582Y-90474632D01*
X162766835Y-90462051D01*
X162948914Y-90386632D01*
X163112782Y-90277139D01*
X163252139Y-90137782D01*
X163361632Y-89973914D01*
X163437051Y-89791835D01*
X163460691Y-89672989D01*
X163475500Y-89598543D01*
X163475500Y-89401456D01*
X163437052Y-89208170D01*
X163437051Y-89208169D01*
X163437051Y-89208165D01*
X163414144Y-89152862D01*
X163361635Y-89026092D01*
X163361628Y-89026079D01*
X163252139Y-88862218D01*
X163252136Y-88862214D01*
X163112785Y-88722863D01*
X163112781Y-88722860D01*
X162948920Y-88613371D01*
X162948907Y-88613364D01*
X162766839Y-88537950D01*
X162766829Y-88537947D01*
X162573543Y-88499500D01*
X162573541Y-88499500D01*
X162376459Y-88499500D01*
X162376457Y-88499500D01*
X162183170Y-88537947D01*
X162183160Y-88537950D01*
X162001092Y-88613364D01*
X162001079Y-88613371D01*
X161837218Y-88722860D01*
X161837214Y-88722863D01*
X161697863Y-88862214D01*
X161697860Y-88862218D01*
X161588371Y-89026079D01*
X161588364Y-89026092D01*
X161512950Y-89208160D01*
X161512947Y-89208170D01*
X161474500Y-89401456D01*
X161474500Y-89401459D01*
X161474500Y-89598541D01*
X161474500Y-89598543D01*
X161474499Y-89598543D01*
X160491239Y-89598543D01*
X160782096Y-89307686D01*
X161017483Y-89072299D01*
X161257469Y-88832313D01*
X161303614Y-88752388D01*
X161309219Y-88731469D01*
X161309930Y-88728818D01*
X161314306Y-88712485D01*
X161327500Y-88663244D01*
X161327500Y-86136756D01*
X161303614Y-86047612D01*
X161257470Y-85967688D01*
X160259312Y-84969530D01*
X160259311Y-84969529D01*
X160259308Y-84969527D01*
X160179390Y-84923387D01*
X160179389Y-84923386D01*
X160179388Y-84923386D01*
X160090244Y-84899500D01*
X160090243Y-84899500D01*
X158597543Y-84899500D01*
X158530504Y-84879815D01*
X158509862Y-84863181D01*
X158309516Y-84662835D01*
X158276031Y-84601512D01*
X158281015Y-84531820D01*
X158322887Y-84475887D01*
X158388351Y-84451470D01*
X158456624Y-84466322D01*
X158459165Y-84467748D01*
X158537515Y-84512984D01*
X158677525Y-84550500D01*
X158677528Y-84550500D01*
X158822472Y-84550500D01*
X158822475Y-84550500D01*
X158962485Y-84512984D01*
X159088015Y-84440509D01*
X159190509Y-84338015D01*
X159262984Y-84212485D01*
X159300500Y-84072475D01*
X159300500Y-83927525D01*
X159262984Y-83787515D01*
X159261713Y-83785314D01*
X159190511Y-83661988D01*
X159190506Y-83661982D01*
X159088017Y-83559493D01*
X159088015Y-83559491D01*
X159012498Y-83515891D01*
X158964283Y-83465325D01*
X158950499Y-83408508D01*
X158950499Y-83236862D01*
X158944259Y-83189455D01*
X158931451Y-83161988D01*
X158926982Y-83152404D01*
X158916490Y-83083326D01*
X158926980Y-83047599D01*
X158944259Y-83010545D01*
X158950500Y-82963139D01*
X158950499Y-82736862D01*
X158944259Y-82689455D01*
X158930670Y-82660313D01*
X158926982Y-82652404D01*
X158916490Y-82583326D01*
X158926980Y-82547599D01*
X158944259Y-82510545D01*
X158950500Y-82463139D01*
X158950499Y-82236862D01*
X158944259Y-82189455D01*
X158926982Y-82152404D01*
X158916490Y-82083326D01*
X158926980Y-82047599D01*
X158944259Y-82010545D01*
X158950500Y-81963139D01*
X158950499Y-81736862D01*
X158944259Y-81689455D01*
X158939297Y-81678814D01*
X158926982Y-81652404D01*
X158916490Y-81583326D01*
X158926980Y-81547599D01*
X158944259Y-81510545D01*
X158950500Y-81463139D01*
X158950499Y-81236862D01*
X158944259Y-81189455D01*
X158929437Y-81157669D01*
X158926982Y-81152404D01*
X158916490Y-81083326D01*
X158926980Y-81047599D01*
X158944259Y-81010545D01*
X158950500Y-80963139D01*
X158950499Y-80736862D01*
X158944259Y-80689455D01*
X158932360Y-80663938D01*
X158926982Y-80652404D01*
X158916490Y-80583326D01*
X158926980Y-80547599D01*
X158944259Y-80510545D01*
X158950500Y-80463139D01*
X158950499Y-80236862D01*
X158944259Y-80189455D01*
X158935273Y-80170185D01*
X158926982Y-80152404D01*
X158916490Y-80083326D01*
X158926980Y-80047599D01*
X158944259Y-80010545D01*
X158950500Y-79963139D01*
X158950499Y-79736862D01*
X158945933Y-79702177D01*
X158956699Y-79633146D01*
X158981191Y-79598315D01*
X159942687Y-78636819D01*
X159969614Y-78622115D01*
X159995433Y-78605523D01*
X160001633Y-78604631D01*
X160004010Y-78603334D01*
X160030368Y-78600500D01*
X160186566Y-78600500D01*
X160253605Y-78620185D01*
X160255425Y-78621376D01*
X160277260Y-78635966D01*
X160287415Y-78642751D01*
X160286590Y-78643984D01*
X160330385Y-78679271D01*
X160352455Y-78745564D01*
X160335180Y-78813265D01*
X160284047Y-78860879D01*
X160277523Y-78863858D01*
X160194399Y-78919399D01*
X160139033Y-79002260D01*
X160139032Y-79002264D01*
X160124500Y-79075321D01*
X160124500Y-79424678D01*
X160139032Y-79497735D01*
X160139033Y-79497739D01*
X160156914Y-79524500D01*
X160194399Y-79580601D01*
X160277260Y-79635966D01*
X160287415Y-79642751D01*
X160286613Y-79643950D01*
X160330520Y-79679333D01*
X160352586Y-79745627D01*
X160335307Y-79813326D01*
X160316346Y-79837735D01*
X159965901Y-80188181D01*
X159904578Y-80221666D01*
X159878220Y-80224500D01*
X159873000Y-80224500D01*
X159755569Y-80255966D01*
X159732986Y-80262017D01*
X159607463Y-80334488D01*
X159607457Y-80334493D01*
X159504968Y-80436982D01*
X159504963Y-80436988D01*
X159432492Y-80562511D01*
X159432491Y-80562515D01*
X159394975Y-80702525D01*
X159394975Y-80847475D01*
X159425968Y-80963140D01*
X159432492Y-80987488D01*
X159504963Y-81113011D01*
X159504965Y-81113013D01*
X159504966Y-81113015D01*
X159607460Y-81215509D01*
X159607461Y-81215510D01*
X159607463Y-81215511D01*
X159732986Y-81287982D01*
X159732987Y-81287982D01*
X159732990Y-81287984D01*
X159873000Y-81325500D01*
X159873003Y-81325500D01*
X160017947Y-81325500D01*
X160017950Y-81325500D01*
X160157960Y-81287984D01*
X160283490Y-81215509D01*
X160385984Y-81113015D01*
X160458459Y-80987485D01*
X160495975Y-80847475D01*
X160495975Y-80842255D01*
X160515660Y-80775216D01*
X160532294Y-80754574D01*
X160825297Y-80461571D01*
X161120480Y-80166388D01*
X161173207Y-80075063D01*
X161200500Y-79973202D01*
X161200500Y-79867748D01*
X161200500Y-79762045D01*
X161220185Y-79695006D01*
X161272989Y-79649251D01*
X161300307Y-79640428D01*
X161322740Y-79635966D01*
X161405601Y-79580601D01*
X161460966Y-79497740D01*
X161475500Y-79424674D01*
X161475500Y-79075326D01*
X161475500Y-79075323D01*
X161475499Y-79075321D01*
X161460967Y-79002264D01*
X161460966Y-79002260D01*
X161443293Y-78975810D01*
X161405601Y-78919399D01*
X161322740Y-78864034D01*
X161322739Y-78864033D01*
X161312585Y-78857249D01*
X161313409Y-78856015D01*
X161269610Y-78820722D01*
X161247544Y-78754429D01*
X161264822Y-78686729D01*
X161315958Y-78639117D01*
X161322482Y-78636137D01*
X161322737Y-78635966D01*
X161322740Y-78635966D01*
X161405601Y-78580601D01*
X161460966Y-78497740D01*
X161475500Y-78424674D01*
X161475500Y-78075326D01*
X161465328Y-78024188D01*
X161465328Y-77975810D01*
X161475500Y-77924674D01*
X161475500Y-77575326D01*
X161465328Y-77524188D01*
X161465328Y-77475810D01*
X161475500Y-77424674D01*
X161475500Y-77099500D01*
X161495185Y-77032461D01*
X161547989Y-76986706D01*
X161599500Y-76975500D01*
X161924674Y-76975500D01*
X161975811Y-76965328D01*
X162024189Y-76965328D01*
X162075326Y-76975500D01*
G37*
%TD.AperFunction*%
%TA.AperFunction,Conductor*%
G36*
X153451357Y-88984895D02*
G01*
X153451998Y-88985263D01*
X153500009Y-89012982D01*
X153500010Y-89012982D01*
X153500013Y-89012984D01*
X153640023Y-89050500D01*
X153640026Y-89050500D01*
X153784971Y-89050500D01*
X153784973Y-89050500D01*
X153805905Y-89044891D01*
X153875755Y-89046553D01*
X153933618Y-89085714D01*
X153961123Y-89149942D01*
X153962000Y-89164665D01*
X153962000Y-89547979D01*
X153976532Y-89621036D01*
X153976533Y-89621040D01*
X153982179Y-89629490D01*
X154031899Y-89703902D01*
X154104550Y-89752445D01*
X154114760Y-89759267D01*
X154114764Y-89759268D01*
X154187821Y-89773800D01*
X154187824Y-89773801D01*
X154187826Y-89773801D01*
X154812176Y-89773801D01*
X154812177Y-89773800D01*
X154885240Y-89759267D01*
X154944460Y-89719697D01*
X154962506Y-89714047D01*
X154978415Y-89703824D01*
X155009377Y-89699372D01*
X155011138Y-89698821D01*
X155013350Y-89698801D01*
X155022284Y-89698801D01*
X155089323Y-89718486D01*
X155135078Y-89771290D01*
X155138465Y-89779467D01*
X155185371Y-89905225D01*
X155185372Y-89905226D01*
X155267313Y-90014687D01*
X155376774Y-90096628D01*
X155504886Y-90144412D01*
X155561515Y-90150500D01*
X156152484Y-90150499D01*
X156209114Y-90144412D01*
X156337226Y-90096628D01*
X156446687Y-90014687D01*
X156528628Y-89905226D01*
X156576412Y-89777114D01*
X156580630Y-89737880D01*
X156582499Y-89720500D01*
X156582499Y-89720494D01*
X156582500Y-89720485D01*
X156582499Y-89554386D01*
X156591145Y-89524939D01*
X156597668Y-89494957D01*
X156601420Y-89489944D01*
X156602183Y-89487347D01*
X156618810Y-89466713D01*
X156645822Y-89439701D01*
X156707144Y-89406219D01*
X156776836Y-89411205D01*
X156832768Y-89453077D01*
X156857184Y-89518542D01*
X156857500Y-89527386D01*
X156857500Y-91052398D01*
X156837815Y-91119437D01*
X156821181Y-91140079D01*
X156455600Y-91505660D01*
X156394277Y-91539145D01*
X156367919Y-91541979D01*
X153609189Y-91541979D01*
X153542150Y-91522294D01*
X153496395Y-91469490D01*
X153486451Y-91400332D01*
X153493006Y-91374649D01*
X153501412Y-91352114D01*
X153504031Y-91327757D01*
X153507499Y-91295501D01*
X153507499Y-91295494D01*
X153507500Y-91295485D01*
X153507499Y-90704516D01*
X153501412Y-90647886D01*
X153453628Y-90519774D01*
X153371687Y-90410313D01*
X153262226Y-90328372D01*
X153257190Y-90324602D01*
X153254452Y-90320945D01*
X153250298Y-90319048D01*
X153233707Y-90293233D01*
X153215319Y-90268668D01*
X153214303Y-90263038D01*
X153212524Y-90260270D01*
X153207501Y-90225335D01*
X153207501Y-90013349D01*
X153227186Y-89946310D01*
X153228399Y-89944459D01*
X153267965Y-89885243D01*
X153267965Y-89885242D01*
X153267967Y-89885240D01*
X153282501Y-89812174D01*
X153282501Y-89187826D01*
X153281215Y-89181363D01*
X153268381Y-89116843D01*
X153274608Y-89047251D01*
X153317470Y-88992073D01*
X153383360Y-88968828D01*
X153451357Y-88984895D01*
G37*
%TD.AperFunction*%
%TA.AperFunction,Conductor*%
G36*
X149720495Y-83220185D02*
G01*
X149741137Y-83236819D01*
X149913181Y-83408863D01*
X149946666Y-83470186D01*
X149949500Y-83496544D01*
X149949500Y-83572475D01*
X149982472Y-83695526D01*
X149987017Y-83712488D01*
X150059488Y-83838011D01*
X150059490Y-83838013D01*
X150059491Y-83838015D01*
X150161985Y-83940509D01*
X150161986Y-83940510D01*
X150161988Y-83940511D01*
X150221022Y-83974594D01*
X150287515Y-84012984D01*
X150322039Y-84022234D01*
X150345413Y-84036481D01*
X150370403Y-84047656D01*
X150374814Y-84054402D01*
X150381699Y-84058599D01*
X150393659Y-84083221D01*
X150408642Y-84106133D01*
X150408705Y-84114195D01*
X150412228Y-84121446D01*
X150408978Y-84148624D01*
X150409195Y-84176000D01*
X150404890Y-84182816D01*
X150403933Y-84190821D01*
X150386504Y-84211929D01*
X150371887Y-84235076D01*
X150362120Y-84241462D01*
X150359448Y-84244699D01*
X150342348Y-84254392D01*
X150302403Y-84273018D01*
X150233326Y-84283509D01*
X150197596Y-84273018D01*
X150184737Y-84267022D01*
X150160545Y-84255741D01*
X150160541Y-84255740D01*
X150113140Y-84249500D01*
X149886868Y-84249500D01*
X149876341Y-84250885D01*
X149839455Y-84255741D01*
X149839453Y-84255742D01*
X149839451Y-84255742D01*
X149802403Y-84273018D01*
X149733325Y-84283509D01*
X149697596Y-84273018D01*
X149684737Y-84267022D01*
X149660545Y-84255741D01*
X149660541Y-84255740D01*
X149613140Y-84249500D01*
X149386867Y-84249500D01*
X149371839Y-84251478D01*
X149339455Y-84255741D01*
X149339453Y-84255742D01*
X149339451Y-84255742D01*
X149235420Y-84304253D01*
X149154253Y-84385420D01*
X149112382Y-84475213D01*
X149066209Y-84527652D01*
X148999016Y-84546804D01*
X148932135Y-84526588D01*
X148887618Y-84475213D01*
X148871422Y-84440482D01*
X148845747Y-84385421D01*
X148764579Y-84304253D01*
X148660545Y-84255741D01*
X148660543Y-84255740D01*
X148660544Y-84255740D01*
X148613140Y-84249500D01*
X148386867Y-84249500D01*
X148371839Y-84251478D01*
X148339455Y-84255741D01*
X148339453Y-84255742D01*
X148339451Y-84255742D01*
X148235420Y-84304253D01*
X148154253Y-84385420D01*
X148105740Y-84489456D01*
X148099500Y-84536860D01*
X148099500Y-84536861D01*
X148099500Y-85241613D01*
X148099501Y-85825500D01*
X148079816Y-85892539D01*
X148027013Y-85938294D01*
X147984151Y-85947618D01*
X147984260Y-85948439D01*
X147976203Y-85949499D01*
X147836186Y-85987017D01*
X147710663Y-86059488D01*
X147710657Y-86059493D01*
X147608168Y-86161982D01*
X147608163Y-86161988D01*
X147535692Y-86287511D01*
X147535691Y-86287515D01*
X147498175Y-86427525D01*
X147498175Y-86572475D01*
X147526324Y-86677527D01*
X147535692Y-86712488D01*
X147608163Y-86838011D01*
X147608165Y-86838013D01*
X147608166Y-86838015D01*
X147710660Y-86940509D01*
X147710661Y-86940510D01*
X147710663Y-86940511D01*
X147836186Y-87012982D01*
X147836187Y-87012982D01*
X147836190Y-87012984D01*
X147976200Y-87050500D01*
X147976203Y-87050500D01*
X148121147Y-87050500D01*
X148121150Y-87050500D01*
X148261160Y-87012984D01*
X148386690Y-86940509D01*
X148489184Y-86838015D01*
X148561659Y-86712485D01*
X148599175Y-86572475D01*
X148599175Y-86496544D01*
X148618860Y-86429505D01*
X148635494Y-86408863D01*
X148698232Y-86346125D01*
X148780470Y-86263887D01*
X148818817Y-86197467D01*
X148820709Y-86194302D01*
X148828296Y-86182028D01*
X148845747Y-86164579D01*
X148866199Y-86120719D01*
X148870028Y-86114526D01*
X148890822Y-86095861D01*
X148909289Y-86074888D01*
X148916468Y-86072841D01*
X148922024Y-86067855D01*
X148949610Y-86063394D01*
X148976483Y-86055735D01*
X148983628Y-86057894D01*
X148990998Y-86056703D01*
X149016616Y-86067865D01*
X149043364Y-86075950D01*
X149048207Y-86081630D01*
X149055051Y-86084612D01*
X149070566Y-86107851D01*
X149088699Y-86129115D01*
X149090547Y-86137777D01*
X149093848Y-86142721D01*
X149094048Y-86154184D01*
X149099500Y-86179731D01*
X149099500Y-86438303D01*
X149098819Y-86438303D01*
X149098819Y-86446522D01*
X149099175Y-86446522D01*
X149099175Y-86454649D01*
X149099175Y-86599599D01*
X149120056Y-86677527D01*
X149136692Y-86739612D01*
X149209163Y-86865135D01*
X149209165Y-86865137D01*
X149209166Y-86865139D01*
X149311660Y-86967633D01*
X149311661Y-86967634D01*
X149311663Y-86967635D01*
X149437186Y-87040106D01*
X149437187Y-87040106D01*
X149437190Y-87040108D01*
X149577200Y-87077624D01*
X149577203Y-87077624D01*
X149630809Y-87077624D01*
X149697848Y-87097309D01*
X149743603Y-87150113D01*
X149750582Y-87169525D01*
X149769087Y-87238585D01*
X149769088Y-87238588D01*
X149841559Y-87364111D01*
X149841564Y-87364117D01*
X149849665Y-87372218D01*
X149883150Y-87433541D01*
X149878166Y-87503233D01*
X149861755Y-87533532D01*
X149822207Y-87587118D01*
X149822206Y-87587119D01*
X149777353Y-87715298D01*
X149777353Y-87715300D01*
X149774500Y-87745730D01*
X149774500Y-88254269D01*
X149777353Y-88284699D01*
X149777353Y-88284701D01*
X149820461Y-88407892D01*
X149822207Y-88412882D01*
X149902850Y-88522150D01*
X150012118Y-88602793D01*
X150054845Y-88617744D01*
X150140299Y-88647646D01*
X150170730Y-88650500D01*
X150704456Y-88650500D01*
X150725701Y-88656738D01*
X150747790Y-88658318D01*
X150758573Y-88666390D01*
X150771495Y-88670185D01*
X150785994Y-88686918D01*
X150803723Y-88700190D01*
X150808430Y-88712810D01*
X150817250Y-88722989D01*
X150820401Y-88744906D01*
X150828140Y-88765654D01*
X150825277Y-88778814D01*
X150827194Y-88792147D01*
X150817994Y-88812290D01*
X150813288Y-88833927D01*
X150800019Y-88851652D01*
X150798169Y-88855703D01*
X150792137Y-88862181D01*
X150691137Y-88963181D01*
X150629814Y-88996666D01*
X150603456Y-88999500D01*
X150170730Y-88999500D01*
X150140300Y-89002353D01*
X150140298Y-89002353D01*
X150012119Y-89047206D01*
X150012117Y-89047207D01*
X149902850Y-89127850D01*
X149822207Y-89237117D01*
X149776319Y-89368254D01*
X149735597Y-89425030D01*
X149670644Y-89450776D01*
X149602082Y-89437319D01*
X149571597Y-89414979D01*
X145885819Y-85729201D01*
X145852334Y-85667878D01*
X145849500Y-85641520D01*
X145849500Y-84619208D01*
X145869185Y-84552169D01*
X145921989Y-84506414D01*
X145991147Y-84496470D01*
X146029984Y-84509912D01*
X146030001Y-84509872D01*
X146030677Y-84510152D01*
X146035502Y-84511822D01*
X146037515Y-84512984D01*
X146177525Y-84550500D01*
X146177528Y-84550500D01*
X146322472Y-84550500D01*
X146322475Y-84550500D01*
X146462485Y-84512984D01*
X146588015Y-84440509D01*
X146690509Y-84338015D01*
X146762984Y-84212485D01*
X146800500Y-84072475D01*
X146800500Y-83996543D01*
X146820185Y-83929504D01*
X146822053Y-83926682D01*
X146828600Y-83917080D01*
X146855469Y-83890212D01*
X146901614Y-83810288D01*
X146901736Y-83809831D01*
X146905278Y-83804638D01*
X146928848Y-83785314D01*
X146950906Y-83764283D01*
X146956014Y-83763043D01*
X146959311Y-83760341D01*
X146974346Y-83758596D01*
X147007725Y-83750499D01*
X147313133Y-83750499D01*
X147313138Y-83750499D01*
X147360545Y-83744259D01*
X147464579Y-83695747D01*
X147545747Y-83614579D01*
X147594259Y-83510545D01*
X147600500Y-83463139D01*
X147600499Y-83324499D01*
X147620183Y-83257461D01*
X147672987Y-83211706D01*
X147724499Y-83200500D01*
X149653456Y-83200500D01*
X149720495Y-83220185D01*
G37*
%TD.AperFunction*%
%TA.AperFunction,Conductor*%
G36*
X156261667Y-87803643D02*
G01*
X156282309Y-87820277D01*
X156460212Y-87998180D01*
X156493697Y-88059503D01*
X156488713Y-88129195D01*
X156446841Y-88185128D01*
X156404626Y-88205635D01*
X156373288Y-88214033D01*
X156287510Y-88237017D01*
X156161988Y-88309488D01*
X156161982Y-88309493D01*
X156059493Y-88411982D01*
X156059488Y-88411988D01*
X155989792Y-88532706D01*
X155970086Y-88558387D01*
X155815292Y-88713181D01*
X155753969Y-88746666D01*
X155727612Y-88749500D01*
X155561519Y-88749500D01*
X155561509Y-88749501D01*
X155504885Y-88755587D01*
X155376773Y-88803372D01*
X155267311Y-88885314D01*
X155220303Y-88948111D01*
X155206611Y-88958360D01*
X155196523Y-88972177D01*
X155179219Y-88978866D01*
X155164370Y-88989983D01*
X155147308Y-88991203D01*
X155131354Y-88997371D01*
X155121036Y-88997801D01*
X155013350Y-88997801D01*
X154946311Y-88978116D01*
X154944461Y-88976904D01*
X154906295Y-88951403D01*
X154861489Y-88897791D01*
X154852780Y-88828467D01*
X154882934Y-88765439D01*
X154906286Y-88745203D01*
X154968101Y-88703901D01*
X154968103Y-88703897D01*
X154977385Y-88697696D01*
X155014180Y-88681025D01*
X155036988Y-88674914D01*
X155116912Y-88628770D01*
X155925405Y-87820277D01*
X155952332Y-87805573D01*
X155978151Y-87788981D01*
X155984351Y-87788089D01*
X155986728Y-87786792D01*
X156013086Y-87783958D01*
X156194628Y-87783958D01*
X156261667Y-87803643D01*
G37*
%TD.AperFunction*%
%TA.AperFunction,Conductor*%
G36*
X152936517Y-88235719D02*
G01*
X152940391Y-88234839D01*
X152969766Y-88245482D01*
X152999743Y-88254285D01*
X153002743Y-88257431D01*
X153006081Y-88258641D01*
X153031271Y-88283363D01*
X153036105Y-88289696D01*
X153076530Y-88359714D01*
X153131540Y-88414724D01*
X153136565Y-88421307D01*
X153146233Y-88446504D01*
X153159164Y-88470186D01*
X153158559Y-88478632D01*
X153161594Y-88486540D01*
X153161998Y-88496544D01*
X153161998Y-88572475D01*
X153198064Y-88707074D01*
X153199515Y-88712488D01*
X153243956Y-88789462D01*
X153260429Y-88857362D01*
X153237576Y-88923389D01*
X153182655Y-88966580D01*
X153113102Y-88973221D01*
X153112378Y-88973079D01*
X153056679Y-88962000D01*
X153056675Y-88962000D01*
X152673769Y-88962000D01*
X152606730Y-88942315D01*
X152604879Y-88941103D01*
X152599239Y-88937334D01*
X152599235Y-88937333D01*
X152526177Y-88922801D01*
X152526174Y-88922801D01*
X151901826Y-88922801D01*
X151901823Y-88922801D01*
X151828764Y-88937333D01*
X151828760Y-88937334D01*
X151819390Y-88943596D01*
X151752712Y-88964473D01*
X151685332Y-88945988D01*
X151638643Y-88894009D01*
X151626500Y-88840493D01*
X151626500Y-88418344D01*
X151635144Y-88388903D01*
X151641668Y-88358917D01*
X151645422Y-88353901D01*
X151646185Y-88351305D01*
X151662819Y-88330663D01*
X151703321Y-88290161D01*
X151764644Y-88256676D01*
X151816090Y-88260355D01*
X151816781Y-88256883D01*
X151901821Y-88273798D01*
X151901824Y-88273799D01*
X151901826Y-88273799D01*
X152526176Y-88273799D01*
X152526177Y-88273798D01*
X152548299Y-88269398D01*
X152599238Y-88259266D01*
X152599238Y-88259265D01*
X152599240Y-88259265D01*
X152603298Y-88256553D01*
X152604878Y-88255498D01*
X152671555Y-88234620D01*
X152673769Y-88234600D01*
X152932704Y-88234600D01*
X152936517Y-88235719D01*
G37*
%TD.AperFunction*%
%TA.AperFunction,Conductor*%
G36*
X156129386Y-84163150D02*
G01*
X156133041Y-84162662D01*
X156161565Y-84176032D01*
X156190826Y-84187747D01*
X156195604Y-84191988D01*
X156196305Y-84192317D01*
X156196722Y-84192981D01*
X156201855Y-84197537D01*
X158034788Y-86030470D01*
X158100712Y-86068531D01*
X158100713Y-86068532D01*
X158108177Y-86072841D01*
X158114712Y-86076614D01*
X158203856Y-86100500D01*
X159780456Y-86100500D01*
X159809896Y-86109144D01*
X159839883Y-86115668D01*
X159844898Y-86119422D01*
X159847495Y-86120185D01*
X159868137Y-86136819D01*
X159919137Y-86187819D01*
X159952622Y-86249142D01*
X159947638Y-86318834D01*
X159905766Y-86374767D01*
X159840302Y-86399184D01*
X159831456Y-86399500D01*
X157700323Y-86399500D01*
X157627264Y-86414032D01*
X157627260Y-86414033D01*
X157544399Y-86469399D01*
X157489033Y-86552260D01*
X157489032Y-86552264D01*
X157474500Y-86625321D01*
X157474500Y-87721742D01*
X157454815Y-87788781D01*
X157402011Y-87834536D01*
X157332853Y-87844480D01*
X157269297Y-87815455D01*
X157262819Y-87809423D01*
X156606385Y-87152989D01*
X156606380Y-87152985D01*
X156526462Y-87106845D01*
X156526461Y-87106844D01*
X156526460Y-87106844D01*
X156437316Y-87082958D01*
X155770398Y-87082958D01*
X155681254Y-87106844D01*
X155681251Y-87106845D01*
X155601333Y-87152985D01*
X155601328Y-87152989D01*
X155192507Y-87561810D01*
X155131184Y-87595295D01*
X155061492Y-87590311D01*
X155005559Y-87548439D01*
X155001738Y-87543040D01*
X154968101Y-87492698D01*
X154885240Y-87437333D01*
X154885239Y-87437332D01*
X154885235Y-87437331D01*
X154812177Y-87422799D01*
X154812174Y-87422799D01*
X154398452Y-87422799D01*
X154331413Y-87403114D01*
X154285658Y-87350310D01*
X154275714Y-87281152D01*
X154304739Y-87217596D01*
X154336450Y-87191413D01*
X154337375Y-87190878D01*
X154338015Y-87190509D01*
X154440509Y-87088015D01*
X154512984Y-86962485D01*
X154550500Y-86822475D01*
X154550500Y-86677525D01*
X154512984Y-86537515D01*
X154483529Y-86486498D01*
X154467057Y-86418600D01*
X154489909Y-86352573D01*
X154544830Y-86309382D01*
X154590916Y-86300499D01*
X154613138Y-86300499D01*
X154660545Y-86294259D01*
X154764579Y-86245747D01*
X154845747Y-86164579D01*
X154887619Y-86074782D01*
X154933788Y-86022347D01*
X155000982Y-86003195D01*
X155067863Y-86023410D01*
X155112381Y-86074785D01*
X155154253Y-86164579D01*
X155235421Y-86245747D01*
X155339455Y-86294259D01*
X155386861Y-86300500D01*
X155613138Y-86300499D01*
X155660545Y-86294259D01*
X155764579Y-86245747D01*
X155845747Y-86164579D01*
X155894259Y-86060545D01*
X155900500Y-86013139D01*
X155900499Y-84536862D01*
X155894259Y-84489455D01*
X155894257Y-84489450D01*
X155891604Y-84480346D01*
X155894914Y-84479381D01*
X155887010Y-84427326D01*
X155906240Y-84375929D01*
X155913216Y-84365307D01*
X155940509Y-84338015D01*
X156008572Y-84220125D01*
X156010531Y-84217144D01*
X156034546Y-84196749D01*
X156057354Y-84175002D01*
X156060976Y-84174303D01*
X156063787Y-84171917D01*
X156095009Y-84167744D01*
X156125961Y-84161779D01*
X156129386Y-84163150D01*
G37*
%TD.AperFunction*%
%TA.AperFunction,Conductor*%
G36*
X152148966Y-78430601D02*
G01*
X152167633Y-78439396D01*
X152169556Y-78440506D01*
X152169558Y-78440508D01*
X152295088Y-78512983D01*
X152408595Y-78543397D01*
X152468254Y-78579761D01*
X152498783Y-78642608D01*
X152500500Y-78663171D01*
X152500500Y-82418632D01*
X152480815Y-82485671D01*
X152464181Y-82506313D01*
X151719531Y-83250962D01*
X151719527Y-83250967D01*
X151689645Y-83302726D01*
X151689645Y-83302727D01*
X151673386Y-83330886D01*
X151649500Y-83420032D01*
X151649500Y-84125500D01*
X151629815Y-84192539D01*
X151577011Y-84238294D01*
X151525501Y-84249500D01*
X151386868Y-84249500D01*
X151376341Y-84250885D01*
X151339455Y-84255741D01*
X151339453Y-84255742D01*
X151339451Y-84255742D01*
X151302403Y-84273018D01*
X151233325Y-84283509D01*
X151197596Y-84273018D01*
X151184737Y-84267022D01*
X151160545Y-84255741D01*
X151160541Y-84255740D01*
X151113140Y-84249500D01*
X150886868Y-84249500D01*
X150876341Y-84250885D01*
X150839455Y-84255741D01*
X150839453Y-84255742D01*
X150839451Y-84255742D01*
X150802403Y-84273018D01*
X150801394Y-84273171D01*
X150800617Y-84273834D01*
X150766941Y-84278403D01*
X150733325Y-84283509D01*
X150732058Y-84283137D01*
X150731381Y-84283229D01*
X150697597Y-84273018D01*
X150657652Y-84254392D01*
X150605212Y-84208220D01*
X150586059Y-84141027D01*
X150606274Y-84074145D01*
X150659438Y-84028810D01*
X150677956Y-84022236D01*
X150712485Y-84012984D01*
X150838015Y-83940509D01*
X150940509Y-83838015D01*
X151012984Y-83712485D01*
X151050500Y-83572475D01*
X151050500Y-83427525D01*
X151012984Y-83287515D01*
X150995632Y-83257461D01*
X150940511Y-83161988D01*
X150940506Y-83161982D01*
X150838017Y-83059493D01*
X150838011Y-83059488D01*
X150712488Y-82987017D01*
X150712489Y-82987017D01*
X150684334Y-82979473D01*
X150572475Y-82949500D01*
X150572472Y-82949500D01*
X150496544Y-82949500D01*
X150429505Y-82929815D01*
X150408863Y-82913181D01*
X150065213Y-82569531D01*
X150065208Y-82569527D01*
X149985290Y-82523387D01*
X149985289Y-82523386D01*
X149985288Y-82523386D01*
X149896144Y-82499500D01*
X149896143Y-82499500D01*
X147724500Y-82499500D01*
X147715814Y-82496949D01*
X147706853Y-82498238D01*
X147682812Y-82487259D01*
X147657461Y-82479815D01*
X147651533Y-82472974D01*
X147643297Y-82469213D01*
X147629007Y-82446978D01*
X147611706Y-82427011D01*
X147609418Y-82416496D01*
X147605523Y-82410435D01*
X147600500Y-82375500D01*
X147600500Y-82374500D01*
X147620185Y-82307461D01*
X147672989Y-82261706D01*
X147724500Y-82250500D01*
X148113387Y-82250500D01*
X148113389Y-82250500D01*
X148215250Y-82223207D01*
X148306575Y-82170480D01*
X148822730Y-81654323D01*
X148878313Y-81622232D01*
X148973517Y-81596723D01*
X149087645Y-81530831D01*
X149180831Y-81437645D01*
X149246723Y-81323517D01*
X149255030Y-81292516D01*
X149272231Y-81228317D01*
X149304323Y-81172730D01*
X152017953Y-78459100D01*
X152079274Y-78425617D01*
X152148966Y-78430601D01*
G37*
%TD.AperFunction*%
%TA.AperFunction,Conductor*%
G36*
X155555703Y-79401830D02*
G01*
X155562167Y-79407849D01*
X156719531Y-80565212D01*
X156784788Y-80630469D01*
X156837501Y-80660903D01*
X156885716Y-80711471D01*
X156899500Y-80768289D01*
X156899500Y-80963131D01*
X156899501Y-80963138D01*
X156905741Y-81010545D01*
X156923018Y-81047596D01*
X156933509Y-81116673D01*
X156923018Y-81152402D01*
X156905742Y-81189451D01*
X156905740Y-81189458D01*
X156899500Y-81236859D01*
X156899500Y-81463131D01*
X156899501Y-81463138D01*
X156905741Y-81510545D01*
X156923018Y-81547596D01*
X156933509Y-81616673D01*
X156923018Y-81652402D01*
X156905742Y-81689451D01*
X156905740Y-81689458D01*
X156899500Y-81736859D01*
X156899500Y-81963131D01*
X156899501Y-81963138D01*
X156905741Y-82010545D01*
X156923018Y-82047596D01*
X156933509Y-82116673D01*
X156923018Y-82152402D01*
X156905742Y-82189451D01*
X156905740Y-82189458D01*
X156899500Y-82236859D01*
X156899500Y-82463131D01*
X156899501Y-82463138D01*
X156905741Y-82510545D01*
X156923018Y-82547596D01*
X156933509Y-82616673D01*
X156923018Y-82652402D01*
X156905742Y-82689451D01*
X156905740Y-82689458D01*
X156899500Y-82736860D01*
X156899500Y-82953456D01*
X156879815Y-83020495D01*
X156827011Y-83066250D01*
X156757853Y-83076194D01*
X156694297Y-83047169D01*
X156687819Y-83041137D01*
X155386819Y-81740137D01*
X155353334Y-81678814D01*
X155350500Y-81652456D01*
X155350500Y-79495543D01*
X155370185Y-79428504D01*
X155422989Y-79382749D01*
X155492147Y-79372805D01*
X155555703Y-79401830D01*
G37*
%TD.AperFunction*%
%TA.AperFunction,Conductor*%
G36*
X165467539Y-79620185D02*
G01*
X165513294Y-79672989D01*
X165524500Y-79724500D01*
X165524500Y-80047869D01*
X165524501Y-80047876D01*
X165530908Y-80107483D01*
X165581202Y-80242328D01*
X165581206Y-80242335D01*
X165667452Y-80357544D01*
X165667455Y-80357547D01*
X165782664Y-80443793D01*
X165782671Y-80443797D01*
X165917517Y-80494091D01*
X165917516Y-80494091D01*
X165924444Y-80494835D01*
X165977127Y-80500500D01*
X167022872Y-80500499D01*
X167082483Y-80494091D01*
X167217331Y-80443796D01*
X167326189Y-80362305D01*
X167391653Y-80337887D01*
X167459926Y-80352738D01*
X167509332Y-80402143D01*
X167524500Y-80461571D01*
X167524500Y-80579269D01*
X167527353Y-80609699D01*
X167527353Y-80609701D01*
X167572206Y-80737880D01*
X167572207Y-80737882D01*
X167652850Y-80847150D01*
X167762118Y-80927793D01*
X167816456Y-80946806D01*
X167873231Y-80987527D01*
X167898978Y-81052480D01*
X167899500Y-81063847D01*
X167899500Y-82445250D01*
X167879815Y-82512289D01*
X167827011Y-82558044D01*
X167757853Y-82567988D01*
X167734545Y-82562291D01*
X167634701Y-82527354D01*
X167634699Y-82527353D01*
X167604270Y-82524500D01*
X167604266Y-82524500D01*
X167348498Y-82524500D01*
X167281459Y-82504815D01*
X167235704Y-82452011D01*
X167225760Y-82382853D01*
X167254785Y-82319297D01*
X167274183Y-82301235D01*
X167332546Y-82257546D01*
X167418796Y-82142331D01*
X167469091Y-82007483D01*
X167475500Y-81947873D01*
X167475499Y-81352128D01*
X167469091Y-81292517D01*
X167467400Y-81287984D01*
X167418797Y-81157671D01*
X167418793Y-81157664D01*
X167332547Y-81042455D01*
X167332544Y-81042452D01*
X167217335Y-80956206D01*
X167217328Y-80956202D01*
X167082482Y-80905908D01*
X167082483Y-80905908D01*
X167022883Y-80899501D01*
X167022881Y-80899500D01*
X167022873Y-80899500D01*
X167022864Y-80899500D01*
X165977129Y-80899500D01*
X165977123Y-80899501D01*
X165917516Y-80905908D01*
X165782671Y-80956202D01*
X165782664Y-80956206D01*
X165667455Y-81042452D01*
X165592982Y-81141935D01*
X165537048Y-81183805D01*
X165467356Y-81188789D01*
X165406034Y-81155303D01*
X165393946Y-81141257D01*
X165347150Y-81077850D01*
X165237882Y-80997207D01*
X165237880Y-80997206D01*
X165109700Y-80952353D01*
X165079270Y-80949500D01*
X165079266Y-80949500D01*
X164646544Y-80949500D01*
X164617103Y-80940855D01*
X164587117Y-80934332D01*
X164582101Y-80930577D01*
X164579505Y-80929815D01*
X164558863Y-80913181D01*
X164407863Y-80762181D01*
X164374378Y-80700858D01*
X164379362Y-80631166D01*
X164421234Y-80575233D01*
X164486698Y-80550816D01*
X164495544Y-80550500D01*
X164572472Y-80550500D01*
X164572475Y-80550500D01*
X164712485Y-80512984D01*
X164838015Y-80440509D01*
X164940509Y-80338015D01*
X165012984Y-80212485D01*
X165050500Y-80072475D01*
X165050500Y-79927525D01*
X165018096Y-79806593D01*
X165019759Y-79736744D01*
X165058921Y-79678881D01*
X165103907Y-79655242D01*
X165120557Y-79650500D01*
X165149674Y-79650500D01*
X165222740Y-79635966D01*
X165260738Y-79610576D01*
X165279470Y-79605242D01*
X165295718Y-79605374D01*
X165311222Y-79600520D01*
X165313434Y-79600500D01*
X165400500Y-79600500D01*
X165467539Y-79620185D01*
G37*
%TD.AperFunction*%
%TA.AperFunction,Conductor*%
G36*
X142294203Y-75150844D02*
G01*
X142316099Y-75175663D01*
X142319399Y-75180601D01*
X142375794Y-75218282D01*
X142402260Y-75235966D01*
X142402264Y-75235967D01*
X142475321Y-75250499D01*
X142475324Y-75250500D01*
X142475326Y-75250500D01*
X142550500Y-75250500D01*
X142617539Y-75270185D01*
X142663294Y-75322989D01*
X142674500Y-75374500D01*
X142674500Y-76102852D01*
X142696682Y-76185640D01*
X142714982Y-76217335D01*
X142739535Y-76259862D01*
X142739537Y-76259864D01*
X143153181Y-76673508D01*
X143186666Y-76734831D01*
X143189500Y-76761188D01*
X143189500Y-76980739D01*
X143203981Y-77072170D01*
X143203981Y-77072171D01*
X143203982Y-77072174D01*
X143203983Y-77072175D01*
X143259674Y-77181475D01*
X143260142Y-77182392D01*
X143260145Y-77182396D01*
X143347603Y-77269854D01*
X143347605Y-77269855D01*
X143347609Y-77269859D01*
X143457825Y-77326017D01*
X143457826Y-77326017D01*
X143457828Y-77326018D01*
X143492947Y-77331579D01*
X143549265Y-77340500D01*
X143768809Y-77340499D01*
X143835849Y-77360183D01*
X143856491Y-77376818D01*
X144038057Y-77558384D01*
X144038064Y-77558390D01*
X144045533Y-77565859D01*
X144045535Y-77565862D01*
X144106138Y-77626465D01*
X144127349Y-77638711D01*
X144180361Y-77669318D01*
X144263147Y-77691501D01*
X144263149Y-77691501D01*
X144356449Y-77691501D01*
X144356465Y-77691500D01*
X144357222Y-77691500D01*
X144424261Y-77711185D01*
X144470016Y-77763989D01*
X144479960Y-77833147D01*
X144479695Y-77834892D01*
X144477755Y-77847149D01*
X144469500Y-77899265D01*
X144469500Y-78118810D01*
X144460854Y-78148253D01*
X144454332Y-78178236D01*
X144450577Y-78183251D01*
X144449815Y-78185849D01*
X144433185Y-78206486D01*
X144315490Y-78324182D01*
X144254170Y-78357666D01*
X144227811Y-78360500D01*
X143680953Y-78360500D01*
X143598165Y-78382682D01*
X143523944Y-78425535D01*
X143523941Y-78425537D01*
X142539537Y-79409941D01*
X142539535Y-79409944D01*
X142496680Y-79484169D01*
X142478846Y-79550732D01*
X142474500Y-79566950D01*
X142474500Y-79780336D01*
X142454815Y-79847375D01*
X142402011Y-79893130D01*
X142386357Y-79899039D01*
X142375269Y-79902388D01*
X142342517Y-79905909D01*
X142252635Y-79939432D01*
X142248857Y-79940574D01*
X142217701Y-79940815D01*
X142186641Y-79943037D01*
X142183065Y-79941084D01*
X142178989Y-79941116D01*
X142152657Y-79924480D01*
X142125318Y-79909552D01*
X142123364Y-79905974D01*
X142119920Y-79903798D01*
X142106761Y-79875567D01*
X142091834Y-79848228D01*
X142091178Y-79842134D01*
X142090403Y-79840470D01*
X142090736Y-79838017D01*
X142089000Y-79821871D01*
X142089000Y-79192358D01*
X142089000Y-79192356D01*
X142065114Y-79103212D01*
X142063548Y-79100500D01*
X142018970Y-79023288D01*
X141724319Y-78728637D01*
X141690834Y-78667314D01*
X141688000Y-78640956D01*
X141688000Y-78198870D01*
X141687999Y-78198855D01*
X141684559Y-78166861D01*
X141681991Y-78142978D01*
X141660006Y-78084033D01*
X141634837Y-78016552D01*
X141634835Y-78016549D01*
X141553972Y-77908528D01*
X141474807Y-77849266D01*
X141432937Y-77793333D01*
X141427953Y-77723642D01*
X141461438Y-77662319D01*
X141474808Y-77650733D01*
X141553972Y-77591472D01*
X141634836Y-77483450D01*
X141681991Y-77357022D01*
X141685952Y-77320182D01*
X141687999Y-77301144D01*
X141688000Y-77301129D01*
X141688000Y-76859044D01*
X141707685Y-76792005D01*
X141724319Y-76771363D01*
X141869068Y-76626614D01*
X142018970Y-76476712D01*
X142065114Y-76396788D01*
X142068195Y-76385288D01*
X142089000Y-76307644D01*
X142089000Y-75244557D01*
X142108685Y-75177518D01*
X142161489Y-75131763D01*
X142230647Y-75121819D01*
X142294203Y-75150844D01*
G37*
%TD.AperFunction*%
%TA.AperFunction,Conductor*%
G36*
X157691815Y-74249660D02*
G01*
X157716791Y-74251447D01*
X157725670Y-74257850D01*
X157735385Y-74260200D01*
X157763143Y-74281999D01*
X157766731Y-74285757D01*
X157795732Y-74321744D01*
X157914198Y-74440209D01*
X157915186Y-74441244D01*
X157930575Y-74471048D01*
X157946666Y-74500515D01*
X157946559Y-74502002D01*
X157947243Y-74503326D01*
X157949500Y-74526874D01*
X157949500Y-74927525D01*
X157949500Y-75072475D01*
X157985354Y-75206281D01*
X157985068Y-75218282D01*
X157989263Y-75229529D01*
X157984252Y-75252563D01*
X157983691Y-75276131D01*
X157976591Y-75287778D01*
X157974411Y-75297802D01*
X157953260Y-75326056D01*
X157866135Y-75413181D01*
X157804812Y-75446666D01*
X157778454Y-75449500D01*
X157186867Y-75449500D01*
X157171839Y-75451478D01*
X157139455Y-75455741D01*
X157139453Y-75455742D01*
X157139451Y-75455742D01*
X157035420Y-75504253D01*
X156954253Y-75585420D01*
X156905740Y-75689456D01*
X156899500Y-75736859D01*
X156899500Y-75963132D01*
X156899501Y-75963138D01*
X156905741Y-76010545D01*
X156905742Y-76010547D01*
X156905742Y-76010548D01*
X156943478Y-76091472D01*
X156954253Y-76114579D01*
X157035421Y-76195747D01*
X157125212Y-76237617D01*
X157177652Y-76283789D01*
X157196804Y-76350982D01*
X157176589Y-76417864D01*
X157125214Y-76462380D01*
X157035422Y-76504252D01*
X157035421Y-76504252D01*
X156954254Y-76585420D01*
X156954249Y-76585425D01*
X156954097Y-76585753D01*
X156953723Y-76586177D01*
X156948030Y-76594308D01*
X156947122Y-76593672D01*
X156907920Y-76638188D01*
X156840725Y-76657334D01*
X156837343Y-76657261D01*
X156823251Y-76656763D01*
X156796144Y-76649500D01*
X156617589Y-76649500D01*
X156615409Y-76649423D01*
X156584243Y-76639063D01*
X156552747Y-76629815D01*
X156551260Y-76628099D01*
X156549107Y-76627384D01*
X156528491Y-76601822D01*
X156506992Y-76577011D01*
X156506669Y-76574764D01*
X156505244Y-76572998D01*
X156501720Y-76540346D01*
X156497048Y-76507853D01*
X156497936Y-76505286D01*
X156497747Y-76503532D01*
X156500333Y-76498358D01*
X156510114Y-76470099D01*
X156509872Y-76469999D01*
X156511557Y-76465928D01*
X156512397Y-76463504D01*
X156512981Y-76462492D01*
X156512982Y-76462489D01*
X156512982Y-76462487D01*
X156512984Y-76462485D01*
X156550500Y-76322475D01*
X156550500Y-76177525D01*
X156512984Y-76037515D01*
X156504530Y-76022873D01*
X156440511Y-75911988D01*
X156440506Y-75911982D01*
X156338017Y-75809493D01*
X156338015Y-75809491D01*
X156299320Y-75787150D01*
X156251106Y-75736583D01*
X156237884Y-75667976D01*
X156263852Y-75603111D01*
X156273633Y-75592091D01*
X157585778Y-74279946D01*
X157594982Y-74274920D01*
X157601462Y-74266670D01*
X157625122Y-74258463D01*
X157647099Y-74246463D01*
X157657561Y-74247211D01*
X157667474Y-74243773D01*
X157691815Y-74249660D01*
G37*
%TD.AperFunction*%
%TA.AperFunction,Conductor*%
G36*
X164972583Y-75302180D02*
G01*
X165015774Y-75357101D01*
X165022416Y-75426654D01*
X164990401Y-75488757D01*
X164988338Y-75490869D01*
X164566027Y-75913181D01*
X164504704Y-75946666D01*
X164478346Y-75949500D01*
X164271991Y-75949500D01*
X164204952Y-75929815D01*
X164159197Y-75877011D01*
X164150374Y-75849691D01*
X164135967Y-75777264D01*
X164135966Y-75777260D01*
X164110131Y-75738595D01*
X164080601Y-75694399D01*
X164080599Y-75694397D01*
X164080598Y-75694396D01*
X164079889Y-75693687D01*
X164078835Y-75691758D01*
X164073815Y-75684244D01*
X164074487Y-75683794D01*
X164046404Y-75632364D01*
X164051388Y-75562672D01*
X164083688Y-75514683D01*
X164096166Y-75503220D01*
X164122391Y-75489859D01*
X164209859Y-75402391D01*
X164213306Y-75395625D01*
X164226859Y-75383177D01*
X164247517Y-75373010D01*
X164265748Y-75358951D01*
X164282464Y-75355811D01*
X164289548Y-75352325D01*
X164296682Y-75353140D01*
X164310741Y-75350500D01*
X164696142Y-75350500D01*
X164696144Y-75350500D01*
X164785288Y-75326614D01*
X164804325Y-75315623D01*
X164838659Y-75295800D01*
X164906556Y-75279328D01*
X164972583Y-75302180D01*
G37*
%TD.AperFunction*%
%TA.AperFunction,Conductor*%
G36*
X152764538Y-74916814D02*
G01*
X152766672Y-74916490D01*
X152767934Y-74916860D01*
X152769332Y-74916880D01*
X152786578Y-74919602D01*
X152839455Y-74944259D01*
X152886861Y-74950500D01*
X152982342Y-74950499D01*
X152991944Y-74952015D01*
X153055095Y-74981911D01*
X153092058Y-75041202D01*
X153091098Y-75111065D01*
X153052520Y-75169319D01*
X153034613Y-75181885D01*
X152958881Y-75225610D01*
X152958872Y-75225616D01*
X152856383Y-75328105D01*
X152856378Y-75328111D01*
X152783907Y-75453634D01*
X152783343Y-75455740D01*
X152746390Y-75593648D01*
X152746390Y-75593650D01*
X152744287Y-75601499D01*
X152742519Y-75601025D01*
X152718374Y-75655591D01*
X152660046Y-75694056D01*
X152623709Y-75699500D01*
X152622475Y-75699500D01*
X152477525Y-75699500D01*
X152364397Y-75729813D01*
X152337511Y-75737017D01*
X152211988Y-75809488D01*
X152211979Y-75809495D01*
X152206609Y-75814866D01*
X152145285Y-75848348D01*
X152075593Y-75843361D01*
X152019662Y-75801487D01*
X152011545Y-75789181D01*
X151982339Y-75738595D01*
X151952996Y-75687772D01*
X151850502Y-75585278D01*
X151850500Y-75585277D01*
X151850498Y-75585275D01*
X151724975Y-75512804D01*
X151724976Y-75512804D01*
X151693063Y-75504253D01*
X151584962Y-75475287D01*
X151440012Y-75475287D01*
X151366950Y-75494863D01*
X151297102Y-75493201D01*
X151239239Y-75454039D01*
X151227471Y-75437088D01*
X151217688Y-75420144D01*
X151206349Y-75400504D01*
X151103855Y-75298010D01*
X151103853Y-75298009D01*
X151103851Y-75298007D01*
X150978328Y-75225536D01*
X150978329Y-75225536D01*
X150861659Y-75194274D01*
X150801998Y-75157908D01*
X150771470Y-75095061D01*
X150779765Y-75025685D01*
X150824251Y-74971808D01*
X150890803Y-74950534D01*
X150893671Y-74950499D01*
X151113138Y-74950499D01*
X151160545Y-74944259D01*
X151197595Y-74926981D01*
X151266672Y-74916490D01*
X151302404Y-74926981D01*
X151339455Y-74944259D01*
X151386861Y-74950500D01*
X151613138Y-74950499D01*
X151660545Y-74944259D01*
X151697595Y-74926981D01*
X151766672Y-74916490D01*
X151802404Y-74926981D01*
X151839455Y-74944259D01*
X151886861Y-74950500D01*
X152113138Y-74950499D01*
X152160545Y-74944259D01*
X152197595Y-74926981D01*
X152266672Y-74916490D01*
X152302404Y-74926981D01*
X152339455Y-74944259D01*
X152386861Y-74950500D01*
X152613138Y-74950499D01*
X152660545Y-74944259D01*
X152697595Y-74926981D01*
X152716519Y-74924107D01*
X152734041Y-74916395D01*
X152764538Y-74916814D01*
G37*
%TD.AperFunction*%
%TA.AperFunction,Conductor*%
G36*
X159075015Y-71019185D02*
G01*
X159120770Y-71071989D01*
X159130714Y-71141147D01*
X159107243Y-71197809D01*
X159097234Y-71211181D01*
X159053373Y-71269771D01*
X159005587Y-71397889D01*
X158999500Y-71454498D01*
X158999500Y-71823499D01*
X158979815Y-71890538D01*
X158963181Y-71911180D01*
X156612180Y-74262181D01*
X156550857Y-74295666D01*
X156481165Y-74290682D01*
X156425232Y-74248810D01*
X156400815Y-74183346D01*
X156400499Y-74174500D01*
X156400499Y-73186867D01*
X156400499Y-73186862D01*
X156394259Y-73139455D01*
X156362118Y-73070528D01*
X156359678Y-73059524D01*
X156355523Y-73053058D01*
X156350500Y-73018123D01*
X156350500Y-72946543D01*
X156370185Y-72879504D01*
X156386819Y-72858862D01*
X157408862Y-71836819D01*
X157470185Y-71803334D01*
X157496543Y-71800500D01*
X157572472Y-71800500D01*
X157572475Y-71800500D01*
X157712485Y-71762984D01*
X157838015Y-71690509D01*
X157940509Y-71588015D01*
X158012984Y-71462485D01*
X158050500Y-71322475D01*
X158050500Y-71177525D01*
X158044623Y-71155592D01*
X158046286Y-71085743D01*
X158085449Y-71027881D01*
X158149677Y-71000377D01*
X158164398Y-70999500D01*
X159007976Y-70999500D01*
X159075015Y-71019185D01*
G37*
%TD.AperFunction*%
%TA.AperFunction,Conductor*%
G36*
X174442539Y-70020185D02*
G01*
X174488294Y-70072989D01*
X174499500Y-70124500D01*
X174499500Y-98375500D01*
X174479815Y-98442539D01*
X174427011Y-98488294D01*
X174375500Y-98499500D01*
X138124500Y-98499500D01*
X138057461Y-98479815D01*
X138011706Y-98427011D01*
X138000500Y-98375500D01*
X138000500Y-96393713D01*
X138649500Y-96393713D01*
X138649500Y-96606286D01*
X138682753Y-96816239D01*
X138748444Y-97018414D01*
X138844951Y-97207820D01*
X138969890Y-97379786D01*
X139120213Y-97530109D01*
X139292179Y-97655048D01*
X139292181Y-97655049D01*
X139292184Y-97655051D01*
X139481588Y-97751557D01*
X139683757Y-97817246D01*
X139893713Y-97850500D01*
X139893714Y-97850500D01*
X140106286Y-97850500D01*
X140106287Y-97850500D01*
X140316243Y-97817246D01*
X140518412Y-97751557D01*
X140707816Y-97655051D01*
X140729789Y-97639086D01*
X140879786Y-97530109D01*
X140879788Y-97530106D01*
X140879792Y-97530104D01*
X141030104Y-97379792D01*
X141030106Y-97379788D01*
X141030109Y-97379786D01*
X141155048Y-97207820D01*
X141155047Y-97207820D01*
X141155051Y-97207816D01*
X141251557Y-97018412D01*
X141317246Y-96816243D01*
X141350500Y-96606287D01*
X141350500Y-96393713D01*
X141317246Y-96183757D01*
X141251557Y-95981588D01*
X141155051Y-95792184D01*
X141155049Y-95792181D01*
X141155048Y-95792179D01*
X141030109Y-95620213D01*
X140879786Y-95469890D01*
X140707820Y-95344951D01*
X140518414Y-95248444D01*
X140518413Y-95248443D01*
X140518412Y-95248443D01*
X140316243Y-95182754D01*
X140316241Y-95182753D01*
X140316240Y-95182753D01*
X140154957Y-95157208D01*
X140106287Y-95149500D01*
X139893713Y-95149500D01*
X139845042Y-95157208D01*
X139683760Y-95182753D01*
X139481585Y-95248444D01*
X139292179Y-95344951D01*
X139120213Y-95469890D01*
X138969890Y-95620213D01*
X138844951Y-95792179D01*
X138748444Y-95981585D01*
X138682753Y-96183760D01*
X138649500Y-96393713D01*
X138000500Y-96393713D01*
X138000500Y-81177525D01*
X138449500Y-81177525D01*
X138449500Y-81322475D01*
X138485209Y-81455741D01*
X138487017Y-81462488D01*
X138559488Y-81588011D01*
X138559490Y-81588013D01*
X138559491Y-81588015D01*
X138661985Y-81690509D01*
X138661986Y-81690510D01*
X138661988Y-81690511D01*
X138787511Y-81762982D01*
X138787512Y-81762982D01*
X138787515Y-81762984D01*
X138927525Y-81800500D01*
X139003456Y-81800500D01*
X139070495Y-81820185D01*
X139077039Y-81824693D01*
X139084544Y-81830226D01*
X139135788Y-81881470D01*
X139213980Y-81926614D01*
X139215712Y-81927614D01*
X139304856Y-81951500D01*
X139304858Y-81951500D01*
X140661242Y-81951500D01*
X140661244Y-81951500D01*
X140750388Y-81927614D01*
X140752108Y-81926620D01*
X140752122Y-81926617D01*
X140752121Y-81926614D01*
X140830305Y-81881474D01*
X140830304Y-81881474D01*
X140830312Y-81881470D01*
X141737821Y-80973959D01*
X141799142Y-80940476D01*
X141868833Y-80945460D01*
X141924767Y-80987331D01*
X141949184Y-81052796D01*
X141949500Y-81061642D01*
X141949500Y-81347869D01*
X141949501Y-81347876D01*
X141955908Y-81407483D01*
X142006202Y-81542328D01*
X142006206Y-81542335D01*
X142092452Y-81657544D01*
X142092455Y-81657547D01*
X142207664Y-81743793D01*
X142207671Y-81743797D01*
X142342517Y-81794091D01*
X142342516Y-81794091D01*
X142349444Y-81794835D01*
X142402127Y-81800500D01*
X143197872Y-81800499D01*
X143257483Y-81794091D01*
X143392331Y-81743796D01*
X143507546Y-81657546D01*
X143593796Y-81542331D01*
X143644091Y-81407483D01*
X143650500Y-81347873D01*
X143650499Y-80352128D01*
X143644091Y-80292517D01*
X143635879Y-80270500D01*
X143593797Y-80157671D01*
X143593793Y-80157664D01*
X143507547Y-80042455D01*
X143507544Y-80042452D01*
X143392335Y-79956206D01*
X143392328Y-79956202D01*
X143257483Y-79905909D01*
X143250379Y-79905145D01*
X143185829Y-79878405D01*
X143145982Y-79821012D01*
X143143491Y-79751186D01*
X143175955Y-79694177D01*
X143822314Y-79047819D01*
X143883637Y-79014334D01*
X143909995Y-79011500D01*
X144346200Y-79011500D01*
X144413239Y-79031185D01*
X144458994Y-79083989D01*
X144469818Y-79145230D01*
X144469500Y-79149269D01*
X144469500Y-79550739D01*
X144483981Y-79642170D01*
X144483981Y-79642171D01*
X144483982Y-79642174D01*
X144483983Y-79642175D01*
X144539527Y-79751186D01*
X144540142Y-79752392D01*
X144540145Y-79752396D01*
X144627603Y-79839854D01*
X144627605Y-79839855D01*
X144627609Y-79839859D01*
X144737825Y-79896017D01*
X144737826Y-79896017D01*
X144737828Y-79896018D01*
X144772947Y-79901579D01*
X144829265Y-79910500D01*
X144926500Y-79910499D01*
X144993538Y-79930183D01*
X145039294Y-79982986D01*
X145050500Y-80034499D01*
X145050500Y-81977863D01*
X145030815Y-82044902D01*
X144978011Y-82090657D01*
X144913249Y-82101153D01*
X144909105Y-82100707D01*
X144897873Y-82099500D01*
X144897869Y-82099500D01*
X144102129Y-82099500D01*
X144102123Y-82099501D01*
X144042516Y-82105908D01*
X143907671Y-82156202D01*
X143907664Y-82156206D01*
X143792455Y-82242452D01*
X143792452Y-82242455D01*
X143706206Y-82357664D01*
X143706202Y-82357671D01*
X143655908Y-82492517D01*
X143649501Y-82552116D01*
X143649500Y-82552135D01*
X143649500Y-83547870D01*
X143649501Y-83547876D01*
X143655908Y-83607483D01*
X143706202Y-83742328D01*
X143706203Y-83742330D01*
X143770801Y-83828621D01*
X143795218Y-83894085D01*
X143780367Y-83962358D01*
X143778921Y-83964932D01*
X143737017Y-84037511D01*
X143736272Y-84040293D01*
X143699500Y-84177525D01*
X143699500Y-84322475D01*
X143731128Y-84440511D01*
X143737017Y-84462488D01*
X143809488Y-84588011D01*
X143809493Y-84588017D01*
X143863181Y-84641705D01*
X143896666Y-84703028D01*
X143899500Y-84729386D01*
X143899500Y-85202309D01*
X143915757Y-85262983D01*
X143923384Y-85291447D01*
X143923387Y-85291454D01*
X143969527Y-85371372D01*
X143969531Y-85371377D01*
X149411224Y-90813070D01*
X149444709Y-90874393D01*
X149439725Y-90944085D01*
X149397853Y-91000018D01*
X149355639Y-91020525D01*
X149306814Y-91033608D01*
X149306813Y-91033608D01*
X149306811Y-91033609D01*
X149192686Y-91099500D01*
X149192683Y-91099502D01*
X149099502Y-91192683D01*
X149099500Y-91192686D01*
X149040140Y-91295501D01*
X149033608Y-91306814D01*
X149021471Y-91352112D01*
X149012594Y-91385241D01*
X149002176Y-91402332D01*
X148996301Y-91421466D01*
X148984364Y-91431554D01*
X148976229Y-91444901D01*
X148958223Y-91453647D01*
X148942937Y-91466567D01*
X148927441Y-91468600D01*
X148913382Y-91475430D01*
X148893507Y-91473053D01*
X148873661Y-91475658D01*
X148852340Y-91468131D01*
X148844006Y-91467135D01*
X148839922Y-91465298D01*
X148835259Y-91463098D01*
X148767887Y-91424201D01*
X148743673Y-91417713D01*
X148732929Y-91414834D01*
X148678806Y-91400332D01*
X148653309Y-91393500D01*
X146597485Y-91393500D01*
X146507119Y-91417713D01*
X146507118Y-91417712D01*
X146482909Y-91424200D01*
X146482900Y-91424204D01*
X146380186Y-91483505D01*
X146380178Y-91483511D01*
X145668513Y-92195177D01*
X145668509Y-92195183D01*
X145609201Y-92297906D01*
X145609200Y-92297911D01*
X145578500Y-92412485D01*
X145578500Y-94882399D01*
X145558815Y-94949438D01*
X145506011Y-94995193D01*
X145436853Y-95005137D01*
X145373297Y-94976112D01*
X145366819Y-94970080D01*
X141785819Y-91389080D01*
X141752334Y-91327757D01*
X141749500Y-91301399D01*
X141749500Y-89630145D01*
X141769185Y-89563106D01*
X141821989Y-89517351D01*
X141891147Y-89507407D01*
X141947808Y-89530877D01*
X142016550Y-89582336D01*
X142016551Y-89582336D01*
X142016552Y-89582337D01*
X142142975Y-89629490D01*
X142142978Y-89629491D01*
X142172318Y-89632645D01*
X142198855Y-89635499D01*
X142198870Y-89635500D01*
X142801130Y-89635500D01*
X142801144Y-89635499D01*
X142823023Y-89633146D01*
X142857022Y-89629491D01*
X142857026Y-89629489D01*
X142857028Y-89629489D01*
X142913788Y-89608319D01*
X142957122Y-89600500D01*
X143611153Y-89600500D01*
X143678192Y-89620185D01*
X143723947Y-89672989D01*
X143728187Y-89683528D01*
X143747207Y-89737882D01*
X143827850Y-89847150D01*
X143937118Y-89927793D01*
X143979845Y-89942744D01*
X144065299Y-89972646D01*
X144095730Y-89975500D01*
X144095734Y-89975500D01*
X144604270Y-89975500D01*
X144634699Y-89972646D01*
X144634701Y-89972646D01*
X144715253Y-89944459D01*
X144762882Y-89927793D01*
X144872150Y-89847150D01*
X144952793Y-89737882D01*
X144988618Y-89635500D01*
X144997646Y-89609701D01*
X144997646Y-89609699D01*
X145000500Y-89579269D01*
X145000500Y-88920730D01*
X144997646Y-88890301D01*
X144995521Y-88884227D01*
X144978806Y-88836461D01*
X144977448Y-88809864D01*
X144972410Y-88783719D01*
X144975694Y-88775513D01*
X144975244Y-88766684D01*
X144988481Y-88743573D01*
X144998378Y-88718854D01*
X145005577Y-88713727D01*
X145009972Y-88706056D01*
X145033599Y-88693773D01*
X145055293Y-88678326D01*
X145064124Y-88677905D01*
X145071966Y-88673829D01*
X145098481Y-88676269D01*
X145125083Y-88675003D01*
X145137134Y-88679827D01*
X145141541Y-88680233D01*
X145157849Y-88688120D01*
X145161982Y-88690506D01*
X145161985Y-88690509D01*
X145232940Y-88731475D01*
X145291465Y-88765265D01*
X145339680Y-88815833D01*
X145352923Y-88884227D01*
X145351540Y-88898978D01*
X145349501Y-88920730D01*
X145349500Y-88920738D01*
X145349500Y-89579269D01*
X145352353Y-89609699D01*
X145352353Y-89609701D01*
X145397206Y-89737880D01*
X145397207Y-89737882D01*
X145477850Y-89847150D01*
X145587118Y-89927793D01*
X145629845Y-89942744D01*
X145715299Y-89972646D01*
X145745730Y-89975500D01*
X145745734Y-89975500D01*
X146254270Y-89975500D01*
X146284699Y-89972646D01*
X146284701Y-89972646D01*
X146365253Y-89944459D01*
X146412882Y-89927793D01*
X146522150Y-89847150D01*
X146602793Y-89737882D01*
X146638618Y-89635500D01*
X146647646Y-89609701D01*
X146647646Y-89609699D01*
X146650500Y-89579269D01*
X146650500Y-88920730D01*
X146647646Y-88890300D01*
X146647646Y-88890298D01*
X146607480Y-88775513D01*
X146602793Y-88762118D01*
X146522150Y-88652850D01*
X146412882Y-88572207D01*
X146373387Y-88558387D01*
X146293469Y-88530422D01*
X146283267Y-88524011D01*
X146274998Y-88522213D01*
X146246744Y-88501062D01*
X146086819Y-88341137D01*
X146053334Y-88279814D01*
X146050500Y-88253456D01*
X146050500Y-88177527D01*
X146050500Y-88177525D01*
X146012984Y-88037515D01*
X146006037Y-88025483D01*
X145940511Y-87911988D01*
X145940506Y-87911982D01*
X145838017Y-87809493D01*
X145838011Y-87809488D01*
X145712488Y-87737017D01*
X145712489Y-87737017D01*
X145690895Y-87731231D01*
X145572475Y-87699500D01*
X145427525Y-87699500D01*
X145309105Y-87731231D01*
X145287511Y-87737017D01*
X145161988Y-87809488D01*
X145161982Y-87809493D01*
X145059493Y-87911982D01*
X145059489Y-87911988D01*
X145029432Y-87964047D01*
X144978864Y-88012261D01*
X144910257Y-88025483D01*
X144845393Y-87999514D01*
X144804865Y-87942600D01*
X144802271Y-87934138D01*
X144800500Y-87927528D01*
X144800500Y-87927525D01*
X144762984Y-87787515D01*
X144760930Y-87783958D01*
X144690511Y-87661988D01*
X144690506Y-87661982D01*
X144588017Y-87559493D01*
X144588011Y-87559488D01*
X144462488Y-87487017D01*
X144462489Y-87487017D01*
X144428277Y-87477850D01*
X144322475Y-87449500D01*
X144177525Y-87449500D01*
X144071723Y-87477850D01*
X144037511Y-87487017D01*
X143937000Y-87545048D01*
X143869100Y-87561521D01*
X143813000Y-87545048D01*
X143712488Y-87487017D01*
X143712489Y-87487017D01*
X143678277Y-87477850D01*
X143572475Y-87449500D01*
X143427525Y-87449500D01*
X143321723Y-87477850D01*
X143287511Y-87487017D01*
X143161988Y-87559488D01*
X143161982Y-87559493D01*
X143087681Y-87633795D01*
X143026358Y-87667280D01*
X142956666Y-87662296D01*
X142912319Y-87633795D01*
X142838017Y-87559493D01*
X142838011Y-87559488D01*
X142712488Y-87487017D01*
X142712489Y-87487017D01*
X142678277Y-87477850D01*
X142572475Y-87449500D01*
X142427525Y-87449500D01*
X142321723Y-87477850D01*
X142287511Y-87487017D01*
X142161988Y-87559488D01*
X142161982Y-87559493D01*
X142059493Y-87661982D01*
X142059488Y-87661988D01*
X141982952Y-87794553D01*
X141981180Y-87793530D01*
X141944217Y-87839396D01*
X141877923Y-87861459D01*
X141810224Y-87844178D01*
X141762615Y-87793040D01*
X141749500Y-87737538D01*
X141749500Y-86397487D01*
X141769185Y-86330448D01*
X141785819Y-86309806D01*
X142270125Y-85825500D01*
X142780470Y-85315155D01*
X142826614Y-85235231D01*
X142835021Y-85203856D01*
X142850500Y-85146087D01*
X142850500Y-84729386D01*
X142870185Y-84662347D01*
X142886819Y-84641705D01*
X142909316Y-84619208D01*
X142940509Y-84588015D01*
X143012984Y-84462485D01*
X143050500Y-84322475D01*
X143050500Y-84177525D01*
X143012984Y-84037515D01*
X143009545Y-84031559D01*
X142940511Y-83911988D01*
X142940506Y-83911982D01*
X142838017Y-83809493D01*
X142838011Y-83809488D01*
X142712488Y-83737017D01*
X142712489Y-83737017D01*
X142701006Y-83733940D01*
X142572475Y-83699500D01*
X142427525Y-83699500D01*
X142298993Y-83733940D01*
X142287511Y-83737017D01*
X142161988Y-83809488D01*
X142161982Y-83809493D01*
X142059493Y-83911982D01*
X142059488Y-83911988D01*
X141987017Y-84037511D01*
X141986272Y-84040293D01*
X141949500Y-84177525D01*
X141949500Y-84322475D01*
X141981128Y-84440511D01*
X141987017Y-84462488D01*
X142059488Y-84588011D01*
X142059493Y-84588017D01*
X142113181Y-84641705D01*
X142127884Y-84668632D01*
X142144477Y-84694451D01*
X142145368Y-84700651D01*
X142146666Y-84703028D01*
X142149500Y-84729386D01*
X142149500Y-84903399D01*
X142129815Y-84970438D01*
X142113181Y-84991080D01*
X141118531Y-85985729D01*
X141118527Y-85985734D01*
X141093057Y-86029850D01*
X141093004Y-86029943D01*
X141092701Y-86030469D01*
X141072386Y-86065655D01*
X141071907Y-86067440D01*
X141067268Y-86075687D01*
X141047360Y-86095095D01*
X141029910Y-86116746D01*
X141022687Y-86119149D01*
X141017239Y-86124461D01*
X140989996Y-86130026D01*
X140963614Y-86138804D01*
X140951715Y-86137846D01*
X140948783Y-86138445D01*
X140946062Y-86137390D01*
X140935009Y-86136501D01*
X140874674Y-86124500D01*
X139125326Y-86124500D01*
X139125323Y-86124500D01*
X139052264Y-86139032D01*
X139052260Y-86139033D01*
X138969399Y-86194399D01*
X138914033Y-86277260D01*
X138914032Y-86277264D01*
X138899500Y-86350321D01*
X138899500Y-88099678D01*
X138914032Y-88172735D01*
X138914033Y-88172739D01*
X138922311Y-88185128D01*
X138969399Y-88255601D01*
X139051004Y-88310127D01*
X139052260Y-88310966D01*
X139052264Y-88310967D01*
X139125321Y-88325499D01*
X139125324Y-88325500D01*
X139125326Y-88325500D01*
X140874675Y-88325500D01*
X140891093Y-88322234D01*
X140900307Y-88320401D01*
X140969898Y-88326627D01*
X141025076Y-88369489D01*
X141048322Y-88435379D01*
X141048500Y-88442018D01*
X141048500Y-91544087D01*
X141068141Y-91617386D01*
X141072386Y-91633230D01*
X141072387Y-91633233D01*
X141118527Y-91713151D01*
X141118529Y-91713154D01*
X141118530Y-91713155D01*
X145736845Y-96331470D01*
X145816769Y-96377614D01*
X145905913Y-96401500D01*
X155382241Y-96401500D01*
X155449280Y-96421185D01*
X155469922Y-96437819D01*
X156363573Y-97331470D01*
X156443497Y-97377614D01*
X156532641Y-97401500D01*
X156532642Y-97401500D01*
X156532643Y-97401500D01*
X167572142Y-97401500D01*
X167572144Y-97401500D01*
X167661288Y-97377614D01*
X167741212Y-97331470D01*
X168678969Y-96393713D01*
X171149500Y-96393713D01*
X171149500Y-96606286D01*
X171182753Y-96816239D01*
X171248444Y-97018414D01*
X171344951Y-97207820D01*
X171469890Y-97379786D01*
X171620213Y-97530109D01*
X171792179Y-97655048D01*
X171792181Y-97655049D01*
X171792184Y-97655051D01*
X171981588Y-97751557D01*
X172183757Y-97817246D01*
X172393713Y-97850500D01*
X172393714Y-97850500D01*
X172606286Y-97850500D01*
X172606287Y-97850500D01*
X172816243Y-97817246D01*
X173018412Y-97751557D01*
X173207816Y-97655051D01*
X173229789Y-97639086D01*
X173379786Y-97530109D01*
X173379788Y-97530106D01*
X173379792Y-97530104D01*
X173530104Y-97379792D01*
X173530106Y-97379788D01*
X173530109Y-97379786D01*
X173655048Y-97207820D01*
X173655047Y-97207820D01*
X173655051Y-97207816D01*
X173751557Y-97018412D01*
X173817246Y-96816243D01*
X173850500Y-96606287D01*
X173850500Y-96393713D01*
X173817246Y-96183757D01*
X173751557Y-95981588D01*
X173655051Y-95792184D01*
X173655049Y-95792181D01*
X173655048Y-95792179D01*
X173530109Y-95620213D01*
X173379786Y-95469890D01*
X173207820Y-95344951D01*
X173018414Y-95248444D01*
X173018413Y-95248443D01*
X173018412Y-95248443D01*
X172816243Y-95182754D01*
X172816241Y-95182753D01*
X172816240Y-95182753D01*
X172654957Y-95157208D01*
X172606287Y-95149500D01*
X172393713Y-95149500D01*
X172345042Y-95157208D01*
X172183760Y-95182753D01*
X171981585Y-95248444D01*
X171792179Y-95344951D01*
X171620213Y-95469890D01*
X171469890Y-95620213D01*
X171344951Y-95792179D01*
X171248444Y-95981585D01*
X171182753Y-96183760D01*
X171149500Y-96393713D01*
X168678969Y-96393713D01*
X172645469Y-92427212D01*
X172691614Y-92347288D01*
X172704845Y-92297908D01*
X172715500Y-92258144D01*
X172715500Y-90462518D01*
X172735185Y-90395479D01*
X172783206Y-90352033D01*
X172941786Y-90271233D01*
X172941785Y-90271233D01*
X172941788Y-90271232D01*
X173081928Y-90169414D01*
X173204414Y-90046928D01*
X173306232Y-89906788D01*
X173384873Y-89752445D01*
X173438402Y-89587701D01*
X173465500Y-89416611D01*
X173465500Y-89243389D01*
X173438402Y-89072299D01*
X173384873Y-88907555D01*
X173306232Y-88753212D01*
X173204414Y-88613072D01*
X173081928Y-88490586D01*
X172941788Y-88388768D01*
X172819828Y-88326627D01*
X172787447Y-88310128D01*
X172787446Y-88310127D01*
X172787445Y-88310127D01*
X172622701Y-88256598D01*
X172622699Y-88256597D01*
X172622698Y-88256597D01*
X172483811Y-88234600D01*
X172451611Y-88229500D01*
X172278389Y-88229500D01*
X172246189Y-88234600D01*
X172107302Y-88256597D01*
X171942552Y-88310128D01*
X171788211Y-88388768D01*
X171716997Y-88440509D01*
X171648072Y-88490586D01*
X171648070Y-88490588D01*
X171648069Y-88490588D01*
X171525588Y-88613069D01*
X171525588Y-88613070D01*
X171525586Y-88613072D01*
X171494673Y-88655620D01*
X171423768Y-88753211D01*
X171345128Y-88907552D01*
X171291597Y-89072302D01*
X171273300Y-89187826D01*
X171264500Y-89243389D01*
X171264500Y-89416611D01*
X171269911Y-89450776D01*
X171290499Y-89580766D01*
X171291598Y-89587701D01*
X171345127Y-89752445D01*
X171423768Y-89906788D01*
X171525586Y-90046928D01*
X171648072Y-90169414D01*
X171753177Y-90245777D01*
X171788213Y-90271233D01*
X171946794Y-90352033D01*
X171997591Y-90400007D01*
X172014500Y-90462518D01*
X172014500Y-92015456D01*
X171994815Y-92082495D01*
X171978181Y-92103137D01*
X167687181Y-96394137D01*
X167625858Y-96427622D01*
X167556166Y-96422638D01*
X167500233Y-96380766D01*
X167475816Y-96315302D01*
X167475500Y-96306456D01*
X167475500Y-95225323D01*
X167475499Y-95225321D01*
X167460967Y-95152264D01*
X167460966Y-95152262D01*
X167460966Y-95152260D01*
X167410337Y-95076488D01*
X167389461Y-95009815D01*
X167407945Y-94942435D01*
X167425756Y-94919924D01*
X170806470Y-91539212D01*
X170852614Y-91459288D01*
X170855833Y-91447273D01*
X170876500Y-91370144D01*
X170876500Y-86703389D01*
X171264500Y-86703389D01*
X171264500Y-86876611D01*
X171270613Y-86915208D01*
X171288708Y-87029459D01*
X171291598Y-87047701D01*
X171345127Y-87212445D01*
X171423768Y-87366788D01*
X171525586Y-87506928D01*
X171648072Y-87629414D01*
X171788212Y-87731232D01*
X171942555Y-87809873D01*
X172107299Y-87863402D01*
X172278389Y-87890500D01*
X172278390Y-87890500D01*
X172451610Y-87890500D01*
X172451611Y-87890500D01*
X172622701Y-87863402D01*
X172787445Y-87809873D01*
X172941788Y-87731232D01*
X173081928Y-87629414D01*
X173204414Y-87506928D01*
X173306232Y-87366788D01*
X173384873Y-87212445D01*
X173438402Y-87047701D01*
X173465500Y-86876611D01*
X173465500Y-86703389D01*
X173438402Y-86532299D01*
X173384873Y-86367555D01*
X173306232Y-86213212D01*
X173204414Y-86073072D01*
X173081928Y-85950586D01*
X172941788Y-85848768D01*
X172787445Y-85770127D01*
X172622701Y-85716598D01*
X172622699Y-85716597D01*
X172622698Y-85716597D01*
X172472964Y-85692882D01*
X172451611Y-85689500D01*
X172278389Y-85689500D01*
X172257036Y-85692882D01*
X172107302Y-85716597D01*
X171942552Y-85770128D01*
X171788211Y-85848768D01*
X171708256Y-85906859D01*
X171648072Y-85950586D01*
X171648070Y-85950588D01*
X171648069Y-85950588D01*
X171525588Y-86073069D01*
X171525588Y-86073070D01*
X171525586Y-86073072D01*
X171499378Y-86109144D01*
X171423768Y-86213211D01*
X171345128Y-86367552D01*
X171291597Y-86532302D01*
X171276865Y-86625321D01*
X171264500Y-86703389D01*
X170876500Y-86703389D01*
X170876500Y-81623389D01*
X171264500Y-81623389D01*
X171264500Y-81796611D01*
X171272677Y-81848239D01*
X171290875Y-81963140D01*
X171291598Y-81967701D01*
X171340002Y-82116673D01*
X171345128Y-82132447D01*
X171405440Y-82250816D01*
X171423768Y-82286788D01*
X171525586Y-82426928D01*
X171648072Y-82549414D01*
X171788212Y-82651232D01*
X171942555Y-82729873D01*
X172107299Y-82783402D01*
X172278389Y-82810500D01*
X172278390Y-82810500D01*
X172451610Y-82810500D01*
X172451611Y-82810500D01*
X172622701Y-82783402D01*
X172787445Y-82729873D01*
X172941788Y-82651232D01*
X173081928Y-82549414D01*
X173204414Y-82426928D01*
X173306232Y-82286788D01*
X173384873Y-82132445D01*
X173438402Y-81967701D01*
X173465500Y-81796611D01*
X173465500Y-81623389D01*
X173438402Y-81452299D01*
X173384873Y-81287555D01*
X173306232Y-81133212D01*
X173204414Y-80993072D01*
X173081928Y-80870586D01*
X172941788Y-80768768D01*
X172787445Y-80690127D01*
X172622701Y-80636598D01*
X172622699Y-80636597D01*
X172622698Y-80636597D01*
X172472951Y-80612880D01*
X172451611Y-80609500D01*
X172278389Y-80609500D01*
X172257049Y-80612880D01*
X172107302Y-80636597D01*
X172029176Y-80661982D01*
X171944636Y-80689451D01*
X171942552Y-80690128D01*
X171788211Y-80768768D01*
X171732159Y-80809493D01*
X171648072Y-80870586D01*
X171648070Y-80870588D01*
X171648069Y-80870588D01*
X171525588Y-80993069D01*
X171525588Y-80993070D01*
X171525586Y-80993072D01*
X171493299Y-81037511D01*
X171423768Y-81133211D01*
X171345128Y-81287552D01*
X171291597Y-81452302D01*
X171274084Y-81562880D01*
X171264500Y-81623389D01*
X170876500Y-81623389D01*
X170876500Y-78295321D01*
X171264500Y-78295321D01*
X171264500Y-80044678D01*
X171279032Y-80117735D01*
X171279033Y-80117739D01*
X171291829Y-80136889D01*
X171334399Y-80200601D01*
X171417260Y-80255966D01*
X171417264Y-80255967D01*
X171490321Y-80270499D01*
X171490324Y-80270500D01*
X171490326Y-80270500D01*
X173239676Y-80270500D01*
X173239677Y-80270499D01*
X173312740Y-80255966D01*
X173395601Y-80200601D01*
X173450966Y-80117740D01*
X173465500Y-80044674D01*
X173465500Y-78295326D01*
X173465500Y-78295323D01*
X173465499Y-78295321D01*
X173450967Y-78222264D01*
X173450966Y-78222260D01*
X173443283Y-78210761D01*
X173395601Y-78139399D01*
X173312740Y-78084034D01*
X173312739Y-78084033D01*
X173312735Y-78084032D01*
X173239677Y-78069500D01*
X173239674Y-78069500D01*
X171490326Y-78069500D01*
X171490323Y-78069500D01*
X171417264Y-78084032D01*
X171417260Y-78084033D01*
X171334399Y-78139399D01*
X171279033Y-78222260D01*
X171279032Y-78222264D01*
X171264500Y-78295321D01*
X170876500Y-78295321D01*
X170876500Y-78229856D01*
X170852614Y-78140712D01*
X170845902Y-78129086D01*
X170806470Y-78060788D01*
X170592402Y-77846720D01*
X170558917Y-77785397D01*
X170563901Y-77715705D01*
X170605773Y-77659772D01*
X170647984Y-77639266D01*
X170712485Y-77621984D01*
X170838015Y-77549509D01*
X170940509Y-77447015D01*
X171012984Y-77321485D01*
X171050500Y-77181475D01*
X171050500Y-77036525D01*
X171012984Y-76896515D01*
X171009396Y-76890301D01*
X170940511Y-76770988D01*
X170940506Y-76770982D01*
X170886819Y-76717295D01*
X170853334Y-76655972D01*
X170850500Y-76629614D01*
X170850500Y-76303858D01*
X170850500Y-76303856D01*
X170826614Y-76214712D01*
X170818408Y-76200499D01*
X170780470Y-76134788D01*
X170436818Y-75791136D01*
X170403333Y-75729813D01*
X170400499Y-75703455D01*
X170400499Y-74977129D01*
X170400498Y-74977123D01*
X170400497Y-74977116D01*
X170394091Y-74917517D01*
X170393853Y-74916880D01*
X170343797Y-74782671D01*
X170343793Y-74782664D01*
X170257547Y-74667455D01*
X170257544Y-74667452D01*
X170142335Y-74581206D01*
X170142328Y-74581202D01*
X170007486Y-74530910D01*
X170007485Y-74530909D01*
X170007483Y-74530909D01*
X169947873Y-74524500D01*
X169947864Y-74524500D01*
X169435584Y-74524500D01*
X169435576Y-74524500D01*
X169352128Y-74524501D01*
X169292517Y-74530909D01*
X169252268Y-74545920D01*
X169252265Y-74545921D01*
X169157671Y-74581202D01*
X169157664Y-74581206D01*
X169042455Y-74667452D01*
X169042452Y-74667455D01*
X168956206Y-74782664D01*
X168956202Y-74782671D01*
X168905908Y-74917517D01*
X168899501Y-74977116D01*
X168899501Y-74977123D01*
X168899500Y-74977135D01*
X168899500Y-76022870D01*
X168899501Y-76022876D01*
X168905908Y-76082483D01*
X168956202Y-76217328D01*
X168956206Y-76217335D01*
X169042452Y-76332544D01*
X169042455Y-76332547D01*
X169092289Y-76369853D01*
X169134160Y-76425786D01*
X169139144Y-76495478D01*
X169105659Y-76556801D01*
X169091612Y-76568889D01*
X168977850Y-76652850D01*
X168897207Y-76762117D01*
X168897206Y-76762119D01*
X168852353Y-76890298D01*
X168852353Y-76890300D01*
X168849500Y-76920730D01*
X168849500Y-77579269D01*
X168852353Y-77609699D01*
X168852353Y-77609701D01*
X168892224Y-77723642D01*
X168897207Y-77737882D01*
X168977850Y-77847150D01*
X169087118Y-77927793D01*
X169123464Y-77940511D01*
X169215299Y-77972646D01*
X169245730Y-77975500D01*
X169245734Y-77975500D01*
X169678456Y-77975500D01*
X169745495Y-77995185D01*
X169766137Y-78011819D01*
X170139181Y-78384863D01*
X170172666Y-78446186D01*
X170175500Y-78472544D01*
X170175500Y-78725500D01*
X170155815Y-78792539D01*
X170103011Y-78838294D01*
X170051500Y-78849500D01*
X169420730Y-78849500D01*
X169390300Y-78852353D01*
X169390298Y-78852353D01*
X169262119Y-78897206D01*
X169262113Y-78897209D01*
X169173133Y-78962880D01*
X169107504Y-78986851D01*
X169039334Y-78971535D01*
X168990266Y-78921795D01*
X168975500Y-78863110D01*
X168975500Y-78420730D01*
X168972646Y-78390300D01*
X168972646Y-78390298D01*
X168935214Y-78283326D01*
X168927793Y-78262118D01*
X168847150Y-78152850D01*
X168737882Y-78072207D01*
X168737880Y-78072206D01*
X168609700Y-78027353D01*
X168579270Y-78024500D01*
X168579266Y-78024500D01*
X168486890Y-78024500D01*
X168419851Y-78004815D01*
X168374096Y-77952011D01*
X168364152Y-77882853D01*
X168387120Y-77826867D01*
X168452790Y-77737886D01*
X168452789Y-77737886D01*
X168452793Y-77737882D01*
X168475728Y-77672336D01*
X168497646Y-77609701D01*
X168497646Y-77609699D01*
X168500500Y-77579269D01*
X168500500Y-76920730D01*
X168497646Y-76890300D01*
X168497646Y-76890298D01*
X168463251Y-76792005D01*
X168452793Y-76762118D01*
X168372150Y-76652850D01*
X168283563Y-76587470D01*
X168241314Y-76531824D01*
X168235855Y-76462167D01*
X168268923Y-76400618D01*
X168282879Y-76388441D01*
X168357546Y-76332546D01*
X168443796Y-76217331D01*
X168494091Y-76082483D01*
X168500500Y-76022873D01*
X168500499Y-74977128D01*
X168494091Y-74917517D01*
X168493853Y-74916880D01*
X168443797Y-74782671D01*
X168443793Y-74782664D01*
X168357547Y-74667455D01*
X168357544Y-74667452D01*
X168242335Y-74581206D01*
X168242328Y-74581202D01*
X168181167Y-74558391D01*
X168163440Y-74545121D01*
X168143297Y-74535922D01*
X168136015Y-74524591D01*
X168125233Y-74516520D01*
X168117494Y-74495771D01*
X168105523Y-74477144D01*
X168102371Y-74455227D01*
X168100816Y-74451056D01*
X168100500Y-74442209D01*
X168100500Y-74208413D01*
X168120185Y-74141374D01*
X168124730Y-74134779D01*
X168134763Y-74121185D01*
X168177793Y-74062882D01*
X168212285Y-73964310D01*
X168222646Y-73934701D01*
X168222646Y-73934699D01*
X168224776Y-73911982D01*
X168225500Y-73904266D01*
X168225500Y-73904230D01*
X168225596Y-73902185D01*
X168225732Y-73901788D01*
X168225771Y-73901380D01*
X168225870Y-73901389D01*
X168232838Y-73881190D01*
X168235474Y-73859144D01*
X168244008Y-73848808D01*
X168248380Y-73836134D01*
X168265822Y-73822387D01*
X168279959Y-73805267D01*
X168292727Y-73801185D01*
X168303257Y-73792887D01*
X168325359Y-73790753D01*
X168346511Y-73783992D01*
X168368353Y-73786603D01*
X168372803Y-73786174D01*
X168381542Y-73788179D01*
X168427525Y-73800500D01*
X168427527Y-73800500D01*
X168572474Y-73800500D01*
X168572475Y-73800500D01*
X168572475Y-73800499D01*
X168580532Y-73799439D01*
X168580959Y-73802688D01*
X168635466Y-73803937D01*
X168693364Y-73843047D01*
X168717590Y-73889987D01*
X168737016Y-73962485D01*
X168737017Y-73962488D01*
X168809488Y-74088011D01*
X168809490Y-74088013D01*
X168809491Y-74088015D01*
X168911985Y-74190509D01*
X168911986Y-74190510D01*
X168911988Y-74190511D01*
X169037511Y-74262982D01*
X169037512Y-74262982D01*
X169037515Y-74262984D01*
X169177525Y-74300500D01*
X169177528Y-74300500D01*
X169215760Y-74300500D01*
X169322475Y-74300500D01*
X169462485Y-74262984D01*
X169588015Y-74190509D01*
X169690509Y-74088015D01*
X169762984Y-73962485D01*
X169800500Y-73822475D01*
X169800500Y-73677525D01*
X169762984Y-73537515D01*
X169750641Y-73516137D01*
X169690511Y-73411988D01*
X169690506Y-73411982D01*
X169636819Y-73358295D01*
X169603334Y-73296972D01*
X169600500Y-73270614D01*
X169600500Y-72514794D01*
X169600500Y-72514792D01*
X169576614Y-72425648D01*
X169574293Y-72421628D01*
X169530470Y-72345724D01*
X169078459Y-71893713D01*
X171149500Y-71893713D01*
X171149500Y-72106286D01*
X171182158Y-72312485D01*
X171182754Y-72316243D01*
X171247267Y-72514794D01*
X171248444Y-72518414D01*
X171344951Y-72707820D01*
X171469890Y-72879786D01*
X171620213Y-73030109D01*
X171792179Y-73155048D01*
X171792181Y-73155049D01*
X171792184Y-73155051D01*
X171981588Y-73251557D01*
X172183757Y-73317246D01*
X172393713Y-73350500D01*
X172393714Y-73350500D01*
X172606286Y-73350500D01*
X172606287Y-73350500D01*
X172816243Y-73317246D01*
X173018412Y-73251557D01*
X173207816Y-73155051D01*
X173303166Y-73085776D01*
X173379786Y-73030109D01*
X173379788Y-73030106D01*
X173379792Y-73030104D01*
X173530104Y-72879792D01*
X173530106Y-72879788D01*
X173530109Y-72879786D01*
X173651659Y-72712485D01*
X173655051Y-72707816D01*
X173751557Y-72518412D01*
X173817246Y-72316243D01*
X173850500Y-72106287D01*
X173850500Y-71893713D01*
X173817246Y-71683757D01*
X173751557Y-71481588D01*
X173655051Y-71292184D01*
X173655049Y-71292181D01*
X173655048Y-71292179D01*
X173530109Y-71120213D01*
X173379786Y-70969890D01*
X173207820Y-70844951D01*
X173018414Y-70748444D01*
X173018413Y-70748443D01*
X173018412Y-70748443D01*
X172816243Y-70682754D01*
X172816241Y-70682753D01*
X172816240Y-70682753D01*
X172654957Y-70657208D01*
X172606287Y-70649500D01*
X172393713Y-70649500D01*
X172345042Y-70657208D01*
X172183760Y-70682753D01*
X171981585Y-70748444D01*
X171792179Y-70844951D01*
X171620213Y-70969890D01*
X171469890Y-71120213D01*
X171344951Y-71292179D01*
X171248444Y-71481585D01*
X171182753Y-71683760D01*
X171149500Y-71893713D01*
X169078459Y-71893713D01*
X167553276Y-70368530D01*
X167553275Y-70368529D01*
X167553272Y-70368527D01*
X167473354Y-70322387D01*
X167473353Y-70322386D01*
X167473352Y-70322386D01*
X167384208Y-70298500D01*
X155704913Y-70298500D01*
X155615769Y-70322386D01*
X155615768Y-70322386D01*
X155615766Y-70322387D01*
X155615763Y-70322388D01*
X155535851Y-70368526D01*
X155535842Y-70368533D01*
X153818502Y-72085872D01*
X153757179Y-72119357D01*
X153687487Y-72114373D01*
X153631554Y-72072501D01*
X153617853Y-72044289D01*
X153616092Y-72045019D01*
X153612982Y-72037511D01*
X153540511Y-71911988D01*
X153540506Y-71911982D01*
X153438017Y-71809493D01*
X153438011Y-71809488D01*
X153312488Y-71737017D01*
X153312489Y-71737017D01*
X153301006Y-71733940D01*
X153172475Y-71699500D01*
X153094733Y-71699500D01*
X153027694Y-71679815D01*
X152981939Y-71627011D01*
X152971995Y-71557853D01*
X152974955Y-71543417D01*
X153002826Y-71439405D01*
X153002826Y-71294455D01*
X152965310Y-71154445D01*
X152957632Y-71141147D01*
X152892837Y-71028918D01*
X152892832Y-71028912D01*
X152790343Y-70926423D01*
X152790337Y-70926418D01*
X152664814Y-70853947D01*
X152664815Y-70853947D01*
X152653332Y-70850870D01*
X152524801Y-70816430D01*
X152379851Y-70816430D01*
X152251319Y-70850870D01*
X152239837Y-70853947D01*
X152114314Y-70926418D01*
X152114308Y-70926423D01*
X152011819Y-71028912D01*
X152011817Y-71028915D01*
X151948338Y-71138863D01*
X151897770Y-71187078D01*
X151829163Y-71200300D01*
X151824771Y-71199802D01*
X151822476Y-71199500D01*
X151822475Y-71199500D01*
X151677525Y-71199500D01*
X151548993Y-71233940D01*
X151537511Y-71237017D01*
X151411988Y-71309488D01*
X151411982Y-71309493D01*
X151309493Y-71411982D01*
X151309488Y-71411988D01*
X151237017Y-71537511D01*
X151237016Y-71537515D01*
X151199500Y-71677525D01*
X151199500Y-71677527D01*
X151199500Y-71822474D01*
X151200561Y-71830532D01*
X151197326Y-71830957D01*
X151196030Y-71885566D01*
X151156870Y-71943431D01*
X151110010Y-71967590D01*
X151098735Y-71970612D01*
X151037511Y-71987017D01*
X150911988Y-72059488D01*
X150911982Y-72059493D01*
X150809493Y-72161982D01*
X150809488Y-72161988D01*
X150732952Y-72294553D01*
X150730945Y-72293394D01*
X150694579Y-72338519D01*
X150628284Y-72360580D01*
X150591773Y-72356434D01*
X150565896Y-72349500D01*
X150565892Y-72349500D01*
X150434108Y-72349500D01*
X150306812Y-72383608D01*
X150192686Y-72449500D01*
X150192683Y-72449502D01*
X150099502Y-72542683D01*
X150099500Y-72542686D01*
X150033608Y-72656812D01*
X149999500Y-72784107D01*
X149998439Y-72792168D01*
X149970170Y-72856064D01*
X149911844Y-72894533D01*
X149908506Y-72895505D01*
X149894035Y-72899500D01*
X149886862Y-72899501D01*
X149839455Y-72905741D01*
X149793009Y-72927398D01*
X149783006Y-72930161D01*
X149758027Y-72929757D01*
X149733325Y-72933509D01*
X149718365Y-72929116D01*
X149713146Y-72929032D01*
X149709254Y-72926441D01*
X149697596Y-72923018D01*
X149660545Y-72905741D01*
X149660541Y-72905740D01*
X149613140Y-72899500D01*
X149386867Y-72899500D01*
X149372837Y-72901347D01*
X149339455Y-72905741D01*
X149339453Y-72905742D01*
X149339451Y-72905742D01*
X149235420Y-72954253D01*
X149154253Y-73035420D01*
X149136882Y-73072673D01*
X149090709Y-73125112D01*
X149023515Y-73144264D01*
X148956634Y-73124048D01*
X148911300Y-73070882D01*
X148900500Y-73020268D01*
X148900500Y-72322611D01*
X148900499Y-72322605D01*
X148900499Y-71804518D01*
X148900498Y-71804509D01*
X148894412Y-71747885D01*
X148849327Y-71627011D01*
X148846628Y-71619774D01*
X148764687Y-71510313D01*
X148698911Y-71461074D01*
X148655228Y-71428373D01*
X148655226Y-71428372D01*
X148527114Y-71380588D01*
X148527112Y-71380587D01*
X148527110Y-71380587D01*
X148470493Y-71374500D01*
X147929518Y-71374500D01*
X147929509Y-71374501D01*
X147872885Y-71380587D01*
X147744773Y-71428372D01*
X147635313Y-71510313D01*
X147553373Y-71619771D01*
X147505587Y-71747889D01*
X147499500Y-71804498D01*
X147499500Y-71970612D01*
X147479815Y-72037651D01*
X147463185Y-72058288D01*
X147402118Y-72119357D01*
X147309488Y-72211987D01*
X147251468Y-72312484D01*
X147251467Y-72312485D01*
X147237017Y-72337512D01*
X147237016Y-72337513D01*
X147224665Y-72383608D01*
X147199500Y-72477525D01*
X147199500Y-73177525D01*
X147199500Y-73322475D01*
X147225681Y-73420182D01*
X147237017Y-73462488D01*
X147309488Y-73588011D01*
X147309490Y-73588013D01*
X147309491Y-73588015D01*
X147411985Y-73690509D01*
X147411986Y-73690510D01*
X147411988Y-73690511D01*
X147537511Y-73762982D01*
X147537512Y-73762982D01*
X147537515Y-73762984D01*
X147677525Y-73800500D01*
X147677528Y-73800500D01*
X147822472Y-73800500D01*
X147822475Y-73800500D01*
X147943410Y-73768095D01*
X148013255Y-73769758D01*
X148071118Y-73808920D01*
X148098623Y-73873148D01*
X148099500Y-73887870D01*
X148099500Y-74663132D01*
X148099501Y-74663138D01*
X148105741Y-74710545D01*
X148105742Y-74710547D01*
X148105742Y-74710548D01*
X148151879Y-74809488D01*
X148154253Y-74814579D01*
X148235421Y-74895747D01*
X148339455Y-74944259D01*
X148386861Y-74950500D01*
X148613138Y-74950499D01*
X148660545Y-74944259D01*
X148764579Y-74895747D01*
X148845747Y-74814579D01*
X148863118Y-74777327D01*
X148909290Y-74724887D01*
X148976484Y-74705735D01*
X149043365Y-74725951D01*
X149088699Y-74779116D01*
X149099500Y-74829731D01*
X149099500Y-75236130D01*
X149099500Y-75341584D01*
X149109784Y-75379965D01*
X149126793Y-75443446D01*
X149145177Y-75475287D01*
X149179520Y-75534770D01*
X149664673Y-76019922D01*
X149664675Y-76019925D01*
X149739242Y-76094492D01*
X149774034Y-76114579D01*
X149830567Y-76147219D01*
X149932428Y-76174512D01*
X150386777Y-76174512D01*
X150448777Y-76191125D01*
X150553351Y-76251501D01*
X150553352Y-76251501D01*
X150553355Y-76251503D01*
X150693365Y-76289019D01*
X150693368Y-76289019D01*
X150838312Y-76289019D01*
X150838315Y-76289019D01*
X150911376Y-76269442D01*
X150981224Y-76271105D01*
X151039087Y-76310267D01*
X151050854Y-76327216D01*
X151064091Y-76350142D01*
X151071978Y-76363802D01*
X151174472Y-76466296D01*
X151174473Y-76466297D01*
X151174475Y-76466298D01*
X151299998Y-76538769D01*
X151299999Y-76538769D01*
X151300002Y-76538771D01*
X151440012Y-76576287D01*
X151440015Y-76576287D01*
X151584959Y-76576287D01*
X151584962Y-76576287D01*
X151724972Y-76538771D01*
X151850502Y-76466296D01*
X151855871Y-76460926D01*
X151917190Y-76427440D01*
X151986882Y-76432421D01*
X152042818Y-76474290D01*
X152050941Y-76486604D01*
X152057727Y-76498358D01*
X152109491Y-76588015D01*
X152211985Y-76690509D01*
X152211986Y-76690510D01*
X152211988Y-76690511D01*
X152337511Y-76762982D01*
X152337512Y-76762982D01*
X152337515Y-76762984D01*
X152477525Y-76800500D01*
X152477528Y-76800500D01*
X152622472Y-76800500D01*
X152622475Y-76800500D01*
X152762485Y-76762984D01*
X152888015Y-76690509D01*
X152990509Y-76588015D01*
X153062984Y-76462485D01*
X153100500Y-76322475D01*
X153100500Y-76322472D01*
X153102603Y-76314624D01*
X153104370Y-76315097D01*
X153128516Y-76260532D01*
X153186844Y-76222067D01*
X153223181Y-76216623D01*
X153369362Y-76216623D01*
X153369365Y-76216623D01*
X153509375Y-76179107D01*
X153634905Y-76106632D01*
X153737399Y-76004138D01*
X153809874Y-75878608D01*
X153847390Y-75738598D01*
X153847390Y-75731194D01*
X153867075Y-75664155D01*
X153883709Y-75643513D01*
X154080556Y-75446666D01*
X154280470Y-75246752D01*
X154326614Y-75166828D01*
X154332588Y-75144531D01*
X154350500Y-75077684D01*
X154350500Y-75061214D01*
X154353315Y-75048229D01*
X154363934Y-75028747D01*
X154370185Y-75007460D01*
X154380329Y-74998669D01*
X154386755Y-74986882D01*
X154406221Y-74976233D01*
X154422989Y-74961705D01*
X154439250Y-74958167D01*
X154448054Y-74953352D01*
X154458112Y-74954064D01*
X154474497Y-74950499D01*
X154574327Y-74950499D01*
X154641366Y-74970184D01*
X154681714Y-75012499D01*
X154719527Y-75077993D01*
X154719531Y-75077998D01*
X154952157Y-75310624D01*
X154971863Y-75336305D01*
X154975834Y-75343184D01*
X154975835Y-75343185D01*
X155041727Y-75457313D01*
X155041729Y-75457315D01*
X155140660Y-75556246D01*
X155138422Y-75558483D01*
X155170841Y-75602855D01*
X155175015Y-75672600D01*
X155141844Y-75732516D01*
X153159089Y-77715271D01*
X153097766Y-77748756D01*
X153028074Y-77743772D01*
X152972141Y-77701900D01*
X152964022Y-77689592D01*
X152957828Y-77678865D01*
X152948082Y-77661984D01*
X152845588Y-77559490D01*
X152845586Y-77559489D01*
X152845584Y-77559487D01*
X152720061Y-77487016D01*
X152720062Y-77487016D01*
X152706742Y-77483447D01*
X152580048Y-77449499D01*
X152435098Y-77449499D01*
X152308404Y-77483447D01*
X152295084Y-77487016D01*
X152169561Y-77559487D01*
X152169555Y-77559492D01*
X152165867Y-77563181D01*
X152138939Y-77577884D01*
X152113121Y-77594477D01*
X152106920Y-77595368D01*
X152104544Y-77596666D01*
X152078186Y-77599500D01*
X151971001Y-77599500D01*
X151970985Y-77599499D01*
X151963389Y-77599499D01*
X151857935Y-77599499D01*
X151766502Y-77623999D01*
X151766501Y-77623998D01*
X151756076Y-77626792D01*
X151756075Y-77626792D01*
X151664746Y-77679522D01*
X151590180Y-77754089D01*
X148737931Y-80606336D01*
X148682345Y-80638429D01*
X148587146Y-80663938D01*
X148587145Y-80663938D01*
X148473017Y-80729831D01*
X148473014Y-80729833D01*
X148379833Y-80823014D01*
X148379831Y-80823017D01*
X148313939Y-80937143D01*
X148288430Y-81032345D01*
X148256336Y-81087932D01*
X147931088Y-81413181D01*
X147869765Y-81446666D01*
X147843407Y-81449500D01*
X147479732Y-81449500D01*
X147412693Y-81429815D01*
X147366938Y-81377011D01*
X147356994Y-81307853D01*
X147386019Y-81244297D01*
X147427327Y-81213118D01*
X147443481Y-81205585D01*
X147464579Y-81195747D01*
X147545747Y-81114579D01*
X147594259Y-81010545D01*
X147600500Y-80963139D01*
X147600499Y-80736862D01*
X147594259Y-80689455D01*
X147582360Y-80663938D01*
X147576982Y-80652404D01*
X147566490Y-80583326D01*
X147576980Y-80547599D01*
X147594259Y-80510545D01*
X147600500Y-80463139D01*
X147600499Y-80236862D01*
X147594259Y-80189455D01*
X147585273Y-80170185D01*
X147576982Y-80152404D01*
X147566490Y-80083326D01*
X147576980Y-80047599D01*
X147594259Y-80010545D01*
X147600500Y-79963139D01*
X147600499Y-79736862D01*
X147594259Y-79689455D01*
X147586581Y-79672989D01*
X147576982Y-79652404D01*
X147566490Y-79583326D01*
X147576980Y-79547599D01*
X147594259Y-79510545D01*
X147600500Y-79463139D01*
X147600499Y-79236862D01*
X147597815Y-79216472D01*
X147608581Y-79147439D01*
X147633073Y-79112609D01*
X148011851Y-78733831D01*
X148073174Y-78700346D01*
X148142866Y-78705330D01*
X148198799Y-78747202D01*
X148223216Y-78812666D01*
X148219307Y-78853605D01*
X148216760Y-78863110D01*
X148199500Y-78927525D01*
X148199500Y-79072475D01*
X148235457Y-79206667D01*
X148237017Y-79212488D01*
X148309488Y-79338011D01*
X148309490Y-79338013D01*
X148309491Y-79338015D01*
X148411985Y-79440509D01*
X148411986Y-79440510D01*
X148411988Y-79440511D01*
X148537511Y-79512982D01*
X148537512Y-79512982D01*
X148537515Y-79512984D01*
X148677525Y-79550500D01*
X148677528Y-79550500D01*
X148822472Y-79550500D01*
X148822475Y-79550500D01*
X148962485Y-79512984D01*
X149088015Y-79440509D01*
X149190509Y-79338015D01*
X149262984Y-79212485D01*
X149300500Y-79072475D01*
X149300500Y-78927525D01*
X149262984Y-78787515D01*
X149239709Y-78747202D01*
X149190511Y-78661988D01*
X149190506Y-78661982D01*
X149088017Y-78559493D01*
X149088011Y-78559488D01*
X148962488Y-78487017D01*
X148962489Y-78487017D01*
X148951006Y-78483940D01*
X148822475Y-78449500D01*
X148677525Y-78449500D01*
X148572337Y-78477685D01*
X148502487Y-78476022D01*
X148444625Y-78436859D01*
X148417121Y-78372631D01*
X148428708Y-78303728D01*
X148432858Y-78295909D01*
X148433195Y-78295326D01*
X148455897Y-78256005D01*
X148460675Y-78238173D01*
X148461027Y-78236862D01*
X148471210Y-78198855D01*
X148479783Y-78166861D01*
X148479783Y-77826477D01*
X148499468Y-77759438D01*
X148516102Y-77738796D01*
X148542413Y-77712485D01*
X148569792Y-77685106D01*
X148642267Y-77559576D01*
X148677650Y-77427525D01*
X149199500Y-77427525D01*
X149199500Y-77572475D01*
X149233030Y-77697609D01*
X149237017Y-77712488D01*
X149309488Y-77838011D01*
X149309490Y-77838013D01*
X149309491Y-77838015D01*
X149411985Y-77940509D01*
X149411986Y-77940510D01*
X149411988Y-77940511D01*
X149537511Y-78012982D01*
X149537512Y-78012982D01*
X149537515Y-78012984D01*
X149677525Y-78050500D01*
X149677528Y-78050500D01*
X149822472Y-78050500D01*
X149822475Y-78050500D01*
X149962485Y-78012984D01*
X150088015Y-77940509D01*
X150190509Y-77838015D01*
X150262984Y-77712485D01*
X150300500Y-77572475D01*
X150300500Y-77427525D01*
X150262984Y-77287515D01*
X150262833Y-77287254D01*
X150190511Y-77161988D01*
X150190506Y-77161982D01*
X150088017Y-77059493D01*
X150088011Y-77059488D01*
X149962488Y-76987017D01*
X149962489Y-76987017D01*
X149939059Y-76980739D01*
X149822475Y-76949500D01*
X149677525Y-76949500D01*
X149560941Y-76980739D01*
X149537511Y-76987017D01*
X149411988Y-77059488D01*
X149411982Y-77059493D01*
X149309493Y-77161982D01*
X149309488Y-77161988D01*
X149237017Y-77287511D01*
X149237016Y-77287515D01*
X149199500Y-77427525D01*
X148677650Y-77427525D01*
X148679783Y-77419566D01*
X148679783Y-77274616D01*
X148642267Y-77134606D01*
X148621998Y-77099500D01*
X148569794Y-77009079D01*
X148569789Y-77009073D01*
X148467300Y-76906584D01*
X148467294Y-76906579D01*
X148341771Y-76834108D01*
X148341772Y-76834108D01*
X148299346Y-76822740D01*
X148201758Y-76796591D01*
X148056808Y-76796591D01*
X147959220Y-76822740D01*
X147916794Y-76834108D01*
X147786499Y-76909335D01*
X147718599Y-76925808D01*
X147652572Y-76902956D01*
X147609381Y-76848034D01*
X147602334Y-76823202D01*
X147600499Y-76812656D01*
X147600499Y-76736862D01*
X147594259Y-76689455D01*
X147570022Y-76637479D01*
X147567199Y-76621253D01*
X147569363Y-76602241D01*
X147566490Y-76583326D01*
X147574698Y-76555371D01*
X147575101Y-76551832D01*
X147576094Y-76550614D01*
X147576980Y-76547599D01*
X147594259Y-76510545D01*
X147600500Y-76463139D01*
X147600499Y-76236862D01*
X147594259Y-76189455D01*
X147576982Y-76152404D01*
X147566490Y-76083326D01*
X147576980Y-76047599D01*
X147594259Y-76010545D01*
X147600500Y-75963139D01*
X147600499Y-75736862D01*
X147594259Y-75689455D01*
X147545747Y-75585421D01*
X147464579Y-75504253D01*
X147360545Y-75455741D01*
X147360543Y-75455740D01*
X147360544Y-75455740D01*
X147313140Y-75449500D01*
X147313139Y-75449500D01*
X147174500Y-75449500D01*
X147107461Y-75429815D01*
X147061706Y-75377011D01*
X147050500Y-75325500D01*
X147050500Y-75177527D01*
X147050500Y-75177525D01*
X147012984Y-75037515D01*
X147005571Y-75024676D01*
X146940511Y-74911988D01*
X146940506Y-74911982D01*
X146838017Y-74809493D01*
X146838011Y-74809488D01*
X146712488Y-74737017D01*
X146712489Y-74737017D01*
X146667219Y-74724887D01*
X146572475Y-74699500D01*
X146427525Y-74699500D01*
X146406592Y-74705108D01*
X146336743Y-74703446D01*
X146278881Y-74664283D01*
X146251377Y-74600055D01*
X146250500Y-74585334D01*
X146250500Y-73175323D01*
X146250499Y-73175321D01*
X146235967Y-73102264D01*
X146235966Y-73102260D01*
X146215000Y-73070882D01*
X146180601Y-73019399D01*
X146097740Y-72964034D01*
X146097739Y-72964033D01*
X146097735Y-72964032D01*
X146024677Y-72949500D01*
X146024674Y-72949500D01*
X144975326Y-72949500D01*
X144975323Y-72949500D01*
X144902264Y-72964032D01*
X144902260Y-72964033D01*
X144819399Y-73019399D01*
X144764033Y-73102260D01*
X144764032Y-73102264D01*
X144749500Y-73175321D01*
X144749500Y-75024678D01*
X144764032Y-75097735D01*
X144764033Y-75097739D01*
X144764034Y-75097740D01*
X144819399Y-75180601D01*
X144875794Y-75218282D01*
X144902260Y-75235966D01*
X144902264Y-75235967D01*
X144975321Y-75250499D01*
X144975324Y-75250500D01*
X144975326Y-75250500D01*
X145050500Y-75250500D01*
X145117539Y-75270185D01*
X145163294Y-75322989D01*
X145174500Y-75374500D01*
X145174500Y-75873810D01*
X145154815Y-75940849D01*
X145138181Y-75961491D01*
X144856490Y-76243181D01*
X144795167Y-76276666D01*
X144768810Y-76279500D01*
X144549260Y-76279500D01*
X144549260Y-76279501D01*
X144457829Y-76293981D01*
X144457828Y-76293981D01*
X144347607Y-76350142D01*
X144347603Y-76350145D01*
X144337681Y-76360068D01*
X144276358Y-76393553D01*
X144206666Y-76388569D01*
X144162319Y-76360068D01*
X144152396Y-76350145D01*
X144152393Y-76350143D01*
X144152391Y-76350141D01*
X144042175Y-76293983D01*
X144042174Y-76293982D01*
X144042171Y-76293981D01*
X143950735Y-76279500D01*
X143731189Y-76279500D01*
X143664150Y-76259815D01*
X143643508Y-76243181D01*
X143361819Y-75961492D01*
X143328334Y-75900169D01*
X143325500Y-75873811D01*
X143325500Y-75374500D01*
X143345185Y-75307461D01*
X143397989Y-75261706D01*
X143449500Y-75250500D01*
X143524676Y-75250500D01*
X143524677Y-75250499D01*
X143597740Y-75235966D01*
X143680601Y-75180601D01*
X143735966Y-75097740D01*
X143750500Y-75024674D01*
X143750500Y-73175326D01*
X143750500Y-73175323D01*
X143750499Y-73175321D01*
X143735967Y-73102264D01*
X143735966Y-73102260D01*
X143715000Y-73070882D01*
X143680601Y-73019399D01*
X143597740Y-72964034D01*
X143597739Y-72964033D01*
X143597735Y-72964032D01*
X143524677Y-72949500D01*
X143524674Y-72949500D01*
X142475326Y-72949500D01*
X142475323Y-72949500D01*
X142402264Y-72964032D01*
X142402260Y-72964033D01*
X142319399Y-73019399D01*
X142264033Y-73102260D01*
X142264032Y-73102264D01*
X142249500Y-73175321D01*
X142249500Y-74743703D01*
X142229815Y-74810742D01*
X142177011Y-74856497D01*
X142107853Y-74866441D01*
X142044297Y-74837416D01*
X142024376Y-74813288D01*
X142023920Y-74813639D01*
X142018968Y-74807186D01*
X141080312Y-73868530D01*
X141080308Y-73868527D01*
X141000390Y-73822387D01*
X141000389Y-73822386D01*
X141000388Y-73822386D01*
X140911244Y-73798500D01*
X140911243Y-73798500D01*
X139602204Y-73798500D01*
X139540204Y-73781887D01*
X139462488Y-73737017D01*
X139462489Y-73737017D01*
X139425773Y-73727179D01*
X139322475Y-73699500D01*
X139177525Y-73699500D01*
X139074227Y-73727179D01*
X139037511Y-73737017D01*
X138911988Y-73809488D01*
X138911982Y-73809493D01*
X138809493Y-73911982D01*
X138809488Y-73911988D01*
X138737017Y-74037511D01*
X138736384Y-74039873D01*
X138699500Y-74177525D01*
X138699500Y-74322475D01*
X138733696Y-74450094D01*
X138737017Y-74462488D01*
X138809488Y-74588011D01*
X138809490Y-74588013D01*
X138809491Y-74588015D01*
X138911985Y-74690509D01*
X138911986Y-74690510D01*
X138911988Y-74690511D01*
X139037511Y-74762982D01*
X139037512Y-74762982D01*
X139037515Y-74762984D01*
X139177525Y-74800500D01*
X139177528Y-74800500D01*
X139322472Y-74800500D01*
X139322475Y-74800500D01*
X139462485Y-74762984D01*
X139514762Y-74732801D01*
X139582660Y-74716328D01*
X139648687Y-74739179D01*
X139691879Y-74794100D01*
X139697257Y-74814661D01*
X139697397Y-74814624D01*
X139699500Y-74822472D01*
X139699500Y-74822475D01*
X139733805Y-74950500D01*
X139737017Y-74962488D01*
X139809488Y-75088011D01*
X139809490Y-75088013D01*
X139809491Y-75088015D01*
X139911985Y-75190509D01*
X139911986Y-75190510D01*
X139911988Y-75190511D01*
X140037511Y-75262982D01*
X140037512Y-75262982D01*
X140037515Y-75262984D01*
X140177525Y-75300500D01*
X140188000Y-75300500D01*
X140255039Y-75320185D01*
X140300794Y-75372989D01*
X140312000Y-75424500D01*
X140312000Y-75801144D01*
X140318009Y-75857024D01*
X140365162Y-75983447D01*
X140365164Y-75983450D01*
X140446028Y-76091472D01*
X140484447Y-76120232D01*
X140525191Y-76150733D01*
X140567062Y-76206667D01*
X140572046Y-76276359D01*
X140538561Y-76337682D01*
X140525191Y-76349267D01*
X140446028Y-76408528D01*
X140365164Y-76516549D01*
X140365162Y-76516552D01*
X140318009Y-76642975D01*
X140312000Y-76698855D01*
X140312000Y-77301144D01*
X140318009Y-77357024D01*
X140365162Y-77483447D01*
X140365164Y-77483450D01*
X140446028Y-77591472D01*
X140498512Y-77630761D01*
X140525191Y-77650733D01*
X140567062Y-77706667D01*
X140572046Y-77776359D01*
X140538561Y-77837682D01*
X140525191Y-77849267D01*
X140446028Y-77908528D01*
X140365164Y-78016549D01*
X140365162Y-78016552D01*
X140318009Y-78142975D01*
X140312000Y-78198855D01*
X140312000Y-78801144D01*
X140318009Y-78857024D01*
X140365162Y-78983447D01*
X140365164Y-78983450D01*
X140446028Y-79091472D01*
X140474264Y-79112609D01*
X140525191Y-79150733D01*
X140567062Y-79206667D01*
X140572046Y-79276359D01*
X140538561Y-79337682D01*
X140525191Y-79349267D01*
X140446028Y-79408528D01*
X140365164Y-79516549D01*
X140365162Y-79516552D01*
X140318009Y-79642975D01*
X140312000Y-79698855D01*
X140312000Y-80140956D01*
X140292315Y-80207995D01*
X140275681Y-80228637D01*
X140091137Y-80413181D01*
X140029814Y-80446666D01*
X140003456Y-80449500D01*
X139927525Y-80449500D01*
X139798993Y-80483940D01*
X139787511Y-80487017D01*
X139661988Y-80559488D01*
X139661982Y-80559493D01*
X139559493Y-80661982D01*
X139559491Y-80661985D01*
X139502249Y-80761130D01*
X139451681Y-80809345D01*
X139383074Y-80822567D01*
X139332863Y-80806516D01*
X139212485Y-80737016D01*
X139072475Y-80699500D01*
X138927525Y-80699500D01*
X138814322Y-80729833D01*
X138787511Y-80737017D01*
X138661988Y-80809488D01*
X138661982Y-80809493D01*
X138559493Y-80911982D01*
X138559488Y-80911988D01*
X138487017Y-81037511D01*
X138487016Y-81037515D01*
X138449500Y-81177525D01*
X138000500Y-81177525D01*
X138000500Y-71893713D01*
X138649500Y-71893713D01*
X138649500Y-72106286D01*
X138682158Y-72312485D01*
X138682754Y-72316243D01*
X138747267Y-72514794D01*
X138748444Y-72518414D01*
X138844951Y-72707820D01*
X138969890Y-72879786D01*
X139120213Y-73030109D01*
X139292179Y-73155048D01*
X139292181Y-73155049D01*
X139292184Y-73155051D01*
X139481588Y-73251557D01*
X139683757Y-73317246D01*
X139893713Y-73350500D01*
X139893714Y-73350500D01*
X140106286Y-73350500D01*
X140106287Y-73350500D01*
X140316243Y-73317246D01*
X140518412Y-73251557D01*
X140707816Y-73155051D01*
X140803166Y-73085776D01*
X140879786Y-73030109D01*
X140879788Y-73030106D01*
X140879792Y-73030104D01*
X141030104Y-72879792D01*
X141030106Y-72879788D01*
X141030109Y-72879786D01*
X141151659Y-72712485D01*
X141155051Y-72707816D01*
X141251557Y-72518412D01*
X141317246Y-72316243D01*
X141350500Y-72106287D01*
X141350500Y-71893713D01*
X141317246Y-71683757D01*
X141251557Y-71481588D01*
X141155051Y-71292184D01*
X141155049Y-71292181D01*
X141155048Y-71292179D01*
X141030109Y-71120213D01*
X140879786Y-70969890D01*
X140707820Y-70844951D01*
X140518414Y-70748444D01*
X140518413Y-70748443D01*
X140518412Y-70748443D01*
X140316243Y-70682754D01*
X140316241Y-70682753D01*
X140316240Y-70682753D01*
X140154957Y-70657208D01*
X140106287Y-70649500D01*
X139893713Y-70649500D01*
X139845042Y-70657208D01*
X139683760Y-70682753D01*
X139481585Y-70748444D01*
X139292179Y-70844951D01*
X139120213Y-70969890D01*
X138969890Y-71120213D01*
X138844951Y-71292179D01*
X138748444Y-71481585D01*
X138682753Y-71683760D01*
X138649500Y-71893713D01*
X138000500Y-71893713D01*
X138000500Y-70124500D01*
X138020185Y-70057461D01*
X138072989Y-70011706D01*
X138124500Y-70000500D01*
X174375500Y-70000500D01*
X174442539Y-70020185D01*
G37*
%TD.AperFunction*%
%TD*%
M02*
