M48
; DRILL file {KiCad 9.0.7} date 2026-01-30T01:35:17+0200
; FORMAT={-:-/ absolute / inch / decimal}
; #@! TF.CreationDate,2026-01-30T01:35:17+02:00
; #@! TF.GenerationSoftware,Kicad,Pcbnew,9.0.7
; #@! TF.FileFunction,Plated,1,4,PTH
FMAT,2
INCH
; #@! TA.AperFunction,Plated,PTH,ViaDrill
T1C0.0118
; #@! TA.AperFunction,Plated,PTH,ComponentDrill
T2C0.0236
; #@! TA.AperFunction,Plated,PTH,ComponentDrill
T3C0.0394
%
G90
G05
T1
X5.4449Y-3.0217
X5.4449Y-3.1004
X5.4665Y-3.2638
X5.4724Y-3.1988
X5.4823Y-2.9232
X5.5118Y-3.189
X5.5217Y-2.9429
X5.5571Y-3.2638
X5.5709Y-3.3563
X5.6102Y-3.3169
X5.6102Y-3.4646
X5.6398Y-3.0748
X5.6398Y-3.6024
X5.6496Y-3.4646
X5.657Y-3.5455
X5.6582Y-3.1492
X5.6594Y-3.2224
X5.6791Y-2.9272
X5.6791Y-2.9567
X5.6791Y-3.3169
X5.6791Y-3.4646
X5.7047Y-3.3366
X5.7185Y-3.563
X5.7283Y-3.4744
X5.7579Y-3.3071
X5.7579Y-3.7598
X5.7677Y-2.8248
X5.7677Y-2.9626
X5.8071Y-3.7303
X5.8169Y-2.8839
X5.8169Y-3.311
X5.8268Y-3.1831
X5.8287Y-3.4055
X5.8319Y-3.0452
X5.8563Y-3.1102
X5.8575Y-3.1941
X5.8602Y-3.4075
X5.8661Y-3.0315
X5.8711Y-2.8632
X5.876Y-3.4744
X5.8858Y-3.6024
X5.8917Y-3.4066
X5.8957Y-3.0512
X5.897Y-3.3098
X5.9055Y-3.7008
X5.9155Y-2.9576
X5.9166Y-3.4262
X5.9252Y-2.8681
X5.9252Y-3.2874
X5.9357Y-2.9818
X5.9389Y-2.8252
X5.9547Y-2.8543
X5.9547Y-3.1594
X5.9646Y-3.8091
X5.9646Y-3.8484
X5.9651Y-2.9931
X5.9744Y-2.8248
X5.9744Y-3.4154
X5.9843Y-3.5689
X5.9887Y-2.9647
X5.9941Y-3.1594
X6.0021Y-2.8097
X6.0042Y-3.0709
X6.0059Y-3.002
X6.0059Y-3.6989
X6.0213Y-3.4926
X6.0236Y-3.4154
X6.0276Y-2.8445
X6.0334Y-3.3081
X6.0335Y-3.7087
X6.0353Y-2.979
X6.0517Y-3.4843
X6.063Y-3.4154
X6.063Y-3.8189
X6.0649Y-3.307
X6.0925Y-2.8543
X6.1024Y-3.4055
X6.1198Y-2.9587
X6.122Y-3.3071
X6.1306Y-3.0796
X6.1368Y-3.2038
X6.1417Y-3.002
X6.1473Y-3.4659
X6.1564Y-3.0699
X6.1614Y-3.3465
X6.1614Y-3.4941
X6.1656Y-3.5827
X6.1657Y-2.9767
X6.1698Y-2.9048
X6.2008Y-2.8051
X6.2402Y-2.9528
X6.25Y-3.3071
X6.2697Y-3.061
X6.2795Y-3.002
X6.2894Y-3.3012
X6.2895Y-3.0318
X6.293Y-3.1138
X6.2971Y-3.1801
X6.3091Y-3.248
X6.3287Y-3.75
X6.3484Y-3.1693
X6.378Y-3.3661
X6.3843Y-2.8641
X6.4075Y-3.248
X6.4272Y-3.435
X6.4567Y-3.4646
X6.4567Y-3.7106
X6.4739Y-2.9798
X6.4764Y-3.1496
X6.5157Y-3.1791
X6.5157Y-3.248
X6.5453Y-3.2776
X6.6004Y-3.2382
X6.6339Y-2.8839
X6.6634Y-2.9035
X6.7126Y-3.0358
T3
X5.5118Y-3.4341
X5.5118Y-3.5341
X6.786Y-3.1169
X6.786Y-3.2169
X6.786Y-3.3169
X6.786Y-3.4169
X6.786Y-3.5169
T2
G00X5.7846Y-3.6553
M15
G01X5.7846Y-3.6986
M16
G05
G00X5.7846Y-3.8258
M15
G01X5.7846Y-3.8573
M16
G05
G00X6.1248Y-3.6553
M15
G01X6.1248Y-3.6986
M16
G05
G00X6.1248Y-3.8258
M15
G01X6.1248Y-3.8573
M16
G05
M30
