%TF.GenerationSoftware,KiCad,Pcbnew,9.0.7*%
%TF.CreationDate,2026-01-30T01:35:17+02:00*%
%TF.ProjectId,HM-Collector-Rev2,484d2d43-6f6c-46c6-9563-746f722d5265,rev?*%
%TF.SameCoordinates,Original*%
%TF.FileFunction,Copper,L4,Bot*%
%TF.FilePolarity,Positive*%
%FSLAX46Y46*%
G04 Gerber Fmt 4.6, Leading zero omitted, Abs format (unit mm)*
G04 Created by KiCad (PCBNEW 9.0.7) date 2026-01-30 01:35:17*
%MOMM*%
%LPD*%
G01*
G04 APERTURE LIST*
G04 Aperture macros list*
%AMRoundRect*
0 Rectangle with rounded corners*
0 $1 Rounding radius*
0 $2 $3 $4 $5 $6 $7 $8 $9 X,Y pos of 4 corners*
0 Add a 4 corners polygon primitive as box body*
4,1,4,$2,$3,$4,$5,$6,$7,$8,$9,$2,$3,0*
0 Add four circle primitives for the rounded corners*
1,1,$1+$1,$2,$3*
1,1,$1+$1,$4,$5*
1,1,$1+$1,$6,$7*
1,1,$1+$1,$8,$9*
0 Add four rect primitives between the rounded corners*
20,1,$1+$1,$2,$3,$4,$5,0*
20,1,$1+$1,$4,$5,$6,$7,0*
20,1,$1+$1,$6,$7,$8,$9,0*
20,1,$1+$1,$8,$9,$2,$3,0*%
G04 Aperture macros list end*
%TA.AperFunction,SMDPad,CuDef*%
%ADD10R,1.200000X0.600000*%
%TD*%
%TA.AperFunction,SMDPad,CuDef*%
%ADD11RoundRect,0.250000X-0.475000X0.250000X-0.475000X-0.250000X0.475000X-0.250000X0.475000X0.250000X0*%
%TD*%
%TA.AperFunction,SMDPad,CuDef*%
%ADD12RoundRect,0.200000X-0.200000X-0.275000X0.200000X-0.275000X0.200000X0.275000X-0.200000X0.275000X0*%
%TD*%
%TA.AperFunction,SMDPad,CuDef*%
%ADD13RoundRect,0.200000X0.200000X0.275000X-0.200000X0.275000X-0.200000X-0.275000X0.200000X-0.275000X0*%
%TD*%
%TA.AperFunction,SMDPad,CuDef*%
%ADD14RoundRect,0.250000X0.250000X0.475000X-0.250000X0.475000X-0.250000X-0.475000X0.250000X-0.475000X0*%
%TD*%
%TA.AperFunction,HeatsinkPad*%
%ADD15O,1.000000X2.100000*%
%TD*%
%TA.AperFunction,HeatsinkPad*%
%ADD16O,1.000000X1.800000*%
%TD*%
%TA.AperFunction,ComponentPad*%
%ADD17R,1.700000X1.700000*%
%TD*%
%TA.AperFunction,ComponentPad*%
%ADD18C,1.700000*%
%TD*%
%TA.AperFunction,SMDPad,CuDef*%
%ADD19RoundRect,0.225000X-0.375000X0.225000X-0.375000X-0.225000X0.375000X-0.225000X0.375000X0.225000X0*%
%TD*%
%TA.AperFunction,SMDPad,CuDef*%
%ADD20RoundRect,0.225000X-0.250000X0.225000X-0.250000X-0.225000X0.250000X-0.225000X0.250000X0.225000X0*%
%TD*%
%TA.AperFunction,SMDPad,CuDef*%
%ADD21RoundRect,0.225000X-0.225000X-0.250000X0.225000X-0.250000X0.225000X0.250000X-0.225000X0.250000X0*%
%TD*%
%TA.AperFunction,SMDPad,CuDef*%
%ADD22RoundRect,0.225000X0.250000X-0.225000X0.250000X0.225000X-0.250000X0.225000X-0.250000X-0.225000X0*%
%TD*%
%TA.AperFunction,SMDPad,CuDef*%
%ADD23RoundRect,0.225000X0.225000X0.250000X-0.225000X0.250000X-0.225000X-0.250000X0.225000X-0.250000X0*%
%TD*%
%TA.AperFunction,SMDPad,CuDef*%
%ADD24RoundRect,0.250000X0.850000X-0.375000X0.850000X0.375000X-0.850000X0.375000X-0.850000X-0.375000X0*%
%TD*%
%TA.AperFunction,SMDPad,CuDef*%
%ADD25RoundRect,0.162500X0.650000X0.162500X-0.650000X0.162500X-0.650000X-0.162500X0.650000X-0.162500X0*%
%TD*%
%TA.AperFunction,SMDPad,CuDef*%
%ADD26RoundRect,0.225000X0.225000X0.375000X-0.225000X0.375000X-0.225000X-0.375000X0.225000X-0.375000X0*%
%TD*%
%TA.AperFunction,SMDPad,CuDef*%
%ADD27RoundRect,0.200000X0.275000X-0.200000X0.275000X0.200000X-0.275000X0.200000X-0.275000X-0.200000X0*%
%TD*%
%TA.AperFunction,SMDPad,CuDef*%
%ADD28RoundRect,0.250000X0.475000X-0.250000X0.475000X0.250000X-0.475000X0.250000X-0.475000X-0.250000X0*%
%TD*%
%TA.AperFunction,ViaPad*%
%ADD29C,0.600000*%
%TD*%
%TA.AperFunction,ViaPad*%
%ADD30C,0.500000*%
%TD*%
%TA.AperFunction,Conductor*%
%ADD31C,0.800000*%
%TD*%
%TA.AperFunction,Conductor*%
%ADD32C,0.600000*%
%TD*%
%TA.AperFunction,Conductor*%
%ADD33C,0.200000*%
%TD*%
%TA.AperFunction,Conductor*%
%ADD34C,0.300000*%
%TD*%
%TA.AperFunction,Conductor*%
%ADD35C,0.400000*%
%TD*%
%TA.AperFunction,Conductor*%
%ADD36C,0.500000*%
%TD*%
%TA.AperFunction,Conductor*%
%ADD37C,1.200000*%
%TD*%
G04 APERTURE END LIST*
D10*
%TO.P,IC3,1,IN*%
%TO.N,VIN*%
X168523250Y-85350000D03*
%TO.P,IC3,2,GND*%
%TO.N,GND*%
X168523250Y-86300000D03*
%TO.P,IC3,3,EN*%
%TO.N,VIN*%
X168523250Y-87250000D03*
%TO.P,IC3,4,N/C*%
%TO.N,GND*%
X166023250Y-87250000D03*
%TO.P,IC3,5,OUT*%
%TO.N,VDDA*%
X166023250Y-85350000D03*
%TD*%
%TO.P,IC1,1,IN*%
%TO.N,VIN*%
X146750000Y-88850000D03*
%TO.P,IC1,2,GND*%
%TO.N,GND*%
X146750000Y-89800000D03*
%TO.P,IC1,3,EN*%
%TO.N,VIN*%
X146750000Y-90750000D03*
%TO.P,IC1,4,N/C*%
%TO.N,GND*%
X144250000Y-90750000D03*
%TO.P,IC1,5,OUT*%
%TO.N,+2V8*%
X144250000Y-88850000D03*
%TD*%
D11*
%TO.P,C35,2*%
%TO.N,Net-(D1-A)*%
X140000000Y-84750000D03*
%TO.P,C35,1*%
%TO.N,GND*%
X140000000Y-82850000D03*
%TD*%
D12*
%TO.P,R2,2*%
%TO.N,Net-(U1-PH3)*%
X150000000Y-72100000D03*
%TO.P,R2,1*%
%TO.N,GND*%
X148350000Y-72100000D03*
%TD*%
D13*
%TO.P,R31,1*%
%TO.N,Net-(U1-PB6)*%
X141000000Y-80000000D03*
%TO.P,R31,2*%
%TO.N,Net-(D6-A)*%
X139350000Y-80000000D03*
%TD*%
%TO.P,R30,1*%
%TO.N,Net-(U1-PB5)*%
X141000000Y-78500000D03*
%TO.P,R30,2*%
%TO.N,Net-(D5-A)*%
X139350000Y-78500000D03*
%TD*%
%TO.P,R29,1*%
%TO.N,Net-(U1-PB4)*%
X141000000Y-77000000D03*
%TO.P,R29,2*%
%TO.N,Net-(D4-A)*%
X139350000Y-77000000D03*
%TD*%
%TO.P,R28,1*%
%TO.N,Net-(U1-PB3)*%
X141000000Y-75500000D03*
%TO.P,R28,2*%
%TO.N,Net-(D3-A)*%
X139350000Y-75500000D03*
%TD*%
%TO.P,R26,1*%
%TO.N,Net-(J3-CC1)*%
X149750000Y-95500000D03*
%TO.P,R26,2*%
%TO.N,GND*%
X148100000Y-95500000D03*
%TD*%
D12*
%TO.P,R27,1*%
%TO.N,Net-(J3-CC2)*%
X152600000Y-95500000D03*
%TO.P,R27,2*%
%TO.N,GND*%
X154250000Y-95500000D03*
%TD*%
D14*
%TO.P,C34,1*%
%TO.N,GND*%
X150250000Y-97250000D03*
%TO.P,C34,2*%
%TO.N,Net-(D2-A)*%
X148350000Y-97250000D03*
%TD*%
D15*
%TO.P,J3,S1,SHIELD*%
%TO.N,GND*%
X146930000Y-93395000D03*
D16*
X146930000Y-97575000D03*
D15*
X155570000Y-93395000D03*
D16*
X155570000Y-97575000D03*
%TD*%
D17*
%TO.P,J1,1,Pin_1*%
%TO.N,+2V8*%
X172365000Y-79170000D03*
D18*
%TO.P,J1,2,Pin_2*%
%TO.N,SWCLK*%
X172365000Y-81710000D03*
%TO.P,J1,3,Pin_3*%
%TO.N,GND*%
X172365000Y-84250000D03*
%TO.P,J1,4,Pin_4*%
%TO.N,SWDIO*%
X172365000Y-86790000D03*
%TO.P,J1,5,Pin_5*%
%TO.N,NRST*%
X172365000Y-89330000D03*
%TD*%
D19*
%TO.P,D2,1,K*%
%TO.N,VIN*%
X144750000Y-93950000D03*
%TO.P,D2,2,A*%
%TO.N,Net-(D2-A)*%
X144750000Y-97250000D03*
%TD*%
D17*
%TO.P,J4,1,Pin_1*%
%TO.N,Net-(D1-A)*%
X140000000Y-87225000D03*
D18*
%TO.P,J4,2,Pin_2*%
%TO.N,GND*%
X140000000Y-89765000D03*
%TD*%
D20*
%TO.P,C31,1*%
%TO.N,GND*%
X146500000Y-72700000D03*
%TO.P,C31,2*%
%TO.N,+2V8*%
X146500000Y-74250000D03*
%TD*%
%TO.P,C33,1*%
%TO.N,GND*%
X159500000Y-73700000D03*
%TO.P,C33,2*%
%TO.N,+2V8*%
X159500000Y-75250000D03*
%TD*%
D13*
%TO.P,R24,1*%
%TO.N,Net-(U3-DI{slash}IO_{0})*%
X159250000Y-80000000D03*
%TO.P,R24,2*%
%TO.N,DI-Flash*%
X157600000Y-80000000D03*
%TD*%
D21*
%TO.P,C32,1*%
%TO.N,PA2*%
X145450000Y-87250000D03*
%TO.P,C32,2*%
%TO.N,GND*%
X147000000Y-87250000D03*
%TD*%
D22*
%TO.P,C3,1*%
%TO.N,GND*%
X142500000Y-90500000D03*
%TO.P,C3,2*%
%TO.N,+2V8*%
X142500000Y-88950000D03*
%TD*%
%TO.P,C21,1*%
%TO.N,GND*%
X164273250Y-87075000D03*
%TO.P,C21,2*%
%TO.N,VDDA*%
X164273250Y-85525000D03*
%TD*%
D13*
%TO.P,R19,1*%
%TO.N,CS*%
X147000000Y-85500000D03*
%TO.P,R19,2*%
%TO.N,+2V8*%
X145350000Y-85500000D03*
%TD*%
D20*
%TO.P,C13,1*%
%TO.N,VDDA*%
X149500000Y-81800000D03*
%TO.P,C13,2*%
%TO.N,GND*%
X149500000Y-83350000D03*
%TD*%
D12*
%TO.P,R17,1*%
%TO.N,SDA*%
X152000000Y-85500000D03*
%TO.P,R17,2*%
%TO.N,Net-(U2-SDA)*%
X153650000Y-85500000D03*
%TD*%
D23*
%TO.P,C1,1*%
%TO.N,GND*%
X149525000Y-76350000D03*
%TO.P,C1,2*%
%TO.N,NRST*%
X147975000Y-76350000D03*
%TD*%
%TO.P,C5,1*%
%TO.N,GND*%
X159800000Y-84600000D03*
%TO.P,C5,2*%
%TO.N,+2V8*%
X158250000Y-84600000D03*
%TD*%
D22*
%TO.P,C12,1*%
%TO.N,GND*%
X148000000Y-83350000D03*
%TO.P,C12,2*%
%TO.N,VDDA*%
X148000000Y-81800000D03*
%TD*%
D23*
%TO.P,C11,1*%
%TO.N,GND*%
X152775000Y-74750000D03*
%TO.P,C11,2*%
%TO.N,Net-(C10-Pad2)*%
X151225000Y-74750000D03*
%TD*%
D20*
%TO.P,C10,1*%
%TO.N,GND*%
X156500000Y-82200000D03*
%TO.P,C10,2*%
%TO.N,Net-(C10-Pad2)*%
X156500000Y-83750000D03*
%TD*%
D23*
%TO.P,C20,1*%
%TO.N,VIN*%
X168800000Y-83750000D03*
%TO.P,C20,2*%
%TO.N,GND*%
X167250000Y-83750000D03*
%TD*%
D24*
%TO.P,L1,1,1*%
%TO.N,Net-(U1-VLXSMPS)*%
X154250000Y-82750000D03*
%TO.P,L1,2,2*%
%TO.N,Net-(C10-Pad2)*%
X154250000Y-80600000D03*
%TD*%
D12*
%TO.P,R21,1*%
%TO.N,GND*%
X142350000Y-85250000D03*
%TO.P,R21,2*%
%TO.N,PA2*%
X144000000Y-85250000D03*
%TD*%
D25*
%TO.P,U3,1,~{CS}*%
%TO.N,CS-Flash*%
X168587500Y-74595000D03*
%TO.P,U3,2,DO/IO_{1}*%
%TO.N,Net-(U3-DO{slash}IO_{1})*%
X168587500Y-75865000D03*
%TO.P,U3,3,~{WP}/IO_{2}*%
%TO.N,+2V8*%
X168587500Y-77135000D03*
%TO.P,U3,4,GND*%
%TO.N,GND*%
X168587500Y-78405000D03*
%TO.P,U3,5,DI/IO_{0}*%
%TO.N,Net-(U3-DI{slash}IO_{0})*%
X161412500Y-78405000D03*
%TO.P,U3,6,CLK*%
%TO.N,Net-(U3-CLK)*%
X161412500Y-77135000D03*
%TO.P,U3,7,~{HOLD}/~{RESET}/IO_{3}*%
%TO.N,+2V8*%
X161412500Y-75865000D03*
%TO.P,U3,8,VCC*%
X161412500Y-74595000D03*
%TD*%
D13*
%TO.P,R1,1*%
%TO.N,+2V8*%
X149575000Y-74850000D03*
%TO.P,R1,2*%
%TO.N,NRST*%
X147925000Y-74850000D03*
%TD*%
D11*
%TO.P,C9,1*%
%TO.N,GND*%
X151750000Y-81350000D03*
%TO.P,C9,2*%
%TO.N,+2V8*%
X151750000Y-83250000D03*
%TD*%
D13*
%TO.P,R20,1*%
%TO.N,PA2*%
X144000000Y-86750000D03*
%TO.P,R20,2*%
%TO.N,Net-(D1-A)*%
X142350000Y-86750000D03*
%TD*%
D26*
%TO.P,D1,1,K*%
%TO.N,VIN*%
X142650000Y-92750000D03*
%TO.P,D1,2,A*%
%TO.N,Net-(D1-A)*%
X139350000Y-92750000D03*
%TD*%
D21*
%TO.P,C4,1*%
%TO.N,GND*%
X148950000Y-85500000D03*
%TO.P,C4,2*%
%TO.N,+2V8*%
X150500000Y-85500000D03*
%TD*%
D20*
%TO.P,C15,1*%
%TO.N,+2V8*%
X148000000Y-78350000D03*
%TO.P,C15,2*%
%TO.N,GND*%
X148000000Y-79900000D03*
%TD*%
D13*
%TO.P,R18,1*%
%TO.N,Net-(U2-SCL)*%
X152000000Y-88000000D03*
%TO.P,R18,2*%
%TO.N,SCL*%
X150350000Y-88000000D03*
%TD*%
D22*
%TO.P,C2,1*%
%TO.N,VIN*%
X148500000Y-89250000D03*
%TO.P,C2,2*%
%TO.N,GND*%
X148500000Y-87700000D03*
%TD*%
D27*
%TO.P,R23,1*%
%TO.N,Net-(U3-CLK)*%
X154500000Y-77150000D03*
%TO.P,R23,2*%
%TO.N,CLK-Flash*%
X154500000Y-75500000D03*
%TD*%
D12*
%TO.P,R22,1*%
%TO.N,CS-Flash*%
X166100000Y-72500000D03*
%TO.P,R22,2*%
%TO.N,+2V8*%
X167750000Y-72500000D03*
%TD*%
D28*
%TO.P,C7,1*%
%TO.N,GND*%
X151750000Y-78950000D03*
%TO.P,C7,2*%
%TO.N,+2V8*%
X151750000Y-77050000D03*
%TD*%
D22*
%TO.P,C14,1*%
%TO.N,GND*%
X149500000Y-79900000D03*
%TO.P,C14,2*%
%TO.N,+2V8*%
X149500000Y-78350000D03*
%TD*%
D13*
%TO.P,R25,1*%
%TO.N,Net-(U3-DO{slash}IO_{1})*%
X155575000Y-71250000D03*
%TO.P,R25,2*%
%TO.N,DO-Flash*%
X153925000Y-71250000D03*
%TD*%
D29*
%TO.N,GND*%
X143250000Y-91500000D03*
X141150000Y-82900000D03*
X138850000Y-82900000D03*
%TO.N,+2V8*%
X148750000Y-79000000D03*
%TO.N,Net-(U1-VLXSMPS)*%
X154048563Y-83998334D03*
%TO.N,GND*%
X160750000Y-95250000D03*
X164000000Y-94250000D03*
%TO.N,Net-(D5-A)*%
X139000000Y-81250000D03*
%TO.N,Net-(D4-A)*%
X139250000Y-74250000D03*
%TO.N,Net-(D6-A)*%
X140000000Y-81000000D03*
%TO.N,Net-(D3-A)*%
X140250000Y-74750000D03*
%TO.N,GND*%
X146500000Y-71750000D03*
D30*
X149125000Y-72725000D03*
D29*
%TO.N,Net-(U1-PB3)*%
X153100000Y-72250000D03*
%TO.N,Net-(U1-PB4)*%
X152452326Y-71366930D03*
%TO.N,Net-(U1-PB5)*%
X151750000Y-71750000D03*
%TO.N,Net-(U1-PB6)*%
X151250000Y-72500000D03*
D30*
%TO.N,GND*%
X150847637Y-71759246D03*
D29*
X138300000Y-76750000D03*
X138300000Y-78750000D03*
%TO.N,VIN*%
X145500000Y-88250000D03*
D30*
%TO.N,Net-(D2-A)*%
X149500000Y-91500000D03*
X153250000Y-94200000D03*
%TO.N,Net-(J3-CC2)*%
X152550000Y-93952541D03*
D29*
%TO.N,+2V8*%
X152000000Y-90650000D03*
D30*
%TO.N,LO+*%
X155717465Y-78222068D03*
D29*
%TO.N,GND*%
X156609287Y-75609287D03*
D30*
%TO.N,LO-*%
X156372225Y-77974499D03*
D29*
%TO.N,GND*%
X154000000Y-97000000D03*
X151500000Y-96750000D03*
X151500000Y-97750000D03*
D30*
%TO.N,Net-(D2-A)*%
X146250000Y-95500000D03*
D29*
%TO.N,GND*%
X147500000Y-94750000D03*
%TO.N,Net-(J3-CC1)*%
X150000000Y-94000000D03*
%TO.N,GND*%
X152941234Y-88712500D03*
X148850000Y-86550000D03*
X149250000Y-88250000D03*
X162000000Y-85500000D03*
D30*
X143717598Y-79989502D03*
X144250000Y-75100000D03*
D29*
X152250000Y-80250000D03*
X161250000Y-80500000D03*
X151250000Y-80250000D03*
X159841177Y-79091177D03*
X155000000Y-86500000D03*
X148000000Y-80850000D03*
D30*
X147750000Y-84100000D03*
D29*
X155874265Y-81375735D03*
X159750000Y-83850000D03*
X145250000Y-90500000D03*
D30*
X143750000Y-81850000D03*
D29*
X141500000Y-85250000D03*
X156142229Y-88034458D03*
X156712528Y-73782730D03*
X167650000Y-82250000D03*
X156500000Y-85000000D03*
X165500000Y-80750000D03*
X164000000Y-88000000D03*
X156607000Y-91000000D03*
X152112737Y-75304094D03*
X149000000Y-77000000D03*
D30*
X144250000Y-74350000D03*
X143250000Y-78100000D03*
X149784794Y-84068242D03*
D29*
X143687080Y-90054437D03*
D30*
X160250000Y-82500000D03*
D29*
X164438180Y-75688180D03*
X163250000Y-87250000D03*
%TO.N,+2V8*%
X164500000Y-80000000D03*
X146500000Y-75250000D03*
X144899000Y-84750000D03*
X149649675Y-86527124D03*
D30*
X150254809Y-75123012D03*
D29*
X143500000Y-88000000D03*
X156500000Y-88750000D03*
X158500000Y-75000000D03*
X153249031Y-84025768D03*
X152550000Y-76250000D03*
X144250000Y-88000000D03*
X142500000Y-88000000D03*
X168500000Y-73250000D03*
X158750000Y-84000000D03*
X149750000Y-77500000D03*
X147750000Y-73250000D03*
X151512487Y-76025787D03*
%TO.N,Net-(C10-Pad2)*%
X155500000Y-84000000D03*
X150765840Y-75738519D03*
%TO.N,VDDA*%
X159945475Y-80775000D03*
X166250000Y-83250000D03*
X162750000Y-82500000D03*
X152507573Y-77999999D03*
D30*
X148780331Y-81130331D03*
D29*
%TO.N,AIN1*%
X162160931Y-72748999D03*
X156000000Y-76250000D03*
%TO.N,Net-(IC2-IAOUT)*%
X170500000Y-77109000D03*
X165500000Y-82500000D03*
%TO.N,LO+*%
X159250000Y-77750000D03*
%TO.N,LO-*%
X159752983Y-77008949D03*
D30*
%TO.N,Net-(U1-PH3)*%
X150500000Y-72850000D03*
D29*
%TO.N,Net-(U2-SDA)*%
X153000000Y-86750000D03*
%TO.N,SDA*%
X151750000Y-86750000D03*
%TO.N,Net-(U2-SCL)*%
X153712498Y-88500000D03*
%TO.N,SCL*%
X150282071Y-87026100D03*
%TO.N,CS*%
X154000000Y-86750000D03*
X148048675Y-86500000D03*
%TO.N,INT2*%
X144250000Y-84250000D03*
X150500000Y-83500000D03*
%TO.N,NRST*%
X142500000Y-84250000D03*
X148129283Y-77347091D03*
%TO.N,SWCLK*%
X157500000Y-71250000D03*
%TO.N,SWDIO*%
X159500000Y-76250000D03*
%TO.N,PA2*%
X146250000Y-84000000D03*
%TO.N,CS-Flash*%
X169250000Y-73750000D03*
D30*
%TO.N,CLK-Flash*%
X155442227Y-75149999D03*
D29*
%TO.N,DI-Flash*%
X153296890Y-75666123D03*
%TO.N,DO-Flash*%
X154750000Y-72500000D03*
%TD*%
D31*
%TO.N,GND*%
X143250000Y-91500000D02*
X143250000Y-91499000D01*
X143250000Y-91499000D02*
X142500000Y-90749000D01*
X142500000Y-90749000D02*
X142500000Y-90500000D01*
D32*
X138900000Y-82850000D02*
X138850000Y-82900000D01*
X140000000Y-82850000D02*
X138900000Y-82850000D01*
X140000000Y-82850000D02*
X141100000Y-82850000D01*
X141100000Y-82850000D02*
X141150000Y-82900000D01*
D33*
%TO.N,Net-(IC2-IAOUT)*%
X165500000Y-82500000D02*
X165964990Y-82500000D01*
X165964990Y-82500000D02*
X170500000Y-77964990D01*
X170500000Y-77964990D02*
X170500000Y-77109000D01*
%TO.N,LO-*%
X156450622Y-77896102D02*
X156372225Y-77974499D01*
X159752983Y-77008949D02*
X159744034Y-77000000D01*
X159744034Y-77000000D02*
X157396102Y-77000000D01*
X157396102Y-77000000D02*
X156500000Y-77896102D01*
X156500000Y-77896102D02*
X156450622Y-77896102D01*
%TO.N,Net-(U1-VLXSMPS)*%
X154250000Y-83796897D02*
X154048563Y-83998334D01*
X154250000Y-82750000D02*
X154250000Y-83796897D01*
%TO.N,CLK-Flash*%
X154500000Y-75500000D02*
X155092226Y-75500000D01*
X155092226Y-75500000D02*
X155442227Y-75149999D01*
%TO.N,Net-(D5-A)*%
X138649000Y-79511936D02*
X139350000Y-78810936D01*
X139000000Y-81250000D02*
X138649000Y-80899000D01*
X138649000Y-80899000D02*
X138649000Y-79511936D01*
X139350000Y-78810936D02*
X139350000Y-78500000D01*
%TO.N,Net-(D4-A)*%
X139250000Y-74250000D02*
X138649000Y-74851000D01*
X138649000Y-74851000D02*
X138649000Y-75988064D01*
X139350000Y-76689064D02*
X139350000Y-77000000D01*
X138649000Y-75988064D02*
X139350000Y-76689064D01*
%TO.N,Net-(D6-A)*%
X139350000Y-80350000D02*
X140000000Y-81000000D01*
X139350000Y-80000000D02*
X139350000Y-80350000D01*
%TO.N,Net-(D3-A)*%
X139500000Y-75500000D02*
X140250000Y-74750000D01*
X139350000Y-75500000D02*
X139500000Y-75500000D01*
D31*
%TO.N,GND*%
X143687080Y-90054437D02*
X143804437Y-90054437D01*
X143804437Y-90054437D02*
X144250000Y-90500000D01*
X144250000Y-90500000D02*
X144250000Y-90750000D01*
X145250000Y-90500000D02*
X145950000Y-89800000D01*
X144250000Y-90750000D02*
X144500000Y-90500000D01*
X144500000Y-90500000D02*
X145250000Y-90500000D01*
X145950000Y-89800000D02*
X146750000Y-89800000D01*
D33*
%TO.N,Net-(U1-PB6)*%
X141000000Y-80000000D02*
X141750000Y-79250000D01*
X150399000Y-73851000D02*
X151250000Y-73000000D01*
X141750000Y-79250000D02*
X141750000Y-78750000D01*
X141750000Y-78750000D02*
X145724000Y-74776000D01*
X145724000Y-74776000D02*
X145724000Y-73800890D01*
X145724000Y-73800890D02*
X146025890Y-73499000D01*
X146025890Y-73499000D02*
X146999000Y-73499000D01*
X146999000Y-73499000D02*
X147351000Y-73851000D01*
X147351000Y-73851000D02*
X150399000Y-73851000D01*
X151250000Y-73000000D02*
X151250000Y-72500000D01*
%TO.N,Net-(U1-PB4)*%
X141000000Y-77000000D02*
X141466450Y-77000000D01*
X141466450Y-77000000D02*
X143298000Y-75168450D01*
X143298000Y-75168450D02*
X143298000Y-73534958D01*
X143298000Y-73534958D02*
X146084958Y-70748000D01*
X146084958Y-70748000D02*
X151833396Y-70748000D01*
X151833396Y-70748000D02*
X152452326Y-71366930D01*
%TO.N,Net-(U1-PB3)*%
X141000000Y-75500000D02*
X142000000Y-75500000D01*
X142897000Y-74603000D02*
X142897000Y-73368858D01*
X142000000Y-75500000D02*
X142897000Y-74603000D01*
X145918858Y-70347000D02*
X152282339Y-70347000D01*
X142897000Y-73368858D02*
X145918858Y-70347000D01*
X152282339Y-70347000D02*
X153100000Y-71164661D01*
X153100000Y-71164661D02*
X153100000Y-72250000D01*
%TO.N,Net-(U1-PB5)*%
X151149000Y-71149000D02*
X151750000Y-71750000D01*
X143699000Y-73701058D02*
X146251058Y-71149000D01*
X143699000Y-75801000D02*
X143699000Y-73701058D01*
X146251058Y-71149000D02*
X151149000Y-71149000D01*
X141000000Y-78500000D02*
X143699000Y-75801000D01*
%TO.N,VIN*%
X146150000Y-88250000D02*
X146750000Y-88850000D01*
X145500000Y-88250000D02*
X146150000Y-88250000D01*
D32*
%TO.N,+2V8*%
X143500000Y-88000000D02*
X144250000Y-88000000D01*
D31*
X143500000Y-88000000D02*
X143000000Y-88000000D01*
X143000000Y-88000000D02*
X142500000Y-88500000D01*
X142500000Y-88500000D02*
X142500000Y-88950000D01*
X142500000Y-88000000D02*
X142500000Y-88950000D01*
D33*
%TO.N,Net-(D2-A)*%
X150876691Y-91500000D02*
X149500000Y-91500000D01*
X153250000Y-93873309D02*
X150876691Y-91500000D01*
X153250000Y-94200000D02*
X153250000Y-93873309D01*
%TO.N,Net-(J3-CC2)*%
X152600000Y-95500000D02*
X152600000Y-94002541D01*
X152600000Y-94002541D02*
X152550000Y-93952541D01*
D31*
%TO.N,VIN*%
X147951000Y-90701000D02*
X147951000Y-90266951D01*
X147951000Y-90266951D02*
X148467951Y-89750000D01*
X166024250Y-90901000D02*
X169724250Y-87201000D01*
X148467951Y-89750000D02*
X159500000Y-89750000D01*
X159500000Y-89750000D02*
X160651000Y-90901000D01*
X160651000Y-90901000D02*
X166024250Y-90901000D01*
X169724250Y-87201000D02*
X169724250Y-85750000D01*
X142650000Y-92750000D02*
X145467951Y-92750000D01*
X145467951Y-92750000D02*
X147516951Y-90701000D01*
X147516951Y-90701000D02*
X147951000Y-90701000D01*
D33*
%TO.N,LO+*%
X155840562Y-78222068D02*
X155717465Y-78222068D01*
X158474501Y-78525499D02*
X156143993Y-78525499D01*
X156143993Y-78525499D02*
X155840562Y-78222068D01*
X159250000Y-77750000D02*
X158474501Y-78525499D01*
%TO.N,AIN1*%
X162160931Y-72748999D02*
X158596202Y-72748999D01*
X158596202Y-72748999D02*
X156000000Y-75345201D01*
X156000000Y-75345201D02*
X156000000Y-76250000D01*
X162159930Y-72750000D02*
X162160931Y-72748999D01*
D32*
%TO.N,+2V8*%
X148808160Y-77801000D02*
X148461069Y-78148091D01*
X149750000Y-77500000D02*
X149632786Y-77500000D01*
X149632786Y-77500000D02*
X149331786Y-77801000D01*
X149331786Y-77801000D02*
X148808160Y-77801000D01*
X148250000Y-78350000D02*
X148000000Y-78350000D01*
X148461069Y-78148091D02*
X148451909Y-78148091D01*
X148451909Y-78148091D02*
X148250000Y-78350000D01*
D33*
%TO.N,NRST*%
X142500000Y-82320768D02*
X142500000Y-84250000D01*
X148129283Y-77347091D02*
X148115924Y-77360450D01*
X148115924Y-77360450D02*
X147460318Y-77360450D01*
X147460318Y-77360450D02*
X142500000Y-82320768D01*
X148129283Y-77347091D02*
X148129283Y-77339733D01*
X148129283Y-77339733D02*
X147975000Y-77185450D01*
X147975000Y-77185450D02*
X147975000Y-76350000D01*
%TO.N,Net-(U3-CLK)*%
X161412500Y-77135000D02*
X160714943Y-77135000D01*
X160714943Y-77135000D02*
X158849943Y-79000000D01*
X155022000Y-78772000D02*
X154500000Y-78250000D01*
X158849943Y-79000000D02*
X155936780Y-79000000D01*
X155936780Y-79000000D02*
X155708780Y-78772000D01*
X155708780Y-78772000D02*
X155022000Y-78772000D01*
X154500000Y-78250000D02*
X154500000Y-77150000D01*
%TO.N,DI-Flash*%
X157600000Y-80000000D02*
X156369680Y-80000000D01*
X153296890Y-78159080D02*
X153296890Y-75666123D01*
X156369680Y-80000000D02*
X155542680Y-79173000D01*
X155542680Y-79173000D02*
X154310810Y-79173000D01*
X154310810Y-79173000D02*
X153296890Y-78159080D01*
D34*
%TO.N,VDDA*%
X159945475Y-80775000D02*
X159945475Y-80855984D01*
X159945475Y-80855984D02*
X159880435Y-80921024D01*
X159880435Y-80921024D02*
X156652894Y-80921024D01*
X156652894Y-80921024D02*
X155355870Y-79624000D01*
X155355870Y-79624000D02*
X154124000Y-79624000D01*
X152507573Y-78007573D02*
X152507573Y-77999999D01*
X154124000Y-79624000D02*
X152507573Y-78007573D01*
D32*
%TO.N,GND*%
X154250000Y-96750000D02*
X154000000Y-97000000D01*
X154250000Y-95500000D02*
X154250000Y-96750000D01*
X154500000Y-95500000D02*
X154250000Y-95500000D01*
X151000000Y-97250000D02*
X151500000Y-96750000D01*
X151000000Y-97250000D02*
X151500000Y-97750000D01*
X150250000Y-97250000D02*
X151000000Y-97250000D01*
D35*
%TO.N,Net-(D2-A)*%
X146250000Y-95500000D02*
X146600000Y-95500000D01*
X146600000Y-95500000D02*
X148350000Y-97250000D01*
D32*
X144750000Y-97250000D02*
X144750000Y-97000000D01*
X144750000Y-97000000D02*
X146250000Y-95500000D01*
D31*
%TO.N,VIN*%
X144750000Y-93950000D02*
X144750000Y-93418951D01*
X144750000Y-93418951D02*
X145418951Y-92750000D01*
D32*
%TO.N,GND*%
X148100000Y-95500000D02*
X148100000Y-95350000D01*
X148100000Y-95350000D02*
X147500000Y-94750000D01*
D33*
%TO.N,Net-(J3-CC1)*%
X150000000Y-94000000D02*
X150000000Y-95250000D01*
X150000000Y-95250000D02*
X149750000Y-95500000D01*
D31*
%TO.N,VIN*%
X142650000Y-92750000D02*
X145418951Y-92750000D01*
X145418951Y-92750000D02*
X147467951Y-90701000D01*
X147467951Y-90701000D02*
X147951000Y-90701000D01*
X147951000Y-90701000D02*
X148500000Y-90152000D01*
X148500000Y-90152000D02*
X148500000Y-89250000D01*
D33*
%TO.N,SWDIO*%
X159500000Y-76250000D02*
X160307010Y-76250000D01*
X160307010Y-76250000D02*
X160565010Y-76508000D01*
X160565010Y-76508000D02*
X170748943Y-76508000D01*
X170748943Y-76508000D02*
X171101000Y-76860057D01*
X171101000Y-85526000D02*
X172365000Y-86790000D01*
X171101000Y-76860057D02*
X171101000Y-85526000D01*
%TO.N,SWCLK*%
X157500000Y-71250000D02*
X167750000Y-71250000D01*
X167750000Y-71250000D02*
X173750000Y-77250000D01*
X173750000Y-77250000D02*
X173750000Y-80325000D01*
X173750000Y-80325000D02*
X172365000Y-81710000D01*
D31*
%TO.N,GND*%
X152250000Y-79450000D02*
X151750000Y-78950000D01*
D36*
X164273250Y-87726750D02*
X164000000Y-88000000D01*
D32*
X149500000Y-79900000D02*
X148000000Y-79900000D01*
X149500000Y-83783448D02*
X149784794Y-84068242D01*
D36*
X166023250Y-87250000D02*
X164448250Y-87250000D01*
D32*
X149525000Y-76350000D02*
X149525000Y-76475000D01*
D31*
X151750000Y-80750000D02*
X152250000Y-80250000D01*
D32*
X159800000Y-84600000D02*
X159800000Y-83900000D01*
D31*
X151750000Y-80750000D02*
X151250000Y-80250000D01*
D32*
X148000000Y-79900000D02*
X148000000Y-80850000D01*
X156500000Y-82001470D02*
X155874265Y-81375735D01*
D31*
X152250000Y-80250000D02*
X152250000Y-79450000D01*
D36*
X167250000Y-86023250D02*
X167250000Y-83750000D01*
D33*
X166242500Y-80750000D02*
X165500000Y-80750000D01*
D36*
X166023250Y-87250000D02*
X167250000Y-86023250D01*
D32*
X148000000Y-83850000D02*
X147750000Y-84100000D01*
X147450000Y-87700000D02*
X147000000Y-87250000D01*
D36*
X167250000Y-85878750D02*
X167250000Y-83750000D01*
D31*
X151250000Y-79450000D02*
X151750000Y-78950000D01*
D32*
X149500000Y-79900000D02*
X148950000Y-79900000D01*
X152112737Y-75304094D02*
X152220906Y-75304094D01*
D31*
X142750000Y-90750000D02*
X142500000Y-90500000D01*
D35*
X159500000Y-73700000D02*
X162450000Y-73700000D01*
D36*
X166023250Y-87250000D02*
X166973250Y-86300000D01*
X167250000Y-82650000D02*
X167650000Y-82250000D01*
D31*
X151250000Y-80250000D02*
X151250000Y-79450000D01*
D36*
X166973250Y-86300000D02*
X168523250Y-86300000D01*
D32*
X156500000Y-82200000D02*
X156500000Y-82001470D01*
X148950000Y-79900000D02*
X148000000Y-80850000D01*
X149525000Y-76475000D02*
X149000000Y-77000000D01*
X152220906Y-75304094D02*
X152775000Y-74750000D01*
D36*
X163425000Y-87075000D02*
X163250000Y-87250000D01*
D31*
X146750000Y-89800000D02*
X145800000Y-89800000D01*
D36*
X167671250Y-86300000D02*
X167250000Y-85878750D01*
D32*
X148950000Y-85500000D02*
X148848675Y-85601325D01*
D36*
X164273250Y-87075000D02*
X163425000Y-87075000D01*
D32*
X148700000Y-87700000D02*
X149250000Y-88250000D01*
X159800000Y-83900000D02*
X159750000Y-83850000D01*
D33*
X168587500Y-78405000D02*
X166242500Y-80750000D01*
D36*
X164273250Y-87075000D02*
X164273250Y-87726750D01*
D32*
X148000000Y-83350000D02*
X148000000Y-83850000D01*
D35*
X162450000Y-73700000D02*
X164438180Y-75688180D01*
D31*
X151750000Y-81350000D02*
X151750000Y-80750000D01*
D36*
X167250000Y-83750000D02*
X167250000Y-82650000D01*
X168523250Y-86300000D02*
X167671250Y-86300000D01*
D32*
X149500000Y-83350000D02*
X149500000Y-83783448D01*
D31*
X144250000Y-90750000D02*
X142750000Y-90750000D01*
D32*
X148500000Y-87700000D02*
X148700000Y-87700000D01*
X148500000Y-87700000D02*
X147450000Y-87700000D01*
X148848675Y-85601325D02*
X148848675Y-86550000D01*
D36*
X164448250Y-87250000D02*
X164273250Y-87075000D01*
D32*
X149500000Y-83350000D02*
X148000000Y-83350000D01*
X142350000Y-85250000D02*
X141500000Y-85250000D01*
D33*
%TO.N,+2V8*%
X167750000Y-72500000D02*
X168500000Y-73250000D01*
D32*
X161412500Y-75865000D02*
X160797500Y-75250000D01*
X148000000Y-78350000D02*
X149500000Y-78350000D01*
X151512487Y-76025787D02*
X151750000Y-76263300D01*
X150254809Y-75123012D02*
X149981797Y-74850000D01*
D33*
X167365000Y-77135000D02*
X164500000Y-80000000D01*
D32*
X160797500Y-75250000D02*
X159500000Y-75250000D01*
X151750000Y-76263300D02*
X151750000Y-77050000D01*
X152550000Y-76250000D02*
X151750000Y-77050000D01*
X150500000Y-85676799D02*
X149649675Y-86527124D01*
D31*
X142600000Y-88850000D02*
X142500000Y-88950000D01*
D32*
X159500000Y-75250000D02*
X158750000Y-75250000D01*
X146500000Y-74250000D02*
X146500000Y-75250000D01*
D33*
X168587500Y-77135000D02*
X167365000Y-77135000D01*
D32*
X158750000Y-84000000D02*
X158750000Y-84100000D01*
X144250000Y-88000000D02*
X144250000Y-88850000D01*
X153249031Y-84025768D02*
X152974766Y-83751503D01*
X145350000Y-85201000D02*
X144899000Y-84750000D01*
X151750000Y-76500000D02*
X151750000Y-77050000D01*
X145350000Y-85500000D02*
X145350000Y-85201000D01*
X161412500Y-74595000D02*
X160155000Y-74595000D01*
X158750000Y-75250000D02*
X158500000Y-75000000D01*
X152251503Y-83751503D02*
X151750000Y-83250000D01*
X149981797Y-74850000D02*
X149575000Y-74850000D01*
D31*
X144250000Y-88850000D02*
X142600000Y-88850000D01*
D32*
X158750000Y-84100000D02*
X158250000Y-84600000D01*
X160155000Y-74595000D02*
X159500000Y-75250000D01*
X150500000Y-85500000D02*
X150500000Y-85676799D01*
X152974766Y-83751503D02*
X152251503Y-83751503D01*
D33*
%TO.N,Net-(C10-Pad2)*%
X155724000Y-83776000D02*
X155500000Y-84000000D01*
X154250000Y-80600000D02*
X152600000Y-82250000D01*
X150549000Y-75955359D02*
X150765840Y-75738519D01*
X155724000Y-82074000D02*
X155724000Y-83776000D01*
X154250000Y-80600000D02*
X155724000Y-82074000D01*
X150549000Y-81799000D02*
X150549000Y-75955359D01*
X155750000Y-83750000D02*
X155500000Y-84000000D01*
X151000000Y-82250000D02*
X150549000Y-81799000D01*
D34*
X151225000Y-75279359D02*
X150765840Y-75738519D01*
D33*
X156500000Y-83750000D02*
X155750000Y-83750000D01*
X152600000Y-82250000D02*
X151000000Y-82250000D01*
D34*
X151225000Y-74750000D02*
X151225000Y-75279359D01*
D32*
%TO.N,VDDA*%
X148000000Y-81800000D02*
X148182786Y-81800000D01*
D36*
X165600000Y-85350000D02*
X162750000Y-82500000D01*
X159945475Y-80775000D02*
X160015501Y-80775000D01*
X160015501Y-80775000D02*
X160161525Y-80921024D01*
X166023250Y-85350000D02*
X164448250Y-85350000D01*
X160161525Y-80921024D02*
X160608949Y-80921024D01*
X166023250Y-85350000D02*
X166023250Y-83476750D01*
X166023250Y-83476750D02*
X166250000Y-83250000D01*
X166023250Y-85350000D02*
X165600000Y-85350000D01*
D32*
X148182786Y-81800000D02*
X148816393Y-81166393D01*
D36*
X164448250Y-85350000D02*
X164273250Y-85525000D01*
X160608949Y-80921024D02*
X165037925Y-85350000D01*
X165037925Y-85350000D02*
X166023250Y-85350000D01*
D32*
X149500000Y-81800000D02*
X149450000Y-81800000D01*
X149450000Y-81800000D02*
X148816393Y-81166393D01*
D33*
%TO.N,Net-(U2-SDA)*%
X153000000Y-86150000D02*
X153650000Y-85500000D01*
X153000000Y-86750000D02*
X153000000Y-86150000D01*
%TO.N,SDA*%
X152000000Y-86500000D02*
X151750000Y-86750000D01*
X152000000Y-85500000D02*
X152000000Y-86500000D01*
%TO.N,Net-(U2-SCL)*%
X153212498Y-88000000D02*
X153712498Y-88500000D01*
X152000000Y-88000000D02*
X153212498Y-88000000D01*
%TO.N,SCL*%
X150282071Y-87932071D02*
X150350000Y-88000000D01*
X150282071Y-87026100D02*
X150282071Y-87932071D01*
%TO.N,CS*%
X148500890Y-84724000D02*
X148048675Y-85176215D01*
X154000000Y-86750000D02*
X154399000Y-86351000D01*
X148048675Y-85176215D02*
X148048675Y-86500000D01*
X148048675Y-86500000D02*
X147048675Y-85500000D01*
X147048675Y-85500000D02*
X147000000Y-85500000D01*
X154063064Y-84724000D02*
X148500890Y-84724000D01*
X154399000Y-86351000D02*
X154399000Y-85059936D01*
X154399000Y-85059936D02*
X154063064Y-84724000D01*
%TO.N,INT2*%
X145901000Y-82599000D02*
X144250000Y-84250000D01*
X150500000Y-83124890D02*
X149974110Y-82599000D01*
X150500000Y-83500000D02*
X150500000Y-83124890D01*
X149974110Y-82599000D02*
X145901000Y-82599000D01*
%TO.N,Net-(D1-A)*%
X140475000Y-86750000D02*
X140000000Y-87225000D01*
D31*
X139350000Y-92750000D02*
X138549000Y-91949000D01*
X138549000Y-88676000D02*
X140000000Y-87225000D01*
D33*
X142350000Y-86750000D02*
X140475000Y-86750000D01*
X139850000Y-87075000D02*
X140000000Y-87225000D01*
D31*
X138549000Y-91949000D02*
X138549000Y-88676000D01*
%TO.N,VIN*%
X169724250Y-85750000D02*
X169724250Y-84674250D01*
X169324250Y-85350000D02*
X168523250Y-85350000D01*
X148500000Y-89250000D02*
X148000000Y-89250000D01*
D33*
X169500000Y-85750000D02*
X169100000Y-85350000D01*
X169100000Y-85350000D02*
X168523250Y-85350000D01*
D31*
X148000000Y-89250000D02*
X147549000Y-88799000D01*
D33*
X169500000Y-86750000D02*
X169500000Y-85750000D01*
D31*
X169724250Y-85750000D02*
X169324250Y-85350000D01*
D33*
X168523250Y-87250000D02*
X169000000Y-87250000D01*
D31*
X147549000Y-88799000D02*
X146750000Y-88799000D01*
D33*
X169000000Y-87250000D02*
X169500000Y-86750000D01*
D31*
X169724250Y-84674250D02*
X168800000Y-83750000D01*
D33*
%TO.N,NRST*%
X147925000Y-76300000D02*
X147975000Y-76350000D01*
X147925000Y-74850000D02*
X147925000Y-76300000D01*
%TO.N,PA2*%
X146250000Y-84000000D02*
X146250000Y-86450000D01*
X146250000Y-86450000D02*
X145450000Y-87250000D01*
X144950000Y-86750000D02*
X145450000Y-87250000D01*
X144000000Y-86750000D02*
X144950000Y-86750000D01*
X144000000Y-86750000D02*
X144000000Y-85250000D01*
%TO.N,CS-Flash*%
X169250000Y-73932500D02*
X168587500Y-74595000D01*
X168587500Y-74595000D02*
X166492500Y-72500000D01*
X169250000Y-73750000D02*
X169250000Y-73932500D01*
X166492500Y-72500000D02*
X166100000Y-72500000D01*
%TO.N,Net-(U3-DI{slash}IO_{0})*%
X159817500Y-80000000D02*
X161412500Y-78405000D01*
X159250000Y-80000000D02*
X159817500Y-80000000D01*
%TO.N,DO-Flash*%
X154750000Y-72075000D02*
X153925000Y-71250000D01*
X154750000Y-72500000D02*
X154750000Y-72075000D01*
%TO.N,Net-(U3-DO{slash}IO_{1})*%
X156474000Y-72149000D02*
X155575000Y-71250000D01*
X164059002Y-72149000D02*
X156474000Y-72149000D01*
X164080001Y-72169999D02*
X167775001Y-75865000D01*
X167775001Y-75865000D02*
X168587500Y-75865000D01*
X164059001Y-72149000D02*
X164080001Y-72169999D01*
X164080001Y-72169999D02*
X164059002Y-72149000D01*
D32*
%TO.N,GND*%
X148350000Y-72100000D02*
X148500000Y-72100000D01*
X148500000Y-72100000D02*
X149125000Y-72725000D01*
D33*
%TO.N,Net-(U1-PH3)*%
X150000000Y-72100000D02*
X150000000Y-72350000D01*
X150000000Y-72350000D02*
X150500000Y-72850000D01*
D32*
%TO.N,GND*%
X146500000Y-72700000D02*
X146500000Y-71750000D01*
D33*
%TO.N,CLK-Flash*%
X155442227Y-75149999D02*
X155371518Y-75149999D01*
D32*
%TO.N,+2V8*%
X148850000Y-79000000D02*
X149500000Y-78350000D01*
X148750000Y-79000000D02*
X148850000Y-79000000D01*
D37*
%TO.N,Net-(D1-A)*%
X140000000Y-84750000D02*
X140000000Y-87225000D01*
%TD*%
%TA.AperFunction,Conductor*%
%TO.N,GND*%
G36*
X174442539Y-70020185D02*
G01*
X174488294Y-70072989D01*
X174499500Y-70124500D01*
X174499500Y-98375500D01*
X174479815Y-98442539D01*
X174427011Y-98488294D01*
X174375500Y-98499500D01*
X138124500Y-98499500D01*
X138057461Y-98479815D01*
X138011706Y-98427011D01*
X138000500Y-98375500D01*
X138000500Y-96393713D01*
X138649500Y-96393713D01*
X138649500Y-96606286D01*
X138682753Y-96816239D01*
X138682753Y-96816241D01*
X138682754Y-96816243D01*
X138722274Y-96937874D01*
X138748444Y-97018414D01*
X138844951Y-97207820D01*
X138969890Y-97379786D01*
X139120213Y-97530109D01*
X139292179Y-97655048D01*
X139292181Y-97655049D01*
X139292184Y-97655051D01*
X139481588Y-97751557D01*
X139683757Y-97817246D01*
X139893713Y-97850500D01*
X139893714Y-97850500D01*
X140106286Y-97850500D01*
X140106287Y-97850500D01*
X140316243Y-97817246D01*
X140518412Y-97751557D01*
X140707816Y-97655051D01*
X140815088Y-97577114D01*
X140879786Y-97530109D01*
X140879788Y-97530106D01*
X140879792Y-97530104D01*
X141030104Y-97379792D01*
X141030106Y-97379788D01*
X141030109Y-97379786D01*
X141155048Y-97207820D01*
X141155047Y-97207820D01*
X141155051Y-97207816D01*
X141251557Y-97018412D01*
X141264201Y-96979498D01*
X143899500Y-96979498D01*
X143899500Y-97520481D01*
X143899501Y-97520490D01*
X143905587Y-97577114D01*
X143934656Y-97655048D01*
X143953372Y-97705226D01*
X144035313Y-97814687D01*
X144144774Y-97896628D01*
X144272886Y-97944412D01*
X144329515Y-97950500D01*
X145170484Y-97950499D01*
X145227114Y-97944412D01*
X145355226Y-97896628D01*
X145464687Y-97814687D01*
X145546628Y-97705226D01*
X145594412Y-97577114D01*
X145596687Y-97555944D01*
X145600499Y-97520501D01*
X145600499Y-97520490D01*
X145600500Y-97520485D01*
X145600499Y-96979516D01*
X145600499Y-96979515D01*
X145600499Y-96979386D01*
X145620183Y-96912347D01*
X145636813Y-96891710D01*
X146408029Y-96120495D01*
X146469352Y-96087010D01*
X146539044Y-96091994D01*
X146583391Y-96120495D01*
X147563181Y-97100285D01*
X147596666Y-97161608D01*
X147599500Y-97187966D01*
X147599500Y-97772870D01*
X147599501Y-97772876D01*
X147605908Y-97832483D01*
X147656202Y-97967328D01*
X147656206Y-97967335D01*
X147742452Y-98082544D01*
X147742455Y-98082547D01*
X147857664Y-98168793D01*
X147857671Y-98168797D01*
X147902618Y-98185561D01*
X147992517Y-98219091D01*
X148052127Y-98225500D01*
X148647872Y-98225499D01*
X148707483Y-98219091D01*
X148842331Y-98168796D01*
X148957546Y-98082546D01*
X149043796Y-97967331D01*
X149094091Y-97832483D01*
X149100500Y-97772873D01*
X149100499Y-96727128D01*
X149094091Y-96667517D01*
X149071253Y-96606286D01*
X149043797Y-96532671D01*
X149043793Y-96532664D01*
X148957547Y-96417455D01*
X148957544Y-96417452D01*
X148842335Y-96331206D01*
X148842328Y-96331202D01*
X148707486Y-96280910D01*
X148707485Y-96280909D01*
X148707483Y-96280909D01*
X148647873Y-96274500D01*
X148647864Y-96274500D01*
X148062965Y-96274500D01*
X147995926Y-96254815D01*
X147975284Y-96238181D01*
X146907833Y-95170730D01*
X149099500Y-95170730D01*
X149099500Y-95829269D01*
X149102353Y-95859699D01*
X149102353Y-95859701D01*
X149147206Y-95987880D01*
X149147207Y-95987882D01*
X149227850Y-96097150D01*
X149337118Y-96177793D01*
X149354171Y-96183760D01*
X149465299Y-96222646D01*
X149495730Y-96225500D01*
X149495734Y-96225500D01*
X150004270Y-96225500D01*
X150034699Y-96222646D01*
X150034701Y-96222646D01*
X150098790Y-96200219D01*
X150162882Y-96177793D01*
X150272150Y-96097150D01*
X150352793Y-95987882D01*
X150375219Y-95923790D01*
X150397646Y-95859701D01*
X150397646Y-95859699D01*
X150400500Y-95829269D01*
X150400500Y-95170730D01*
X150397646Y-95140302D01*
X150397645Y-95140300D01*
X150374346Y-95073713D01*
X150357458Y-95025449D01*
X150350500Y-94984495D01*
X150350500Y-94479386D01*
X150370185Y-94412347D01*
X150386819Y-94391705D01*
X150398060Y-94380464D01*
X150440509Y-94338015D01*
X150512984Y-94212485D01*
X150550500Y-94072475D01*
X150550500Y-93927525D01*
X150512984Y-93787515D01*
X150494801Y-93756022D01*
X150440511Y-93661988D01*
X150440506Y-93661982D01*
X150338017Y-93559493D01*
X150338011Y-93559488D01*
X150212488Y-93487017D01*
X150212489Y-93487017D01*
X150201006Y-93483940D01*
X150072475Y-93449500D01*
X149927525Y-93449500D01*
X149798993Y-93483940D01*
X149787511Y-93487017D01*
X149661988Y-93559488D01*
X149661982Y-93559493D01*
X149559493Y-93661982D01*
X149559488Y-93661988D01*
X149487017Y-93787511D01*
X149487016Y-93787515D01*
X149449500Y-93927525D01*
X149449500Y-94072475D01*
X149487016Y-94212485D01*
X149487017Y-94212488D01*
X149559488Y-94338011D01*
X149559493Y-94338017D01*
X149613181Y-94391705D01*
X149627884Y-94418632D01*
X149644477Y-94444451D01*
X149645368Y-94450651D01*
X149646666Y-94453028D01*
X149649500Y-94479386D01*
X149649500Y-94650500D01*
X149629815Y-94717539D01*
X149577011Y-94763294D01*
X149525500Y-94774500D01*
X149495730Y-94774500D01*
X149465300Y-94777353D01*
X149465298Y-94777353D01*
X149337119Y-94822206D01*
X149337117Y-94822207D01*
X149227850Y-94902850D01*
X149147207Y-95012117D01*
X149147206Y-95012119D01*
X149102353Y-95140298D01*
X149102353Y-95140300D01*
X149099500Y-95170730D01*
X146907833Y-95170730D01*
X146876616Y-95139513D01*
X146876614Y-95139511D01*
X146825250Y-95109856D01*
X146773888Y-95080201D01*
X146755854Y-95075369D01*
X146755852Y-95075368D01*
X146749673Y-95073713D01*
X146659309Y-95049500D01*
X146594085Y-95049500D01*
X146584355Y-95047944D01*
X146566605Y-95039497D01*
X146541936Y-95032887D01*
X146530156Y-95026086D01*
X146462485Y-94987016D01*
X146322474Y-94949501D01*
X146177526Y-94949501D01*
X146037514Y-94987016D01*
X145911986Y-95059489D01*
X145911983Y-95059491D01*
X144458292Y-96513181D01*
X144396969Y-96546666D01*
X144370614Y-96549500D01*
X144329520Y-96549500D01*
X144329509Y-96549501D01*
X144272885Y-96555587D01*
X144144773Y-96603372D01*
X144035313Y-96685313D01*
X143953373Y-96794771D01*
X143905587Y-96922889D01*
X143899500Y-96979498D01*
X141264201Y-96979498D01*
X141317246Y-96816243D01*
X141350500Y-96606287D01*
X141350500Y-96393713D01*
X141317246Y-96183757D01*
X141251557Y-95981588D01*
X141155051Y-95792184D01*
X141155049Y-95792181D01*
X141155048Y-95792179D01*
X141030109Y-95620213D01*
X140879786Y-95469890D01*
X140707820Y-95344951D01*
X140518414Y-95248444D01*
X140518413Y-95248443D01*
X140518412Y-95248443D01*
X140316243Y-95182754D01*
X140316241Y-95182753D01*
X140316240Y-95182753D01*
X140154957Y-95157208D01*
X140106287Y-95149500D01*
X139893713Y-95149500D01*
X139845042Y-95157208D01*
X139683760Y-95182753D01*
X139481585Y-95248444D01*
X139292179Y-95344951D01*
X139120213Y-95469890D01*
X138969890Y-95620213D01*
X138844951Y-95792179D01*
X138748444Y-95981585D01*
X138682753Y-96183760D01*
X138649500Y-96393713D01*
X138000500Y-96393713D01*
X138000500Y-92619808D01*
X138020185Y-92552769D01*
X138072989Y-92507014D01*
X138142147Y-92497070D01*
X138205703Y-92526095D01*
X138212181Y-92532127D01*
X138613181Y-92933127D01*
X138646666Y-92994450D01*
X138649500Y-93020807D01*
X138649500Y-93170480D01*
X138649501Y-93170490D01*
X138655587Y-93227114D01*
X138693716Y-93329338D01*
X138703372Y-93355226D01*
X138785313Y-93464687D01*
X138894774Y-93546628D01*
X139022886Y-93594412D01*
X139079515Y-93600500D01*
X139620484Y-93600499D01*
X139677114Y-93594412D01*
X139805226Y-93546628D01*
X139914687Y-93464687D01*
X139996628Y-93355226D01*
X140044412Y-93227114D01*
X140046687Y-93205944D01*
X140050499Y-93170501D01*
X140050499Y-93170490D01*
X140050500Y-93170485D01*
X140050499Y-92329516D01*
X140044412Y-92272886D01*
X139996628Y-92144774D01*
X139914687Y-92035313D01*
X139822619Y-91966392D01*
X139805228Y-91953373D01*
X139805226Y-91953372D01*
X139677114Y-91905588D01*
X139677112Y-91905587D01*
X139677110Y-91905587D01*
X139620501Y-91899500D01*
X139620485Y-91899500D01*
X139470808Y-91899500D01*
X139441367Y-91890855D01*
X139411381Y-91884332D01*
X139406365Y-91880577D01*
X139403769Y-91879815D01*
X139383127Y-91863181D01*
X139235819Y-91715873D01*
X139202334Y-91654550D01*
X139199500Y-91628192D01*
X139199500Y-88996808D01*
X139219185Y-88929769D01*
X139235819Y-88909127D01*
X139783127Y-88361819D01*
X139844450Y-88328334D01*
X139870808Y-88325500D01*
X140874676Y-88325500D01*
X140874677Y-88325499D01*
X140947740Y-88310966D01*
X141030601Y-88255601D01*
X141085966Y-88172740D01*
X141085966Y-88172739D01*
X141085967Y-88172738D01*
X141085967Y-88172735D01*
X141100499Y-88099678D01*
X141100500Y-88099676D01*
X141100500Y-87224500D01*
X141120185Y-87157461D01*
X141172989Y-87111706D01*
X141224500Y-87100500D01*
X141611153Y-87100500D01*
X141678192Y-87120185D01*
X141723947Y-87172989D01*
X141728187Y-87183528D01*
X141747207Y-87237882D01*
X141827850Y-87347150D01*
X141937118Y-87427793D01*
X141944595Y-87433311D01*
X141943616Y-87434636D01*
X141986022Y-87475899D01*
X142001805Y-87543962D01*
X141981115Y-87605697D01*
X141923537Y-87691868D01*
X141923533Y-87691875D01*
X141874499Y-87810255D01*
X141874497Y-87810261D01*
X141849500Y-87935928D01*
X141849500Y-88425279D01*
X141831551Y-88486404D01*
X141832623Y-88486990D01*
X141829932Y-88491916D01*
X141829815Y-88492318D01*
X141829340Y-88493001D01*
X141828373Y-88494771D01*
X141828372Y-88494774D01*
X141784140Y-88613364D01*
X141780587Y-88622889D01*
X141774500Y-88679498D01*
X141774500Y-89220481D01*
X141774501Y-89220490D01*
X141780587Y-89277114D01*
X141821188Y-89385966D01*
X141828372Y-89405226D01*
X141910313Y-89514687D01*
X141998177Y-89580461D01*
X142007843Y-89587697D01*
X142019774Y-89596628D01*
X142147886Y-89644412D01*
X142204515Y-89650500D01*
X142795484Y-89650499D01*
X142852114Y-89644412D01*
X142980226Y-89596628D01*
X143075600Y-89525232D01*
X143141063Y-89500816D01*
X143149909Y-89500500D01*
X144314071Y-89500500D01*
X144398615Y-89483682D01*
X144439744Y-89475501D01*
X144558127Y-89426465D01*
X144565712Y-89421396D01*
X144632389Y-89400520D01*
X144634601Y-89400500D01*
X144874676Y-89400500D01*
X144874677Y-89400499D01*
X144947740Y-89385966D01*
X145030601Y-89330601D01*
X145085966Y-89247740D01*
X145100500Y-89174674D01*
X145100500Y-88869785D01*
X145120185Y-88802746D01*
X145172989Y-88756991D01*
X145242147Y-88747047D01*
X145279900Y-88760114D01*
X145280001Y-88759872D01*
X145284078Y-88761560D01*
X145286504Y-88762400D01*
X145287515Y-88762984D01*
X145427525Y-88800500D01*
X145427528Y-88800500D01*
X145572472Y-88800500D01*
X145572475Y-88800500D01*
X145712485Y-88762984D01*
X145713495Y-88762400D01*
X145714457Y-88762167D01*
X145719999Y-88759872D01*
X145720356Y-88760735D01*
X145781393Y-88745925D01*
X145847421Y-88768774D01*
X145890615Y-88823692D01*
X145899500Y-88869785D01*
X145899500Y-89174678D01*
X145914032Y-89247735D01*
X145914033Y-89247739D01*
X145914034Y-89247740D01*
X145969399Y-89330601D01*
X146052260Y-89385966D01*
X146052264Y-89385967D01*
X146125321Y-89400499D01*
X146125324Y-89400500D01*
X146125326Y-89400500D01*
X146477648Y-89400500D01*
X146525100Y-89409938D01*
X146560256Y-89424501D01*
X146560260Y-89424501D01*
X146560261Y-89424502D01*
X146685928Y-89449500D01*
X146685931Y-89449500D01*
X147228192Y-89449500D01*
X147257632Y-89458144D01*
X147287619Y-89464668D01*
X147292634Y-89468422D01*
X147295231Y-89469185D01*
X147315873Y-89485819D01*
X147476348Y-89646294D01*
X147509833Y-89707617D01*
X147504849Y-89777309D01*
X147476349Y-89821655D01*
X147445722Y-89852282D01*
X147409303Y-89906787D01*
X147409304Y-89906788D01*
X147374534Y-89958824D01*
X147355547Y-90004664D01*
X147335146Y-90029978D01*
X147315794Y-90056103D01*
X147312909Y-90057572D01*
X147311705Y-90059067D01*
X147284902Y-90073173D01*
X147279369Y-90075267D01*
X147278207Y-90075499D01*
X147274084Y-90077207D01*
X147272339Y-90077929D01*
X147272312Y-90077940D01*
X147159832Y-90124530D01*
X147159814Y-90124540D01*
X147078905Y-90178602D01*
X147012228Y-90199480D01*
X147010015Y-90199500D01*
X146125323Y-90199500D01*
X146052264Y-90214032D01*
X146052260Y-90214033D01*
X145969399Y-90269399D01*
X145914033Y-90352260D01*
X145914032Y-90352264D01*
X145899500Y-90425321D01*
X145899500Y-91074678D01*
X145914032Y-91147735D01*
X145914033Y-91147739D01*
X145914034Y-91147740D01*
X145931170Y-91173387D01*
X145932491Y-91175363D01*
X145953368Y-91242041D01*
X145934883Y-91309421D01*
X145917069Y-91331934D01*
X145185824Y-92063181D01*
X145124501Y-92096666D01*
X145098143Y-92099500D01*
X143324807Y-92099500D01*
X143257768Y-92079815D01*
X143225541Y-92049812D01*
X143214687Y-92035313D01*
X143214681Y-92035307D01*
X143105230Y-91953374D01*
X143105227Y-91953373D01*
X143105226Y-91953372D01*
X142977114Y-91905588D01*
X142977112Y-91905587D01*
X142977110Y-91905587D01*
X142920493Y-91899500D01*
X142379518Y-91899500D01*
X142379509Y-91899501D01*
X142322885Y-91905587D01*
X142194773Y-91953372D01*
X142085313Y-92035313D01*
X142003373Y-92144771D01*
X141955587Y-92272889D01*
X141949500Y-92329498D01*
X141949500Y-93170481D01*
X141949501Y-93170490D01*
X141955587Y-93227114D01*
X141993716Y-93329338D01*
X142003372Y-93355226D01*
X142085313Y-93464687D01*
X142194774Y-93546628D01*
X142322886Y-93594412D01*
X142379515Y-93600500D01*
X142920484Y-93600499D01*
X142977114Y-93594412D01*
X143105226Y-93546628D01*
X143105229Y-93546626D01*
X143214681Y-93464692D01*
X143214683Y-93464689D01*
X143214687Y-93464687D01*
X143225541Y-93450188D01*
X143281476Y-93408317D01*
X143324807Y-93400500D01*
X143809940Y-93400500D01*
X143876979Y-93420185D01*
X143922734Y-93472989D01*
X143932678Y-93542147D01*
X143926122Y-93567833D01*
X143905587Y-93622887D01*
X143899500Y-93679498D01*
X143899500Y-94220481D01*
X143899501Y-94220490D01*
X143905587Y-94277114D01*
X143934829Y-94355512D01*
X143953372Y-94405226D01*
X144035313Y-94514687D01*
X144144774Y-94596628D01*
X144272886Y-94644412D01*
X144329515Y-94650500D01*
X145170484Y-94650499D01*
X145227114Y-94644412D01*
X145355226Y-94596628D01*
X145464687Y-94514687D01*
X145546628Y-94405226D01*
X145594412Y-94277114D01*
X145596687Y-94255944D01*
X145600499Y-94220501D01*
X145600499Y-94220490D01*
X145600500Y-94220485D01*
X145600499Y-93819234D01*
X147784500Y-93819234D01*
X147784500Y-93970765D01*
X147823719Y-94117136D01*
X147840227Y-94145728D01*
X147899485Y-94248365D01*
X148006635Y-94355515D01*
X148115956Y-94418632D01*
X148137861Y-94431279D01*
X148137865Y-94431281D01*
X148284234Y-94470500D01*
X148284236Y-94470500D01*
X148435764Y-94470500D01*
X148435766Y-94470500D01*
X148582135Y-94431281D01*
X148713365Y-94355515D01*
X148820515Y-94248365D01*
X148896281Y-94117135D01*
X148935500Y-93970766D01*
X148935500Y-93819234D01*
X148896281Y-93672865D01*
X148820515Y-93541635D01*
X148713365Y-93434485D01*
X148647750Y-93396602D01*
X148582136Y-93358719D01*
X148497771Y-93336114D01*
X148435766Y-93319500D01*
X148284234Y-93319500D01*
X148137863Y-93358719D01*
X148006635Y-93434485D01*
X148006632Y-93434487D01*
X147899487Y-93541632D01*
X147899485Y-93541635D01*
X147823719Y-93672863D01*
X147784500Y-93819234D01*
X145600499Y-93819234D01*
X145600499Y-93679516D01*
X145594412Y-93622886D01*
X145592667Y-93618207D01*
X145587380Y-93604031D01*
X145586107Y-93586247D01*
X145579877Y-93569542D01*
X145583666Y-93552120D01*
X145582395Y-93534339D01*
X145590938Y-93518691D01*
X145594729Y-93501269D01*
X145615877Y-93473018D01*
X145735342Y-93353553D01*
X145770936Y-93329774D01*
X145770703Y-93329338D01*
X145775134Y-93326969D01*
X145775581Y-93326670D01*
X145776078Y-93326465D01*
X145786502Y-93319500D01*
X145882620Y-93255277D01*
X147703789Y-91434108D01*
X148999500Y-91434108D01*
X148999500Y-91565891D01*
X149033608Y-91693187D01*
X149046706Y-91715873D01*
X149099500Y-91807314D01*
X149192686Y-91900500D01*
X149306814Y-91966392D01*
X149434108Y-92000500D01*
X149434110Y-92000500D01*
X149565890Y-92000500D01*
X149565892Y-92000500D01*
X149693186Y-91966392D01*
X149807314Y-91900500D01*
X149820995Y-91886819D01*
X149882318Y-91853334D01*
X149908676Y-91850500D01*
X150680147Y-91850500D01*
X150747186Y-91870185D01*
X150767828Y-91886819D01*
X152250417Y-93369408D01*
X152283902Y-93430731D01*
X152278918Y-93500423D01*
X152246471Y-93544332D01*
X152248433Y-93546294D01*
X152149502Y-93645224D01*
X152149500Y-93645227D01*
X152083608Y-93759353D01*
X152049500Y-93886649D01*
X152049500Y-94018432D01*
X152083608Y-94145728D01*
X152116554Y-94202791D01*
X152149500Y-94259855D01*
X152149502Y-94259857D01*
X152213181Y-94323536D01*
X152246666Y-94384859D01*
X152249500Y-94411217D01*
X152249500Y-94714520D01*
X152229815Y-94781559D01*
X152193371Y-94815031D01*
X152194595Y-94816689D01*
X152077850Y-94902850D01*
X151997207Y-95012117D01*
X151997206Y-95012119D01*
X151952353Y-95140298D01*
X151952353Y-95140300D01*
X151949500Y-95170730D01*
X151949500Y-95829269D01*
X151952353Y-95859699D01*
X151952353Y-95859701D01*
X151997206Y-95987880D01*
X151997207Y-95987882D01*
X152077850Y-96097150D01*
X152187118Y-96177793D01*
X152204171Y-96183760D01*
X152315299Y-96222646D01*
X152345730Y-96225500D01*
X152345734Y-96225500D01*
X152854270Y-96225500D01*
X152884699Y-96222646D01*
X152884701Y-96222646D01*
X152948790Y-96200219D01*
X153012882Y-96177793D01*
X153122150Y-96097150D01*
X153202793Y-95987882D01*
X153225219Y-95923790D01*
X153247646Y-95859701D01*
X153247646Y-95859699D01*
X153250500Y-95829269D01*
X153250500Y-95598543D01*
X161474499Y-95598543D01*
X161512947Y-95791829D01*
X161512950Y-95791839D01*
X161588364Y-95973907D01*
X161588371Y-95973920D01*
X161697860Y-96137781D01*
X161697863Y-96137785D01*
X161837214Y-96277136D01*
X161837218Y-96277139D01*
X162001079Y-96386628D01*
X162001092Y-96386635D01*
X162183160Y-96462049D01*
X162183165Y-96462051D01*
X162183169Y-96462051D01*
X162183170Y-96462052D01*
X162376456Y-96500500D01*
X162376459Y-96500500D01*
X162573543Y-96500500D01*
X162703582Y-96474632D01*
X162766835Y-96462051D01*
X162931819Y-96393713D01*
X171149500Y-96393713D01*
X171149500Y-96606286D01*
X171182753Y-96816239D01*
X171182753Y-96816241D01*
X171182754Y-96816243D01*
X171222274Y-96937874D01*
X171248444Y-97018414D01*
X171344951Y-97207820D01*
X171469890Y-97379786D01*
X171620213Y-97530109D01*
X171792179Y-97655048D01*
X171792181Y-97655049D01*
X171792184Y-97655051D01*
X171981588Y-97751557D01*
X172183757Y-97817246D01*
X172393713Y-97850500D01*
X172393714Y-97850500D01*
X172606286Y-97850500D01*
X172606287Y-97850500D01*
X172816243Y-97817246D01*
X173018412Y-97751557D01*
X173207816Y-97655051D01*
X173315088Y-97577114D01*
X173379786Y-97530109D01*
X173379788Y-97530106D01*
X173379792Y-97530104D01*
X173530104Y-97379792D01*
X173530106Y-97379788D01*
X173530109Y-97379786D01*
X173655048Y-97207820D01*
X173655047Y-97207820D01*
X173655051Y-97207816D01*
X173751557Y-97018412D01*
X173817246Y-96816243D01*
X173850500Y-96606287D01*
X173850500Y-96393713D01*
X173817246Y-96183757D01*
X173751557Y-95981588D01*
X173655051Y-95792184D01*
X173655049Y-95792181D01*
X173655048Y-95792179D01*
X173530109Y-95620213D01*
X173379786Y-95469890D01*
X173207820Y-95344951D01*
X173018414Y-95248444D01*
X173018413Y-95248443D01*
X173018412Y-95248443D01*
X172816243Y-95182754D01*
X172816241Y-95182753D01*
X172816240Y-95182753D01*
X172654957Y-95157208D01*
X172606287Y-95149500D01*
X172393713Y-95149500D01*
X172345042Y-95157208D01*
X172183760Y-95182753D01*
X171981585Y-95248444D01*
X171792179Y-95344951D01*
X171620213Y-95469890D01*
X171469890Y-95620213D01*
X171344951Y-95792179D01*
X171248444Y-95981585D01*
X171182753Y-96183760D01*
X171149500Y-96393713D01*
X162931819Y-96393713D01*
X162948914Y-96386632D01*
X163112782Y-96277139D01*
X163252139Y-96137782D01*
X163361632Y-95973914D01*
X163437051Y-95791835D01*
X163475500Y-95598541D01*
X163475500Y-95401459D01*
X163475500Y-95401456D01*
X163437052Y-95208170D01*
X163437051Y-95208169D01*
X163437051Y-95208165D01*
X163421545Y-95170730D01*
X163361635Y-95026092D01*
X163361628Y-95026079D01*
X163252139Y-94862218D01*
X163252136Y-94862214D01*
X163112785Y-94722863D01*
X163112781Y-94722860D01*
X162948920Y-94613371D01*
X162948907Y-94613364D01*
X162766839Y-94537950D01*
X162766829Y-94537947D01*
X162573543Y-94499500D01*
X162573541Y-94499500D01*
X162376459Y-94499500D01*
X162376457Y-94499500D01*
X162183170Y-94537947D01*
X162183160Y-94537950D01*
X162001092Y-94613364D01*
X162001079Y-94613371D01*
X161837218Y-94722860D01*
X161837214Y-94722863D01*
X161697863Y-94862214D01*
X161697860Y-94862218D01*
X161588371Y-95026079D01*
X161588364Y-95026092D01*
X161512950Y-95208160D01*
X161512947Y-95208170D01*
X161474500Y-95401456D01*
X161474500Y-95401459D01*
X161474500Y-95598541D01*
X161474500Y-95598543D01*
X161474499Y-95598543D01*
X153250500Y-95598543D01*
X153250500Y-95170730D01*
X153247646Y-95140300D01*
X153247646Y-95140298D01*
X153210060Y-95032887D01*
X153202793Y-95012118D01*
X153122150Y-94902850D01*
X153122149Y-94902849D01*
X153118669Y-94898134D01*
X153094698Y-94832505D01*
X153110014Y-94764334D01*
X153159754Y-94715266D01*
X153218439Y-94700500D01*
X153315890Y-94700500D01*
X153315892Y-94700500D01*
X153443186Y-94666392D01*
X153557314Y-94600500D01*
X153650500Y-94507314D01*
X153688266Y-94441900D01*
X153738830Y-94393688D01*
X153807437Y-94380464D01*
X153857652Y-94396517D01*
X153917859Y-94431278D01*
X153917860Y-94431278D01*
X153917865Y-94431281D01*
X154064234Y-94470500D01*
X154064236Y-94470500D01*
X154215764Y-94470500D01*
X154215766Y-94470500D01*
X154362135Y-94431281D01*
X154493365Y-94355515D01*
X154600515Y-94248365D01*
X154676281Y-94117135D01*
X154715500Y-93970766D01*
X154715500Y-93819234D01*
X154676281Y-93672865D01*
X154600515Y-93541635D01*
X154493365Y-93434485D01*
X154427750Y-93396602D01*
X154362136Y-93358719D01*
X154277771Y-93336114D01*
X154215766Y-93319500D01*
X154064234Y-93319500D01*
X153917863Y-93358719D01*
X153786635Y-93434485D01*
X153786632Y-93434487D01*
X153679487Y-93541632D01*
X153679483Y-93541638D01*
X153663112Y-93569993D01*
X153612544Y-93618207D01*
X153543937Y-93631429D01*
X153479073Y-93605460D01*
X153468045Y-93595672D01*
X151091904Y-91219531D01*
X151091899Y-91219527D01*
X151011981Y-91173387D01*
X151011980Y-91173386D01*
X151011979Y-91173386D01*
X150922835Y-91149500D01*
X150922834Y-91149500D01*
X149908676Y-91149500D01*
X149841637Y-91129815D01*
X149820995Y-91113181D01*
X149807316Y-91099502D01*
X149807314Y-91099500D01*
X149750250Y-91066554D01*
X149693187Y-91033608D01*
X149629539Y-91016554D01*
X149565892Y-90999500D01*
X149434108Y-90999500D01*
X149306812Y-91033608D01*
X149192686Y-91099500D01*
X149192683Y-91099502D01*
X149099502Y-91192683D01*
X149099500Y-91192686D01*
X149033608Y-91306812D01*
X148999500Y-91434108D01*
X147703789Y-91434108D01*
X147750078Y-91387819D01*
X147811401Y-91354334D01*
X147837759Y-91351500D01*
X148015071Y-91351500D01*
X148113431Y-91331934D01*
X148140744Y-91326501D01*
X148259127Y-91277465D01*
X148294115Y-91254087D01*
X148365669Y-91206277D01*
X149005276Y-90566670D01*
X149076465Y-90460127D01*
X149076464Y-90460127D01*
X149079484Y-90455609D01*
X149133096Y-90410804D01*
X149182586Y-90400500D01*
X151335334Y-90400500D01*
X151402373Y-90420185D01*
X151448128Y-90472989D01*
X151458072Y-90542147D01*
X151455109Y-90556589D01*
X151449500Y-90577525D01*
X151449500Y-90722475D01*
X151487016Y-90862485D01*
X151487017Y-90862488D01*
X151559488Y-90988011D01*
X151559490Y-90988013D01*
X151559491Y-90988015D01*
X151661985Y-91090509D01*
X151661986Y-91090510D01*
X151661988Y-91090511D01*
X151787511Y-91162982D01*
X151787512Y-91162982D01*
X151787515Y-91162984D01*
X151927525Y-91200500D01*
X151927528Y-91200500D01*
X152072472Y-91200500D01*
X152072475Y-91200500D01*
X152212485Y-91162984D01*
X152338015Y-91090509D01*
X152440509Y-90988015D01*
X152512984Y-90862485D01*
X152550500Y-90722475D01*
X152550500Y-90577525D01*
X152544891Y-90556592D01*
X152546554Y-90486743D01*
X152585717Y-90428881D01*
X152649945Y-90401377D01*
X152664666Y-90400500D01*
X159179192Y-90400500D01*
X159246231Y-90420185D01*
X159266873Y-90436819D01*
X160236325Y-91406272D01*
X160236326Y-91406273D01*
X160236329Y-91406275D01*
X160236331Y-91406277D01*
X160342873Y-91477465D01*
X160461256Y-91526501D01*
X160461260Y-91526501D01*
X160461261Y-91526502D01*
X160586928Y-91551500D01*
X160586931Y-91551500D01*
X166088321Y-91551500D01*
X166172865Y-91534682D01*
X166213994Y-91526501D01*
X166332377Y-91477465D01*
X166438919Y-91406277D01*
X168330510Y-89514686D01*
X168601807Y-89243389D01*
X171264500Y-89243389D01*
X171264500Y-89416611D01*
X171265750Y-89424501D01*
X171280033Y-89514686D01*
X171291598Y-89587701D01*
X171345127Y-89752445D01*
X171423768Y-89906788D01*
X171525586Y-90046928D01*
X171648072Y-90169414D01*
X171788212Y-90271232D01*
X171942555Y-90349873D01*
X172107299Y-90403402D01*
X172278389Y-90430500D01*
X172278390Y-90430500D01*
X172451610Y-90430500D01*
X172451611Y-90430500D01*
X172622701Y-90403402D01*
X172787445Y-90349873D01*
X172941788Y-90271232D01*
X173081928Y-90169414D01*
X173204414Y-90046928D01*
X173306232Y-89906788D01*
X173384873Y-89752445D01*
X173438402Y-89587701D01*
X173465500Y-89416611D01*
X173465500Y-89243389D01*
X173438402Y-89072299D01*
X173384873Y-88907555D01*
X173306232Y-88753212D01*
X173204414Y-88613072D01*
X173081928Y-88490586D01*
X172941788Y-88388768D01*
X172818635Y-88326019D01*
X172787447Y-88310128D01*
X172787446Y-88310127D01*
X172787445Y-88310127D01*
X172622701Y-88256598D01*
X172622699Y-88256597D01*
X172622698Y-88256597D01*
X172491271Y-88235781D01*
X172451611Y-88229500D01*
X172278389Y-88229500D01*
X172238728Y-88235781D01*
X172107302Y-88256597D01*
X171942552Y-88310128D01*
X171788211Y-88388768D01*
X171710565Y-88445182D01*
X171648072Y-88490586D01*
X171648070Y-88490588D01*
X171648069Y-88490588D01*
X171525588Y-88613069D01*
X171525588Y-88613070D01*
X171525586Y-88613072D01*
X171481859Y-88673256D01*
X171423768Y-88753211D01*
X171345128Y-88907552D01*
X171291597Y-89072302D01*
X171283330Y-89124498D01*
X171264500Y-89243389D01*
X168601807Y-89243389D01*
X168694360Y-89150836D01*
X170229523Y-87615672D01*
X170229522Y-87615672D01*
X170229526Y-87615669D01*
X170300715Y-87509127D01*
X170349751Y-87390744D01*
X170357955Y-87349500D01*
X170372306Y-87277354D01*
X170374750Y-87265070D01*
X170374750Y-84610178D01*
X170349752Y-84484511D01*
X170349751Y-84484510D01*
X170349751Y-84484506D01*
X170300715Y-84366123D01*
X170299151Y-84363783D01*
X170229527Y-84259581D01*
X170229525Y-84259579D01*
X170229523Y-84259576D01*
X169536818Y-83566871D01*
X169503333Y-83505548D01*
X169500499Y-83479190D01*
X169500499Y-83454518D01*
X169500498Y-83454509D01*
X169494412Y-83397885D01*
X169466285Y-83322475D01*
X169446628Y-83269774D01*
X169364687Y-83160313D01*
X169261354Y-83082959D01*
X169255228Y-83078373D01*
X169255226Y-83078372D01*
X169127114Y-83030588D01*
X169127112Y-83030587D01*
X169127110Y-83030587D01*
X169070493Y-83024500D01*
X168529518Y-83024500D01*
X168529509Y-83024501D01*
X168472885Y-83030587D01*
X168344773Y-83078372D01*
X168235313Y-83160313D01*
X168153373Y-83269771D01*
X168105587Y-83397889D01*
X168099500Y-83454498D01*
X168099500Y-84045481D01*
X168099501Y-84045490D01*
X168105587Y-84102114D01*
X168146755Y-84212485D01*
X168153372Y-84230226D01*
X168235313Y-84339687D01*
X168344774Y-84421628D01*
X168461297Y-84465089D01*
X168517227Y-84506959D01*
X168541644Y-84572423D01*
X168526792Y-84640696D01*
X168477387Y-84690101D01*
X168442153Y-84702886D01*
X168333510Y-84724497D01*
X168333505Y-84724499D01*
X168215126Y-84773533D01*
X168215123Y-84773534D01*
X168215123Y-84773535D01*
X168207537Y-84778603D01*
X168140861Y-84799480D01*
X168138649Y-84799500D01*
X167898573Y-84799500D01*
X167825514Y-84814032D01*
X167825510Y-84814033D01*
X167742649Y-84869399D01*
X167687283Y-84952260D01*
X167687282Y-84952264D01*
X167672750Y-85025321D01*
X167672750Y-85674678D01*
X167687282Y-85747735D01*
X167687283Y-85747739D01*
X167687284Y-85747740D01*
X167742649Y-85830601D01*
X167823882Y-85884878D01*
X167825510Y-85885966D01*
X167825514Y-85885967D01*
X167898571Y-85900499D01*
X167898574Y-85900500D01*
X167898576Y-85900500D01*
X168138649Y-85900500D01*
X168205688Y-85920185D01*
X168207502Y-85921373D01*
X168215123Y-85926465D01*
X168333506Y-85975501D01*
X168333510Y-85975501D01*
X168333511Y-85975502D01*
X168459178Y-86000500D01*
X168459181Y-86000500D01*
X168949750Y-86000500D01*
X169016789Y-86020185D01*
X169062544Y-86072989D01*
X169073750Y-86124500D01*
X169073750Y-86575500D01*
X169054065Y-86642539D01*
X169001261Y-86688294D01*
X168949750Y-86699500D01*
X167898573Y-86699500D01*
X167825514Y-86714032D01*
X167825510Y-86714033D01*
X167742649Y-86769399D01*
X167687283Y-86852260D01*
X167687282Y-86852264D01*
X167672750Y-86925321D01*
X167672750Y-87574678D01*
X167687282Y-87647735D01*
X167687283Y-87647739D01*
X167687284Y-87647740D01*
X167742649Y-87730601D01*
X167825510Y-87785966D01*
X167825514Y-87785967D01*
X167898571Y-87800499D01*
X167898574Y-87800500D01*
X167898576Y-87800500D01*
X167905443Y-87800500D01*
X167972482Y-87820185D01*
X168018237Y-87872989D01*
X168028181Y-87942147D01*
X167999156Y-88005703D01*
X167993125Y-88012179D01*
X166882097Y-89123207D01*
X165791123Y-90214181D01*
X165729800Y-90247666D01*
X165703442Y-90250500D01*
X163408811Y-90250500D01*
X163341772Y-90230815D01*
X163296017Y-90178011D01*
X163286073Y-90108853D01*
X163305709Y-90057609D01*
X163361628Y-89973920D01*
X163361628Y-89973919D01*
X163361632Y-89973914D01*
X163437051Y-89791835D01*
X163475500Y-89598541D01*
X163475500Y-89401459D01*
X163475500Y-89401456D01*
X163437052Y-89208170D01*
X163437051Y-89208169D01*
X163437051Y-89208165D01*
X163422707Y-89173535D01*
X163361635Y-89026092D01*
X163361628Y-89026079D01*
X163252139Y-88862218D01*
X163252136Y-88862214D01*
X163112785Y-88722863D01*
X163112781Y-88722860D01*
X162948920Y-88613371D01*
X162948907Y-88613364D01*
X162766839Y-88537950D01*
X162766829Y-88537947D01*
X162573543Y-88499500D01*
X162573541Y-88499500D01*
X162376459Y-88499500D01*
X162376457Y-88499500D01*
X162183170Y-88537947D01*
X162183160Y-88537950D01*
X162001092Y-88613364D01*
X162001079Y-88613371D01*
X161837218Y-88722860D01*
X161837214Y-88722863D01*
X161697863Y-88862214D01*
X161697860Y-88862218D01*
X161588371Y-89026079D01*
X161588364Y-89026092D01*
X161512950Y-89208160D01*
X161512947Y-89208170D01*
X161474500Y-89401456D01*
X161474500Y-89401459D01*
X161474500Y-89598541D01*
X161474500Y-89598543D01*
X161474499Y-89598543D01*
X161512947Y-89791829D01*
X161512950Y-89791839D01*
X161588364Y-89973907D01*
X161588371Y-89973920D01*
X161644291Y-90057609D01*
X161665169Y-90124286D01*
X161646685Y-90191666D01*
X161594706Y-90238357D01*
X161541189Y-90250500D01*
X160971808Y-90250500D01*
X160904769Y-90230815D01*
X160884127Y-90214181D01*
X159914674Y-89244727D01*
X159914673Y-89244726D01*
X159878392Y-89220484D01*
X159808127Y-89173535D01*
X159689744Y-89124499D01*
X159689742Y-89124498D01*
X159689741Y-89124498D01*
X159683254Y-89123208D01*
X159683249Y-89123207D01*
X159564071Y-89099500D01*
X159564069Y-89099500D01*
X157137871Y-89099500D01*
X157070832Y-89079815D01*
X157025077Y-89027011D01*
X157015133Y-88957853D01*
X157018096Y-88943406D01*
X157050500Y-88822475D01*
X157050500Y-88677525D01*
X157012984Y-88537515D01*
X157008538Y-88529815D01*
X156940511Y-88411988D01*
X156940506Y-88411982D01*
X156838017Y-88309493D01*
X156838011Y-88309488D01*
X156712488Y-88237017D01*
X156712489Y-88237017D01*
X156684435Y-88229500D01*
X156572475Y-88199500D01*
X156427525Y-88199500D01*
X156315565Y-88229500D01*
X156287511Y-88237017D01*
X156161988Y-88309488D01*
X156161982Y-88309493D01*
X156059493Y-88411982D01*
X156059488Y-88411988D01*
X155987017Y-88537511D01*
X155987016Y-88537515D01*
X155949500Y-88677525D01*
X155949500Y-88822475D01*
X155981904Y-88943406D01*
X155980241Y-89013256D01*
X155941079Y-89071119D01*
X155876850Y-89098623D01*
X155862129Y-89099500D01*
X154190884Y-89099500D01*
X154123845Y-89079815D01*
X154078090Y-89027011D01*
X154068146Y-88957853D01*
X154097171Y-88894297D01*
X154103203Y-88887819D01*
X154121237Y-88869785D01*
X154153007Y-88838015D01*
X154225482Y-88712485D01*
X154262998Y-88572475D01*
X154262998Y-88427525D01*
X154225482Y-88287515D01*
X154207631Y-88256597D01*
X154153009Y-88161988D01*
X154153004Y-88161982D01*
X154050515Y-88059493D01*
X154050509Y-88059488D01*
X153924986Y-87987017D01*
X153924987Y-87987017D01*
X153913504Y-87983940D01*
X153784973Y-87949500D01*
X153784970Y-87949500D01*
X153709042Y-87949500D01*
X153642003Y-87929815D01*
X153621361Y-87913181D01*
X153427711Y-87719531D01*
X153427706Y-87719527D01*
X153347788Y-87673387D01*
X153347787Y-87673386D01*
X153347786Y-87673386D01*
X153258642Y-87649500D01*
X153258641Y-87649500D01*
X152738847Y-87649500D01*
X152671808Y-87629815D01*
X152626053Y-87577011D01*
X152621812Y-87566471D01*
X152602793Y-87512118D01*
X152522150Y-87402850D01*
X152412882Y-87322207D01*
X152412880Y-87322206D01*
X152284700Y-87277353D01*
X152284106Y-87277298D01*
X152284078Y-87277287D01*
X152284049Y-87277293D01*
X152283597Y-87277112D01*
X152277330Y-87275744D01*
X152277557Y-87274703D01*
X152250696Y-87263987D01*
X152219198Y-87251438D01*
X152219180Y-87251414D01*
X152219153Y-87251403D01*
X152198649Y-87222683D01*
X152178575Y-87194592D01*
X152178573Y-87194562D01*
X152178556Y-87194538D01*
X152176760Y-87157779D01*
X152175134Y-87124807D01*
X152175148Y-87124771D01*
X152175147Y-87124751D01*
X152178968Y-87115189D01*
X152188225Y-87091970D01*
X152190492Y-87088031D01*
X152190509Y-87088015D01*
X152262984Y-86962485D01*
X152263166Y-86961805D01*
X152267538Y-86954212D01*
X152287195Y-86935423D01*
X152304254Y-86914244D01*
X152312082Y-86911636D01*
X152318047Y-86905935D01*
X152344744Y-86900755D01*
X152370543Y-86892162D01*
X152378537Y-86894200D01*
X152386638Y-86892629D01*
X152411895Y-86902705D01*
X152438247Y-86909424D01*
X152443871Y-86915461D01*
X152451534Y-86918519D01*
X152467334Y-86940651D01*
X152481758Y-86956136D01*
X152482952Y-86955447D01*
X152559488Y-87088011D01*
X152559490Y-87088013D01*
X152559491Y-87088015D01*
X152661985Y-87190509D01*
X152661986Y-87190510D01*
X152661988Y-87190511D01*
X152787511Y-87262982D01*
X152787512Y-87262982D01*
X152787515Y-87262984D01*
X152927525Y-87300500D01*
X152927528Y-87300500D01*
X153072472Y-87300500D01*
X153072475Y-87300500D01*
X153212485Y-87262984D01*
X153338015Y-87190509D01*
X153412319Y-87116205D01*
X153473642Y-87082720D01*
X153543334Y-87087704D01*
X153587681Y-87116205D01*
X153661985Y-87190509D01*
X153661986Y-87190510D01*
X153661988Y-87190511D01*
X153787511Y-87262982D01*
X153787512Y-87262982D01*
X153787515Y-87262984D01*
X153927525Y-87300500D01*
X153927528Y-87300500D01*
X154072472Y-87300500D01*
X154072475Y-87300500D01*
X154212485Y-87262984D01*
X154338015Y-87190509D01*
X154440509Y-87088015D01*
X154512984Y-86962485D01*
X154550500Y-86822475D01*
X154550500Y-86746544D01*
X154570185Y-86679505D01*
X154586819Y-86658863D01*
X154630970Y-86614712D01*
X154679470Y-86566212D01*
X154725614Y-86486288D01*
X154728478Y-86475600D01*
X154730105Y-86469530D01*
X154741359Y-86427527D01*
X154749500Y-86397144D01*
X154749500Y-85013792D01*
X154725614Y-84924648D01*
X154725611Y-84924642D01*
X154679473Y-84844730D01*
X154679470Y-84844727D01*
X154679469Y-84844724D01*
X154614212Y-84779467D01*
X154521627Y-84686882D01*
X154417764Y-84583018D01*
X154384279Y-84521695D01*
X154389263Y-84452003D01*
X154417760Y-84407660D01*
X154489072Y-84336349D01*
X154561547Y-84210819D01*
X154599063Y-84070809D01*
X154599063Y-83925859D01*
X154597286Y-83919229D01*
X154593240Y-83880437D01*
X154593937Y-83867528D01*
X154600500Y-83843041D01*
X154600500Y-83746152D01*
X154600681Y-83742805D01*
X154611248Y-83712894D01*
X154620185Y-83682460D01*
X154622802Y-83680192D01*
X154623956Y-83676926D01*
X154649023Y-83657471D01*
X154672989Y-83636705D01*
X154676868Y-83635861D01*
X154679153Y-83634088D01*
X154689081Y-83633204D01*
X154724500Y-83625499D01*
X154868828Y-83625499D01*
X154935867Y-83645184D01*
X154981622Y-83697988D01*
X154991566Y-83767146D01*
X154988603Y-83781593D01*
X154987016Y-83787514D01*
X154987016Y-83787515D01*
X154949500Y-83927525D01*
X154949500Y-84072475D01*
X154987016Y-84212485D01*
X154987017Y-84212488D01*
X155059488Y-84338011D01*
X155059490Y-84338013D01*
X155059491Y-84338015D01*
X155161985Y-84440509D01*
X155161986Y-84440510D01*
X155161988Y-84440511D01*
X155287511Y-84512982D01*
X155287512Y-84512982D01*
X155287515Y-84512984D01*
X155427525Y-84550500D01*
X155427528Y-84550500D01*
X155572472Y-84550500D01*
X155572475Y-84550500D01*
X155712485Y-84512984D01*
X155838015Y-84440509D01*
X155864957Y-84413566D01*
X155926276Y-84380083D01*
X155995968Y-84385067D01*
X156012063Y-84392417D01*
X156019772Y-84396626D01*
X156019774Y-84396628D01*
X156147886Y-84444412D01*
X156204515Y-84450500D01*
X156795484Y-84450499D01*
X156852114Y-84444412D01*
X156980226Y-84396628D01*
X157089687Y-84314687D01*
X157097314Y-84304498D01*
X157549500Y-84304498D01*
X157549500Y-84895481D01*
X157549501Y-84895490D01*
X157555587Y-84952114D01*
X157601236Y-85074500D01*
X157603372Y-85080226D01*
X157685313Y-85189687D01*
X157794774Y-85271628D01*
X157922886Y-85319412D01*
X157979515Y-85325500D01*
X158520484Y-85325499D01*
X158577114Y-85319412D01*
X158705226Y-85271628D01*
X158814687Y-85189687D01*
X158896628Y-85080226D01*
X158944412Y-84952114D01*
X158947365Y-84924645D01*
X158950499Y-84895500D01*
X158950499Y-84895490D01*
X158950500Y-84895485D01*
X158950499Y-84729386D01*
X158970183Y-84662347D01*
X158986809Y-84641715D01*
X159190510Y-84438015D01*
X159262984Y-84312485D01*
X159272009Y-84278804D01*
X159277674Y-84257664D01*
X159280293Y-84247889D01*
X159300500Y-84172475D01*
X159300500Y-83927525D01*
X159262984Y-83787515D01*
X159233828Y-83737016D01*
X159190511Y-83661988D01*
X159190506Y-83661982D01*
X159088017Y-83559493D01*
X159088011Y-83559488D01*
X158962488Y-83487017D01*
X158962489Y-83487017D01*
X158934495Y-83479516D01*
X158822475Y-83449500D01*
X158677525Y-83449500D01*
X158565505Y-83479516D01*
X158537511Y-83487017D01*
X158411988Y-83559488D01*
X158411982Y-83559493D01*
X158309493Y-83661982D01*
X158309488Y-83661988D01*
X158237017Y-83787511D01*
X158233907Y-83795021D01*
X158231399Y-83793982D01*
X158201942Y-83842278D01*
X158139087Y-83872789D01*
X158118560Y-83874500D01*
X157979519Y-83874500D01*
X157979509Y-83874501D01*
X157922885Y-83880587D01*
X157794773Y-83928372D01*
X157685313Y-84010313D01*
X157603373Y-84119771D01*
X157603372Y-84119774D01*
X157569414Y-84210819D01*
X157555587Y-84247889D01*
X157549500Y-84304498D01*
X157097314Y-84304498D01*
X157171628Y-84205226D01*
X157219412Y-84077114D01*
X157222273Y-84050500D01*
X157225499Y-84020501D01*
X157225499Y-84020494D01*
X157225500Y-84020485D01*
X157225499Y-83479516D01*
X157219412Y-83422886D01*
X157210088Y-83397889D01*
X157181959Y-83322472D01*
X157171628Y-83294774D01*
X157089687Y-83185313D01*
X157023911Y-83136074D01*
X156980228Y-83103373D01*
X156980226Y-83103372D01*
X156852114Y-83055588D01*
X156852112Y-83055587D01*
X156852110Y-83055587D01*
X156795493Y-83049500D01*
X156795485Y-83049500D01*
X156794064Y-83049500D01*
X156201196Y-83049501D01*
X156201196Y-83048541D01*
X156137120Y-83033388D01*
X156088614Y-82983099D01*
X156074500Y-82925645D01*
X156074500Y-82027858D01*
X156074500Y-82027856D01*
X156050614Y-81938712D01*
X156050613Y-81938710D01*
X156046279Y-81931203D01*
X156046277Y-81931201D01*
X156004470Y-81858788D01*
X155542376Y-81396694D01*
X155508891Y-81335371D01*
X155513875Y-81265679D01*
X155530789Y-81234705D01*
X155543796Y-81217331D01*
X155594091Y-81082483D01*
X155600500Y-81022873D01*
X155600499Y-80734382D01*
X155620183Y-80667345D01*
X155672987Y-80621590D01*
X155742146Y-80611646D01*
X155805701Y-80640671D01*
X155812180Y-80646703D01*
X156406981Y-81241504D01*
X156498306Y-81294231D01*
X156600167Y-81321524D01*
X156705621Y-81321524D01*
X159820985Y-81321524D01*
X159882985Y-81338137D01*
X159968339Y-81387416D01*
X160095632Y-81421524D01*
X160095633Y-81421524D01*
X160350273Y-81421524D01*
X160417312Y-81441209D01*
X160437954Y-81457843D01*
X163729269Y-84749158D01*
X163762754Y-84810481D01*
X163757770Y-84880173D01*
X163715901Y-84936105D01*
X163683562Y-84960314D01*
X163601623Y-85069771D01*
X163587557Y-85107483D01*
X163556897Y-85189686D01*
X163553837Y-85197889D01*
X163547750Y-85254498D01*
X163547750Y-85795481D01*
X163547751Y-85795490D01*
X163553837Y-85852114D01*
X163593620Y-85958773D01*
X163601622Y-85980226D01*
X163683563Y-86089687D01*
X163767937Y-86152848D01*
X163788185Y-86168006D01*
X163793024Y-86171628D01*
X163921136Y-86219412D01*
X163977765Y-86225500D01*
X164568734Y-86225499D01*
X164625364Y-86219412D01*
X164753476Y-86171628D01*
X164862937Y-86089687D01*
X164944878Y-85980226D01*
X164956293Y-85949621D01*
X164963177Y-85931166D01*
X164976445Y-85913440D01*
X164985645Y-85893297D01*
X164996976Y-85886015D01*
X165005048Y-85875232D01*
X165025795Y-85867493D01*
X165044423Y-85855523D01*
X165066342Y-85852371D01*
X165070513Y-85850816D01*
X165079358Y-85850500D01*
X165234816Y-85850500D01*
X165301855Y-85870185D01*
X165303675Y-85871376D01*
X165325510Y-85885966D01*
X165343776Y-85889599D01*
X165398573Y-85900500D01*
X165398576Y-85900500D01*
X166647926Y-85900500D01*
X166647927Y-85900499D01*
X166720990Y-85885966D01*
X166803851Y-85830601D01*
X166859216Y-85747740D01*
X166873750Y-85674674D01*
X166873750Y-85025326D01*
X166873750Y-85025323D01*
X166873749Y-85025321D01*
X166859217Y-84952264D01*
X166859216Y-84952260D01*
X166848422Y-84936105D01*
X166803851Y-84869399D01*
X166733222Y-84822207D01*
X166720989Y-84814033D01*
X166720985Y-84814032D01*
X166647927Y-84799500D01*
X166647924Y-84799500D01*
X166647750Y-84799500D01*
X166647660Y-84799473D01*
X166641864Y-84798903D01*
X166641972Y-84797803D01*
X166580711Y-84779815D01*
X166534956Y-84727011D01*
X166523750Y-84675500D01*
X166523750Y-83799203D01*
X166543435Y-83732164D01*
X166581719Y-83695661D01*
X166581564Y-83695459D01*
X166583448Y-83694012D01*
X166585755Y-83691813D01*
X166588015Y-83690509D01*
X166690509Y-83588015D01*
X166762984Y-83462485D01*
X166800500Y-83322475D01*
X166800500Y-83177525D01*
X166762984Y-83037515D01*
X166760601Y-83033388D01*
X166690511Y-82911988D01*
X166690506Y-82911982D01*
X166588017Y-82809493D01*
X166588011Y-82809488D01*
X166455447Y-82732952D01*
X166456478Y-82731166D01*
X166410658Y-82694244D01*
X166388591Y-82627950D01*
X166405869Y-82560250D01*
X166424827Y-82535844D01*
X170538819Y-78421853D01*
X170600142Y-78388368D01*
X170669834Y-78393352D01*
X170725767Y-78435224D01*
X170750184Y-78500688D01*
X170750500Y-78509534D01*
X170750500Y-85572144D01*
X170760563Y-85609699D01*
X170769086Y-85641506D01*
X170769086Y-85641508D01*
X170774385Y-85661287D01*
X170820527Y-85741208D01*
X170820531Y-85741213D01*
X171316347Y-86237029D01*
X171349832Y-86298352D01*
X171346597Y-86363028D01*
X171291597Y-86532301D01*
X171268114Y-86680568D01*
X171264500Y-86703389D01*
X171264500Y-86876611D01*
X171270653Y-86915461D01*
X171289626Y-87035254D01*
X171291598Y-87047701D01*
X171345127Y-87212445D01*
X171423768Y-87366788D01*
X171525586Y-87506928D01*
X171648072Y-87629414D01*
X171788212Y-87731232D01*
X171942555Y-87809873D01*
X172107299Y-87863402D01*
X172278389Y-87890500D01*
X172278390Y-87890500D01*
X172451610Y-87890500D01*
X172451611Y-87890500D01*
X172622701Y-87863402D01*
X172787445Y-87809873D01*
X172941788Y-87731232D01*
X173081928Y-87629414D01*
X173204414Y-87506928D01*
X173306232Y-87366788D01*
X173384873Y-87212445D01*
X173438402Y-87047701D01*
X173465500Y-86876611D01*
X173465500Y-86703389D01*
X173438402Y-86532299D01*
X173384873Y-86367555D01*
X173306232Y-86213212D01*
X173204414Y-86073072D01*
X173081928Y-85950586D01*
X172941788Y-85848768D01*
X172787445Y-85770127D01*
X172622701Y-85716598D01*
X172622699Y-85716597D01*
X172622698Y-85716597D01*
X172491271Y-85695781D01*
X172451611Y-85689500D01*
X172278389Y-85689500D01*
X172246192Y-85694599D01*
X172107301Y-85716597D01*
X171938028Y-85771597D01*
X171868186Y-85773592D01*
X171812029Y-85741347D01*
X171487819Y-85417137D01*
X171454334Y-85355814D01*
X171451500Y-85329456D01*
X171451500Y-82649959D01*
X171471185Y-82582920D01*
X171523989Y-82537165D01*
X171593147Y-82527221D01*
X171648382Y-82549639D01*
X171788212Y-82651232D01*
X171942555Y-82729873D01*
X172107299Y-82783402D01*
X172278389Y-82810500D01*
X172278390Y-82810500D01*
X172451610Y-82810500D01*
X172451611Y-82810500D01*
X172622701Y-82783402D01*
X172787445Y-82729873D01*
X172941788Y-82651232D01*
X173081928Y-82549414D01*
X173204414Y-82426928D01*
X173306232Y-82286788D01*
X173384873Y-82132445D01*
X173438402Y-81967701D01*
X173465500Y-81796611D01*
X173465500Y-81623389D01*
X173438402Y-81452299D01*
X173384873Y-81287555D01*
X173384869Y-81287547D01*
X173383401Y-81283029D01*
X173381406Y-81213188D01*
X173413649Y-81157031D01*
X174030470Y-80540212D01*
X174076614Y-80460288D01*
X174100500Y-80371144D01*
X174100500Y-80278856D01*
X174100500Y-77203856D01*
X174076614Y-77114712D01*
X174056562Y-77079981D01*
X174030473Y-77034794D01*
X174030470Y-77034791D01*
X174030469Y-77034788D01*
X173965212Y-76969531D01*
X171469176Y-74473495D01*
X168972204Y-71976522D01*
X168889395Y-71893713D01*
X171149500Y-71893713D01*
X171149500Y-72106287D01*
X171157973Y-72159784D01*
X171180260Y-72300500D01*
X171182754Y-72316243D01*
X171234536Y-72475612D01*
X171248444Y-72518414D01*
X171344951Y-72707820D01*
X171469890Y-72879786D01*
X171620213Y-73030109D01*
X171792179Y-73155048D01*
X171792181Y-73155049D01*
X171792184Y-73155051D01*
X171981588Y-73251557D01*
X172183757Y-73317246D01*
X172393713Y-73350500D01*
X172393714Y-73350500D01*
X172606286Y-73350500D01*
X172606287Y-73350500D01*
X172816243Y-73317246D01*
X173018412Y-73251557D01*
X173207816Y-73155051D01*
X173280377Y-73102333D01*
X173379786Y-73030109D01*
X173379788Y-73030106D01*
X173379792Y-73030104D01*
X173530104Y-72879792D01*
X173530106Y-72879788D01*
X173530109Y-72879786D01*
X173655048Y-72707820D01*
X173655047Y-72707820D01*
X173655051Y-72707816D01*
X173751557Y-72518412D01*
X173817246Y-72316243D01*
X173850500Y-72106287D01*
X173850500Y-71893713D01*
X173817246Y-71683757D01*
X173751557Y-71481588D01*
X173655051Y-71292184D01*
X173655049Y-71292181D01*
X173655048Y-71292179D01*
X173530109Y-71120213D01*
X173379786Y-70969890D01*
X173207820Y-70844951D01*
X173018414Y-70748444D01*
X173018413Y-70748443D01*
X173018412Y-70748443D01*
X172816243Y-70682754D01*
X172816241Y-70682753D01*
X172816240Y-70682753D01*
X172654957Y-70657208D01*
X172606287Y-70649500D01*
X172393713Y-70649500D01*
X172345042Y-70657208D01*
X172183760Y-70682753D01*
X171981585Y-70748444D01*
X171792179Y-70844951D01*
X171620213Y-70969890D01*
X171469890Y-71120213D01*
X171344951Y-71292179D01*
X171248444Y-71481585D01*
X171182753Y-71683760D01*
X171159292Y-71831888D01*
X171149500Y-71893713D01*
X168889395Y-71893713D01*
X167965213Y-70969531D01*
X167965208Y-70969527D01*
X167885290Y-70923387D01*
X167885289Y-70923386D01*
X167885288Y-70923386D01*
X167796144Y-70899500D01*
X167796143Y-70899500D01*
X157979386Y-70899500D01*
X157912347Y-70879815D01*
X157891705Y-70863181D01*
X157838017Y-70809493D01*
X157838011Y-70809488D01*
X157712488Y-70737017D01*
X157712489Y-70737017D01*
X157701006Y-70733940D01*
X157572475Y-70699500D01*
X157427525Y-70699500D01*
X157298993Y-70733940D01*
X157287511Y-70737017D01*
X157161988Y-70809488D01*
X157161982Y-70809493D01*
X157059493Y-70911982D01*
X157059488Y-70911988D01*
X156987017Y-71037511D01*
X156987016Y-71037515D01*
X156949500Y-71177525D01*
X156949500Y-71322475D01*
X156971564Y-71404818D01*
X156987017Y-71462488D01*
X157059488Y-71588011D01*
X157064438Y-71594461D01*
X157063049Y-71595526D01*
X157091780Y-71648142D01*
X157086796Y-71717834D01*
X157044924Y-71773767D01*
X156979460Y-71798184D01*
X156970614Y-71798500D01*
X156670544Y-71798500D01*
X156603505Y-71778815D01*
X156582863Y-71762181D01*
X156261819Y-71441137D01*
X156228334Y-71379814D01*
X156225500Y-71353456D01*
X156225500Y-70920730D01*
X156222646Y-70890300D01*
X156222646Y-70890298D01*
X156177793Y-70762119D01*
X156177792Y-70762117D01*
X156167700Y-70748443D01*
X156097150Y-70652850D01*
X155987882Y-70572207D01*
X155987880Y-70572206D01*
X155859700Y-70527353D01*
X155829270Y-70524500D01*
X155829266Y-70524500D01*
X155320734Y-70524500D01*
X155320730Y-70524500D01*
X155290300Y-70527353D01*
X155290298Y-70527353D01*
X155162119Y-70572206D01*
X155162117Y-70572207D01*
X155052850Y-70652850D01*
X154972207Y-70762117D01*
X154972206Y-70762119D01*
X154927353Y-70890298D01*
X154927353Y-70890300D01*
X154924500Y-70920730D01*
X154924500Y-71454456D01*
X154918261Y-71475701D01*
X154916682Y-71497790D01*
X154908609Y-71508573D01*
X154904815Y-71521495D01*
X154888081Y-71535994D01*
X154874810Y-71553723D01*
X154862189Y-71558430D01*
X154852011Y-71567250D01*
X154830093Y-71570401D01*
X154809346Y-71578140D01*
X154796185Y-71575277D01*
X154782853Y-71577194D01*
X154762709Y-71567994D01*
X154741073Y-71563288D01*
X154723347Y-71550019D01*
X154719297Y-71548169D01*
X154712819Y-71542137D01*
X154611819Y-71441137D01*
X154578334Y-71379814D01*
X154575500Y-71353456D01*
X154575500Y-70920730D01*
X154572646Y-70890300D01*
X154572646Y-70890298D01*
X154527793Y-70762119D01*
X154527792Y-70762117D01*
X154517700Y-70748443D01*
X154447150Y-70652850D01*
X154337882Y-70572207D01*
X154337880Y-70572206D01*
X154209700Y-70527353D01*
X154179270Y-70524500D01*
X154179266Y-70524500D01*
X153670734Y-70524500D01*
X153670730Y-70524500D01*
X153640300Y-70527353D01*
X153640298Y-70527353D01*
X153512119Y-70572206D01*
X153512117Y-70572207D01*
X153402850Y-70652850D01*
X153352963Y-70720445D01*
X153297316Y-70762695D01*
X153227659Y-70768154D01*
X153166110Y-70735086D01*
X153165512Y-70734492D01*
X152643202Y-70212181D01*
X152609717Y-70150858D01*
X152614701Y-70081166D01*
X152656573Y-70025233D01*
X152722037Y-70000816D01*
X152730883Y-70000500D01*
X174375500Y-70000500D01*
X174442539Y-70020185D01*
G37*
%TD.AperFunction*%
%TA.AperFunction,Conductor*%
G36*
X149742683Y-85094185D02*
G01*
X149788438Y-85146989D01*
X149798722Y-85201194D01*
X149799500Y-85201194D01*
X149799500Y-85547411D01*
X149779815Y-85614450D01*
X149763181Y-85635092D01*
X149209166Y-86189107D01*
X149209164Y-86189110D01*
X149153638Y-86285286D01*
X149153637Y-86285287D01*
X149136692Y-86314635D01*
X149136691Y-86314639D01*
X149099175Y-86454649D01*
X149099175Y-86454651D01*
X149099175Y-86599598D01*
X149120078Y-86677613D01*
X149136688Y-86739602D01*
X149136691Y-86739609D01*
X149209165Y-86865139D01*
X149311660Y-86967634D01*
X149428786Y-87035256D01*
X149437190Y-87040108D01*
X149577200Y-87077624D01*
X149577201Y-87077624D01*
X149577203Y-87077624D01*
X149630809Y-87077624D01*
X149649766Y-87083190D01*
X149669512Y-87083819D01*
X149682601Y-87092832D01*
X149697848Y-87097309D01*
X149710784Y-87112238D01*
X149727058Y-87123444D01*
X149736469Y-87141880D01*
X149743603Y-87150113D01*
X149745185Y-87153728D01*
X149748418Y-87161448D01*
X149769087Y-87238585D01*
X149811437Y-87311937D01*
X149814486Y-87319218D01*
X149817516Y-87346413D01*
X149823970Y-87373014D01*
X149821330Y-87380639D01*
X149822224Y-87388657D01*
X149810068Y-87413177D01*
X149801117Y-87439041D01*
X149799886Y-87440739D01*
X149774232Y-87475500D01*
X149747207Y-87512118D01*
X149747206Y-87512119D01*
X149702353Y-87640298D01*
X149702353Y-87640300D01*
X149699500Y-87670730D01*
X149699500Y-88329269D01*
X149702353Y-88359699D01*
X149702353Y-88359701D01*
X149746690Y-88486404D01*
X149747207Y-88487882D01*
X149827850Y-88597150D01*
X149937118Y-88677793D01*
X149979845Y-88692744D01*
X150065299Y-88722646D01*
X150095730Y-88725500D01*
X150095734Y-88725500D01*
X150604270Y-88725500D01*
X150634699Y-88722646D01*
X150634701Y-88722646D01*
X150698790Y-88700219D01*
X150762882Y-88677793D01*
X150872150Y-88597150D01*
X150952793Y-88487882D01*
X150979349Y-88411988D01*
X150997646Y-88359701D01*
X150997646Y-88359699D01*
X151000500Y-88329269D01*
X151000500Y-87670730D01*
X150997646Y-87640300D01*
X150997646Y-87640298D01*
X150952793Y-87512119D01*
X150952792Y-87512117D01*
X150872150Y-87402850D01*
X150839043Y-87378416D01*
X150796792Y-87322768D01*
X150791335Y-87253112D01*
X150793389Y-87246553D01*
X150792951Y-87246436D01*
X150799316Y-87222683D01*
X150832571Y-87098575D01*
X150832571Y-86953625D01*
X150795055Y-86813615D01*
X150756331Y-86746544D01*
X150722582Y-86688088D01*
X150722577Y-86688082D01*
X150620088Y-86585593D01*
X150620082Y-86585588D01*
X150601315Y-86574753D01*
X150584062Y-86556658D01*
X150564050Y-86541677D01*
X150560369Y-86531809D01*
X150553100Y-86524185D01*
X150548369Y-86499635D01*
X150539633Y-86476213D01*
X150541872Y-86465919D01*
X150539879Y-86455577D01*
X150549170Y-86432368D01*
X150554485Y-86407940D01*
X150564085Y-86395115D01*
X150565848Y-86390713D01*
X150575628Y-86379694D01*
X150693995Y-86261327D01*
X150755316Y-86227844D01*
X150768423Y-86225720D01*
X150770479Y-86225499D01*
X150770484Y-86225499D01*
X150827114Y-86219412D01*
X150955226Y-86171628D01*
X151064687Y-86089687D01*
X151146628Y-85980226D01*
X151154631Y-85958768D01*
X151196498Y-85902839D01*
X151261962Y-85878420D01*
X151330235Y-85893270D01*
X151374972Y-85934824D01*
X151382978Y-85947219D01*
X151397207Y-85987882D01*
X151477850Y-86097150D01*
X151481618Y-86099931D01*
X151490572Y-86113793D01*
X151496899Y-86135161D01*
X151507577Y-86154715D01*
X151506626Y-86168006D01*
X151510411Y-86180787D01*
X151504182Y-86202182D01*
X151502593Y-86224407D01*
X151494606Y-86235075D01*
X151490881Y-86247872D01*
X151474073Y-86262503D01*
X151460721Y-86280340D01*
X151448412Y-86288460D01*
X151411985Y-86309491D01*
X151411982Y-86309493D01*
X151309493Y-86411982D01*
X151309488Y-86411988D01*
X151237017Y-86537511D01*
X151237016Y-86537515D01*
X151199500Y-86677525D01*
X151199500Y-86822475D01*
X151234799Y-86954212D01*
X151237017Y-86962488D01*
X151309488Y-87088011D01*
X151309490Y-87088013D01*
X151309491Y-87088015D01*
X151411985Y-87190509D01*
X151448412Y-87211540D01*
X151496626Y-87262105D01*
X151509850Y-87330712D01*
X151483882Y-87395577D01*
X151479936Y-87400023D01*
X151397207Y-87512117D01*
X151397206Y-87512119D01*
X151352353Y-87640298D01*
X151352353Y-87640300D01*
X151349500Y-87670730D01*
X151349500Y-88329269D01*
X151352353Y-88359699D01*
X151352353Y-88359701D01*
X151396690Y-88486404D01*
X151397207Y-88487882D01*
X151477850Y-88597150D01*
X151587118Y-88677793D01*
X151629845Y-88692744D01*
X151715299Y-88722646D01*
X151745730Y-88725500D01*
X151745734Y-88725500D01*
X152254270Y-88725500D01*
X152284699Y-88722646D01*
X152284701Y-88722646D01*
X152348790Y-88700219D01*
X152412882Y-88677793D01*
X152522150Y-88597150D01*
X152602793Y-88487882D01*
X152621806Y-88433543D01*
X152662527Y-88376769D01*
X152727480Y-88351022D01*
X152738847Y-88350500D01*
X153015954Y-88350500D01*
X153045394Y-88359144D01*
X153075381Y-88365668D01*
X153080396Y-88369422D01*
X153082993Y-88370185D01*
X153103635Y-88386819D01*
X153125679Y-88408863D01*
X153159164Y-88470186D01*
X153161998Y-88496544D01*
X153161998Y-88572475D01*
X153199514Y-88712485D01*
X153199515Y-88712488D01*
X153271986Y-88838011D01*
X153271991Y-88838017D01*
X153321793Y-88887819D01*
X153355278Y-88949142D01*
X153350294Y-89018834D01*
X153308422Y-89074767D01*
X153242958Y-89099184D01*
X153234112Y-89099500D01*
X149349462Y-89099500D01*
X149282423Y-89079815D01*
X149236668Y-89027011D01*
X149225640Y-88982134D01*
X149225500Y-88979526D01*
X149223170Y-88957853D01*
X149219412Y-88922886D01*
X149206332Y-88887819D01*
X149174601Y-88802746D01*
X149171628Y-88794774D01*
X149089687Y-88685313D01*
X149006294Y-88622886D01*
X148980228Y-88603373D01*
X148980226Y-88603372D01*
X148852114Y-88555588D01*
X148852112Y-88555587D01*
X148852110Y-88555587D01*
X148795501Y-88549500D01*
X148795485Y-88549500D01*
X148270808Y-88549500D01*
X148203769Y-88529815D01*
X148183127Y-88513181D01*
X147963674Y-88293727D01*
X147963673Y-88293726D01*
X147857123Y-88222532D01*
X147738747Y-88173500D01*
X147738734Y-88173496D01*
X147734927Y-88172739D01*
X147734925Y-88172739D01*
X147613071Y-88148500D01*
X147613069Y-88148500D01*
X146685931Y-88148500D01*
X146685929Y-88148500D01*
X146632706Y-88159087D01*
X146563114Y-88152860D01*
X146520833Y-88125151D01*
X146365213Y-87969531D01*
X146365208Y-87969527D01*
X146285290Y-87923387D01*
X146285285Y-87923385D01*
X146278727Y-87921627D01*
X146278727Y-87921628D01*
X146196144Y-87899500D01*
X146196140Y-87899499D01*
X146195522Y-87899418D01*
X146195039Y-87899204D01*
X146188294Y-87897397D01*
X146188576Y-87896344D01*
X146131628Y-87871145D01*
X146093163Y-87812817D01*
X146092338Y-87742952D01*
X146095538Y-87733145D01*
X146096625Y-87730229D01*
X146096628Y-87730226D01*
X146144412Y-87602114D01*
X146148246Y-87566454D01*
X146150499Y-87545501D01*
X146150499Y-87545494D01*
X146150500Y-87545485D01*
X146150499Y-87096542D01*
X146170183Y-87029504D01*
X146186813Y-87008867D01*
X146530470Y-86665212D01*
X146576614Y-86585288D01*
X146600500Y-86496144D01*
X146600500Y-86403856D01*
X146600500Y-86348052D01*
X146620185Y-86281013D01*
X146672989Y-86235258D01*
X146736080Y-86224594D01*
X146745734Y-86225500D01*
X146745740Y-86225500D01*
X147227131Y-86225500D01*
X147256571Y-86234144D01*
X147286558Y-86240668D01*
X147291573Y-86244422D01*
X147294170Y-86245185D01*
X147314812Y-86261819D01*
X147461856Y-86408863D01*
X147495341Y-86470186D01*
X147498175Y-86496544D01*
X147498175Y-86572475D01*
X147526854Y-86679505D01*
X147535692Y-86712488D01*
X147608163Y-86838011D01*
X147608165Y-86838013D01*
X147608166Y-86838015D01*
X147710660Y-86940509D01*
X147710661Y-86940510D01*
X147710663Y-86940511D01*
X147836186Y-87012982D01*
X147836187Y-87012982D01*
X147836190Y-87012984D01*
X147976200Y-87050500D01*
X147976203Y-87050500D01*
X148121147Y-87050500D01*
X148121150Y-87050500D01*
X148261160Y-87012984D01*
X148386690Y-86940509D01*
X148489184Y-86838015D01*
X148561659Y-86712485D01*
X148599175Y-86572475D01*
X148599175Y-86427525D01*
X148561659Y-86287515D01*
X148560373Y-86285288D01*
X148489186Y-86161988D01*
X148489181Y-86161982D01*
X148435494Y-86108295D01*
X148402009Y-86046972D01*
X148399175Y-86020614D01*
X148399175Y-85372759D01*
X148407819Y-85343318D01*
X148414343Y-85313332D01*
X148418097Y-85308316D01*
X148418860Y-85305720D01*
X148435494Y-85285078D01*
X148609753Y-85110819D01*
X148671076Y-85077334D01*
X148697434Y-85074500D01*
X149675644Y-85074500D01*
X149742683Y-85094185D01*
G37*
%TD.AperFunction*%
%TA.AperFunction,Conductor*%
G36*
X145537353Y-70020185D02*
G01*
X145583108Y-70072989D01*
X145593052Y-70142147D01*
X145564027Y-70205703D01*
X145557995Y-70212181D01*
X142616531Y-73153644D01*
X142616529Y-73153646D01*
X142602742Y-73177527D01*
X142579069Y-73218531D01*
X142574863Y-73225816D01*
X142570385Y-73233572D01*
X142546500Y-73322714D01*
X142546500Y-74406456D01*
X142526815Y-74473495D01*
X142510181Y-74494137D01*
X141891137Y-75113181D01*
X141864209Y-75127884D01*
X141838391Y-75144477D01*
X141832190Y-75145368D01*
X141829814Y-75146666D01*
X141803456Y-75149500D01*
X141738847Y-75149500D01*
X141671808Y-75129815D01*
X141626053Y-75077011D01*
X141621812Y-75066471D01*
X141602793Y-75012118D01*
X141522150Y-74902850D01*
X141412882Y-74822207D01*
X141412880Y-74822206D01*
X141284700Y-74777353D01*
X141254270Y-74774500D01*
X141254266Y-74774500D01*
X140921633Y-74774500D01*
X140854594Y-74754815D01*
X140808839Y-74702011D01*
X140801858Y-74682594D01*
X140800500Y-74677525D01*
X140762984Y-74537515D01*
X140753295Y-74520734D01*
X140690511Y-74411988D01*
X140690506Y-74411982D01*
X140588017Y-74309493D01*
X140588011Y-74309488D01*
X140462488Y-74237017D01*
X140462489Y-74237017D01*
X140451006Y-74233940D01*
X140322475Y-74199500D01*
X140177525Y-74199500D01*
X140048993Y-74233940D01*
X140037511Y-74237017D01*
X139985237Y-74267198D01*
X139917337Y-74283671D01*
X139851310Y-74260818D01*
X139808119Y-74205897D01*
X139802742Y-74185338D01*
X139802603Y-74185376D01*
X139800500Y-74177527D01*
X139800500Y-74177525D01*
X139762984Y-74037515D01*
X139761661Y-74035224D01*
X139690511Y-73911988D01*
X139690506Y-73911982D01*
X139588017Y-73809493D01*
X139588011Y-73809488D01*
X139462488Y-73737017D01*
X139462489Y-73737017D01*
X139451006Y-73733940D01*
X139322475Y-73699500D01*
X139177525Y-73699500D01*
X139048993Y-73733940D01*
X139037511Y-73737017D01*
X138911988Y-73809488D01*
X138911982Y-73809493D01*
X138809493Y-73911982D01*
X138809488Y-73911988D01*
X138737017Y-74037511D01*
X138737016Y-74037515D01*
X138699500Y-74177525D01*
X138699500Y-74177527D01*
X138699500Y-74253456D01*
X138679815Y-74320495D01*
X138663181Y-74341137D01*
X138368531Y-74635786D01*
X138368529Y-74635788D01*
X138353406Y-74661983D01*
X138344434Y-74677525D01*
X138340923Y-74683606D01*
X138340921Y-74683609D01*
X138322386Y-74715709D01*
X138309719Y-74762986D01*
X138298500Y-74804856D01*
X138298500Y-76034208D01*
X138299386Y-76037515D01*
X138315662Y-76098260D01*
X138322384Y-76123347D01*
X138322387Y-76123354D01*
X138368527Y-76203272D01*
X138368531Y-76203277D01*
X138674011Y-76508757D01*
X138707496Y-76570080D01*
X138703650Y-76632863D01*
X138703963Y-76632932D01*
X138703522Y-76634948D01*
X138703373Y-76637389D01*
X138702353Y-76640303D01*
X138699500Y-76670730D01*
X138699500Y-77329269D01*
X138702353Y-77359699D01*
X138702353Y-77359701D01*
X138747206Y-77487880D01*
X138747207Y-77487882D01*
X138827850Y-77597150D01*
X138877187Y-77633562D01*
X138899771Y-77650230D01*
X138942022Y-77705878D01*
X138947480Y-77775534D01*
X138914412Y-77837083D01*
X138899771Y-77849770D01*
X138827850Y-77902850D01*
X138747207Y-78012117D01*
X138747206Y-78012119D01*
X138702353Y-78140298D01*
X138702353Y-78140300D01*
X138699500Y-78170730D01*
X138699500Y-78829269D01*
X138702353Y-78859694D01*
X138702354Y-78859702D01*
X138703373Y-78862613D01*
X138703489Y-78864897D01*
X138703964Y-78867070D01*
X138703604Y-78867148D01*
X138706931Y-78932392D01*
X138674011Y-78991242D01*
X138515024Y-79150230D01*
X138368530Y-79296724D01*
X138344694Y-79338011D01*
X138344692Y-79338014D01*
X138344690Y-79338016D01*
X138322388Y-79376642D01*
X138322387Y-79376645D01*
X138322386Y-79376647D01*
X138322386Y-79376648D01*
X138309969Y-79422989D01*
X138298500Y-79465792D01*
X138298500Y-80945145D01*
X138318801Y-81020911D01*
X138322385Y-81034286D01*
X138322387Y-81034291D01*
X138368527Y-81114208D01*
X138368531Y-81114213D01*
X138413181Y-81158863D01*
X138446666Y-81220186D01*
X138449500Y-81246544D01*
X138449500Y-81322475D01*
X138484287Y-81452299D01*
X138487017Y-81462488D01*
X138559488Y-81588011D01*
X138559490Y-81588013D01*
X138559491Y-81588015D01*
X138661985Y-81690509D01*
X138661986Y-81690510D01*
X138661988Y-81690511D01*
X138787511Y-81762982D01*
X138787512Y-81762982D01*
X138787515Y-81762984D01*
X138927525Y-81800500D01*
X138927528Y-81800500D01*
X139072472Y-81800500D01*
X139072475Y-81800500D01*
X139212485Y-81762984D01*
X139338015Y-81690509D01*
X139440509Y-81588015D01*
X139497751Y-81488868D01*
X139548317Y-81440655D01*
X139616924Y-81427431D01*
X139667133Y-81443481D01*
X139787515Y-81512984D01*
X139927525Y-81550500D01*
X139927528Y-81550500D01*
X140072472Y-81550500D01*
X140072475Y-81550500D01*
X140212485Y-81512984D01*
X140338015Y-81440509D01*
X140440509Y-81338015D01*
X140512984Y-81212485D01*
X140550500Y-81072475D01*
X140550500Y-80927525D01*
X140533596Y-80864439D01*
X140535259Y-80794592D01*
X140574421Y-80736729D01*
X140638649Y-80709225D01*
X140694327Y-80715307D01*
X140715301Y-80722646D01*
X140715300Y-80722646D01*
X140745730Y-80725500D01*
X140745734Y-80725500D01*
X141254270Y-80725500D01*
X141284699Y-80722646D01*
X141284701Y-80722646D01*
X141377630Y-80690128D01*
X141412882Y-80677793D01*
X141522150Y-80597150D01*
X141602793Y-80487882D01*
X141625219Y-80423790D01*
X141647646Y-80359701D01*
X141647646Y-80359699D01*
X141650500Y-80329269D01*
X141650500Y-79896544D01*
X141670185Y-79829505D01*
X141686819Y-79808863D01*
X141855384Y-79640298D01*
X142030470Y-79465212D01*
X142076614Y-79385288D01*
X142085935Y-79350500D01*
X142100500Y-79296144D01*
X142100500Y-78946544D01*
X142120185Y-78879505D01*
X142136819Y-78858863D01*
X143936193Y-77059489D01*
X145739559Y-75256122D01*
X145800880Y-75222639D01*
X145870572Y-75227623D01*
X145926505Y-75269495D01*
X145945135Y-75315229D01*
X145947397Y-75314624D01*
X145949500Y-75322472D01*
X145949500Y-75322475D01*
X145987016Y-75462485D01*
X145987017Y-75462488D01*
X146059488Y-75588011D01*
X146059490Y-75588013D01*
X146059491Y-75588015D01*
X146161985Y-75690509D01*
X146161986Y-75690510D01*
X146161988Y-75690511D01*
X146287511Y-75762982D01*
X146287512Y-75762982D01*
X146287515Y-75762984D01*
X146427525Y-75800500D01*
X146427528Y-75800500D01*
X146572472Y-75800500D01*
X146572475Y-75800500D01*
X146712485Y-75762984D01*
X146838015Y-75690509D01*
X146940509Y-75588015D01*
X147012984Y-75462485D01*
X147050500Y-75322475D01*
X147050500Y-75291199D01*
X147070185Y-75224160D01*
X147122989Y-75178405D01*
X147192147Y-75168461D01*
X147255703Y-75197486D01*
X147291541Y-75250244D01*
X147319225Y-75329362D01*
X147322207Y-75337882D01*
X147402849Y-75447149D01*
X147402851Y-75447151D01*
X147483035Y-75506329D01*
X147525286Y-75561976D01*
X147530745Y-75631632D01*
X147497678Y-75693182D01*
X147483713Y-75705365D01*
X147410315Y-75760310D01*
X147328373Y-75869771D01*
X147280587Y-75997889D01*
X147274500Y-76054498D01*
X147274500Y-76645481D01*
X147274501Y-76645490D01*
X147280587Y-76702114D01*
X147328372Y-76830226D01*
X147350063Y-76859202D01*
X147374479Y-76924667D01*
X147359627Y-76992940D01*
X147312795Y-77040899D01*
X147245109Y-77079977D01*
X147245104Y-77079981D01*
X142219531Y-82105554D01*
X142219525Y-82105562D01*
X142176827Y-82179519D01*
X142176827Y-82179520D01*
X142173387Y-82185477D01*
X142173386Y-82185480D01*
X142149500Y-82274624D01*
X142149500Y-83770614D01*
X142129815Y-83837653D01*
X142113181Y-83858295D01*
X142059493Y-83911982D01*
X142059488Y-83911988D01*
X141987017Y-84037511D01*
X141987016Y-84037515D01*
X141949500Y-84177525D01*
X141949500Y-84322475D01*
X141984241Y-84452127D01*
X141987017Y-84462488D01*
X142059488Y-84588011D01*
X142059490Y-84588013D01*
X142059491Y-84588015D01*
X142161985Y-84690509D01*
X142161986Y-84690510D01*
X142161988Y-84690511D01*
X142287511Y-84762982D01*
X142287512Y-84762982D01*
X142287515Y-84762984D01*
X142427525Y-84800500D01*
X142427528Y-84800500D01*
X142572472Y-84800500D01*
X142572475Y-84800500D01*
X142712485Y-84762984D01*
X142838015Y-84690509D01*
X142940509Y-84588015D01*
X143012984Y-84462485D01*
X143050500Y-84322475D01*
X143050500Y-84177525D01*
X143012984Y-84037515D01*
X143002977Y-84020183D01*
X142940511Y-83911988D01*
X142940506Y-83911982D01*
X142886819Y-83858295D01*
X142853334Y-83796972D01*
X142850500Y-83770614D01*
X142850500Y-82517311D01*
X142870185Y-82450272D01*
X142886814Y-82429635D01*
X147062821Y-78253627D01*
X147124142Y-78220144D01*
X147193834Y-78225128D01*
X147249767Y-78267000D01*
X147274184Y-78332464D01*
X147274500Y-78341310D01*
X147274500Y-78620480D01*
X147274501Y-78620490D01*
X147280587Y-78677114D01*
X147322272Y-78788871D01*
X147328372Y-78805226D01*
X147410313Y-78914687D01*
X147477767Y-78965182D01*
X147508090Y-78987882D01*
X147519774Y-78996628D01*
X147647886Y-79044412D01*
X147704515Y-79050500D01*
X148098463Y-79050499D01*
X148165502Y-79070183D01*
X148211257Y-79122987D01*
X148218238Y-79142404D01*
X148237017Y-79212489D01*
X148309488Y-79338011D01*
X148309490Y-79338014D01*
X148309491Y-79338015D01*
X148411985Y-79440509D01*
X148411986Y-79440510D01*
X148411988Y-79440511D01*
X148537511Y-79512982D01*
X148537512Y-79512982D01*
X148537515Y-79512984D01*
X148677525Y-79550500D01*
X148677528Y-79550500D01*
X148922472Y-79550500D01*
X148922474Y-79550500D01*
X148922475Y-79550500D01*
X149062485Y-79512984D01*
X149063985Y-79512118D01*
X149188015Y-79440510D01*
X149541706Y-79086817D01*
X149603029Y-79053333D01*
X149629387Y-79050499D01*
X149795481Y-79050499D01*
X149795484Y-79050499D01*
X149852114Y-79044412D01*
X149980226Y-78996628D01*
X150000190Y-78981682D01*
X150065651Y-78957266D01*
X150133925Y-78972117D01*
X150183331Y-79021521D01*
X150198500Y-79080950D01*
X150198500Y-81069049D01*
X150178815Y-81136088D01*
X150126011Y-81181843D01*
X150056853Y-81191787D01*
X150000190Y-81168316D01*
X149980230Y-81153374D01*
X149980227Y-81153373D01*
X149980226Y-81153372D01*
X149852114Y-81105588D01*
X149852112Y-81105587D01*
X149852110Y-81105587D01*
X149795501Y-81099500D01*
X149795485Y-81099500D01*
X149579386Y-81099500D01*
X149512347Y-81079815D01*
X149491705Y-81063181D01*
X149154409Y-80725884D01*
X149154408Y-80725883D01*
X149028878Y-80653409D01*
X149028879Y-80653409D01*
X148981339Y-80640671D01*
X148888867Y-80615893D01*
X148743919Y-80615893D01*
X148651447Y-80640671D01*
X148603907Y-80653409D01*
X148482639Y-80723422D01*
X148482636Y-80723424D01*
X148478378Y-80725883D01*
X148476360Y-80727900D01*
X148473017Y-80729831D01*
X148379831Y-80823017D01*
X148377900Y-80826360D01*
X148375883Y-80828378D01*
X148375881Y-80828380D01*
X148369159Y-80835101D01*
X148369033Y-80835226D01*
X148141079Y-81063181D01*
X148079756Y-81096666D01*
X148053398Y-81099500D01*
X147704519Y-81099500D01*
X147704509Y-81099501D01*
X147647885Y-81105587D01*
X147519773Y-81153372D01*
X147410313Y-81235313D01*
X147328373Y-81344771D01*
X147328372Y-81344774D01*
X147284468Y-81462485D01*
X147280587Y-81472889D01*
X147274500Y-81529498D01*
X147274500Y-82070481D01*
X147274501Y-82070484D01*
X147278882Y-82111248D01*
X147266476Y-82180006D01*
X147218865Y-82231142D01*
X147155593Y-82248500D01*
X145854856Y-82248500D01*
X145765712Y-82272386D01*
X145765709Y-82272387D01*
X145685791Y-82318527D01*
X145685786Y-82318531D01*
X144341137Y-83663181D01*
X144279814Y-83696666D01*
X144253456Y-83699500D01*
X144177525Y-83699500D01*
X144072611Y-83727612D01*
X144037511Y-83737017D01*
X143911988Y-83809488D01*
X143911982Y-83809493D01*
X143809493Y-83911982D01*
X143809488Y-83911988D01*
X143737017Y-84037511D01*
X143737016Y-84037515D01*
X143699500Y-84177525D01*
X143699500Y-84322475D01*
X143703218Y-84336349D01*
X143721267Y-84403712D01*
X143719604Y-84473562D01*
X143680441Y-84531424D01*
X143642448Y-84552846D01*
X143587117Y-84572207D01*
X143477850Y-84652850D01*
X143397207Y-84762117D01*
X143397206Y-84762119D01*
X143352353Y-84890298D01*
X143352353Y-84890300D01*
X143349500Y-84920730D01*
X143349500Y-85579269D01*
X143352353Y-85609699D01*
X143352353Y-85609701D01*
X143388606Y-85713302D01*
X143397207Y-85737882D01*
X143477850Y-85847150D01*
X143530511Y-85886015D01*
X143549771Y-85900230D01*
X143592022Y-85955878D01*
X143597480Y-86025534D01*
X143564412Y-86087083D01*
X143549771Y-86099770D01*
X143477850Y-86152850D01*
X143397207Y-86262117D01*
X143397206Y-86262119D01*
X143352353Y-86390298D01*
X143352353Y-86390300D01*
X143349500Y-86420730D01*
X143349500Y-87079269D01*
X143352353Y-87109699D01*
X143352354Y-87109701D01*
X143378543Y-87184545D01*
X143380045Y-87213973D01*
X143384240Y-87243147D01*
X143381806Y-87248475D01*
X143382105Y-87254324D01*
X143367458Y-87279893D01*
X143355215Y-87306703D01*
X143350287Y-87309869D01*
X143347377Y-87314951D01*
X143321229Y-87328543D01*
X143296437Y-87344477D01*
X143288341Y-87345640D01*
X143285383Y-87347179D01*
X143261502Y-87349500D01*
X143088498Y-87349500D01*
X143021459Y-87329815D01*
X142975704Y-87277011D01*
X142965760Y-87207853D01*
X142971457Y-87184545D01*
X142989353Y-87133397D01*
X142997646Y-87109699D01*
X142998689Y-87098575D01*
X143000500Y-87079269D01*
X143000500Y-86420730D01*
X142997646Y-86390300D01*
X142997646Y-86390298D01*
X142961678Y-86287511D01*
X142952793Y-86262118D01*
X142872150Y-86152850D01*
X142762882Y-86072207D01*
X142762880Y-86072206D01*
X142634700Y-86027353D01*
X142604270Y-86024500D01*
X142604266Y-86024500D01*
X142095734Y-86024500D01*
X142095730Y-86024500D01*
X142065300Y-86027353D01*
X142065298Y-86027353D01*
X141937119Y-86072206D01*
X141937117Y-86072207D01*
X141827850Y-86152850D01*
X141747428Y-86261819D01*
X141747207Y-86262118D01*
X141728193Y-86316456D01*
X141687473Y-86373231D01*
X141622520Y-86398978D01*
X141611153Y-86399500D01*
X141212046Y-86399500D01*
X141145007Y-86379815D01*
X141099252Y-86327011D01*
X141090429Y-86299693D01*
X141085967Y-86277262D01*
X141085966Y-86277260D01*
X141076106Y-86262503D01*
X141030601Y-86194399D01*
X140971209Y-86154715D01*
X140947739Y-86139033D01*
X140936456Y-86134360D01*
X140937157Y-86132665D01*
X140888396Y-86107157D01*
X140853823Y-86046441D01*
X140850500Y-86017927D01*
X140850500Y-85374833D01*
X140870185Y-85307794D01*
X140875225Y-85300533D01*
X140918796Y-85242331D01*
X140969091Y-85107483D01*
X140975500Y-85047873D01*
X140975499Y-84452128D01*
X140969091Y-84392517D01*
X140968788Y-84391705D01*
X140918797Y-84257671D01*
X140918793Y-84257664D01*
X140832547Y-84142455D01*
X140832544Y-84142452D01*
X140717335Y-84056206D01*
X140717328Y-84056202D01*
X140582482Y-84005908D01*
X140582483Y-84005908D01*
X140522883Y-83999501D01*
X140522881Y-83999500D01*
X140522873Y-83999500D01*
X140522865Y-83999500D01*
X140435261Y-83999500D01*
X140387808Y-83990061D01*
X140248082Y-83932184D01*
X140248074Y-83932182D01*
X140083771Y-83899500D01*
X140083767Y-83899500D01*
X139916233Y-83899500D01*
X139916228Y-83899500D01*
X139751925Y-83932182D01*
X139751917Y-83932184D01*
X139612192Y-83990061D01*
X139564740Y-83999500D01*
X139477130Y-83999500D01*
X139477123Y-83999501D01*
X139417516Y-84005908D01*
X139282671Y-84056202D01*
X139282664Y-84056206D01*
X139167455Y-84142452D01*
X139167452Y-84142455D01*
X139081206Y-84257664D01*
X139081202Y-84257671D01*
X139030946Y-84392417D01*
X139030909Y-84392517D01*
X139024500Y-84452127D01*
X139024500Y-84452134D01*
X139024500Y-84452135D01*
X139024500Y-85047870D01*
X139024501Y-85047876D01*
X139030908Y-85107483D01*
X139081202Y-85242328D01*
X139081204Y-85242331D01*
X139124766Y-85300522D01*
X139149184Y-85365985D01*
X139149500Y-85374833D01*
X139149500Y-86017927D01*
X139129815Y-86084966D01*
X139077011Y-86130721D01*
X139055755Y-86137586D01*
X139052260Y-86139033D01*
X138969399Y-86194399D01*
X138914033Y-86277260D01*
X138914032Y-86277264D01*
X138899500Y-86350321D01*
X138899500Y-87354191D01*
X138879815Y-87421230D01*
X138863181Y-87441872D01*
X138212181Y-88092872D01*
X138150858Y-88126357D01*
X138081166Y-88121373D01*
X138025233Y-88079501D01*
X138000816Y-88014037D01*
X138000500Y-88005191D01*
X138000500Y-71893713D01*
X138649500Y-71893713D01*
X138649500Y-72106287D01*
X138657973Y-72159784D01*
X138680260Y-72300500D01*
X138682754Y-72316243D01*
X138734536Y-72475612D01*
X138748444Y-72518414D01*
X138844951Y-72707820D01*
X138969890Y-72879786D01*
X139120213Y-73030109D01*
X139292179Y-73155048D01*
X139292181Y-73155049D01*
X139292184Y-73155051D01*
X139481588Y-73251557D01*
X139683757Y-73317246D01*
X139893713Y-73350500D01*
X139893714Y-73350500D01*
X140106286Y-73350500D01*
X140106287Y-73350500D01*
X140316243Y-73317246D01*
X140518412Y-73251557D01*
X140707816Y-73155051D01*
X140780377Y-73102333D01*
X140879786Y-73030109D01*
X140879788Y-73030106D01*
X140879792Y-73030104D01*
X141030104Y-72879792D01*
X141030106Y-72879788D01*
X141030109Y-72879786D01*
X141155048Y-72707820D01*
X141155047Y-72707820D01*
X141155051Y-72707816D01*
X141251557Y-72518412D01*
X141317246Y-72316243D01*
X141350500Y-72106287D01*
X141350500Y-71893713D01*
X141317246Y-71683757D01*
X141251557Y-71481588D01*
X141155051Y-71292184D01*
X141155049Y-71292181D01*
X141155048Y-71292179D01*
X141030109Y-71120213D01*
X140879786Y-70969890D01*
X140707820Y-70844951D01*
X140518414Y-70748444D01*
X140518413Y-70748443D01*
X140518412Y-70748443D01*
X140316243Y-70682754D01*
X140316241Y-70682753D01*
X140316240Y-70682753D01*
X140154957Y-70657208D01*
X140106287Y-70649500D01*
X139893713Y-70649500D01*
X139845042Y-70657208D01*
X139683760Y-70682753D01*
X139481585Y-70748444D01*
X139292179Y-70844951D01*
X139120213Y-70969890D01*
X138969890Y-71120213D01*
X138844951Y-71292179D01*
X138748444Y-71481585D01*
X138682753Y-71683760D01*
X138659292Y-71831888D01*
X138649500Y-71893713D01*
X138000500Y-71893713D01*
X138000500Y-70124500D01*
X138020185Y-70057461D01*
X138072989Y-70011706D01*
X138124500Y-70000500D01*
X145470314Y-70000500D01*
X145537353Y-70020185D01*
G37*
%TD.AperFunction*%
%TA.AperFunction,Conductor*%
G36*
X149844605Y-82969185D02*
G01*
X149865247Y-82985819D01*
X149985593Y-83106165D01*
X150019078Y-83167488D01*
X150014094Y-83237180D01*
X150005300Y-83255844D01*
X149987018Y-83287510D01*
X149987016Y-83287513D01*
X149977649Y-83322472D01*
X149949500Y-83427525D01*
X149949500Y-83572475D01*
X149983537Y-83699500D01*
X149987017Y-83712488D01*
X150059488Y-83838011D01*
X150059490Y-83838013D01*
X150059491Y-83838015D01*
X150161985Y-83940509D01*
X150161986Y-83940510D01*
X150161988Y-83940511D01*
X150287511Y-84012982D01*
X150287512Y-84012982D01*
X150287515Y-84012984D01*
X150427525Y-84050500D01*
X150427528Y-84050500D01*
X150572472Y-84050500D01*
X150572475Y-84050500D01*
X150712485Y-84012984D01*
X150838015Y-83940509D01*
X150843489Y-83935035D01*
X150904811Y-83901547D01*
X150974502Y-83906528D01*
X151005484Y-83923445D01*
X151018240Y-83932994D01*
X151032667Y-83943795D01*
X151032671Y-83943797D01*
X151077618Y-83960561D01*
X151167517Y-83994091D01*
X151227127Y-84000500D01*
X151670612Y-84000499D01*
X151737651Y-84020183D01*
X151758293Y-84036818D01*
X151883294Y-84161819D01*
X151916779Y-84223142D01*
X151911795Y-84292834D01*
X151869923Y-84348767D01*
X151804459Y-84373184D01*
X151795613Y-84373500D01*
X148454746Y-84373500D01*
X148368430Y-84396628D01*
X148368429Y-84396628D01*
X148365604Y-84397384D01*
X148365603Y-84397385D01*
X148285681Y-84443527D01*
X148285676Y-84443531D01*
X147768203Y-84961004D01*
X147764960Y-84965231D01*
X147708530Y-85006431D01*
X147638784Y-85010583D01*
X147577865Y-84976367D01*
X147566818Y-84963373D01*
X147522151Y-84902851D01*
X147512170Y-84895485D01*
X147412882Y-84822207D01*
X147412880Y-84822206D01*
X147284700Y-84777353D01*
X147254270Y-84774500D01*
X147254266Y-84774500D01*
X146745734Y-84774500D01*
X146736074Y-84775405D01*
X146721523Y-84772575D01*
X146706853Y-84774685D01*
X146687920Y-84766039D01*
X146667491Y-84762065D01*
X146656781Y-84751817D01*
X146643297Y-84745660D01*
X146632044Y-84728150D01*
X146617007Y-84713763D01*
X146612889Y-84698345D01*
X146605523Y-84686882D01*
X146600500Y-84651947D01*
X146600500Y-84479386D01*
X146620185Y-84412347D01*
X146636819Y-84391705D01*
X146662402Y-84366122D01*
X146690509Y-84338015D01*
X146762984Y-84212485D01*
X146800500Y-84072475D01*
X146800500Y-83927525D01*
X146762984Y-83787515D01*
X146733828Y-83737016D01*
X146690511Y-83661988D01*
X146690506Y-83661982D01*
X146588017Y-83559493D01*
X146588011Y-83559488D01*
X146462488Y-83487017D01*
X146462489Y-83487017D01*
X146434495Y-83479516D01*
X146322475Y-83449500D01*
X146177525Y-83449500D01*
X146065505Y-83479516D01*
X146037511Y-83487017D01*
X145911988Y-83559488D01*
X145911982Y-83559493D01*
X145809493Y-83661982D01*
X145809488Y-83661988D01*
X145737017Y-83787511D01*
X145737016Y-83787515D01*
X145699500Y-83927525D01*
X145699500Y-84072475D01*
X145737016Y-84212485D01*
X145737017Y-84212488D01*
X145809488Y-84338011D01*
X145809493Y-84338017D01*
X145863181Y-84391705D01*
X145877884Y-84418632D01*
X145894477Y-84444451D01*
X145895368Y-84450651D01*
X145896666Y-84453028D01*
X145899500Y-84479386D01*
X145899500Y-84672613D01*
X145879815Y-84739652D01*
X145827011Y-84785407D01*
X145757853Y-84795351D01*
X145694297Y-84766326D01*
X145687819Y-84760294D01*
X145237016Y-84309491D01*
X145237015Y-84309490D01*
X145111485Y-84237016D01*
X145111486Y-84237016D01*
X145081360Y-84228944D01*
X145040678Y-84218043D01*
X144981020Y-84181678D01*
X144950491Y-84118831D01*
X144958786Y-84049456D01*
X144985090Y-84010591D01*
X146009863Y-82985819D01*
X146071186Y-82952334D01*
X146097544Y-82949500D01*
X149777566Y-82949500D01*
X149844605Y-82969185D01*
G37*
%TD.AperFunction*%
%TA.AperFunction,Conductor*%
G36*
X166913495Y-76878185D02*
G01*
X166959250Y-76930989D01*
X166969194Y-77000147D01*
X166940169Y-77063703D01*
X166934137Y-77070181D01*
X164591137Y-79413181D01*
X164529814Y-79446666D01*
X164503456Y-79449500D01*
X164427525Y-79449500D01*
X164298993Y-79483940D01*
X164287511Y-79487017D01*
X164161988Y-79559488D01*
X164161982Y-79559493D01*
X164059493Y-79661982D01*
X164059488Y-79661988D01*
X163987017Y-79787511D01*
X163987016Y-79787515D01*
X163949500Y-79927525D01*
X163949500Y-80072475D01*
X163986560Y-80210783D01*
X163987017Y-80212488D01*
X164059488Y-80338011D01*
X164059490Y-80338013D01*
X164059491Y-80338015D01*
X164161985Y-80440509D01*
X164161986Y-80440510D01*
X164161988Y-80440511D01*
X164287511Y-80512982D01*
X164287512Y-80512982D01*
X164287515Y-80512984D01*
X164427525Y-80550500D01*
X164427528Y-80550500D01*
X164572472Y-80550500D01*
X164572475Y-80550500D01*
X164712485Y-80512984D01*
X164838015Y-80440509D01*
X164940509Y-80338015D01*
X165012984Y-80212485D01*
X165050500Y-80072475D01*
X165050500Y-79996544D01*
X165070185Y-79929505D01*
X165086819Y-79908863D01*
X166206811Y-78788871D01*
X167438126Y-77557555D01*
X167499447Y-77524072D01*
X167569139Y-77529056D01*
X167613486Y-77557557D01*
X167691713Y-77635784D01*
X167691716Y-77635786D01*
X167691719Y-77635789D01*
X167808285Y-77695182D01*
X167808286Y-77695182D01*
X167808288Y-77695183D01*
X167808287Y-77695183D01*
X167851618Y-77702045D01*
X167904997Y-77710500D01*
X169270002Y-77710499D01*
X169270007Y-77710499D01*
X169270007Y-77710498D01*
X169366715Y-77695182D01*
X169483281Y-77635789D01*
X169575789Y-77543281D01*
X169635182Y-77426715D01*
X169636217Y-77420185D01*
X169641501Y-77386819D01*
X169650500Y-77330003D01*
X169650499Y-76982499D01*
X169670183Y-76915461D01*
X169722987Y-76869706D01*
X169774499Y-76858500D01*
X169835602Y-76858500D01*
X169902641Y-76878185D01*
X169948396Y-76930989D01*
X169958340Y-77000147D01*
X169955377Y-77014588D01*
X169949500Y-77036525D01*
X169949500Y-77181475D01*
X169972173Y-77266091D01*
X169987017Y-77321488D01*
X170059488Y-77447011D01*
X170059493Y-77447017D01*
X170113181Y-77500705D01*
X170127884Y-77527632D01*
X170144477Y-77553451D01*
X170145368Y-77559651D01*
X170146666Y-77562028D01*
X170149500Y-77588386D01*
X170149500Y-77768446D01*
X170129815Y-77835485D01*
X170113181Y-77856127D01*
X165950815Y-82018492D01*
X165889492Y-82051977D01*
X165819800Y-82046993D01*
X165801141Y-82038201D01*
X165712485Y-81987016D01*
X165572475Y-81949500D01*
X165427525Y-81949500D01*
X165298993Y-81983940D01*
X165287511Y-81987017D01*
X165161988Y-82059488D01*
X165161982Y-82059493D01*
X165059493Y-82161982D01*
X165059488Y-82161988D01*
X164987017Y-82287511D01*
X164987016Y-82287515D01*
X164949500Y-82427525D01*
X164949500Y-82572475D01*
X164983537Y-82699500D01*
X164987017Y-82712488D01*
X165059488Y-82838011D01*
X165059490Y-82838013D01*
X165059491Y-82838015D01*
X165161985Y-82940509D01*
X165161986Y-82940510D01*
X165161988Y-82940511D01*
X165287511Y-83012982D01*
X165287512Y-83012982D01*
X165287515Y-83012984D01*
X165427525Y-83050500D01*
X165427528Y-83050500D01*
X165476643Y-83050500D01*
X165543682Y-83070185D01*
X165589437Y-83122989D01*
X165599381Y-83192147D01*
X165584030Y-83236500D01*
X165556859Y-83283560D01*
X165556859Y-83283561D01*
X165556858Y-83283563D01*
X165556858Y-83283564D01*
X165553855Y-83294773D01*
X165522750Y-83410858D01*
X165522750Y-84265574D01*
X165503065Y-84332613D01*
X165450261Y-84378368D01*
X165381103Y-84388312D01*
X165317547Y-84359287D01*
X165311069Y-84353255D01*
X163292908Y-82335094D01*
X163266026Y-82294860D01*
X163262985Y-82287519D01*
X163262984Y-82287515D01*
X163190509Y-82161985D01*
X163088015Y-82059491D01*
X163088013Y-82059490D01*
X163088011Y-82059488D01*
X162962488Y-81987017D01*
X162962489Y-81987017D01*
X162951006Y-81983940D01*
X162822475Y-81949500D01*
X162677525Y-81949500D01*
X162609614Y-81967697D01*
X162537513Y-81987016D01*
X162537510Y-81987018D01*
X162521796Y-81996090D01*
X162453895Y-82012559D01*
X162387869Y-81989704D01*
X162372120Y-81976381D01*
X160916265Y-80520526D01*
X160916263Y-80520524D01*
X160829306Y-80470319D01*
X160802136Y-80454632D01*
X160728949Y-80435022D01*
X160674841Y-80420524D01*
X160674840Y-80420524D01*
X160420885Y-80420524D01*
X160398547Y-80413965D01*
X160375360Y-80411865D01*
X160362370Y-80403342D01*
X160353846Y-80400839D01*
X160344709Y-80394367D01*
X160338644Y-80389645D01*
X160283490Y-80334491D01*
X160222790Y-80299446D01*
X160216028Y-80294181D01*
X160200425Y-80272494D01*
X160181987Y-80253156D01*
X160180331Y-80244564D01*
X160175223Y-80237464D01*
X160173821Y-80210783D01*
X160168766Y-80184549D01*
X160172016Y-80176428D01*
X160171558Y-80167691D01*
X160184806Y-80144484D01*
X160194735Y-80119685D01*
X160204515Y-80108665D01*
X161296363Y-79016818D01*
X161357686Y-78983333D01*
X161384044Y-78980499D01*
X162095007Y-78980499D01*
X162095007Y-78980498D01*
X162191715Y-78965182D01*
X162308281Y-78905789D01*
X162400789Y-78813281D01*
X162460182Y-78696715D01*
X162475500Y-78600003D01*
X162475499Y-78209998D01*
X162475499Y-78209997D01*
X162475499Y-78209992D01*
X162460182Y-78113286D01*
X162460182Y-78113285D01*
X162445278Y-78084034D01*
X162400789Y-77996719D01*
X162400785Y-77996715D01*
X162400784Y-77996713D01*
X162308286Y-77904215D01*
X162308282Y-77904212D01*
X162308281Y-77904211D01*
X162261714Y-77880484D01*
X162210919Y-77832511D01*
X162194123Y-77764690D01*
X162216660Y-77698555D01*
X162261713Y-77659516D01*
X162308281Y-77635789D01*
X162400789Y-77543281D01*
X162460182Y-77426715D01*
X162461217Y-77420185D01*
X162466501Y-77386819D01*
X162475500Y-77330003D01*
X162475499Y-76982499D01*
X162495183Y-76915461D01*
X162547987Y-76869706D01*
X162599499Y-76858500D01*
X166846456Y-76858500D01*
X166913495Y-76878185D01*
G37*
%TD.AperFunction*%
%TA.AperFunction,Conductor*%
G36*
X151038466Y-77750367D02*
G01*
X151041147Y-77749982D01*
X151066827Y-77756536D01*
X151167517Y-77794091D01*
X151227127Y-77800500D01*
X151833073Y-77800499D01*
X151900112Y-77820183D01*
X151945867Y-77872987D01*
X151957073Y-77924499D01*
X151957073Y-77927524D01*
X151957073Y-78072474D01*
X151994589Y-78212484D01*
X151994590Y-78212487D01*
X152067061Y-78338010D01*
X152067063Y-78338012D01*
X152067064Y-78338014D01*
X152169558Y-78440508D01*
X152169559Y-78440509D01*
X152169561Y-78440510D01*
X152295084Y-78512981D01*
X152295085Y-78512981D01*
X152295088Y-78512983D01*
X152435098Y-78550499D01*
X152435101Y-78550499D01*
X152443158Y-78551560D01*
X152442904Y-78553482D01*
X152499783Y-78570184D01*
X152520425Y-78586818D01*
X153446426Y-79512819D01*
X153479911Y-79574142D01*
X153474927Y-79643834D01*
X153433055Y-79699767D01*
X153367591Y-79724184D01*
X153358757Y-79724500D01*
X153352136Y-79724500D01*
X153352123Y-79724501D01*
X153292516Y-79730908D01*
X153157671Y-79781202D01*
X153157664Y-79781206D01*
X153042455Y-79867452D01*
X153042452Y-79867455D01*
X152956206Y-79982664D01*
X152956202Y-79982671D01*
X152905908Y-80117517D01*
X152899501Y-80177116D01*
X152899500Y-80177135D01*
X152899500Y-81022870D01*
X152899501Y-81022876D01*
X152905908Y-81082483D01*
X152956202Y-81217328D01*
X152956203Y-81217329D01*
X152956204Y-81217331D01*
X152969204Y-81234697D01*
X152969208Y-81234702D01*
X152993625Y-81300166D01*
X152978774Y-81368439D01*
X152957622Y-81396694D01*
X152491137Y-81863181D01*
X152429814Y-81896666D01*
X152403456Y-81899500D01*
X151196543Y-81899500D01*
X151129504Y-81879815D01*
X151108862Y-81863181D01*
X150935819Y-81690137D01*
X150902334Y-81628814D01*
X150899500Y-81602456D01*
X150899500Y-77872720D01*
X150908144Y-77843279D01*
X150914668Y-77813293D01*
X150917898Y-77810062D01*
X150919185Y-77805681D01*
X150942369Y-77785591D01*
X150964073Y-77763888D01*
X150968537Y-77762916D01*
X150971989Y-77759926D01*
X151002360Y-77755558D01*
X151032346Y-77749036D01*
X151038466Y-77750367D01*
G37*
%TD.AperFunction*%
%TA.AperFunction,Conductor*%
G36*
X160268833Y-78179303D02*
G01*
X160324767Y-78221174D01*
X160349184Y-78286639D01*
X160349500Y-78295485D01*
X160349500Y-78600007D01*
X160364817Y-78696713D01*
X160364817Y-78696714D01*
X160411774Y-78788871D01*
X160424670Y-78857540D01*
X160398394Y-78922281D01*
X160388970Y-78932847D01*
X159932078Y-79389738D01*
X159870755Y-79423223D01*
X159801063Y-79418239D01*
X159770766Y-79401828D01*
X159662882Y-79322207D01*
X159662880Y-79322206D01*
X159534700Y-79277353D01*
X159504270Y-79274500D01*
X159504266Y-79274500D01*
X159370487Y-79274500D01*
X159303448Y-79254815D01*
X159257693Y-79202011D01*
X159247749Y-79132853D01*
X159276774Y-79069297D01*
X159282806Y-79062819D01*
X159923771Y-78421853D01*
X160137820Y-78207803D01*
X160199142Y-78174319D01*
X160268833Y-78179303D01*
G37*
%TD.AperFunction*%
%TA.AperFunction,Conductor*%
G36*
X163929497Y-72519185D02*
G01*
X163950139Y-72535819D01*
X167360138Y-75945819D01*
X167393623Y-76007142D01*
X167388639Y-76076834D01*
X167346767Y-76132767D01*
X167281303Y-76157184D01*
X167272457Y-76157500D01*
X162599500Y-76157500D01*
X162532461Y-76137815D01*
X162486706Y-76085011D01*
X162475500Y-76033500D01*
X162475499Y-75669992D01*
X162460997Y-75578434D01*
X162460182Y-75573285D01*
X162400789Y-75456719D01*
X162400785Y-75456715D01*
X162400784Y-75456713D01*
X162308286Y-75364215D01*
X162308282Y-75364212D01*
X162308281Y-75364211D01*
X162261714Y-75340484D01*
X162210919Y-75292511D01*
X162194123Y-75224690D01*
X162216660Y-75158555D01*
X162261713Y-75119516D01*
X162308281Y-75095789D01*
X162400789Y-75003281D01*
X162460182Y-74886715D01*
X162462345Y-74873062D01*
X162465624Y-74852354D01*
X162475500Y-74790003D01*
X162475499Y-74399998D01*
X162475499Y-74399996D01*
X162475499Y-74399992D01*
X162460425Y-74304818D01*
X162460182Y-74303285D01*
X162400789Y-74186719D01*
X162400785Y-74186715D01*
X162400784Y-74186713D01*
X162308286Y-74094215D01*
X162308282Y-74094212D01*
X162308281Y-74094211D01*
X162191715Y-74034818D01*
X162191714Y-74034817D01*
X162191711Y-74034816D01*
X162191712Y-74034816D01*
X162095003Y-74019500D01*
X160729992Y-74019500D01*
X160729992Y-74019501D01*
X160633289Y-74034816D01*
X160624007Y-74037833D01*
X160623159Y-74035224D01*
X160584514Y-74044500D01*
X160082525Y-74044500D01*
X159944963Y-74081360D01*
X159943204Y-74081831D01*
X159942510Y-74082017D01*
X159816988Y-74154487D01*
X159816983Y-74154491D01*
X159458292Y-74513181D01*
X159396969Y-74546666D01*
X159370612Y-74549500D01*
X159204519Y-74549500D01*
X159204509Y-74549501D01*
X159147885Y-74555587D01*
X159019773Y-74603372D01*
X159012062Y-74607583D01*
X158943789Y-74622434D01*
X158878325Y-74598016D01*
X158864956Y-74586431D01*
X158838016Y-74559491D01*
X158838015Y-74559490D01*
X158712485Y-74487016D01*
X158631112Y-74465212D01*
X158631111Y-74465211D01*
X158588186Y-74453709D01*
X158572475Y-74449500D01*
X158427525Y-74449500D01*
X158368888Y-74465211D01*
X158368888Y-74465212D01*
X158287515Y-74487016D01*
X158287513Y-74487016D01*
X158287513Y-74487017D01*
X158161986Y-74559489D01*
X158161983Y-74559491D01*
X158059491Y-74661983D01*
X158059489Y-74661986D01*
X158043022Y-74690509D01*
X158005896Y-74754815D01*
X158001180Y-74762983D01*
X158001178Y-74762986D01*
X157987017Y-74787512D01*
X157987016Y-74787514D01*
X157987016Y-74787515D01*
X157949500Y-74927525D01*
X157949500Y-75072475D01*
X157953424Y-75087118D01*
X157982460Y-75195484D01*
X157987014Y-75212480D01*
X157987016Y-75212485D01*
X158059490Y-75338015D01*
X158411985Y-75690510D01*
X158411987Y-75690511D01*
X158411991Y-75690514D01*
X158532889Y-75760314D01*
X158532888Y-75760314D01*
X158532897Y-75760318D01*
X158536102Y-75762168D01*
X158537511Y-75762982D01*
X158537515Y-75762984D01*
X158677525Y-75800500D01*
X158850091Y-75800500D01*
X158871336Y-75806738D01*
X158893423Y-75808318D01*
X158912860Y-75818931D01*
X158917130Y-75820185D01*
X158924393Y-75825227D01*
X158965590Y-75856066D01*
X159007461Y-75911998D01*
X159012446Y-75981690D01*
X158998668Y-76017332D01*
X158987017Y-76037512D01*
X158987016Y-76037514D01*
X158987016Y-76037515D01*
X158949500Y-76177525D01*
X158949500Y-76322475D01*
X158964998Y-76380313D01*
X158987017Y-76462489D01*
X158987018Y-76462492D01*
X158987603Y-76463504D01*
X158987836Y-76464465D01*
X158990128Y-76469999D01*
X158989265Y-76470356D01*
X159004073Y-76531405D01*
X158981219Y-76597431D01*
X158926296Y-76640619D01*
X158880214Y-76649500D01*
X157349958Y-76649500D01*
X157269967Y-76670932D01*
X157269968Y-76670933D01*
X157260815Y-76673385D01*
X157260811Y-76673387D01*
X157180893Y-76719527D01*
X157180888Y-76719531D01*
X156462740Y-77437680D01*
X156401417Y-77471165D01*
X156375059Y-77473999D01*
X156306333Y-77473999D01*
X156179037Y-77508107D01*
X156064911Y-77573999D01*
X156064908Y-77574001D01*
X155971727Y-77667182D01*
X155971720Y-77667191D01*
X155966870Y-77675593D01*
X155916303Y-77723808D01*
X155847696Y-77737030D01*
X155827393Y-77733367D01*
X155783357Y-77721568D01*
X155651573Y-77721568D01*
X155524277Y-77755676D01*
X155410151Y-77821568D01*
X155410148Y-77821570D01*
X155316967Y-77914751D01*
X155316965Y-77914754D01*
X155251073Y-78028880D01*
X155216965Y-78156176D01*
X155216965Y-78171921D01*
X155210726Y-78193166D01*
X155209147Y-78215255D01*
X155201074Y-78226038D01*
X155197280Y-78238960D01*
X155180546Y-78253459D01*
X155167275Y-78271188D01*
X155154654Y-78275895D01*
X155144476Y-78284715D01*
X155122558Y-78287866D01*
X155101811Y-78295605D01*
X155088650Y-78292742D01*
X155075318Y-78294659D01*
X155055174Y-78285459D01*
X155033538Y-78280753D01*
X155015812Y-78267484D01*
X155011762Y-78265634D01*
X155005284Y-78259602D01*
X154886819Y-78141137D01*
X154853334Y-78079814D01*
X154850500Y-78053456D01*
X154850500Y-77888847D01*
X154870185Y-77821808D01*
X154922989Y-77776053D01*
X154933528Y-77771812D01*
X154987882Y-77752793D01*
X155097150Y-77672150D01*
X155177793Y-77562882D01*
X155206951Y-77479553D01*
X155222646Y-77434701D01*
X155222646Y-77434699D01*
X155225500Y-77404269D01*
X155225500Y-76895730D01*
X155222646Y-76865300D01*
X155222646Y-76865298D01*
X155177793Y-76737119D01*
X155177792Y-76737117D01*
X155168677Y-76724766D01*
X155097150Y-76627850D01*
X154987882Y-76547207D01*
X154987880Y-76547206D01*
X154859700Y-76502353D01*
X154829270Y-76499500D01*
X154829266Y-76499500D01*
X154170734Y-76499500D01*
X154170730Y-76499500D01*
X154140300Y-76502353D01*
X154140298Y-76502353D01*
X154012119Y-76547206D01*
X154012117Y-76547207D01*
X153939908Y-76600500D01*
X153902850Y-76627850D01*
X153871201Y-76670734D01*
X153871160Y-76670789D01*
X153815513Y-76713039D01*
X153745856Y-76718498D01*
X153684307Y-76685430D01*
X153650406Y-76624336D01*
X153647390Y-76597155D01*
X153647390Y-76145509D01*
X153656033Y-76116071D01*
X153662557Y-76086083D01*
X153666312Y-76081066D01*
X153667075Y-76078470D01*
X153683708Y-76057829D01*
X153687039Y-76054498D01*
X153723438Y-76018098D01*
X153784758Y-75984614D01*
X153854450Y-75989598D01*
X153898799Y-76018099D01*
X153902848Y-76022148D01*
X153902849Y-76022148D01*
X153902850Y-76022150D01*
X154012118Y-76102793D01*
X154054845Y-76117744D01*
X154140299Y-76147646D01*
X154170730Y-76150500D01*
X154170734Y-76150500D01*
X154829270Y-76150500D01*
X154859699Y-76147646D01*
X154859701Y-76147646D01*
X154929122Y-76123354D01*
X154987882Y-76102793D01*
X155097150Y-76022150D01*
X155177793Y-75912882D01*
X155187837Y-75884175D01*
X155226303Y-75829203D01*
X155234119Y-75822800D01*
X155238847Y-75820071D01*
X155307438Y-75780470D01*
X155405440Y-75682467D01*
X155410195Y-75678573D01*
X155436932Y-75667246D01*
X155462413Y-75653333D01*
X155472281Y-75652271D01*
X155474531Y-75651319D01*
X155477073Y-75651756D01*
X155488771Y-75650499D01*
X155516246Y-75650499D01*
X155516246Y-75652308D01*
X155575261Y-75661502D01*
X155627524Y-75707874D01*
X155646420Y-75775140D01*
X155625950Y-75841944D01*
X155610111Y-75861364D01*
X155559494Y-75911981D01*
X155559488Y-75911988D01*
X155487017Y-76037511D01*
X155487016Y-76037515D01*
X155449500Y-76177525D01*
X155449500Y-76322475D01*
X155471037Y-76402850D01*
X155487017Y-76462488D01*
X155559488Y-76588011D01*
X155559490Y-76588013D01*
X155559491Y-76588015D01*
X155661985Y-76690509D01*
X155661986Y-76690510D01*
X155661988Y-76690511D01*
X155787511Y-76762982D01*
X155787512Y-76762982D01*
X155787515Y-76762984D01*
X155927525Y-76800500D01*
X155927528Y-76800500D01*
X156072472Y-76800500D01*
X156072475Y-76800500D01*
X156212485Y-76762984D01*
X156338015Y-76690509D01*
X156440509Y-76588015D01*
X156512984Y-76462485D01*
X156550500Y-76322475D01*
X156550500Y-76177525D01*
X156512984Y-76037515D01*
X156504112Y-76022149D01*
X156440511Y-75911988D01*
X156440506Y-75911982D01*
X156386819Y-75858295D01*
X156372115Y-75831367D01*
X156355523Y-75805549D01*
X156354631Y-75799348D01*
X156353334Y-75796972D01*
X156350500Y-75770614D01*
X156350500Y-75541745D01*
X156370185Y-75474706D01*
X156386819Y-75454064D01*
X158705065Y-73135818D01*
X158766388Y-73102333D01*
X158792746Y-73099499D01*
X161681545Y-73099499D01*
X161748584Y-73119184D01*
X161769226Y-73135818D01*
X161822916Y-73189508D01*
X161822917Y-73189509D01*
X161822919Y-73189510D01*
X161948442Y-73261981D01*
X161948443Y-73261981D01*
X161948446Y-73261983D01*
X162088456Y-73299499D01*
X162088459Y-73299499D01*
X162233403Y-73299499D01*
X162233406Y-73299499D01*
X162373416Y-73261983D01*
X162498946Y-73189508D01*
X162601440Y-73087014D01*
X162673915Y-72961484D01*
X162711431Y-72821474D01*
X162711431Y-72676524D01*
X162705822Y-72655591D01*
X162707485Y-72585744D01*
X162746647Y-72527882D01*
X162810875Y-72500377D01*
X162825597Y-72499500D01*
X163862458Y-72499500D01*
X163929497Y-72519185D01*
G37*
%TD.AperFunction*%
%TA.AperFunction,Conductor*%
G36*
X148920688Y-74221185D02*
G01*
X148966443Y-74273989D01*
X148976387Y-74343147D01*
X148970692Y-74366447D01*
X148956693Y-74406456D01*
X148927353Y-74490301D01*
X148924500Y-74520730D01*
X148924500Y-75179269D01*
X148927353Y-75209699D01*
X148927353Y-75209701D01*
X148972186Y-75337823D01*
X148972207Y-75337882D01*
X149052850Y-75447150D01*
X149162118Y-75527793D01*
X149201991Y-75541745D01*
X149290299Y-75572646D01*
X149320730Y-75575500D01*
X149320734Y-75575500D01*
X149829270Y-75575500D01*
X149859689Y-75572647D01*
X149859689Y-75572646D01*
X149859699Y-75572646D01*
X149859708Y-75572642D01*
X149865681Y-75571338D01*
X149886326Y-75572794D01*
X149906734Y-75569339D01*
X149925446Y-75575555D01*
X149935377Y-75576256D01*
X149940836Y-75578434D01*
X149947690Y-75581359D01*
X150042324Y-75635996D01*
X150131936Y-75660007D01*
X150140021Y-75663458D01*
X150160470Y-75680303D01*
X150183094Y-75694093D01*
X150187018Y-75702172D01*
X150193950Y-75707882D01*
X150202044Y-75733104D01*
X150213623Y-75756939D01*
X150215004Y-75773485D01*
X150215301Y-75774409D01*
X150215133Y-75775035D01*
X150215340Y-75777503D01*
X150215340Y-75819121D01*
X150214662Y-75819121D01*
X150212079Y-75858535D01*
X150198500Y-75909213D01*
X150198500Y-76908504D01*
X150178815Y-76975543D01*
X150126011Y-77021298D01*
X150056853Y-77031242D01*
X150012501Y-77015892D01*
X149962487Y-76987017D01*
X149962486Y-76987016D01*
X149962485Y-76987016D01*
X149822475Y-76949500D01*
X149560311Y-76949500D01*
X149455303Y-76977637D01*
X149420300Y-76987016D01*
X149294772Y-77059489D01*
X149294769Y-77059491D01*
X149140080Y-77214181D01*
X149078757Y-77247666D01*
X149052399Y-77250500D01*
X148768469Y-77250500D01*
X148701430Y-77230815D01*
X148657791Y-77182414D01*
X148652011Y-77170974D01*
X148642267Y-77134606D01*
X148573229Y-77015029D01*
X148571670Y-77011943D01*
X148565942Y-76980854D01*
X148558488Y-76950129D01*
X148559658Y-76946747D01*
X148559010Y-76943230D01*
X148570997Y-76913985D01*
X148581340Y-76884102D01*
X148583049Y-76881761D01*
X148621628Y-76830226D01*
X148669412Y-76702114D01*
X148671687Y-76680944D01*
X148675499Y-76645501D01*
X148675499Y-76645490D01*
X148675500Y-76645485D01*
X148675499Y-76054516D01*
X148669412Y-75997886D01*
X148667271Y-75992147D01*
X148645414Y-75933546D01*
X148621628Y-75869774D01*
X148539687Y-75760313D01*
X148430226Y-75678372D01*
X148430225Y-75678371D01*
X148423126Y-75673057D01*
X148423945Y-75671962D01*
X148381101Y-75629125D01*
X148366244Y-75560854D01*
X148390657Y-75495387D01*
X148416291Y-75469924D01*
X148447150Y-75447150D01*
X148527793Y-75337882D01*
X148565463Y-75230228D01*
X148572646Y-75209701D01*
X148572646Y-75209699D01*
X148575500Y-75179269D01*
X148575500Y-74520730D01*
X148572646Y-74490301D01*
X148563867Y-74465212D01*
X148529309Y-74366452D01*
X148527807Y-74337021D01*
X148523613Y-74307853D01*
X148526045Y-74302526D01*
X148525747Y-74296677D01*
X148540395Y-74271104D01*
X148552638Y-74244297D01*
X148557565Y-74241130D01*
X148560476Y-74236049D01*
X148586621Y-74222457D01*
X148611416Y-74206523D01*
X148619512Y-74205358D01*
X148622469Y-74203822D01*
X148646351Y-74201500D01*
X148853649Y-74201500D01*
X148920688Y-74221185D01*
G37*
%TD.AperFunction*%
%TA.AperFunction,Conductor*%
G36*
X152377564Y-71917128D02*
G01*
X152379845Y-71917428D01*
X152379851Y-71917430D01*
X152379857Y-71917430D01*
X152457593Y-71917430D01*
X152524632Y-71937115D01*
X152570387Y-71989919D01*
X152580331Y-72059077D01*
X152577370Y-72073512D01*
X152549500Y-72177525D01*
X152549500Y-72322475D01*
X152586270Y-72459701D01*
X152587017Y-72462488D01*
X152659488Y-72588011D01*
X152659490Y-72588013D01*
X152659491Y-72588015D01*
X152761985Y-72690509D01*
X152761986Y-72690510D01*
X152761988Y-72690511D01*
X152887511Y-72762982D01*
X152887512Y-72762982D01*
X152887515Y-72762984D01*
X153027525Y-72800500D01*
X153027528Y-72800500D01*
X153172472Y-72800500D01*
X153172475Y-72800500D01*
X153312485Y-72762984D01*
X153438015Y-72690509D01*
X153540509Y-72588015D01*
X153612984Y-72462485D01*
X153650500Y-72322475D01*
X153650500Y-72177525D01*
X153638192Y-72131591D01*
X153639855Y-72061744D01*
X153679017Y-72003881D01*
X153743246Y-71976377D01*
X153757967Y-71975500D01*
X154103456Y-71975500D01*
X154132896Y-71984144D01*
X154162883Y-71990668D01*
X154167898Y-71994422D01*
X154170495Y-71995185D01*
X154191137Y-72011819D01*
X154253854Y-72074536D01*
X154287339Y-72135859D01*
X154282355Y-72205551D01*
X154273560Y-72224216D01*
X154237018Y-72287507D01*
X154237017Y-72287510D01*
X154230467Y-72311956D01*
X154199500Y-72427525D01*
X154199500Y-72572475D01*
X154231128Y-72690511D01*
X154237017Y-72712488D01*
X154309488Y-72838011D01*
X154309490Y-72838013D01*
X154309491Y-72838015D01*
X154411985Y-72940509D01*
X154411986Y-72940510D01*
X154411988Y-72940511D01*
X154537511Y-73012982D01*
X154537512Y-73012982D01*
X154537515Y-73012984D01*
X154677525Y-73050500D01*
X154677528Y-73050500D01*
X154822472Y-73050500D01*
X154822475Y-73050500D01*
X154962485Y-73012984D01*
X155088015Y-72940509D01*
X155190509Y-72838015D01*
X155262984Y-72712485D01*
X155300500Y-72572475D01*
X155300500Y-72427525D01*
X155262984Y-72287515D01*
X155190509Y-72161985D01*
X155190506Y-72161982D01*
X155189237Y-72159784D01*
X155172764Y-72091884D01*
X155195616Y-72025857D01*
X155250537Y-71982666D01*
X155308202Y-71974325D01*
X155320731Y-71975500D01*
X155320734Y-71975500D01*
X155753456Y-71975500D01*
X155820495Y-71995185D01*
X155841137Y-72011819D01*
X156258788Y-72429470D01*
X156326442Y-72468530D01*
X156338712Y-72475614D01*
X156427856Y-72499500D01*
X158050657Y-72499500D01*
X158117696Y-72519185D01*
X158163451Y-72571989D01*
X158173395Y-72641147D01*
X158144370Y-72704703D01*
X158138339Y-72711179D01*
X157053337Y-73796181D01*
X156012461Y-74837057D01*
X155951138Y-74870542D01*
X155881446Y-74865558D01*
X155837099Y-74837057D01*
X155749543Y-74749501D01*
X155749541Y-74749499D01*
X155647368Y-74690509D01*
X155635414Y-74683607D01*
X155556259Y-74662398D01*
X155508119Y-74649499D01*
X155376335Y-74649499D01*
X155249039Y-74683607D01*
X155134913Y-74749499D01*
X155134909Y-74749502D01*
X155042472Y-74841938D01*
X154981149Y-74875422D01*
X154913837Y-74871297D01*
X154859701Y-74852354D01*
X154859699Y-74852353D01*
X154829270Y-74849500D01*
X154829266Y-74849500D01*
X154170734Y-74849500D01*
X154170730Y-74849500D01*
X154140300Y-74852353D01*
X154140298Y-74852353D01*
X154012119Y-74897206D01*
X154012117Y-74897207D01*
X153902850Y-74977850D01*
X153822207Y-75087117D01*
X153799840Y-75151038D01*
X153759118Y-75207814D01*
X153694165Y-75233560D01*
X153625603Y-75220103D01*
X153620799Y-75217469D01*
X153509378Y-75153140D01*
X153509379Y-75153140D01*
X153495794Y-75149500D01*
X153369365Y-75115623D01*
X153224415Y-75115623D01*
X153097986Y-75149500D01*
X153084401Y-75153140D01*
X152958878Y-75225611D01*
X152958872Y-75225616D01*
X152856383Y-75328105D01*
X152856378Y-75328111D01*
X152783907Y-75453634D01*
X152783906Y-75453638D01*
X152746390Y-75593648D01*
X152746390Y-75593650D01*
X152744287Y-75601499D01*
X152742519Y-75601025D01*
X152718374Y-75655591D01*
X152660046Y-75694056D01*
X152623709Y-75699500D01*
X152477525Y-75699500D01*
X152418888Y-75715211D01*
X152418888Y-75715212D01*
X152337515Y-75737016D01*
X152337514Y-75737016D01*
X152337512Y-75737017D01*
X152337510Y-75737018D01*
X152207357Y-75812160D01*
X152139457Y-75828631D01*
X152073431Y-75805778D01*
X152057678Y-75792453D01*
X151850503Y-75585278D01*
X151850498Y-75585274D01*
X151793752Y-75552512D01*
X151745536Y-75501945D01*
X151732313Y-75433338D01*
X151758281Y-75368473D01*
X151781436Y-75345862D01*
X151789687Y-75339687D01*
X151871628Y-75230226D01*
X151919412Y-75102114D01*
X151922111Y-75077011D01*
X151925499Y-75045501D01*
X151925499Y-75045494D01*
X151925500Y-75045485D01*
X151925499Y-74454516D01*
X151919412Y-74397886D01*
X151871628Y-74269774D01*
X151789687Y-74160313D01*
X151701385Y-74094211D01*
X151680228Y-74078373D01*
X151680226Y-74078372D01*
X151552114Y-74030588D01*
X151552112Y-74030587D01*
X151552110Y-74030587D01*
X151495501Y-74024500D01*
X151020543Y-74024500D01*
X150953504Y-74004815D01*
X150907749Y-73952011D01*
X150897805Y-73882853D01*
X150926830Y-73819297D01*
X150932848Y-73812833D01*
X151530470Y-73215212D01*
X151576614Y-73135288D01*
X151587298Y-73095413D01*
X151600500Y-73046144D01*
X151600500Y-72972120D01*
X151601350Y-72964896D01*
X151612308Y-72939172D01*
X151620185Y-72912347D01*
X151627717Y-72902999D01*
X151628733Y-72900616D01*
X151630733Y-72899256D01*
X151636819Y-72891705D01*
X151661332Y-72867192D01*
X151690509Y-72838015D01*
X151762984Y-72712485D01*
X151800500Y-72572475D01*
X151800500Y-72427525D01*
X151800499Y-72427524D01*
X151799439Y-72419468D01*
X151802684Y-72419040D01*
X151803946Y-72364506D01*
X151843069Y-72306617D01*
X151889985Y-72282410D01*
X151962485Y-72262984D01*
X152088015Y-72190509D01*
X152190509Y-72088015D01*
X152253988Y-71978065D01*
X152268455Y-71964271D01*
X152279065Y-71947324D01*
X152293226Y-71940652D01*
X152304554Y-71929852D01*
X152324183Y-71926068D01*
X152342272Y-71917547D01*
X152370107Y-71917216D01*
X152373161Y-71916628D01*
X152377564Y-71917128D01*
G37*
%TD.AperFunction*%
%TA.AperFunction,Conductor*%
G36*
X149328891Y-71519185D02*
G01*
X149374646Y-71571989D01*
X149384590Y-71641147D01*
X149378893Y-71664455D01*
X149352354Y-71740298D01*
X149352353Y-71740300D01*
X149349500Y-71770730D01*
X149349500Y-72429269D01*
X149352353Y-72459699D01*
X149352353Y-72459701D01*
X149396459Y-72585744D01*
X149397207Y-72587882D01*
X149477850Y-72697150D01*
X149587118Y-72777793D01*
X149629845Y-72792744D01*
X149715299Y-72822646D01*
X149745730Y-72825500D01*
X149745734Y-72825500D01*
X149880131Y-72825500D01*
X149947170Y-72845185D01*
X149992925Y-72897989D01*
X149999904Y-72917402D01*
X150033608Y-73043186D01*
X150099500Y-73157314D01*
X150192686Y-73250500D01*
X150224925Y-73269113D01*
X150273140Y-73319681D01*
X150286362Y-73388288D01*
X150260394Y-73453152D01*
X150203480Y-73493680D01*
X150162924Y-73500500D01*
X148414398Y-73500500D01*
X148347359Y-73480815D01*
X148301604Y-73428011D01*
X148291660Y-73358853D01*
X148294623Y-73344407D01*
X148294706Y-73344099D01*
X148300500Y-73322475D01*
X148300500Y-73177525D01*
X148262984Y-73037515D01*
X148258705Y-73030104D01*
X148190511Y-72911988D01*
X148190506Y-72911982D01*
X148088017Y-72809493D01*
X148088011Y-72809488D01*
X147962488Y-72737017D01*
X147962489Y-72737017D01*
X147951006Y-72733940D01*
X147822475Y-72699500D01*
X147677525Y-72699500D01*
X147548993Y-72733940D01*
X147537511Y-72737017D01*
X147411988Y-72809488D01*
X147411982Y-72809493D01*
X147309493Y-72911982D01*
X147309488Y-72911988D01*
X147237017Y-73037511D01*
X147237016Y-73037514D01*
X147228509Y-73069261D01*
X147192143Y-73128921D01*
X147129296Y-73159449D01*
X147076642Y-73156940D01*
X147045144Y-73148500D01*
X145979746Y-73148500D01*
X145890602Y-73172386D01*
X145890599Y-73172387D01*
X145810681Y-73218527D01*
X145810676Y-73218531D01*
X145443529Y-73585678D01*
X145421864Y-73623206D01*
X145421862Y-73623208D01*
X145397388Y-73665596D01*
X145397387Y-73665599D01*
X145373500Y-73754746D01*
X145373500Y-74579456D01*
X145353815Y-74646495D01*
X145337181Y-74667137D01*
X144261181Y-75743137D01*
X144199858Y-75776622D01*
X144130166Y-75771638D01*
X144074233Y-75729766D01*
X144049816Y-75664302D01*
X144049500Y-75655456D01*
X144049500Y-73897602D01*
X144069185Y-73830563D01*
X144085819Y-73809921D01*
X146359921Y-71535819D01*
X146421244Y-71502334D01*
X146447602Y-71499500D01*
X149261852Y-71499500D01*
X149328891Y-71519185D01*
G37*
%TD.AperFunction*%
%TA.AperFunction,Conductor*%
G36*
X151019495Y-71519185D02*
G01*
X151040132Y-71535814D01*
X151163182Y-71658863D01*
X151196666Y-71720184D01*
X151199500Y-71746543D01*
X151199500Y-71822474D01*
X151200561Y-71830532D01*
X151197326Y-71830957D01*
X151196030Y-71885566D01*
X151156870Y-71943431D01*
X151110010Y-71967590D01*
X151091144Y-71972646D01*
X151037511Y-71987017D01*
X150911988Y-72059488D01*
X150911982Y-72059493D01*
X150862181Y-72109295D01*
X150800858Y-72142780D01*
X150731166Y-72137796D01*
X150675233Y-72095924D01*
X150650816Y-72030460D01*
X150650500Y-72021614D01*
X150650500Y-71770730D01*
X150647646Y-71740300D01*
X150647645Y-71740298D01*
X150621107Y-71664455D01*
X150619604Y-71635026D01*
X150615410Y-71605853D01*
X150617843Y-71600524D01*
X150617545Y-71594676D01*
X150632191Y-71569106D01*
X150644435Y-71542297D01*
X150649362Y-71539130D01*
X150652273Y-71534049D01*
X150678420Y-71520456D01*
X150703213Y-71504523D01*
X150711308Y-71503359D01*
X150714267Y-71501821D01*
X150738148Y-71499500D01*
X150952456Y-71499500D01*
X151019495Y-71519185D01*
G37*
%TD.AperFunction*%
%TD*%
%TA.AperFunction,Conductor*%
%TO.N,VIN*%
G36*
X169085652Y-83287818D02*
G01*
X169114815Y-83298695D01*
X169145789Y-83315608D01*
X169145791Y-83315609D01*
X169167889Y-83332151D01*
X169192849Y-83357111D01*
X169209392Y-83379211D01*
X169226304Y-83410184D01*
X169237232Y-83439482D01*
X169244639Y-83477545D01*
X169244910Y-83477531D01*
X169246462Y-83506486D01*
X169246466Y-83506540D01*
X169249296Y-83532862D01*
X169249297Y-83532864D01*
X169279085Y-83627993D01*
X169279089Y-83628003D01*
X169312567Y-83689313D01*
X169312572Y-83689321D01*
X169356148Y-83747532D01*
X169356164Y-83747550D01*
X170022423Y-84413808D01*
X170037845Y-84432599D01*
X170067509Y-84476995D01*
X170078967Y-84498431D01*
X170099396Y-84547750D01*
X170106452Y-84571009D01*
X170116867Y-84623366D01*
X170119250Y-84647556D01*
X170119250Y-87227692D01*
X170116867Y-87251887D01*
X170106452Y-87304239D01*
X170099396Y-87327497D01*
X170078967Y-87376817D01*
X170067508Y-87398255D01*
X170037848Y-87442644D01*
X170022427Y-87461434D01*
X169270182Y-88213681D01*
X169208859Y-88247166D01*
X169182501Y-88250000D01*
X168361420Y-88250000D01*
X168294381Y-88230315D01*
X168248626Y-88177511D01*
X168238682Y-88108353D01*
X168248625Y-88074490D01*
X168252048Y-88066992D01*
X168260592Y-88048285D01*
X168275745Y-88005332D01*
X168281080Y-87905783D01*
X168271136Y-87836625D01*
X168260662Y-87792302D01*
X168211331Y-87705672D01*
X168174959Y-87663696D01*
X168165579Y-87652871D01*
X168153211Y-87640937D01*
X168132802Y-87621243D01*
X168044467Y-87575035D01*
X168044466Y-87575034D01*
X168044465Y-87575034D01*
X168044463Y-87575033D01*
X168017312Y-87567060D01*
X167958535Y-87529284D01*
X167929512Y-87465728D01*
X167928250Y-87448084D01*
X167928250Y-87079000D01*
X167947935Y-87011961D01*
X168000739Y-86966206D01*
X168052250Y-86955000D01*
X168949750Y-86955000D01*
X169004063Y-86949161D01*
X169055574Y-86937955D01*
X169081948Y-86930719D01*
X169168578Y-86881388D01*
X169215173Y-86841011D01*
X169227458Y-86831642D01*
X169303851Y-86780601D01*
X169359216Y-86697740D01*
X169373750Y-86624674D01*
X169373750Y-85975326D01*
X169373750Y-85975323D01*
X169373749Y-85975321D01*
X169359217Y-85902264D01*
X169359216Y-85902260D01*
X169351698Y-85891009D01*
X169303851Y-85819399D01*
X169220990Y-85764034D01*
X169220989Y-85764033D01*
X169220985Y-85764032D01*
X169147927Y-85749500D01*
X169147924Y-85749500D01*
X168989917Y-85749500D01*
X168972271Y-85748238D01*
X168949750Y-85745000D01*
X168949749Y-85745000D01*
X168496558Y-85745000D01*
X168472365Y-85742617D01*
X168457870Y-85739733D01*
X168420010Y-85732202D01*
X168396752Y-85725146D01*
X168296496Y-85683619D01*
X168291952Y-85681630D01*
X168277671Y-85675034D01*
X168210639Y-85655351D01*
X168210627Y-85655348D01*
X168138650Y-85645000D01*
X168138649Y-85645000D01*
X168052250Y-85645000D01*
X167985211Y-85625315D01*
X167939456Y-85572511D01*
X167928250Y-85521000D01*
X167928250Y-85179000D01*
X167947935Y-85111961D01*
X168000739Y-85066206D01*
X168052250Y-85055000D01*
X168138638Y-85055000D01*
X168138649Y-85055000D01*
X168140060Y-85054993D01*
X168140966Y-85054990D01*
X168141991Y-85054980D01*
X168143171Y-85054970D01*
X168205977Y-85045076D01*
X168217201Y-85043308D01*
X168217202Y-85043307D01*
X168217206Y-85043307D01*
X168283882Y-85022430D01*
X168293763Y-85017702D01*
X168299799Y-85015011D01*
X168312897Y-85009585D01*
X168312898Y-85009586D01*
X168396756Y-84974849D01*
X168420015Y-84967793D01*
X168492000Y-84953476D01*
X168529304Y-84943063D01*
X168564538Y-84930278D01*
X168575163Y-84926152D01*
X168658053Y-84870767D01*
X168707458Y-84821362D01*
X168736665Y-84786414D01*
X168776453Y-84695007D01*
X168791305Y-84626734D01*
X168791308Y-84626710D01*
X168791309Y-84626707D01*
X168796981Y-84581544D01*
X168796981Y-84581542D01*
X168781036Y-84483146D01*
X168781035Y-84483145D01*
X168781034Y-84483134D01*
X168756617Y-84417670D01*
X168736963Y-84376588D01*
X168670346Y-84302423D01*
X168670339Y-84302417D01*
X168670336Y-84302415D01*
X168614421Y-84260556D01*
X168614417Y-84260554D01*
X168614418Y-84260554D01*
X168614416Y-84260553D01*
X168574374Y-84238688D01*
X168550580Y-84225695D01*
X168550577Y-84225694D01*
X168485188Y-84201305D01*
X168485187Y-84201305D01*
X168454210Y-84184391D01*
X168432110Y-84167848D01*
X168407149Y-84142887D01*
X168398395Y-84131193D01*
X168390605Y-84120786D01*
X168373694Y-84089814D01*
X168362819Y-84060658D01*
X168355000Y-84017323D01*
X168355000Y-83482676D01*
X168356015Y-83477046D01*
X168355316Y-83473831D01*
X168362818Y-83439344D01*
X168373693Y-83410186D01*
X168390610Y-83379205D01*
X168407154Y-83357106D01*
X168432107Y-83332153D01*
X168454208Y-83315608D01*
X168485181Y-83298694D01*
X168514342Y-83287817D01*
X168557674Y-83280000D01*
X169042319Y-83280000D01*
X169085652Y-83287818D01*
G37*
%TD.AperFunction*%
%TD*%
%TA.AperFunction,Conductor*%
%TO.N,VIN*%
G36*
X146156085Y-88153279D02*
G01*
X146167082Y-88156225D01*
X146206670Y-88179081D01*
X146220488Y-88186192D01*
X146221241Y-88187494D01*
X146222668Y-88188318D01*
X146340164Y-88305813D01*
X146340182Y-88305829D01*
X146380776Y-88338842D01*
X146380779Y-88338845D01*
X146380784Y-88338848D01*
X146380785Y-88338849D01*
X146423066Y-88366558D01*
X146444690Y-88379258D01*
X146513199Y-88399373D01*
X146540335Y-88407341D01*
X146540337Y-88407341D01*
X146540343Y-88407343D01*
X146609935Y-88413570D01*
X146682553Y-88409677D01*
X146699113Y-88406383D01*
X146723305Y-88404000D01*
X147575693Y-88404000D01*
X147599875Y-88406381D01*
X147652243Y-88416797D01*
X147675492Y-88423850D01*
X147724816Y-88444280D01*
X147746253Y-88455738D01*
X147790652Y-88485404D01*
X147809435Y-88500819D01*
X148002461Y-88693846D01*
X148022811Y-88712126D01*
X148043453Y-88728760D01*
X148131784Y-88774965D01*
X148198823Y-88794650D01*
X148198827Y-88794650D01*
X148198829Y-88794651D01*
X148210460Y-88796323D01*
X148270808Y-88805000D01*
X148376000Y-88805000D01*
X148443039Y-88824685D01*
X148488794Y-88877489D01*
X148500000Y-88929000D01*
X148500000Y-90659251D01*
X148480315Y-90726290D01*
X148463681Y-90746932D01*
X148211433Y-90999179D01*
X148192641Y-91014601D01*
X148148255Y-91044258D01*
X148126819Y-91055716D01*
X148077497Y-91076146D01*
X148054239Y-91083202D01*
X148027867Y-91088448D01*
X148001883Y-91093617D01*
X147977692Y-91096000D01*
X147837758Y-91096000D01*
X147810462Y-91097463D01*
X147810457Y-91097463D01*
X147810445Y-91097464D01*
X147810437Y-91097464D01*
X147810408Y-91097467D01*
X147784086Y-91100297D01*
X147784084Y-91100298D01*
X147688955Y-91130086D01*
X147688945Y-91130090D01*
X147627635Y-91163568D01*
X147627627Y-91163573D01*
X147569416Y-91207149D01*
X147569399Y-91207164D01*
X147523124Y-91253441D01*
X147308823Y-91467742D01*
X146629747Y-92146816D01*
X146589523Y-92173694D01*
X146574512Y-92179912D01*
X146574498Y-92179919D01*
X146451584Y-92262048D01*
X146451580Y-92262051D01*
X146347050Y-92366581D01*
X146264916Y-92489505D01*
X146258695Y-92504523D01*
X146254065Y-92511450D01*
X146252970Y-92516488D01*
X146231819Y-92544743D01*
X146211683Y-92564880D01*
X146150361Y-92598367D01*
X146080669Y-92593384D01*
X146024735Y-92551514D01*
X146000316Y-92486050D01*
X146000000Y-92477201D01*
X146000000Y-91661697D01*
X146019685Y-91594658D01*
X146036319Y-91574016D01*
X146097735Y-91512600D01*
X146117431Y-91490475D01*
X146135245Y-91467962D01*
X146136655Y-91466163D01*
X146181279Y-91377017D01*
X146199764Y-91309637D01*
X146207851Y-91264818D01*
X146197196Y-91165698D01*
X146197194Y-91165693D01*
X146197194Y-91165690D01*
X146176322Y-91099028D01*
X146176320Y-91099024D01*
X146176319Y-91099020D01*
X146167142Y-91079840D01*
X146155000Y-91026324D01*
X146155000Y-90579000D01*
X146174685Y-90511961D01*
X146227489Y-90466206D01*
X146279000Y-90455000D01*
X147010004Y-90455000D01*
X147010015Y-90455000D01*
X147011224Y-90454994D01*
X147012334Y-90454990D01*
X147013707Y-90454977D01*
X147014537Y-90454970D01*
X147014541Y-90454969D01*
X147014545Y-90454969D01*
X147088576Y-90443306D01*
X147112333Y-90435866D01*
X147155252Y-90422428D01*
X147220854Y-90391042D01*
X147250253Y-90371398D01*
X147316931Y-90350520D01*
X147319144Y-90350500D01*
X147374676Y-90350500D01*
X147374677Y-90350499D01*
X147447740Y-90335966D01*
X147530601Y-90280601D01*
X147585966Y-90197740D01*
X147600500Y-90124674D01*
X147600500Y-90118145D01*
X147605823Y-90100015D01*
X147606156Y-90081122D01*
X147618953Y-90054368D01*
X147618609Y-90054177D01*
X147618619Y-90054159D01*
X147619908Y-90052045D01*
X147620185Y-90051106D01*
X147621381Y-90049280D01*
X147623896Y-90045514D01*
X147623897Y-90045512D01*
X147637397Y-90025307D01*
X147652819Y-90006515D01*
X147657015Y-90002321D01*
X147691288Y-89959791D01*
X147719788Y-89915445D01*
X147733324Y-89891674D01*
X147759698Y-89795534D01*
X147764682Y-89725842D01*
X147763869Y-89680305D01*
X147763868Y-89680303D01*
X147763868Y-89680299D01*
X147749470Y-89634321D01*
X147734080Y-89585169D01*
X147700595Y-89523846D01*
X147657014Y-89465628D01*
X147570501Y-89379115D01*
X147530601Y-89319399D01*
X147447740Y-89264034D01*
X147445303Y-89263549D01*
X147440730Y-89260126D01*
X147433341Y-89254798D01*
X147393890Y-89237624D01*
X147389817Y-89235851D01*
X147367253Y-89224046D01*
X147364656Y-89223283D01*
X147364235Y-89224714D01*
X147346152Y-89216843D01*
X147346144Y-89216840D01*
X147341934Y-89215007D01*
X147341930Y-89215006D01*
X147325274Y-89211382D01*
X147317384Y-89209392D01*
X147316069Y-89209014D01*
X147316053Y-89209004D01*
X147315473Y-89208833D01*
X147315394Y-89208818D01*
X147300172Y-89204348D01*
X147228192Y-89194000D01*
X147011488Y-89194000D01*
X146964035Y-89184561D01*
X146939744Y-89174499D01*
X146939738Y-89174497D01*
X146814071Y-89149500D01*
X146814069Y-89149500D01*
X146529429Y-89149500D01*
X146517276Y-89148903D01*
X146510570Y-89148242D01*
X146477648Y-89145000D01*
X146477646Y-89145000D01*
X146279000Y-89145000D01*
X146211961Y-89125315D01*
X146166206Y-89072511D01*
X146155000Y-89021000D01*
X146155000Y-88869793D01*
X146155000Y-88869785D01*
X146150381Y-88821424D01*
X146141496Y-88775331D01*
X146136600Y-88754615D01*
X146091441Y-88665739D01*
X146048247Y-88610821D01*
X146048244Y-88610817D01*
X146033753Y-88595439D01*
X146019388Y-88567166D01*
X146003518Y-88539727D01*
X146002921Y-88534757D01*
X146002104Y-88533148D01*
X146001260Y-88520906D01*
X146000000Y-88510401D01*
X146000000Y-88273056D01*
X146019685Y-88206017D01*
X146072489Y-88160262D01*
X146141647Y-88150318D01*
X146156085Y-88153279D01*
G37*
%TD.AperFunction*%
%TD*%
%TA.AperFunction,Conductor*%
%TO.N,+2V8*%
G36*
X144712577Y-87327651D02*
G01*
X144746482Y-87388743D01*
X144749500Y-87415931D01*
X144749500Y-87545480D01*
X144749501Y-87545490D01*
X144755587Y-87602114D01*
X144777867Y-87661846D01*
X144803372Y-87730226D01*
X144885313Y-87839687D01*
X144948379Y-87886897D01*
X144990250Y-87942831D01*
X144995234Y-88012522D01*
X144988636Y-88033600D01*
X144987019Y-88037504D01*
X144987016Y-88037514D01*
X144987016Y-88037515D01*
X144949500Y-88177525D01*
X144949500Y-88322475D01*
X144977047Y-88425279D01*
X144987017Y-88462489D01*
X144988639Y-88466404D01*
X144989022Y-88469969D01*
X144989120Y-88470335D01*
X144989063Y-88470350D01*
X144996104Y-88535873D01*
X144964825Y-88598351D01*
X144955290Y-88607553D01*
X144952871Y-88609649D01*
X144921243Y-88642425D01*
X144875034Y-88730762D01*
X144875033Y-88730762D01*
X144855351Y-88797794D01*
X144855348Y-88797806D01*
X144845000Y-88869783D01*
X144845000Y-89021000D01*
X144825315Y-89088039D01*
X144772511Y-89133794D01*
X144721000Y-89145000D01*
X144634601Y-89145000D01*
X144634509Y-89145000D01*
X144632283Y-89145009D01*
X144630083Y-89145029D01*
X144556041Y-89156692D01*
X144498105Y-89174832D01*
X144498101Y-89174833D01*
X144492277Y-89176656D01*
X144492272Y-89176658D01*
X144489377Y-89177564D01*
X144489366Y-89177569D01*
X144479500Y-89182289D01*
X144473441Y-89184991D01*
X144376499Y-89225146D01*
X144353240Y-89232202D01*
X144334887Y-89235853D01*
X144300884Y-89242617D01*
X144276692Y-89245000D01*
X143149905Y-89245000D01*
X143145348Y-89245081D01*
X143140788Y-89245163D01*
X143139481Y-89245209D01*
X143131947Y-89245478D01*
X143131935Y-89245480D01*
X143051778Y-89261424D01*
X142986310Y-89285841D01*
X142986307Y-89285843D01*
X142922490Y-89320690D01*
X142922484Y-89320694D01*
X142870792Y-89359390D01*
X142839818Y-89376303D01*
X142810657Y-89387180D01*
X142767322Y-89394999D01*
X142232677Y-89394999D01*
X142189343Y-89387180D01*
X142160184Y-89376304D01*
X142129208Y-89359390D01*
X142107109Y-89342847D01*
X142082151Y-89317889D01*
X142065607Y-89295788D01*
X142048694Y-89264814D01*
X142037819Y-89235658D01*
X142030000Y-89192323D01*
X142030000Y-88707675D01*
X142031015Y-88702045D01*
X142030316Y-88698829D01*
X142037816Y-88664347D01*
X142061336Y-88601290D01*
X142065888Y-88595210D01*
X142073091Y-88570679D01*
X142075888Y-88562274D01*
X142078886Y-88554237D01*
X142081642Y-88541559D01*
X142094649Y-88497266D01*
X142105000Y-88425279D01*
X142105000Y-87973305D01*
X142107381Y-87949123D01*
X142117798Y-87896751D01*
X142124849Y-87873509D01*
X142145281Y-87824180D01*
X142156736Y-87802748D01*
X142193556Y-87747645D01*
X142223372Y-87686887D01*
X142244062Y-87625152D01*
X142253842Y-87585888D01*
X142253841Y-87585886D01*
X142255910Y-87577584D01*
X142257273Y-87577923D01*
X142280476Y-87521776D01*
X142337834Y-87481879D01*
X142377093Y-87475500D01*
X142604270Y-87475500D01*
X142634699Y-87472646D01*
X142634701Y-87472646D01*
X142687519Y-87454164D01*
X142757298Y-87450602D01*
X142817925Y-87485330D01*
X142822187Y-87490003D01*
X142828354Y-87497120D01*
X142828358Y-87497125D01*
X142828363Y-87497130D01*
X142828365Y-87497132D01*
X142861139Y-87528757D01*
X142949474Y-87574965D01*
X142949475Y-87574965D01*
X142949475Y-87574966D01*
X142986673Y-87585888D01*
X143016513Y-87594650D01*
X143016517Y-87594650D01*
X143016519Y-87594651D01*
X143025304Y-87595914D01*
X143088498Y-87605000D01*
X143088499Y-87605000D01*
X143261486Y-87605000D01*
X143261502Y-87605000D01*
X143286218Y-87603802D01*
X143310099Y-87601481D01*
X143310101Y-87601480D01*
X143310105Y-87601480D01*
X143315924Y-87600345D01*
X143315944Y-87600447D01*
X143324578Y-87598557D01*
X143324670Y-87598543D01*
X143324671Y-87598544D01*
X143332767Y-87597381D01*
X143341810Y-87595916D01*
X143381432Y-87580325D01*
X143403309Y-87573837D01*
X143406267Y-87572298D01*
X143405513Y-87570849D01*
X143434578Y-87559413D01*
X143444706Y-87552902D01*
X143454544Y-87547200D01*
X143465219Y-87541652D01*
X143503637Y-87517097D01*
X143504989Y-87515542D01*
X143515040Y-87505268D01*
X143518619Y-87502009D01*
X143529321Y-87493698D01*
X143532320Y-87489538D01*
X143541874Y-87480842D01*
X143562124Y-87470988D01*
X143579908Y-87457165D01*
X143592937Y-87455994D01*
X143604701Y-87450271D01*
X143627065Y-87452930D01*
X143649498Y-87450916D01*
X143666299Y-87455500D01*
X143715299Y-87472646D01*
X143745730Y-87475500D01*
X143745734Y-87475500D01*
X144254270Y-87475500D01*
X144284699Y-87472646D01*
X144284701Y-87472646D01*
X144348790Y-87450219D01*
X144412882Y-87427793D01*
X144522150Y-87347150D01*
X144525726Y-87342303D01*
X144581370Y-87300050D01*
X144651026Y-87294588D01*
X144712577Y-87327651D01*
G37*
%TD.AperFunction*%
%TD*%
M02*
