%TF.GenerationSoftware,KiCad,Pcbnew,9.0.7*%
%TF.CreationDate,2026-01-30T01:35:17+02:00*%
%TF.ProjectId,HM-Collector-Rev2,484d2d43-6f6c-46c6-9563-746f722d5265,rev?*%
%TF.SameCoordinates,Original*%
%TF.FileFunction,Copper,L2,Inr*%
%TF.FilePolarity,Positive*%
%FSLAX46Y46*%
G04 Gerber Fmt 4.6, Leading zero omitted, Abs format (unit mm)*
G04 Created by KiCad (PCBNEW 9.0.7) date 2026-01-30 01:35:17*
%MOMM*%
%LPD*%
G01*
G04 APERTURE LIST*
%TA.AperFunction,HeatsinkPad*%
%ADD10O,1.000000X2.100000*%
%TD*%
%TA.AperFunction,HeatsinkPad*%
%ADD11O,1.000000X1.800000*%
%TD*%
%TA.AperFunction,ComponentPad*%
%ADD12R,1.700000X1.700000*%
%TD*%
%TA.AperFunction,ComponentPad*%
%ADD13C,1.700000*%
%TD*%
%TA.AperFunction,ViaPad*%
%ADD14C,0.600000*%
%TD*%
%TA.AperFunction,ViaPad*%
%ADD15C,0.500000*%
%TD*%
G04 APERTURE END LIST*
D10*
%TO.N,GND*%
%TO.C,J3*%
X146930000Y-93395000D03*
D11*
X146930000Y-97575000D03*
D10*
X155570000Y-93395000D03*
D11*
X155570000Y-97575000D03*
%TD*%
D12*
%TO.N,+2V8*%
%TO.C,J1*%
X172365000Y-79170000D03*
D13*
%TO.N,SWCLK*%
X172365000Y-81710000D03*
%TO.N,GND*%
X172365000Y-84250000D03*
%TO.N,SWDIO*%
X172365000Y-86790000D03*
%TO.N,NRST*%
X172365000Y-89330000D03*
%TD*%
D12*
%TO.N,Net-(D1-A)*%
%TO.C,J4*%
X140000000Y-87225000D03*
D13*
%TO.N,GND*%
X140000000Y-89765000D03*
%TD*%
D14*
%TO.N,GND*%
X143250000Y-91500000D03*
X141150000Y-82900000D03*
X138850000Y-82900000D03*
%TO.N,+2V8*%
X148750000Y-79000000D03*
%TO.N,Net-(U1-VLXSMPS)*%
X154048563Y-83998334D03*
%TO.N,GND*%
X160750000Y-95250000D03*
X164000000Y-94250000D03*
%TO.N,Net-(D5-A)*%
X139000000Y-81250000D03*
%TO.N,Net-(D4-A)*%
X139250000Y-74250000D03*
%TO.N,Net-(D6-A)*%
X140000000Y-81000000D03*
%TO.N,Net-(D3-A)*%
X140250000Y-74750000D03*
%TO.N,GND*%
X146500000Y-71750000D03*
D15*
X149125000Y-72725000D03*
D14*
%TO.N,Net-(U1-PB3)*%
X153100000Y-72250000D03*
%TO.N,Net-(U1-PB4)*%
X152452326Y-71366930D03*
%TO.N,Net-(U1-PB5)*%
X151750000Y-71750000D03*
%TO.N,Net-(U1-PB6)*%
X151250000Y-72500000D03*
D15*
%TO.N,GND*%
X150847637Y-71759246D03*
D14*
X138300000Y-76750000D03*
X138300000Y-78750000D03*
%TO.N,VIN*%
X145500000Y-88250000D03*
D15*
%TO.N,Net-(D2-A)*%
X149500000Y-91500000D03*
X153250000Y-94200000D03*
%TO.N,Net-(J3-CC2)*%
X152550000Y-93952541D03*
D14*
%TO.N,+2V8*%
X152000000Y-90650000D03*
D15*
%TO.N,LO+*%
X155717465Y-78222068D03*
D14*
%TO.N,GND*%
X156609287Y-75609287D03*
D15*
%TO.N,LO-*%
X156372225Y-77974499D03*
D14*
%TO.N,GND*%
X154000000Y-97000000D03*
X151500000Y-96750000D03*
X151500000Y-97750000D03*
D15*
%TO.N,Net-(D2-A)*%
X146250000Y-95500000D03*
D14*
%TO.N,GND*%
X147500000Y-94750000D03*
%TO.N,Net-(J3-CC1)*%
X150000000Y-94000000D03*
%TO.N,GND*%
X152941234Y-88712500D03*
X148850000Y-86550000D03*
X149250000Y-88250000D03*
X162000000Y-85500000D03*
D15*
X143717598Y-79989502D03*
X144250000Y-75100000D03*
D14*
X152250000Y-80250000D03*
X161250000Y-80500000D03*
X151250000Y-80250000D03*
X159841177Y-79091177D03*
X155000000Y-86500000D03*
X148000000Y-80850000D03*
D15*
X147750000Y-84100000D03*
D14*
X155874265Y-81375735D03*
X159750000Y-83850000D03*
X145250000Y-90500000D03*
D15*
X143750000Y-81850000D03*
D14*
X141500000Y-85250000D03*
X156142229Y-88034458D03*
X156712528Y-73782730D03*
X167650000Y-82250000D03*
X156500000Y-85000000D03*
X165500000Y-80750000D03*
X164000000Y-88000000D03*
X156607000Y-91000000D03*
X152112737Y-75304094D03*
X149000000Y-77000000D03*
D15*
X144250000Y-74350000D03*
X143250000Y-78100000D03*
X149784794Y-84068242D03*
D14*
X143687080Y-90054437D03*
D15*
X160250000Y-82500000D03*
D14*
X164438180Y-75688180D03*
X163250000Y-87250000D03*
%TO.N,+2V8*%
X164500000Y-80000000D03*
X146500000Y-75250000D03*
X144899000Y-84750000D03*
X149649675Y-86527124D03*
D15*
X150254809Y-75123012D03*
D14*
X143500000Y-88000000D03*
X156500000Y-88750000D03*
X158500000Y-75000000D03*
X153249031Y-84025768D03*
X152550000Y-76250000D03*
X144250000Y-88000000D03*
X142500000Y-88000000D03*
X168500000Y-73250000D03*
X158750000Y-84000000D03*
X149750000Y-77500000D03*
X147750000Y-73250000D03*
X151512487Y-76025787D03*
%TO.N,Net-(C10-Pad2)*%
X155500000Y-84000000D03*
X150765840Y-75738519D03*
%TO.N,VDDA*%
X159945475Y-80775000D03*
X166250000Y-83250000D03*
X162750000Y-82500000D03*
X152507573Y-77999999D03*
D15*
X148780331Y-81130331D03*
D14*
%TO.N,AIN1*%
X162160931Y-72748999D03*
X156000000Y-76250000D03*
%TO.N,Net-(IC2-IAOUT)*%
X170500000Y-77109000D03*
X165500000Y-82500000D03*
%TO.N,LO+*%
X159250000Y-77750000D03*
%TO.N,LO-*%
X159752983Y-77008949D03*
D15*
%TO.N,Net-(U1-PH3)*%
X150500000Y-72850000D03*
D14*
%TO.N,Net-(U2-SDA)*%
X153000000Y-86750000D03*
%TO.N,SDA*%
X151750000Y-86750000D03*
%TO.N,Net-(U2-SCL)*%
X153712498Y-88500000D03*
%TO.N,SCL*%
X150282071Y-87026100D03*
%TO.N,CS*%
X154000000Y-86750000D03*
X148048675Y-86500000D03*
%TO.N,INT2*%
X144250000Y-84250000D03*
X150500000Y-83500000D03*
%TO.N,NRST*%
X142500000Y-84250000D03*
X148129283Y-77347091D03*
%TO.N,SWCLK*%
X157500000Y-71250000D03*
%TO.N,SWDIO*%
X159500000Y-76250000D03*
%TO.N,PA2*%
X146250000Y-84000000D03*
%TO.N,CS-Flash*%
X169250000Y-73750000D03*
D15*
%TO.N,CLK-Flash*%
X155442227Y-75149999D03*
D14*
%TO.N,DI-Flash*%
X153296890Y-75666123D03*
%TO.N,DO-Flash*%
X154750000Y-72500000D03*
%TD*%
%TA.AperFunction,Conductor*%
%TO.N,GND*%
G36*
X174442539Y-70020185D02*
G01*
X174488294Y-70072989D01*
X174499500Y-70124500D01*
X174499500Y-98375500D01*
X174479815Y-98442539D01*
X174427011Y-98488294D01*
X174375500Y-98499500D01*
X138124500Y-98499500D01*
X138057461Y-98479815D01*
X138011706Y-98427011D01*
X138000500Y-98375500D01*
X138000500Y-96393713D01*
X138649500Y-96393713D01*
X138649500Y-96606286D01*
X138682753Y-96816239D01*
X138748444Y-97018414D01*
X138844951Y-97207820D01*
X138969890Y-97379786D01*
X139120213Y-97530109D01*
X139292179Y-97655048D01*
X139292181Y-97655049D01*
X139292184Y-97655051D01*
X139481588Y-97751557D01*
X139683757Y-97817246D01*
X139893713Y-97850500D01*
X139893714Y-97850500D01*
X140106286Y-97850500D01*
X140106287Y-97850500D01*
X140316243Y-97817246D01*
X140518412Y-97751557D01*
X140707816Y-97655051D01*
X140729789Y-97639086D01*
X140879786Y-97530109D01*
X140879788Y-97530106D01*
X140879792Y-97530104D01*
X141030104Y-97379792D01*
X141030106Y-97379788D01*
X141030109Y-97379786D01*
X141155048Y-97207820D01*
X141155047Y-97207820D01*
X141155051Y-97207816D01*
X141251557Y-97018412D01*
X141317246Y-96816243D01*
X141350500Y-96606287D01*
X141350500Y-96393713D01*
X141317246Y-96183757D01*
X141251557Y-95981588D01*
X141155051Y-95792184D01*
X141155049Y-95792181D01*
X141155048Y-95792179D01*
X141030109Y-95620213D01*
X140983816Y-95573920D01*
X145499499Y-95573920D01*
X145528340Y-95718907D01*
X145528343Y-95718917D01*
X145584912Y-95855488D01*
X145584919Y-95855501D01*
X145667048Y-95978415D01*
X145667051Y-95978419D01*
X145771580Y-96082948D01*
X145771584Y-96082951D01*
X145894498Y-96165080D01*
X145894511Y-96165087D01*
X146031082Y-96221656D01*
X146031087Y-96221658D01*
X146031091Y-96221658D01*
X146031092Y-96221659D01*
X146176079Y-96250500D01*
X146176082Y-96250500D01*
X146323920Y-96250500D01*
X146421462Y-96231096D01*
X146468913Y-96221658D01*
X146605495Y-96165084D01*
X146728416Y-96082951D01*
X146832951Y-95978416D01*
X146915084Y-95855495D01*
X146971658Y-95718913D01*
X146995602Y-95598543D01*
X161474499Y-95598543D01*
X161512947Y-95791829D01*
X161512950Y-95791839D01*
X161588364Y-95973907D01*
X161588371Y-95973920D01*
X161697860Y-96137781D01*
X161697863Y-96137785D01*
X161837214Y-96277136D01*
X161837218Y-96277139D01*
X162001079Y-96386628D01*
X162001092Y-96386635D01*
X162183160Y-96462049D01*
X162183165Y-96462051D01*
X162183169Y-96462051D01*
X162183170Y-96462052D01*
X162376456Y-96500500D01*
X162376459Y-96500500D01*
X162573543Y-96500500D01*
X162703582Y-96474632D01*
X162766835Y-96462051D01*
X162931819Y-96393713D01*
X171149500Y-96393713D01*
X171149500Y-96606286D01*
X171182753Y-96816239D01*
X171248444Y-97018414D01*
X171344951Y-97207820D01*
X171469890Y-97379786D01*
X171620213Y-97530109D01*
X171792179Y-97655048D01*
X171792181Y-97655049D01*
X171792184Y-97655051D01*
X171981588Y-97751557D01*
X172183757Y-97817246D01*
X172393713Y-97850500D01*
X172393714Y-97850500D01*
X172606286Y-97850500D01*
X172606287Y-97850500D01*
X172816243Y-97817246D01*
X173018412Y-97751557D01*
X173207816Y-97655051D01*
X173229789Y-97639086D01*
X173379786Y-97530109D01*
X173379788Y-97530106D01*
X173379792Y-97530104D01*
X173530104Y-97379792D01*
X173530106Y-97379788D01*
X173530109Y-97379786D01*
X173655048Y-97207820D01*
X173655047Y-97207820D01*
X173655051Y-97207816D01*
X173751557Y-97018412D01*
X173817246Y-96816243D01*
X173850500Y-96606287D01*
X173850500Y-96393713D01*
X173817246Y-96183757D01*
X173751557Y-95981588D01*
X173655051Y-95792184D01*
X173655049Y-95792181D01*
X173655048Y-95792179D01*
X173530109Y-95620213D01*
X173379786Y-95469890D01*
X173207820Y-95344951D01*
X173018414Y-95248444D01*
X173018413Y-95248443D01*
X173018412Y-95248443D01*
X172816243Y-95182754D01*
X172816241Y-95182753D01*
X172816240Y-95182753D01*
X172654957Y-95157208D01*
X172606287Y-95149500D01*
X172393713Y-95149500D01*
X172345042Y-95157208D01*
X172183760Y-95182753D01*
X171981585Y-95248444D01*
X171792179Y-95344951D01*
X171620213Y-95469890D01*
X171469890Y-95620213D01*
X171344951Y-95792179D01*
X171248444Y-95981585D01*
X171182753Y-96183760D01*
X171149500Y-96393713D01*
X162931819Y-96393713D01*
X162948914Y-96386632D01*
X163112782Y-96277139D01*
X163252139Y-96137782D01*
X163361632Y-95973914D01*
X163437051Y-95791835D01*
X163475500Y-95598541D01*
X163475500Y-95401459D01*
X163475500Y-95401456D01*
X163437052Y-95208170D01*
X163437051Y-95208169D01*
X163437051Y-95208165D01*
X163426525Y-95182753D01*
X163361635Y-95026092D01*
X163361628Y-95026079D01*
X163252139Y-94862218D01*
X163252136Y-94862214D01*
X163112785Y-94722863D01*
X163112781Y-94722860D01*
X162948920Y-94613371D01*
X162948907Y-94613364D01*
X162766839Y-94537950D01*
X162766829Y-94537947D01*
X162573543Y-94499500D01*
X162573541Y-94499500D01*
X162376459Y-94499500D01*
X162376457Y-94499500D01*
X162183170Y-94537947D01*
X162183160Y-94537950D01*
X162001092Y-94613364D01*
X162001079Y-94613371D01*
X161837218Y-94722860D01*
X161837214Y-94722863D01*
X161697863Y-94862214D01*
X161697860Y-94862218D01*
X161588371Y-95026079D01*
X161588364Y-95026092D01*
X161512950Y-95208160D01*
X161512947Y-95208170D01*
X161474500Y-95401456D01*
X161474500Y-95401459D01*
X161474500Y-95598541D01*
X161474500Y-95598543D01*
X161474499Y-95598543D01*
X146995602Y-95598543D01*
X147000500Y-95573918D01*
X147000500Y-95426082D01*
X147000500Y-95426079D01*
X147000499Y-95426077D01*
X146999203Y-95419558D01*
X146971659Y-95281092D01*
X146971658Y-95281091D01*
X146971658Y-95281087D01*
X146958137Y-95248444D01*
X146915087Y-95144511D01*
X146915080Y-95144498D01*
X146832951Y-95021584D01*
X146832948Y-95021580D01*
X146728419Y-94917051D01*
X146728415Y-94917048D01*
X146605501Y-94834919D01*
X146605488Y-94834912D01*
X146468917Y-94778343D01*
X146468907Y-94778340D01*
X146323920Y-94749500D01*
X146323918Y-94749500D01*
X146176082Y-94749500D01*
X146176080Y-94749500D01*
X146031092Y-94778340D01*
X146031082Y-94778343D01*
X145894511Y-94834912D01*
X145894498Y-94834919D01*
X145771584Y-94917048D01*
X145771580Y-94917051D01*
X145667051Y-95021580D01*
X145667048Y-95021584D01*
X145584919Y-95144498D01*
X145584912Y-95144511D01*
X145528343Y-95281082D01*
X145528340Y-95281092D01*
X145499500Y-95426079D01*
X145499500Y-95426082D01*
X145499500Y-95573918D01*
X145499500Y-95573920D01*
X145499499Y-95573920D01*
X140983816Y-95573920D01*
X140879786Y-95469890D01*
X140707820Y-95344951D01*
X140518414Y-95248444D01*
X140518413Y-95248443D01*
X140518412Y-95248443D01*
X140316243Y-95182754D01*
X140316241Y-95182753D01*
X140316240Y-95182753D01*
X140154957Y-95157208D01*
X140106287Y-95149500D01*
X139893713Y-95149500D01*
X139845042Y-95157208D01*
X139683760Y-95182753D01*
X139481585Y-95248444D01*
X139292179Y-95344951D01*
X139120213Y-95469890D01*
X138969890Y-95620213D01*
X138844951Y-95792179D01*
X138748444Y-95981585D01*
X138682753Y-96183760D01*
X138649500Y-96393713D01*
X138000500Y-96393713D01*
X138000500Y-93819234D01*
X147784500Y-93819234D01*
X147784500Y-93970765D01*
X147823719Y-94117136D01*
X147861602Y-94182750D01*
X147899485Y-94248365D01*
X148006635Y-94355515D01*
X148137865Y-94431281D01*
X148284234Y-94470500D01*
X148284236Y-94470500D01*
X148435764Y-94470500D01*
X148435766Y-94470500D01*
X148582135Y-94431281D01*
X148713365Y-94355515D01*
X148820515Y-94248365D01*
X148896281Y-94117135D01*
X148935500Y-93970766D01*
X148935500Y-93921153D01*
X149199500Y-93921153D01*
X149199500Y-94078846D01*
X149230261Y-94233489D01*
X149230264Y-94233501D01*
X149290602Y-94379172D01*
X149290609Y-94379185D01*
X149378210Y-94510288D01*
X149378213Y-94510292D01*
X149489707Y-94621786D01*
X149489711Y-94621789D01*
X149620814Y-94709390D01*
X149620827Y-94709397D01*
X149717646Y-94749500D01*
X149766503Y-94769737D01*
X149921153Y-94800499D01*
X149921156Y-94800500D01*
X149921158Y-94800500D01*
X150078844Y-94800500D01*
X150078845Y-94800499D01*
X150233497Y-94769737D01*
X150379179Y-94709394D01*
X150510289Y-94621789D01*
X150621789Y-94510289D01*
X150709394Y-94379179D01*
X150769737Y-94233497D01*
X150800500Y-94078842D01*
X150800500Y-94026461D01*
X151799499Y-94026461D01*
X151828340Y-94171448D01*
X151828343Y-94171458D01*
X151884912Y-94308029D01*
X151884919Y-94308042D01*
X151967048Y-94430956D01*
X151967051Y-94430960D01*
X152071580Y-94535489D01*
X152071584Y-94535492D01*
X152194498Y-94617621D01*
X152194511Y-94617628D01*
X152331082Y-94674197D01*
X152331087Y-94674199D01*
X152331091Y-94674199D01*
X152331092Y-94674200D01*
X152476079Y-94703041D01*
X152476082Y-94703041D01*
X152623920Y-94703041D01*
X152627229Y-94702715D01*
X152628948Y-94703041D01*
X152630010Y-94703041D01*
X152630010Y-94703242D01*
X152695876Y-94715731D01*
X152727070Y-94738437D01*
X152771580Y-94782948D01*
X152771584Y-94782951D01*
X152894498Y-94865080D01*
X152894511Y-94865087D01*
X153031082Y-94921656D01*
X153031087Y-94921658D01*
X153031091Y-94921658D01*
X153031092Y-94921659D01*
X153176079Y-94950500D01*
X153176082Y-94950500D01*
X153323920Y-94950500D01*
X153421462Y-94931096D01*
X153468913Y-94921658D01*
X153605495Y-94865084D01*
X153728416Y-94782951D01*
X153832951Y-94678416D01*
X153915084Y-94555495D01*
X153920057Y-94543487D01*
X153963897Y-94489083D01*
X154030190Y-94467017D01*
X154056109Y-94469960D01*
X154056178Y-94469439D01*
X154064232Y-94470499D01*
X154064234Y-94470500D01*
X154064236Y-94470500D01*
X154215764Y-94470500D01*
X154215766Y-94470500D01*
X154362135Y-94431281D01*
X154493365Y-94355515D01*
X154600515Y-94248365D01*
X154676281Y-94117135D01*
X154715500Y-93970766D01*
X154715500Y-93819234D01*
X154676281Y-93672865D01*
X154600515Y-93541635D01*
X154493365Y-93434485D01*
X154427750Y-93396602D01*
X154362136Y-93358719D01*
X154288950Y-93339109D01*
X154215766Y-93319500D01*
X154064234Y-93319500D01*
X153917863Y-93358719D01*
X153786635Y-93434485D01*
X153721151Y-93499969D01*
X153659827Y-93533453D01*
X153590136Y-93528468D01*
X153586017Y-93526848D01*
X153468913Y-93478342D01*
X153468907Y-93478340D01*
X153323920Y-93449500D01*
X153323918Y-93449500D01*
X153176082Y-93449500D01*
X153176079Y-93449500D01*
X153172756Y-93449827D01*
X153171032Y-93449500D01*
X153169991Y-93449500D01*
X153169991Y-93449302D01*
X153104111Y-93436803D01*
X153072931Y-93414104D01*
X153028419Y-93369592D01*
X153028415Y-93369589D01*
X152905501Y-93287460D01*
X152905488Y-93287453D01*
X152768917Y-93230884D01*
X152768907Y-93230881D01*
X152623920Y-93202041D01*
X152623918Y-93202041D01*
X152476082Y-93202041D01*
X152476080Y-93202041D01*
X152331092Y-93230881D01*
X152331082Y-93230884D01*
X152194511Y-93287453D01*
X152194498Y-93287460D01*
X152071584Y-93369589D01*
X152071580Y-93369592D01*
X151967051Y-93474121D01*
X151967048Y-93474125D01*
X151884919Y-93597039D01*
X151884912Y-93597052D01*
X151828343Y-93733623D01*
X151828340Y-93733633D01*
X151799500Y-93878620D01*
X151799500Y-93878623D01*
X151799500Y-94026459D01*
X151799500Y-94026461D01*
X151799499Y-94026461D01*
X150800500Y-94026461D01*
X150800500Y-93921158D01*
X150800500Y-93921155D01*
X150800499Y-93921153D01*
X150795640Y-93896722D01*
X150769738Y-93766510D01*
X150769737Y-93766503D01*
X150756118Y-93733623D01*
X150709397Y-93620827D01*
X150709390Y-93620814D01*
X150621789Y-93489711D01*
X150621786Y-93489707D01*
X150510292Y-93378213D01*
X150510288Y-93378210D01*
X150379185Y-93290609D01*
X150379172Y-93290602D01*
X150233501Y-93230264D01*
X150233489Y-93230261D01*
X150078845Y-93199500D01*
X150078842Y-93199500D01*
X149921158Y-93199500D01*
X149921155Y-93199500D01*
X149766510Y-93230261D01*
X149766498Y-93230264D01*
X149620827Y-93290602D01*
X149620814Y-93290609D01*
X149489711Y-93378210D01*
X149489707Y-93378213D01*
X149378213Y-93489707D01*
X149378210Y-93489711D01*
X149290609Y-93620814D01*
X149290602Y-93620827D01*
X149230264Y-93766498D01*
X149230261Y-93766510D01*
X149199500Y-93921153D01*
X148935500Y-93921153D01*
X148935500Y-93819234D01*
X148896281Y-93672865D01*
X148820515Y-93541635D01*
X148713365Y-93434485D01*
X148647750Y-93396602D01*
X148582136Y-93358719D01*
X148508950Y-93339109D01*
X148435766Y-93319500D01*
X148284234Y-93319500D01*
X148137863Y-93358719D01*
X148006635Y-93434485D01*
X148006632Y-93434487D01*
X147899487Y-93541632D01*
X147899485Y-93541635D01*
X147823719Y-93672863D01*
X147784500Y-93819234D01*
X138000500Y-93819234D01*
X138000500Y-91573920D01*
X148749499Y-91573920D01*
X148778340Y-91718907D01*
X148778343Y-91718917D01*
X148834912Y-91855488D01*
X148834919Y-91855501D01*
X148917048Y-91978415D01*
X148917051Y-91978419D01*
X149021580Y-92082948D01*
X149021584Y-92082951D01*
X149144498Y-92165080D01*
X149144511Y-92165087D01*
X149281082Y-92221656D01*
X149281087Y-92221658D01*
X149281091Y-92221658D01*
X149281092Y-92221659D01*
X149426079Y-92250500D01*
X149426082Y-92250500D01*
X149573920Y-92250500D01*
X149671462Y-92231096D01*
X149718913Y-92221658D01*
X149855495Y-92165084D01*
X149978416Y-92082951D01*
X150082951Y-91978416D01*
X150165084Y-91855495D01*
X150221658Y-91718913D01*
X150250500Y-91573918D01*
X150250500Y-91426082D01*
X150250500Y-91426079D01*
X150221659Y-91281092D01*
X150221658Y-91281091D01*
X150221658Y-91281087D01*
X150217807Y-91271789D01*
X150165087Y-91144511D01*
X150165080Y-91144498D01*
X150082951Y-91021584D01*
X150082948Y-91021580D01*
X149978419Y-90917051D01*
X149978415Y-90917048D01*
X149855501Y-90834919D01*
X149855488Y-90834912D01*
X149718917Y-90778343D01*
X149718907Y-90778340D01*
X149573920Y-90749500D01*
X149573918Y-90749500D01*
X149426082Y-90749500D01*
X149426080Y-90749500D01*
X149281092Y-90778340D01*
X149281082Y-90778343D01*
X149144511Y-90834912D01*
X149144498Y-90834919D01*
X149021584Y-90917048D01*
X149021580Y-90917051D01*
X148917051Y-91021580D01*
X148917048Y-91021584D01*
X148834919Y-91144498D01*
X148834912Y-91144511D01*
X148778343Y-91281082D01*
X148778340Y-91281092D01*
X148749500Y-91426079D01*
X148749500Y-91426082D01*
X148749500Y-91573918D01*
X148749500Y-91573920D01*
X148749499Y-91573920D01*
X138000500Y-91573920D01*
X138000500Y-90571153D01*
X151199500Y-90571153D01*
X151199500Y-90728846D01*
X151230261Y-90883489D01*
X151230264Y-90883501D01*
X151290602Y-91029172D01*
X151290609Y-91029185D01*
X151378210Y-91160288D01*
X151378213Y-91160292D01*
X151489707Y-91271786D01*
X151489711Y-91271789D01*
X151620814Y-91359390D01*
X151620827Y-91359397D01*
X151766498Y-91419735D01*
X151766503Y-91419737D01*
X151921153Y-91450499D01*
X151921156Y-91450500D01*
X151921158Y-91450500D01*
X152078844Y-91450500D01*
X152078845Y-91450499D01*
X152233497Y-91419737D01*
X152379179Y-91359394D01*
X152510289Y-91271789D01*
X152621789Y-91160289D01*
X152709394Y-91029179D01*
X152769737Y-90883497D01*
X152800500Y-90728842D01*
X152800500Y-90571158D01*
X152800500Y-90571155D01*
X152800499Y-90571153D01*
X152783372Y-90485051D01*
X152769737Y-90416503D01*
X152769735Y-90416498D01*
X152709397Y-90270827D01*
X152709390Y-90270814D01*
X152621789Y-90139711D01*
X152621786Y-90139707D01*
X152510292Y-90028213D01*
X152510288Y-90028210D01*
X152379185Y-89940609D01*
X152379172Y-89940602D01*
X152233501Y-89880264D01*
X152233489Y-89880261D01*
X152078845Y-89849500D01*
X152078842Y-89849500D01*
X151921158Y-89849500D01*
X151921155Y-89849500D01*
X151766510Y-89880261D01*
X151766498Y-89880264D01*
X151620827Y-89940602D01*
X151620814Y-89940609D01*
X151489711Y-90028210D01*
X151489707Y-90028213D01*
X151378213Y-90139707D01*
X151378210Y-90139711D01*
X151290609Y-90270814D01*
X151290602Y-90270827D01*
X151230264Y-90416498D01*
X151230261Y-90416510D01*
X151199500Y-90571153D01*
X138000500Y-90571153D01*
X138000500Y-89598543D01*
X161474499Y-89598543D01*
X161512947Y-89791829D01*
X161512950Y-89791839D01*
X161588364Y-89973907D01*
X161588371Y-89973920D01*
X161697860Y-90137781D01*
X161697863Y-90137785D01*
X161837214Y-90277136D01*
X161837218Y-90277139D01*
X162001079Y-90386628D01*
X162001092Y-90386635D01*
X162073218Y-90416510D01*
X162183165Y-90462051D01*
X162183169Y-90462051D01*
X162183170Y-90462052D01*
X162376456Y-90500500D01*
X162376459Y-90500500D01*
X162573543Y-90500500D01*
X162703582Y-90474632D01*
X162766835Y-90462051D01*
X162948914Y-90386632D01*
X163112782Y-90277139D01*
X163252139Y-90137782D01*
X163361632Y-89973914D01*
X163437051Y-89791835D01*
X163449632Y-89728582D01*
X163475500Y-89598543D01*
X163475500Y-89401456D01*
X163437052Y-89208170D01*
X163437051Y-89208169D01*
X163437051Y-89208165D01*
X163404334Y-89129179D01*
X163361635Y-89026092D01*
X163361628Y-89026079D01*
X163252139Y-88862218D01*
X163252136Y-88862214D01*
X163112785Y-88722863D01*
X163112781Y-88722860D01*
X162948920Y-88613371D01*
X162948907Y-88613364D01*
X162766839Y-88537950D01*
X162766829Y-88537947D01*
X162573543Y-88499500D01*
X162573541Y-88499500D01*
X162376459Y-88499500D01*
X162376457Y-88499500D01*
X162183170Y-88537947D01*
X162183160Y-88537950D01*
X162001092Y-88613364D01*
X162001079Y-88613371D01*
X161837218Y-88722860D01*
X161837214Y-88722863D01*
X161697863Y-88862214D01*
X161697860Y-88862218D01*
X161588371Y-89026079D01*
X161588364Y-89026092D01*
X161512950Y-89208160D01*
X161512947Y-89208170D01*
X161474500Y-89401456D01*
X161474500Y-89401459D01*
X161474500Y-89598541D01*
X161474500Y-89598543D01*
X161474499Y-89598543D01*
X138000500Y-89598543D01*
X138000500Y-86327135D01*
X138649500Y-86327135D01*
X138649500Y-88122870D01*
X138649501Y-88122876D01*
X138655908Y-88182483D01*
X138706202Y-88317328D01*
X138706206Y-88317335D01*
X138792452Y-88432544D01*
X138792455Y-88432547D01*
X138907664Y-88518793D01*
X138907671Y-88518797D01*
X139042517Y-88569091D01*
X139042516Y-88569091D01*
X139049444Y-88569835D01*
X139102127Y-88575500D01*
X140897872Y-88575499D01*
X140957483Y-88569091D01*
X141092331Y-88518796D01*
X141207546Y-88432546D01*
X141293796Y-88317331D01*
X141344091Y-88182483D01*
X141350500Y-88122873D01*
X141350500Y-87921153D01*
X141699500Y-87921153D01*
X141699500Y-88078846D01*
X141730261Y-88233489D01*
X141730264Y-88233501D01*
X141790602Y-88379172D01*
X141790609Y-88379185D01*
X141878210Y-88510288D01*
X141878213Y-88510292D01*
X141989707Y-88621786D01*
X141989711Y-88621789D01*
X142120814Y-88709390D01*
X142120827Y-88709397D01*
X142266498Y-88769735D01*
X142266503Y-88769737D01*
X142421153Y-88800499D01*
X142421156Y-88800500D01*
X142421158Y-88800500D01*
X142578844Y-88800500D01*
X142578845Y-88800499D01*
X142733497Y-88769737D01*
X142879179Y-88709394D01*
X142931110Y-88674694D01*
X142997785Y-88653816D01*
X143065165Y-88672300D01*
X143068863Y-88674676D01*
X143120821Y-88709394D01*
X143120823Y-88709395D01*
X143120825Y-88709396D01*
X143266498Y-88769735D01*
X143266503Y-88769737D01*
X143421153Y-88800499D01*
X143421156Y-88800500D01*
X143421158Y-88800500D01*
X143578844Y-88800500D01*
X143578845Y-88800499D01*
X143733497Y-88769737D01*
X143827550Y-88730778D01*
X143897016Y-88723310D01*
X143922443Y-88730775D01*
X144016503Y-88769737D01*
X144171153Y-88800499D01*
X144171156Y-88800500D01*
X144171158Y-88800500D01*
X144328844Y-88800500D01*
X144328845Y-88800499D01*
X144483497Y-88769737D01*
X144620068Y-88713168D01*
X144629172Y-88709397D01*
X144629172Y-88709396D01*
X144629179Y-88709394D01*
X144674731Y-88678956D01*
X144741408Y-88658078D01*
X144808788Y-88676562D01*
X144846725Y-88713168D01*
X144878207Y-88760284D01*
X144878213Y-88760292D01*
X144989707Y-88871786D01*
X144989711Y-88871789D01*
X145120814Y-88959390D01*
X145120827Y-88959397D01*
X145252066Y-89013757D01*
X145266503Y-89019737D01*
X145421153Y-89050499D01*
X145421156Y-89050500D01*
X145421158Y-89050500D01*
X145578844Y-89050500D01*
X145578845Y-89050499D01*
X145733497Y-89019737D01*
X145879179Y-88959394D01*
X146010289Y-88871789D01*
X146121789Y-88760289D01*
X146209394Y-88629179D01*
X146212294Y-88622179D01*
X146255117Y-88518793D01*
X146269737Y-88483497D01*
X146300500Y-88328842D01*
X146300500Y-88171158D01*
X146300500Y-88171155D01*
X146300499Y-88171153D01*
X146282137Y-88078842D01*
X146269737Y-88016503D01*
X146261862Y-87997491D01*
X146209397Y-87870827D01*
X146209390Y-87870814D01*
X146121789Y-87739711D01*
X146121786Y-87739707D01*
X146010292Y-87628213D01*
X146010288Y-87628210D01*
X145879185Y-87540609D01*
X145879172Y-87540602D01*
X145733501Y-87480264D01*
X145733489Y-87480261D01*
X145578845Y-87449500D01*
X145578842Y-87449500D01*
X145421158Y-87449500D01*
X145421155Y-87449500D01*
X145266510Y-87480261D01*
X145266498Y-87480264D01*
X145120827Y-87540602D01*
X145120816Y-87540608D01*
X145075266Y-87571044D01*
X145008588Y-87591921D01*
X144941208Y-87573436D01*
X144903274Y-87536832D01*
X144871789Y-87489711D01*
X144871787Y-87489708D01*
X144760292Y-87378213D01*
X144760288Y-87378210D01*
X144629185Y-87290609D01*
X144629172Y-87290602D01*
X144483501Y-87230264D01*
X144483489Y-87230261D01*
X144328845Y-87199500D01*
X144328842Y-87199500D01*
X144171158Y-87199500D01*
X144171155Y-87199500D01*
X144016510Y-87230261D01*
X144016498Y-87230264D01*
X143922452Y-87269219D01*
X143852982Y-87276688D01*
X143827548Y-87269219D01*
X143733501Y-87230264D01*
X143733489Y-87230261D01*
X143578845Y-87199500D01*
X143578842Y-87199500D01*
X143421158Y-87199500D01*
X143421155Y-87199500D01*
X143266510Y-87230261D01*
X143266498Y-87230264D01*
X143120827Y-87290602D01*
X143120814Y-87290609D01*
X143068891Y-87325304D01*
X143002214Y-87346182D01*
X142934833Y-87327698D01*
X142931109Y-87325304D01*
X142879185Y-87290609D01*
X142879172Y-87290602D01*
X142733501Y-87230264D01*
X142733489Y-87230261D01*
X142578845Y-87199500D01*
X142578842Y-87199500D01*
X142421158Y-87199500D01*
X142421155Y-87199500D01*
X142266510Y-87230261D01*
X142266498Y-87230264D01*
X142120827Y-87290602D01*
X142120814Y-87290609D01*
X141989711Y-87378210D01*
X141989707Y-87378213D01*
X141878213Y-87489707D01*
X141878210Y-87489711D01*
X141790609Y-87620814D01*
X141790602Y-87620827D01*
X141730264Y-87766498D01*
X141730261Y-87766510D01*
X141699500Y-87921153D01*
X141350500Y-87921153D01*
X141350499Y-87209397D01*
X141350499Y-86421153D01*
X147248175Y-86421153D01*
X147248175Y-86578846D01*
X147278936Y-86733489D01*
X147278939Y-86733501D01*
X147339277Y-86879172D01*
X147339284Y-86879185D01*
X147426885Y-87010288D01*
X147426888Y-87010292D01*
X147538382Y-87121786D01*
X147538386Y-87121789D01*
X147669489Y-87209390D01*
X147669502Y-87209397D01*
X147813927Y-87269219D01*
X147815178Y-87269737D01*
X147951529Y-87296859D01*
X147969828Y-87300499D01*
X147969831Y-87300500D01*
X147969833Y-87300500D01*
X148127519Y-87300500D01*
X148127520Y-87300499D01*
X148282172Y-87269737D01*
X148427854Y-87209394D01*
X148558964Y-87121789D01*
X148670464Y-87010289D01*
X148737011Y-86910695D01*
X148790623Y-86865890D01*
X148859948Y-86857183D01*
X148922976Y-86887337D01*
X148943215Y-86910695D01*
X149027885Y-87037412D01*
X149027888Y-87037416D01*
X149139382Y-87148910D01*
X149139386Y-87148913D01*
X149270489Y-87236514D01*
X149270502Y-87236521D01*
X149396898Y-87288875D01*
X149416178Y-87296861D01*
X149472784Y-87308120D01*
X149534692Y-87340504D01*
X149563152Y-87382284D01*
X149572676Y-87405277D01*
X149572678Y-87405281D01*
X149660278Y-87536384D01*
X149660284Y-87536392D01*
X149771778Y-87647886D01*
X149771782Y-87647889D01*
X149902885Y-87735490D01*
X149902898Y-87735497D01*
X150035945Y-87790606D01*
X150048574Y-87795837D01*
X150170572Y-87820104D01*
X150203224Y-87826599D01*
X150203227Y-87826600D01*
X150203229Y-87826600D01*
X150360915Y-87826600D01*
X150360916Y-87826599D01*
X150515568Y-87795837D01*
X150661250Y-87735494D01*
X150792360Y-87647889D01*
X150903860Y-87536389D01*
X150991465Y-87405279D01*
X151002964Y-87377516D01*
X151046804Y-87323112D01*
X151113098Y-87301046D01*
X151180797Y-87318324D01*
X151205207Y-87337286D01*
X151239707Y-87371786D01*
X151239711Y-87371789D01*
X151370814Y-87459390D01*
X151370827Y-87459397D01*
X151514796Y-87519030D01*
X151516503Y-87519737D01*
X151671153Y-87550499D01*
X151671156Y-87550500D01*
X151671158Y-87550500D01*
X151828844Y-87550500D01*
X151828845Y-87550499D01*
X151983497Y-87519737D01*
X152129179Y-87459394D01*
X152260289Y-87371789D01*
X152260742Y-87371336D01*
X152287319Y-87344760D01*
X152348642Y-87311275D01*
X152418334Y-87316259D01*
X152462681Y-87344760D01*
X152489707Y-87371786D01*
X152489711Y-87371789D01*
X152620814Y-87459390D01*
X152620827Y-87459397D01*
X152764796Y-87519030D01*
X152766503Y-87519737D01*
X152921153Y-87550499D01*
X152921156Y-87550500D01*
X152921158Y-87550500D01*
X153078844Y-87550500D01*
X153078845Y-87550499D01*
X153233497Y-87519737D01*
X153379179Y-87459394D01*
X153431110Y-87424694D01*
X153446794Y-87419782D01*
X153460252Y-87410339D01*
X153479450Y-87409557D01*
X153497785Y-87403816D01*
X153514279Y-87408138D01*
X153530064Y-87407496D01*
X153556490Y-87419201D01*
X153562738Y-87420839D01*
X153565866Y-87422673D01*
X153620821Y-87459394D01*
X153646842Y-87470172D01*
X153654222Y-87474501D01*
X153672527Y-87493965D01*
X153693337Y-87510734D01*
X153696098Y-87519030D01*
X153702088Y-87525399D01*
X153706963Y-87551669D01*
X153715405Y-87577027D01*
X153713242Y-87585499D01*
X153714838Y-87594095D01*
X153704736Y-87618832D01*
X153698128Y-87644727D01*
X153691729Y-87650685D01*
X153688424Y-87658779D01*
X153666551Y-87674128D01*
X153646993Y-87692340D01*
X153634497Y-87696623D01*
X153631232Y-87698915D01*
X153627350Y-87699073D01*
X153615676Y-87703075D01*
X153479006Y-87730261D01*
X153478996Y-87730264D01*
X153333325Y-87790602D01*
X153333312Y-87790609D01*
X153202209Y-87878210D01*
X153202205Y-87878213D01*
X153090711Y-87989707D01*
X153090708Y-87989711D01*
X153003107Y-88120814D01*
X153003100Y-88120827D01*
X152942762Y-88266498D01*
X152942759Y-88266510D01*
X152911998Y-88421153D01*
X152911998Y-88578846D01*
X152942759Y-88733489D01*
X152942762Y-88733501D01*
X153003100Y-88879172D01*
X153003107Y-88879185D01*
X153090708Y-89010288D01*
X153090711Y-89010292D01*
X153202205Y-89121786D01*
X153202209Y-89121789D01*
X153333312Y-89209390D01*
X153333325Y-89209397D01*
X153478996Y-89269735D01*
X153479001Y-89269737D01*
X153633651Y-89300499D01*
X153633654Y-89300500D01*
X153633656Y-89300500D01*
X153791342Y-89300500D01*
X153791343Y-89300499D01*
X153945995Y-89269737D01*
X154091677Y-89209394D01*
X154222787Y-89121789D01*
X154334287Y-89010289D01*
X154421892Y-88879179D01*
X154482235Y-88733497D01*
X154494636Y-88671153D01*
X155699500Y-88671153D01*
X155699500Y-88828846D01*
X155730261Y-88983489D01*
X155730264Y-88983501D01*
X155790602Y-89129172D01*
X155790609Y-89129185D01*
X155878210Y-89260288D01*
X155878213Y-89260292D01*
X155989707Y-89371786D01*
X155989711Y-89371789D01*
X156120814Y-89459390D01*
X156120827Y-89459397D01*
X156266498Y-89519735D01*
X156266503Y-89519737D01*
X156421153Y-89550499D01*
X156421156Y-89550500D01*
X156421158Y-89550500D01*
X156578844Y-89550500D01*
X156578845Y-89550499D01*
X156733497Y-89519737D01*
X156879179Y-89459394D01*
X157010289Y-89371789D01*
X157010292Y-89371786D01*
X157074393Y-89307686D01*
X157121786Y-89260292D01*
X157121789Y-89260289D01*
X157209394Y-89129179D01*
X157269737Y-88983497D01*
X157300500Y-88828842D01*
X157300500Y-88671158D01*
X157300500Y-88671155D01*
X157300499Y-88671153D01*
X157274003Y-88537949D01*
X157269737Y-88516503D01*
X157234961Y-88432546D01*
X157209397Y-88370827D01*
X157209390Y-88370814D01*
X157121789Y-88239711D01*
X157121786Y-88239707D01*
X157010292Y-88128213D01*
X157010288Y-88128210D01*
X156879185Y-88040609D01*
X156879172Y-88040602D01*
X156733501Y-87980264D01*
X156733489Y-87980261D01*
X156578845Y-87949500D01*
X156578842Y-87949500D01*
X156421158Y-87949500D01*
X156421155Y-87949500D01*
X156266510Y-87980261D01*
X156266498Y-87980264D01*
X156120827Y-88040602D01*
X156120814Y-88040609D01*
X155989711Y-88128210D01*
X155989707Y-88128213D01*
X155878213Y-88239707D01*
X155878210Y-88239711D01*
X155790609Y-88370814D01*
X155790602Y-88370827D01*
X155730264Y-88516498D01*
X155730261Y-88516510D01*
X155699500Y-88671153D01*
X154494636Y-88671153D01*
X154508289Y-88602516D01*
X154512998Y-88578844D01*
X154512998Y-88421155D01*
X154512997Y-88421153D01*
X154482236Y-88266510D01*
X154482235Y-88266503D01*
X154482233Y-88266498D01*
X154421895Y-88120827D01*
X154421888Y-88120814D01*
X154334287Y-87989711D01*
X154334284Y-87989707D01*
X154222790Y-87878213D01*
X154222786Y-87878210D01*
X154091683Y-87790609D01*
X154091676Y-87790605D01*
X154081141Y-87786242D01*
X154073560Y-87783102D01*
X154019158Y-87739263D01*
X153997092Y-87672969D01*
X154014370Y-87605269D01*
X154065506Y-87557658D01*
X154096822Y-87546924D01*
X154157239Y-87534905D01*
X154233497Y-87519737D01*
X154379179Y-87459394D01*
X154510289Y-87371789D01*
X154621789Y-87260289D01*
X154709394Y-87129179D01*
X154769737Y-86983497D01*
X154800500Y-86828842D01*
X154800500Y-86683713D01*
X171014500Y-86683713D01*
X171014500Y-86896287D01*
X171016782Y-86910695D01*
X171028311Y-86983489D01*
X171047754Y-87106243D01*
X171110872Y-87300500D01*
X171113444Y-87308414D01*
X171209951Y-87497820D01*
X171334890Y-87669786D01*
X171485213Y-87820109D01*
X171657182Y-87945050D01*
X171665946Y-87949516D01*
X171716742Y-87997491D01*
X171733536Y-88065312D01*
X171710998Y-88131447D01*
X171665946Y-88170484D01*
X171657182Y-88174949D01*
X171485213Y-88299890D01*
X171334890Y-88450213D01*
X171209951Y-88622179D01*
X171113444Y-88811585D01*
X171047753Y-89013760D01*
X171014500Y-89223713D01*
X171014500Y-89436286D01*
X171040198Y-89598541D01*
X171047754Y-89646243D01*
X171095061Y-89791839D01*
X171113444Y-89848414D01*
X171209951Y-90037820D01*
X171334890Y-90209786D01*
X171485213Y-90360109D01*
X171657179Y-90485048D01*
X171657181Y-90485049D01*
X171657184Y-90485051D01*
X171846588Y-90581557D01*
X172048757Y-90647246D01*
X172258713Y-90680500D01*
X172258714Y-90680500D01*
X172471286Y-90680500D01*
X172471287Y-90680500D01*
X172681243Y-90647246D01*
X172883412Y-90581557D01*
X173072816Y-90485051D01*
X173104476Y-90462049D01*
X173244786Y-90360109D01*
X173244788Y-90360106D01*
X173244792Y-90360104D01*
X173395104Y-90209792D01*
X173395106Y-90209788D01*
X173395109Y-90209786D01*
X173520048Y-90037820D01*
X173520047Y-90037820D01*
X173520051Y-90037816D01*
X173616557Y-89848412D01*
X173682246Y-89646243D01*
X173715500Y-89436287D01*
X173715500Y-89223713D01*
X173682246Y-89013757D01*
X173616557Y-88811588D01*
X173520051Y-88622184D01*
X173520049Y-88622181D01*
X173520048Y-88622179D01*
X173395109Y-88450213D01*
X173244786Y-88299890D01*
X173072820Y-88174951D01*
X173072115Y-88174591D01*
X173064054Y-88170485D01*
X173013259Y-88122512D01*
X172996463Y-88054692D01*
X173018999Y-87988556D01*
X173064054Y-87949515D01*
X173072816Y-87945051D01*
X173114087Y-87915066D01*
X173244786Y-87820109D01*
X173244788Y-87820106D01*
X173244792Y-87820104D01*
X173395104Y-87669792D01*
X173395106Y-87669788D01*
X173395109Y-87669786D01*
X173520048Y-87497820D01*
X173520047Y-87497820D01*
X173520051Y-87497816D01*
X173616557Y-87308412D01*
X173682246Y-87106243D01*
X173715500Y-86896287D01*
X173715500Y-86683713D01*
X173682246Y-86473757D01*
X173616557Y-86271588D01*
X173520051Y-86082184D01*
X173520049Y-86082181D01*
X173520048Y-86082179D01*
X173395109Y-85910213D01*
X173244786Y-85759890D01*
X173072820Y-85634951D01*
X172883414Y-85538444D01*
X172883413Y-85538443D01*
X172883412Y-85538443D01*
X172681243Y-85472754D01*
X172681241Y-85472753D01*
X172681240Y-85472753D01*
X172519957Y-85447208D01*
X172471287Y-85439500D01*
X172258713Y-85439500D01*
X172210042Y-85447208D01*
X172048760Y-85472753D01*
X171846585Y-85538444D01*
X171657179Y-85634951D01*
X171485213Y-85759890D01*
X171334890Y-85910213D01*
X171209951Y-86082179D01*
X171113444Y-86271585D01*
X171113443Y-86271587D01*
X171113443Y-86271588D01*
X171095397Y-86327127D01*
X171047753Y-86473760D01*
X171014500Y-86683713D01*
X154800500Y-86683713D01*
X154800500Y-86671158D01*
X154800500Y-86671155D01*
X154800499Y-86671153D01*
X154769738Y-86516510D01*
X154769737Y-86516503D01*
X154752568Y-86475053D01*
X154709397Y-86370827D01*
X154709390Y-86370814D01*
X154621789Y-86239711D01*
X154621786Y-86239707D01*
X154510292Y-86128213D01*
X154510288Y-86128210D01*
X154379185Y-86040609D01*
X154379172Y-86040602D01*
X154233501Y-85980264D01*
X154233489Y-85980261D01*
X154078845Y-85949500D01*
X154078842Y-85949500D01*
X153921158Y-85949500D01*
X153921155Y-85949500D01*
X153766510Y-85980261D01*
X153766498Y-85980264D01*
X153620827Y-86040602D01*
X153620814Y-86040609D01*
X153568891Y-86075304D01*
X153502214Y-86096182D01*
X153434833Y-86077698D01*
X153431109Y-86075304D01*
X153379185Y-86040609D01*
X153379172Y-86040602D01*
X153233501Y-85980264D01*
X153233489Y-85980261D01*
X153078845Y-85949500D01*
X153078842Y-85949500D01*
X152921158Y-85949500D01*
X152921155Y-85949500D01*
X152766510Y-85980261D01*
X152766498Y-85980264D01*
X152620827Y-86040602D01*
X152620814Y-86040609D01*
X152489711Y-86128210D01*
X152489707Y-86128213D01*
X152462681Y-86155240D01*
X152401358Y-86188725D01*
X152331666Y-86183741D01*
X152287319Y-86155240D01*
X152260292Y-86128213D01*
X152260288Y-86128210D01*
X152129185Y-86040609D01*
X152129172Y-86040602D01*
X151983501Y-85980264D01*
X151983489Y-85980261D01*
X151828845Y-85949500D01*
X151828842Y-85949500D01*
X151671158Y-85949500D01*
X151671155Y-85949500D01*
X151516510Y-85980261D01*
X151516498Y-85980264D01*
X151370827Y-86040602D01*
X151370814Y-86040609D01*
X151239711Y-86128210D01*
X151239707Y-86128213D01*
X151128213Y-86239707D01*
X151128210Y-86239711D01*
X151040609Y-86370814D01*
X151040601Y-86370829D01*
X151029104Y-86398586D01*
X150985262Y-86452989D01*
X150918968Y-86475053D01*
X150851269Y-86457773D01*
X150826863Y-86438813D01*
X150792363Y-86404313D01*
X150792359Y-86404310D01*
X150661256Y-86316709D01*
X150661243Y-86316702D01*
X150515570Y-86256363D01*
X150515564Y-86256361D01*
X150458961Y-86245102D01*
X150397051Y-86212716D01*
X150368593Y-86170937D01*
X150359072Y-86147951D01*
X150359065Y-86147938D01*
X150271464Y-86016835D01*
X150271461Y-86016831D01*
X150159967Y-85905337D01*
X150159963Y-85905334D01*
X150028860Y-85817733D01*
X150028847Y-85817726D01*
X149883176Y-85757388D01*
X149883164Y-85757385D01*
X149728520Y-85726624D01*
X149728517Y-85726624D01*
X149570833Y-85726624D01*
X149570830Y-85726624D01*
X149416185Y-85757385D01*
X149416173Y-85757388D01*
X149270502Y-85817726D01*
X149270489Y-85817733D01*
X149139386Y-85905334D01*
X149139382Y-85905337D01*
X149027888Y-86016831D01*
X149027883Y-86016837D01*
X148961337Y-86116429D01*
X148907725Y-86161233D01*
X148838400Y-86169940D01*
X148775372Y-86139785D01*
X148755134Y-86116428D01*
X148670464Y-85989711D01*
X148670461Y-85989707D01*
X148558967Y-85878213D01*
X148558963Y-85878210D01*
X148427860Y-85790609D01*
X148427847Y-85790602D01*
X148282176Y-85730264D01*
X148282164Y-85730261D01*
X148127520Y-85699500D01*
X148127517Y-85699500D01*
X147969833Y-85699500D01*
X147969830Y-85699500D01*
X147815185Y-85730261D01*
X147815173Y-85730264D01*
X147669502Y-85790602D01*
X147669489Y-85790609D01*
X147538386Y-85878210D01*
X147538382Y-85878213D01*
X147426888Y-85989707D01*
X147426885Y-85989711D01*
X147339284Y-86120814D01*
X147339277Y-86120827D01*
X147278939Y-86266498D01*
X147278936Y-86266510D01*
X147248175Y-86421153D01*
X141350499Y-86421153D01*
X141350499Y-86415066D01*
X141350499Y-86327129D01*
X141350498Y-86327123D01*
X141350497Y-86327116D01*
X141344091Y-86267517D01*
X141343715Y-86266510D01*
X141293797Y-86132671D01*
X141293793Y-86132664D01*
X141207547Y-86017455D01*
X141207544Y-86017452D01*
X141092335Y-85931206D01*
X141092328Y-85931202D01*
X140957482Y-85880908D01*
X140957483Y-85880908D01*
X140897883Y-85874501D01*
X140897881Y-85874500D01*
X140897873Y-85874500D01*
X140897864Y-85874500D01*
X139102129Y-85874500D01*
X139102123Y-85874501D01*
X139042516Y-85880908D01*
X138907671Y-85931202D01*
X138907664Y-85931206D01*
X138792455Y-86017452D01*
X138792452Y-86017455D01*
X138706206Y-86132664D01*
X138706202Y-86132671D01*
X138655908Y-86267517D01*
X138650621Y-86316702D01*
X138649501Y-86327123D01*
X138649500Y-86327135D01*
X138000500Y-86327135D01*
X138000500Y-84171153D01*
X141699500Y-84171153D01*
X141699500Y-84328846D01*
X141730261Y-84483489D01*
X141730264Y-84483501D01*
X141790602Y-84629172D01*
X141790609Y-84629185D01*
X141878210Y-84760288D01*
X141878213Y-84760292D01*
X141989707Y-84871786D01*
X141989711Y-84871789D01*
X142120814Y-84959390D01*
X142120827Y-84959397D01*
X142266498Y-85019735D01*
X142266503Y-85019737D01*
X142421153Y-85050499D01*
X142421156Y-85050500D01*
X142421158Y-85050500D01*
X142578844Y-85050500D01*
X142578845Y-85050499D01*
X142733497Y-85019737D01*
X142879179Y-84959394D01*
X143010289Y-84871789D01*
X143121789Y-84760289D01*
X143209394Y-84629179D01*
X143258638Y-84510292D01*
X143260439Y-84505945D01*
X143304279Y-84451541D01*
X143370573Y-84429476D01*
X143438273Y-84446755D01*
X143485884Y-84497892D01*
X143489561Y-84505945D01*
X143540602Y-84629172D01*
X143540609Y-84629185D01*
X143628210Y-84760288D01*
X143628213Y-84760292D01*
X143739707Y-84871786D01*
X143739711Y-84871789D01*
X143870814Y-84959390D01*
X143870827Y-84959397D01*
X143980082Y-85004651D01*
X144016503Y-85019737D01*
X144090741Y-85034503D01*
X144152649Y-85066887D01*
X144181108Y-85108666D01*
X144189601Y-85129170D01*
X144189609Y-85129185D01*
X144277210Y-85260288D01*
X144277213Y-85260292D01*
X144388707Y-85371786D01*
X144388711Y-85371789D01*
X144519814Y-85459390D01*
X144519827Y-85459397D01*
X144665498Y-85519735D01*
X144665503Y-85519737D01*
X144820153Y-85550499D01*
X144820156Y-85550500D01*
X144820158Y-85550500D01*
X144977844Y-85550500D01*
X144977845Y-85550499D01*
X145132497Y-85519737D01*
X145278179Y-85459394D01*
X145409289Y-85371789D01*
X145520789Y-85260289D01*
X145608394Y-85129179D01*
X145668737Y-84983497D01*
X145699500Y-84828842D01*
X145699500Y-84824009D01*
X145719185Y-84756970D01*
X145771989Y-84711215D01*
X145841147Y-84701271D01*
X145870948Y-84709446D01*
X146016503Y-84769737D01*
X146162783Y-84798834D01*
X146171153Y-84800499D01*
X146171156Y-84800500D01*
X146171158Y-84800500D01*
X146328844Y-84800500D01*
X146328845Y-84800499D01*
X146483497Y-84769737D01*
X146629179Y-84709394D01*
X146760289Y-84621789D01*
X146871789Y-84510289D01*
X146959394Y-84379179D01*
X147019737Y-84233497D01*
X147050500Y-84078842D01*
X147050500Y-83921158D01*
X147050500Y-83921155D01*
X147050499Y-83921153D01*
X147042151Y-83879185D01*
X147019737Y-83766503D01*
X147017163Y-83760288D01*
X146959397Y-83620827D01*
X146959390Y-83620814D01*
X146871790Y-83489712D01*
X146871784Y-83489705D01*
X146803232Y-83421153D01*
X149699500Y-83421153D01*
X149699500Y-83578846D01*
X149730261Y-83733489D01*
X149730264Y-83733501D01*
X149790602Y-83879172D01*
X149790609Y-83879185D01*
X149878210Y-84010288D01*
X149878213Y-84010292D01*
X149989707Y-84121786D01*
X149989711Y-84121789D01*
X150120814Y-84209390D01*
X150120827Y-84209397D01*
X150266498Y-84269735D01*
X150266503Y-84269737D01*
X150421153Y-84300499D01*
X150421156Y-84300500D01*
X150421158Y-84300500D01*
X150578844Y-84300500D01*
X150578845Y-84300499D01*
X150733497Y-84269737D01*
X150879179Y-84209394D01*
X151010289Y-84121789D01*
X151121789Y-84010289D01*
X151164130Y-83946921D01*
X152448531Y-83946921D01*
X152448531Y-84104614D01*
X152479292Y-84259257D01*
X152479295Y-84259269D01*
X152539633Y-84404940D01*
X152539640Y-84404953D01*
X152627241Y-84536056D01*
X152627244Y-84536060D01*
X152738738Y-84647554D01*
X152738742Y-84647557D01*
X152869845Y-84735158D01*
X152869858Y-84735165D01*
X152953326Y-84769738D01*
X153015534Y-84795505D01*
X153158832Y-84824009D01*
X153170184Y-84826267D01*
X153170187Y-84826268D01*
X153170189Y-84826268D01*
X153327875Y-84826268D01*
X153327876Y-84826267D01*
X153482528Y-84795505D01*
X153548760Y-84768071D01*
X153633839Y-84732831D01*
X153634891Y-84735371D01*
X153691649Y-84723490D01*
X153729284Y-84732539D01*
X153815066Y-84768071D01*
X153952975Y-84795503D01*
X153969716Y-84798833D01*
X153969719Y-84798834D01*
X153969721Y-84798834D01*
X154127407Y-84798834D01*
X154127408Y-84798833D01*
X154282060Y-84768071D01*
X154427742Y-84707728D01*
X154558852Y-84620123D01*
X154670352Y-84508623D01*
X154670614Y-84508231D01*
X154670805Y-84508071D01*
X154674216Y-84503915D01*
X154675003Y-84504561D01*
X154724221Y-84463419D01*
X154793544Y-84454703D01*
X154856576Y-84484851D01*
X154876820Y-84508210D01*
X154878203Y-84510280D01*
X154878213Y-84510292D01*
X154989707Y-84621786D01*
X154989711Y-84621789D01*
X155120814Y-84709390D01*
X155120827Y-84709397D01*
X155262476Y-84768069D01*
X155266503Y-84769737D01*
X155412783Y-84798834D01*
X155421153Y-84800499D01*
X155421156Y-84800500D01*
X155421158Y-84800500D01*
X155578844Y-84800500D01*
X155578845Y-84800499D01*
X155733497Y-84769737D01*
X155879179Y-84709394D01*
X156010289Y-84621789D01*
X156121789Y-84510289D01*
X156209394Y-84379179D01*
X156269737Y-84233497D01*
X156300500Y-84078842D01*
X156300500Y-83921158D01*
X156300500Y-83921155D01*
X156300499Y-83921153D01*
X157949500Y-83921153D01*
X157949500Y-84078846D01*
X157980261Y-84233489D01*
X157980264Y-84233501D01*
X158040602Y-84379172D01*
X158040609Y-84379185D01*
X158128210Y-84510288D01*
X158128213Y-84510292D01*
X158239707Y-84621786D01*
X158239711Y-84621789D01*
X158370814Y-84709390D01*
X158370827Y-84709397D01*
X158512476Y-84768069D01*
X158516503Y-84769737D01*
X158662783Y-84798834D01*
X158671153Y-84800499D01*
X158671156Y-84800500D01*
X158671158Y-84800500D01*
X158828844Y-84800500D01*
X158828845Y-84800499D01*
X158983497Y-84769737D01*
X159129179Y-84709394D01*
X159260289Y-84621789D01*
X159371789Y-84510289D01*
X159459394Y-84379179D01*
X159519737Y-84233497D01*
X159550500Y-84078842D01*
X159550500Y-83921158D01*
X159550500Y-83921155D01*
X159550499Y-83921153D01*
X159542151Y-83879185D01*
X159519737Y-83766503D01*
X159517163Y-83760288D01*
X159459397Y-83620827D01*
X159459390Y-83620814D01*
X159371789Y-83489711D01*
X159371786Y-83489707D01*
X159260292Y-83378213D01*
X159260288Y-83378210D01*
X159129185Y-83290609D01*
X159129172Y-83290602D01*
X158983501Y-83230264D01*
X158983489Y-83230261D01*
X158828845Y-83199500D01*
X158828842Y-83199500D01*
X158671158Y-83199500D01*
X158671155Y-83199500D01*
X158516510Y-83230261D01*
X158516498Y-83230264D01*
X158370827Y-83290602D01*
X158370814Y-83290609D01*
X158239711Y-83378210D01*
X158239707Y-83378213D01*
X158128213Y-83489707D01*
X158128210Y-83489711D01*
X158040609Y-83620814D01*
X158040602Y-83620827D01*
X157980264Y-83766498D01*
X157980261Y-83766510D01*
X157949500Y-83921153D01*
X156300499Y-83921153D01*
X156292151Y-83879185D01*
X156269737Y-83766503D01*
X156267163Y-83760288D01*
X156209397Y-83620827D01*
X156209390Y-83620814D01*
X156121789Y-83489711D01*
X156121786Y-83489707D01*
X156010292Y-83378213D01*
X156010288Y-83378210D01*
X155879185Y-83290609D01*
X155879172Y-83290602D01*
X155733501Y-83230264D01*
X155733489Y-83230261D01*
X155578845Y-83199500D01*
X155578842Y-83199500D01*
X155421158Y-83199500D01*
X155421155Y-83199500D01*
X155266510Y-83230261D01*
X155266498Y-83230264D01*
X155120827Y-83290602D01*
X155120814Y-83290609D01*
X154989711Y-83378210D01*
X154989707Y-83378213D01*
X154878213Y-83489707D01*
X154878207Y-83489715D01*
X154877934Y-83490124D01*
X154877735Y-83490289D01*
X154874347Y-83494419D01*
X154873563Y-83493775D01*
X154824317Y-83534924D01*
X154754992Y-83543625D01*
X154691967Y-83513465D01*
X154671739Y-83490120D01*
X154670352Y-83488045D01*
X154670349Y-83488041D01*
X154558855Y-83376547D01*
X154558851Y-83376544D01*
X154427748Y-83288943D01*
X154427735Y-83288936D01*
X154282064Y-83228598D01*
X154282052Y-83228595D01*
X154127408Y-83197834D01*
X154127405Y-83197834D01*
X153969721Y-83197834D01*
X153969718Y-83197834D01*
X153815073Y-83228595D01*
X153815061Y-83228598D01*
X153663756Y-83291271D01*
X153662722Y-83288776D01*
X153605674Y-83300589D01*
X153568308Y-83291562D01*
X153482528Y-83256031D01*
X153482523Y-83256030D01*
X153482520Y-83256029D01*
X153327876Y-83225268D01*
X153327873Y-83225268D01*
X153170189Y-83225268D01*
X153170186Y-83225268D01*
X153015541Y-83256029D01*
X153015529Y-83256032D01*
X152869858Y-83316370D01*
X152869845Y-83316377D01*
X152738742Y-83403978D01*
X152738738Y-83403981D01*
X152627244Y-83515475D01*
X152627241Y-83515479D01*
X152539640Y-83646582D01*
X152539633Y-83646595D01*
X152479295Y-83792266D01*
X152479292Y-83792278D01*
X152448531Y-83946921D01*
X151164130Y-83946921D01*
X151209394Y-83879179D01*
X151269737Y-83733497D01*
X151300500Y-83578842D01*
X151300500Y-83421158D01*
X151300500Y-83421155D01*
X151300499Y-83421153D01*
X151280661Y-83321422D01*
X151269737Y-83266503D01*
X151265399Y-83256029D01*
X151209397Y-83120827D01*
X151209390Y-83120814D01*
X151121789Y-82989711D01*
X151121786Y-82989707D01*
X151010292Y-82878213D01*
X151010288Y-82878210D01*
X150879185Y-82790609D01*
X150879172Y-82790602D01*
X150733501Y-82730264D01*
X150733489Y-82730261D01*
X150578845Y-82699500D01*
X150578842Y-82699500D01*
X150421158Y-82699500D01*
X150421155Y-82699500D01*
X150266510Y-82730261D01*
X150266498Y-82730264D01*
X150120827Y-82790602D01*
X150120814Y-82790609D01*
X149989711Y-82878210D01*
X149989707Y-82878213D01*
X149878213Y-82989707D01*
X149878210Y-82989711D01*
X149790609Y-83120814D01*
X149790602Y-83120827D01*
X149730264Y-83266498D01*
X149730261Y-83266510D01*
X149699500Y-83421153D01*
X146803232Y-83421153D01*
X146760292Y-83378213D01*
X146760288Y-83378210D01*
X146629185Y-83290609D01*
X146629172Y-83290602D01*
X146483501Y-83230264D01*
X146483489Y-83230261D01*
X146328845Y-83199500D01*
X146328842Y-83199500D01*
X146171158Y-83199500D01*
X146171155Y-83199500D01*
X146016510Y-83230261D01*
X146016498Y-83230264D01*
X145870827Y-83290602D01*
X145870814Y-83290609D01*
X145739711Y-83378210D01*
X145739707Y-83378213D01*
X145628213Y-83489707D01*
X145628210Y-83489711D01*
X145540609Y-83620814D01*
X145540602Y-83620827D01*
X145480264Y-83766498D01*
X145480261Y-83766510D01*
X145449500Y-83921153D01*
X145449500Y-83925990D01*
X145429815Y-83993029D01*
X145377011Y-84038784D01*
X145307853Y-84048728D01*
X145278048Y-84040551D01*
X145132501Y-83980264D01*
X145132491Y-83980261D01*
X145058258Y-83965495D01*
X144996347Y-83933110D01*
X144967890Y-83891333D01*
X144959394Y-83870821D01*
X144959391Y-83870816D01*
X144959390Y-83870814D01*
X144871789Y-83739711D01*
X144871786Y-83739707D01*
X144760292Y-83628213D01*
X144760288Y-83628210D01*
X144629185Y-83540609D01*
X144629172Y-83540602D01*
X144483501Y-83480264D01*
X144483489Y-83480261D01*
X144328845Y-83449500D01*
X144328842Y-83449500D01*
X144171158Y-83449500D01*
X144171155Y-83449500D01*
X144016510Y-83480261D01*
X144016498Y-83480264D01*
X143870827Y-83540602D01*
X143870814Y-83540609D01*
X143739711Y-83628210D01*
X143739707Y-83628213D01*
X143628213Y-83739707D01*
X143628210Y-83739711D01*
X143540609Y-83870814D01*
X143540602Y-83870827D01*
X143489561Y-83994054D01*
X143445720Y-84048458D01*
X143379426Y-84070523D01*
X143311727Y-84053244D01*
X143264116Y-84002107D01*
X143260439Y-83994054D01*
X143209397Y-83870827D01*
X143209390Y-83870814D01*
X143121789Y-83739711D01*
X143121786Y-83739707D01*
X143010292Y-83628213D01*
X143010288Y-83628210D01*
X142879185Y-83540609D01*
X142879172Y-83540602D01*
X142733501Y-83480264D01*
X142733489Y-83480261D01*
X142578845Y-83449500D01*
X142578842Y-83449500D01*
X142421158Y-83449500D01*
X142421155Y-83449500D01*
X142266510Y-83480261D01*
X142266498Y-83480264D01*
X142120827Y-83540602D01*
X142120814Y-83540609D01*
X141989711Y-83628210D01*
X141989707Y-83628213D01*
X141878213Y-83739707D01*
X141878210Y-83739711D01*
X141790609Y-83870814D01*
X141790602Y-83870827D01*
X141730264Y-84016498D01*
X141730261Y-84016510D01*
X141699500Y-84171153D01*
X138000500Y-84171153D01*
X138000500Y-82421153D01*
X161949500Y-82421153D01*
X161949500Y-82578846D01*
X161980261Y-82733489D01*
X161980264Y-82733501D01*
X162040602Y-82879172D01*
X162040609Y-82879185D01*
X162128210Y-83010288D01*
X162128213Y-83010292D01*
X162239707Y-83121786D01*
X162239711Y-83121789D01*
X162370814Y-83209390D01*
X162370827Y-83209397D01*
X162483416Y-83256032D01*
X162516503Y-83269737D01*
X162671153Y-83300499D01*
X162671156Y-83300500D01*
X162671158Y-83300500D01*
X162828844Y-83300500D01*
X162828845Y-83300499D01*
X162983497Y-83269737D01*
X163129179Y-83209394D01*
X163260289Y-83121789D01*
X163371789Y-83010289D01*
X163459394Y-82879179D01*
X163462854Y-82870827D01*
X163473067Y-82846166D01*
X163519737Y-82733497D01*
X163550500Y-82578842D01*
X163550500Y-82421158D01*
X163550500Y-82421155D01*
X163550499Y-82421153D01*
X164699500Y-82421153D01*
X164699500Y-82578846D01*
X164730261Y-82733489D01*
X164730264Y-82733501D01*
X164790602Y-82879172D01*
X164790609Y-82879185D01*
X164878210Y-83010288D01*
X164878213Y-83010292D01*
X164989707Y-83121786D01*
X164989711Y-83121789D01*
X165120814Y-83209390D01*
X165120827Y-83209397D01*
X165233416Y-83256032D01*
X165266503Y-83269737D01*
X165362218Y-83288776D01*
X165363535Y-83289038D01*
X165425446Y-83321422D01*
X165460020Y-83382138D01*
X165460961Y-83386463D01*
X165480261Y-83483491D01*
X165480264Y-83483501D01*
X165540602Y-83629172D01*
X165540609Y-83629185D01*
X165628210Y-83760288D01*
X165628213Y-83760292D01*
X165739707Y-83871786D01*
X165739711Y-83871789D01*
X165870814Y-83959390D01*
X165870827Y-83959397D01*
X166008683Y-84016498D01*
X166016503Y-84019737D01*
X166121418Y-84040606D01*
X166171153Y-84050499D01*
X166171156Y-84050500D01*
X166171158Y-84050500D01*
X166328844Y-84050500D01*
X166328845Y-84050499D01*
X166483497Y-84019737D01*
X166629179Y-83959394D01*
X166760289Y-83871789D01*
X166871789Y-83760289D01*
X166959394Y-83629179D01*
X166962854Y-83620827D01*
X166994831Y-83543625D01*
X167019737Y-83483497D01*
X167050500Y-83328842D01*
X167050500Y-83171158D01*
X167050500Y-83171155D01*
X167050499Y-83171153D01*
X167040486Y-83120814D01*
X167019737Y-83016503D01*
X167017163Y-83010288D01*
X166959397Y-82870827D01*
X166959390Y-82870814D01*
X166871789Y-82739711D01*
X166871786Y-82739707D01*
X166760292Y-82628213D01*
X166760288Y-82628210D01*
X166629185Y-82540609D01*
X166629172Y-82540602D01*
X166483501Y-82480264D01*
X166483491Y-82480261D01*
X166386463Y-82460961D01*
X166324552Y-82428576D01*
X166289978Y-82367860D01*
X166289038Y-82363535D01*
X166269738Y-82266510D01*
X166269737Y-82266503D01*
X166253959Y-82228412D01*
X166209397Y-82120827D01*
X166209390Y-82120814D01*
X166121789Y-81989711D01*
X166121786Y-81989707D01*
X166010292Y-81878213D01*
X166010288Y-81878210D01*
X165879185Y-81790609D01*
X165879172Y-81790602D01*
X165733501Y-81730264D01*
X165733489Y-81730261D01*
X165578845Y-81699500D01*
X165578842Y-81699500D01*
X165421158Y-81699500D01*
X165421155Y-81699500D01*
X165266510Y-81730261D01*
X165266498Y-81730264D01*
X165120827Y-81790602D01*
X165120814Y-81790609D01*
X164989711Y-81878210D01*
X164989707Y-81878213D01*
X164878213Y-81989707D01*
X164878210Y-81989711D01*
X164790609Y-82120814D01*
X164790602Y-82120827D01*
X164730264Y-82266498D01*
X164730261Y-82266510D01*
X164699500Y-82421153D01*
X163550499Y-82421153D01*
X163519738Y-82266510D01*
X163519737Y-82266503D01*
X163503959Y-82228412D01*
X163459397Y-82120827D01*
X163459390Y-82120814D01*
X163371789Y-81989711D01*
X163371786Y-81989707D01*
X163260292Y-81878213D01*
X163260288Y-81878210D01*
X163129185Y-81790609D01*
X163129172Y-81790602D01*
X162983501Y-81730264D01*
X162983489Y-81730261D01*
X162828845Y-81699500D01*
X162828842Y-81699500D01*
X162671158Y-81699500D01*
X162671155Y-81699500D01*
X162516510Y-81730261D01*
X162516498Y-81730264D01*
X162370827Y-81790602D01*
X162370814Y-81790609D01*
X162239711Y-81878210D01*
X162239707Y-81878213D01*
X162128213Y-81989707D01*
X162128210Y-81989711D01*
X162040609Y-82120814D01*
X162040602Y-82120827D01*
X161980264Y-82266498D01*
X161980261Y-82266510D01*
X161949500Y-82421153D01*
X138000500Y-82421153D01*
X138000500Y-81552190D01*
X138020185Y-81485151D01*
X138072989Y-81439396D01*
X138142147Y-81429452D01*
X138205703Y-81458477D01*
X138239061Y-81504738D01*
X138290602Y-81629172D01*
X138290609Y-81629185D01*
X138378210Y-81760288D01*
X138378213Y-81760292D01*
X138489707Y-81871786D01*
X138489711Y-81871789D01*
X138620814Y-81959390D01*
X138620827Y-81959397D01*
X138694013Y-81989711D01*
X138766503Y-82019737D01*
X138921153Y-82050499D01*
X138921156Y-82050500D01*
X138921158Y-82050500D01*
X139078844Y-82050500D01*
X139078845Y-82050499D01*
X139233497Y-82019737D01*
X139379179Y-81959394D01*
X139510289Y-81871789D01*
X139598908Y-81783169D01*
X139660229Y-81749685D01*
X139729920Y-81754669D01*
X139734042Y-81756291D01*
X139766497Y-81769735D01*
X139766499Y-81769735D01*
X139766503Y-81769737D01*
X139921153Y-81800499D01*
X139921156Y-81800500D01*
X139921158Y-81800500D01*
X140078844Y-81800500D01*
X140078845Y-81800499D01*
X140233497Y-81769737D01*
X140351787Y-81720740D01*
X140379172Y-81709397D01*
X140379172Y-81709396D01*
X140379179Y-81709394D01*
X140510289Y-81621789D01*
X140621789Y-81510289D01*
X140709394Y-81379179D01*
X140769737Y-81233497D01*
X140775554Y-81204251D01*
X148029830Y-81204251D01*
X148058671Y-81349238D01*
X148058674Y-81349248D01*
X148115243Y-81485819D01*
X148115250Y-81485832D01*
X148197379Y-81608746D01*
X148197382Y-81608750D01*
X148301911Y-81713279D01*
X148301915Y-81713282D01*
X148424829Y-81795411D01*
X148424842Y-81795418D01*
X148561413Y-81851987D01*
X148561418Y-81851989D01*
X148561422Y-81851989D01*
X148561423Y-81851990D01*
X148706410Y-81880831D01*
X148706413Y-81880831D01*
X148854251Y-81880831D01*
X148951793Y-81861427D01*
X148999244Y-81851989D01*
X149135826Y-81795415D01*
X149258747Y-81713282D01*
X149363282Y-81608747D01*
X149445415Y-81485826D01*
X149501989Y-81349244D01*
X149514711Y-81285288D01*
X149530831Y-81204251D01*
X149530831Y-81056410D01*
X149501990Y-80911423D01*
X149501989Y-80911422D01*
X149501989Y-80911418D01*
X149485173Y-80870821D01*
X149445418Y-80774842D01*
X149445412Y-80774831D01*
X149434805Y-80758956D01*
X149434804Y-80758955D01*
X149392841Y-80696153D01*
X159144975Y-80696153D01*
X159144975Y-80853846D01*
X159175736Y-81008489D01*
X159175739Y-81008501D01*
X159236077Y-81154172D01*
X159236084Y-81154185D01*
X159323685Y-81285288D01*
X159323688Y-81285292D01*
X159435182Y-81396786D01*
X159435186Y-81396789D01*
X159566289Y-81484390D01*
X159566302Y-81484397D01*
X159711973Y-81544735D01*
X159711978Y-81544737D01*
X159866628Y-81575499D01*
X159866631Y-81575500D01*
X159866633Y-81575500D01*
X160024319Y-81575500D01*
X160024320Y-81575499D01*
X160178972Y-81544737D01*
X160291641Y-81498067D01*
X160324647Y-81484397D01*
X160324647Y-81484396D01*
X160324654Y-81484394D01*
X160455764Y-81396789D01*
X160567264Y-81285289D01*
X160654869Y-81154179D01*
X160715212Y-81008497D01*
X160745975Y-80853842D01*
X160745975Y-80696158D01*
X160745975Y-80696155D01*
X160745974Y-80696153D01*
X160731181Y-80621786D01*
X160715212Y-80541503D01*
X160714842Y-80540609D01*
X160654872Y-80395827D01*
X160654865Y-80395814D01*
X160567264Y-80264711D01*
X160567261Y-80264707D01*
X160455767Y-80153213D01*
X160455763Y-80153210D01*
X160324660Y-80065609D01*
X160324647Y-80065602D01*
X160237793Y-80029627D01*
X160178976Y-80005264D01*
X160178964Y-80005261D01*
X160024320Y-79974500D01*
X160024317Y-79974500D01*
X159866633Y-79974500D01*
X159866630Y-79974500D01*
X159711985Y-80005261D01*
X159711973Y-80005264D01*
X159566302Y-80065602D01*
X159566289Y-80065609D01*
X159435186Y-80153210D01*
X159435182Y-80153213D01*
X159323688Y-80264707D01*
X159323685Y-80264711D01*
X159236084Y-80395814D01*
X159236077Y-80395827D01*
X159175739Y-80541498D01*
X159175736Y-80541510D01*
X159144975Y-80696153D01*
X149392841Y-80696153D01*
X149363282Y-80651915D01*
X149363279Y-80651911D01*
X149258750Y-80547382D01*
X149258746Y-80547379D01*
X149135832Y-80465250D01*
X149135819Y-80465243D01*
X148999248Y-80408674D01*
X148999238Y-80408671D01*
X148854251Y-80379831D01*
X148854249Y-80379831D01*
X148706413Y-80379831D01*
X148706411Y-80379831D01*
X148561423Y-80408671D01*
X148561413Y-80408674D01*
X148424842Y-80465243D01*
X148424829Y-80465250D01*
X148301915Y-80547379D01*
X148301911Y-80547382D01*
X148197382Y-80651911D01*
X148197379Y-80651915D01*
X148115250Y-80774829D01*
X148115243Y-80774842D01*
X148058674Y-80911413D01*
X148058671Y-80911423D01*
X148029831Y-81056410D01*
X148029831Y-81056413D01*
X148029831Y-81204249D01*
X148029831Y-81204251D01*
X148029830Y-81204251D01*
X140775554Y-81204251D01*
X140800500Y-81078842D01*
X140800500Y-80921158D01*
X140800500Y-80921155D01*
X140800499Y-80921153D01*
X140776499Y-80800499D01*
X140769737Y-80766503D01*
X140766611Y-80758955D01*
X140709397Y-80620827D01*
X140709390Y-80620814D01*
X140621789Y-80489711D01*
X140621786Y-80489707D01*
X140510292Y-80378213D01*
X140510288Y-80378210D01*
X140379185Y-80290609D01*
X140379172Y-80290602D01*
X140233501Y-80230264D01*
X140233489Y-80230261D01*
X140078845Y-80199500D01*
X140078842Y-80199500D01*
X139921158Y-80199500D01*
X139921155Y-80199500D01*
X139766510Y-80230261D01*
X139766498Y-80230264D01*
X139620827Y-80290602D01*
X139620814Y-80290609D01*
X139489711Y-80378210D01*
X139489707Y-80378213D01*
X139401092Y-80466829D01*
X139339769Y-80500314D01*
X139270077Y-80495330D01*
X139265959Y-80493709D01*
X139233498Y-80480263D01*
X139233488Y-80480260D01*
X139078845Y-80449500D01*
X139078842Y-80449500D01*
X138921158Y-80449500D01*
X138921155Y-80449500D01*
X138766510Y-80480261D01*
X138766498Y-80480264D01*
X138620827Y-80540602D01*
X138620814Y-80540609D01*
X138489711Y-80628210D01*
X138489707Y-80628213D01*
X138378213Y-80739707D01*
X138378210Y-80739711D01*
X138290609Y-80870814D01*
X138290602Y-80870827D01*
X138239061Y-80995261D01*
X138195220Y-81049665D01*
X138128926Y-81071730D01*
X138061227Y-81054451D01*
X138013616Y-81003314D01*
X138000500Y-80947809D01*
X138000500Y-79921153D01*
X163699500Y-79921153D01*
X163699500Y-80078846D01*
X163730261Y-80233489D01*
X163730264Y-80233501D01*
X163790602Y-80379172D01*
X163790609Y-80379185D01*
X163878210Y-80510288D01*
X163878213Y-80510292D01*
X163989707Y-80621786D01*
X163989711Y-80621789D01*
X164120814Y-80709390D01*
X164120827Y-80709397D01*
X164240475Y-80758956D01*
X164266503Y-80769737D01*
X164421153Y-80800499D01*
X164421156Y-80800500D01*
X164421158Y-80800500D01*
X164578844Y-80800500D01*
X164578845Y-80800499D01*
X164733497Y-80769737D01*
X164879179Y-80709394D01*
X165010289Y-80621789D01*
X165121789Y-80510289D01*
X165209394Y-80379179D01*
X165210071Y-80377546D01*
X165223067Y-80346166D01*
X165269737Y-80233497D01*
X165300500Y-80078842D01*
X165300500Y-79921158D01*
X165300500Y-79921155D01*
X165300499Y-79921153D01*
X165269738Y-79766510D01*
X165269737Y-79766503D01*
X165209794Y-79621786D01*
X165209397Y-79620827D01*
X165209390Y-79620814D01*
X165121789Y-79489711D01*
X165121786Y-79489707D01*
X165010292Y-79378213D01*
X165010288Y-79378210D01*
X164879185Y-79290609D01*
X164879172Y-79290602D01*
X164733501Y-79230264D01*
X164733489Y-79230261D01*
X164578845Y-79199500D01*
X164578842Y-79199500D01*
X164421158Y-79199500D01*
X164421155Y-79199500D01*
X164266510Y-79230261D01*
X164266498Y-79230264D01*
X164120827Y-79290602D01*
X164120814Y-79290609D01*
X163989711Y-79378210D01*
X163989707Y-79378213D01*
X163878213Y-79489707D01*
X163878210Y-79489711D01*
X163790609Y-79620814D01*
X163790602Y-79620827D01*
X163730264Y-79766498D01*
X163730261Y-79766510D01*
X163699500Y-79921153D01*
X138000500Y-79921153D01*
X138000500Y-77268244D01*
X147328783Y-77268244D01*
X147328783Y-77425937D01*
X147359544Y-77580580D01*
X147359547Y-77580592D01*
X147419885Y-77726263D01*
X147419892Y-77726276D01*
X147507493Y-77857379D01*
X147507496Y-77857383D01*
X147618990Y-77968877D01*
X147618994Y-77968880D01*
X147750097Y-78056481D01*
X147750110Y-78056488D01*
X147876054Y-78108655D01*
X147895786Y-78116828D01*
X148050436Y-78147590D01*
X148050439Y-78147591D01*
X148176085Y-78147591D01*
X148243124Y-78167276D01*
X148288879Y-78220080D01*
X148298823Y-78289238D01*
X148269798Y-78352794D01*
X148244976Y-78374692D01*
X148241559Y-78376976D01*
X148239706Y-78378214D01*
X148128213Y-78489707D01*
X148128210Y-78489711D01*
X148040609Y-78620814D01*
X148040602Y-78620827D01*
X147980264Y-78766498D01*
X147980261Y-78766510D01*
X147949500Y-78921153D01*
X147949500Y-79078846D01*
X147980261Y-79233489D01*
X147980264Y-79233501D01*
X148040602Y-79379172D01*
X148040609Y-79379185D01*
X148128210Y-79510288D01*
X148128213Y-79510292D01*
X148239707Y-79621786D01*
X148239711Y-79621789D01*
X148370814Y-79709390D01*
X148370827Y-79709397D01*
X148508683Y-79766498D01*
X148516503Y-79769737D01*
X148671153Y-79800499D01*
X148671156Y-79800500D01*
X148671158Y-79800500D01*
X148828844Y-79800500D01*
X148828845Y-79800499D01*
X148983497Y-79769737D01*
X149129179Y-79709394D01*
X149260289Y-79621789D01*
X149371789Y-79510289D01*
X149459394Y-79379179D01*
X149519737Y-79233497D01*
X149550500Y-79078842D01*
X149550500Y-78921158D01*
X149550500Y-78921155D01*
X149550499Y-78921153D01*
X149543735Y-78887148D01*
X149519737Y-78766503D01*
X149517589Y-78761318D01*
X149459397Y-78620827D01*
X149459390Y-78620814D01*
X149371789Y-78489711D01*
X149371786Y-78489707D01*
X149334746Y-78452667D01*
X149301261Y-78391344D01*
X149306245Y-78321652D01*
X149348117Y-78265719D01*
X149413581Y-78241302D01*
X149469878Y-78250424D01*
X149516503Y-78269737D01*
X149621418Y-78290606D01*
X149671153Y-78300499D01*
X149671156Y-78300500D01*
X149671158Y-78300500D01*
X149828844Y-78300500D01*
X149828845Y-78300499D01*
X149983497Y-78269737D01*
X150103381Y-78220080D01*
X150129172Y-78209397D01*
X150129172Y-78209396D01*
X150129179Y-78209394D01*
X150260289Y-78121789D01*
X150371789Y-78010289D01*
X150459394Y-77879179D01*
X150460626Y-77876206D01*
X150484114Y-77819500D01*
X150519737Y-77733497D01*
X150550500Y-77578842D01*
X150550500Y-77421158D01*
X150550500Y-77421155D01*
X150550499Y-77421153D01*
X150519737Y-77266503D01*
X150515264Y-77255703D01*
X150459397Y-77120827D01*
X150459390Y-77120814D01*
X150371789Y-76989711D01*
X150371786Y-76989707D01*
X150260292Y-76878213D01*
X150260288Y-76878210D01*
X150129185Y-76790609D01*
X150129172Y-76790602D01*
X149983501Y-76730264D01*
X149983489Y-76730261D01*
X149828845Y-76699500D01*
X149828842Y-76699500D01*
X149671158Y-76699500D01*
X149671155Y-76699500D01*
X149516510Y-76730261D01*
X149516498Y-76730264D01*
X149370827Y-76790602D01*
X149370814Y-76790609D01*
X149239711Y-76878210D01*
X149239707Y-76878213D01*
X149128213Y-76989707D01*
X149128208Y-76989713D01*
X149083934Y-77055973D01*
X149030321Y-77100778D01*
X148960996Y-77109484D01*
X148897969Y-77079328D01*
X148866272Y-77034534D01*
X148838677Y-76967912D01*
X148838673Y-76967905D01*
X148751072Y-76836802D01*
X148751069Y-76836798D01*
X148639575Y-76725304D01*
X148639571Y-76725301D01*
X148508468Y-76637700D01*
X148508455Y-76637693D01*
X148362784Y-76577355D01*
X148362772Y-76577352D01*
X148208128Y-76546591D01*
X148208125Y-76546591D01*
X148050441Y-76546591D01*
X148050438Y-76546591D01*
X147895793Y-76577352D01*
X147895781Y-76577355D01*
X147750110Y-76637693D01*
X147750097Y-76637700D01*
X147618994Y-76725301D01*
X147618990Y-76725304D01*
X147507496Y-76836798D01*
X147507493Y-76836802D01*
X147419892Y-76967905D01*
X147419885Y-76967918D01*
X147359547Y-77113589D01*
X147359544Y-77113601D01*
X147328783Y-77268244D01*
X138000500Y-77268244D01*
X138000500Y-74171153D01*
X138449500Y-74171153D01*
X138449500Y-74328846D01*
X138480261Y-74483489D01*
X138480264Y-74483501D01*
X138540602Y-74629172D01*
X138540609Y-74629185D01*
X138628210Y-74760288D01*
X138628213Y-74760292D01*
X138739707Y-74871786D01*
X138739711Y-74871789D01*
X138870814Y-74959390D01*
X138870827Y-74959397D01*
X139006450Y-75015573D01*
X139016503Y-75019737D01*
X139136736Y-75043653D01*
X139171153Y-75050499D01*
X139171156Y-75050500D01*
X139171158Y-75050500D01*
X139328843Y-75050500D01*
X139345304Y-75047225D01*
X139394568Y-75037426D01*
X139464158Y-75043653D01*
X139519336Y-75086515D01*
X139533320Y-75111589D01*
X139540606Y-75129179D01*
X139540609Y-75129185D01*
X139628210Y-75260288D01*
X139628213Y-75260292D01*
X139739707Y-75371786D01*
X139739711Y-75371789D01*
X139870814Y-75459390D01*
X139870827Y-75459397D01*
X139998425Y-75512249D01*
X140016503Y-75519737D01*
X140167322Y-75549737D01*
X140171153Y-75550499D01*
X140171156Y-75550500D01*
X140171158Y-75550500D01*
X140328844Y-75550500D01*
X140328845Y-75550499D01*
X140483497Y-75519737D01*
X140629179Y-75459394D01*
X140760289Y-75371789D01*
X140871789Y-75260289D01*
X140931348Y-75171153D01*
X145699500Y-75171153D01*
X145699500Y-75328846D01*
X145730261Y-75483489D01*
X145730264Y-75483501D01*
X145790602Y-75629172D01*
X145790609Y-75629185D01*
X145878210Y-75760288D01*
X145878213Y-75760292D01*
X145989707Y-75871786D01*
X145989711Y-75871789D01*
X146120814Y-75959390D01*
X146120827Y-75959397D01*
X146258695Y-76016503D01*
X146266503Y-76019737D01*
X146421153Y-76050499D01*
X146421156Y-76050500D01*
X146421158Y-76050500D01*
X146578844Y-76050500D01*
X146578845Y-76050499D01*
X146733497Y-76019737D01*
X146879179Y-75959394D01*
X147010289Y-75871789D01*
X147121789Y-75760289D01*
X147209394Y-75629179D01*
X147209711Y-75628415D01*
X147242300Y-75549737D01*
X147269737Y-75483497D01*
X147300500Y-75328842D01*
X147300500Y-75196932D01*
X149504308Y-75196932D01*
X149533149Y-75341919D01*
X149533152Y-75341929D01*
X149589721Y-75478500D01*
X149589728Y-75478513D01*
X149671857Y-75601427D01*
X149671860Y-75601431D01*
X149776389Y-75705960D01*
X149776397Y-75705966D01*
X149899303Y-75788089D01*
X149899305Y-75788090D01*
X149899314Y-75788096D01*
X149903688Y-75789907D01*
X149958091Y-75833746D01*
X149977854Y-75880277D01*
X149996101Y-75972010D01*
X149996104Y-75972020D01*
X150056442Y-76117691D01*
X150056449Y-76117704D01*
X150144050Y-76248807D01*
X150144053Y-76248811D01*
X150255547Y-76360305D01*
X150255551Y-76360308D01*
X150386654Y-76447909D01*
X150386667Y-76447916D01*
X150473969Y-76484077D01*
X150532343Y-76508256D01*
X150672203Y-76536076D01*
X150686993Y-76539018D01*
X150686996Y-76539019D01*
X150842278Y-76539019D01*
X150909317Y-76558704D01*
X150929959Y-76575338D01*
X151002194Y-76647573D01*
X151002198Y-76647576D01*
X151133301Y-76735177D01*
X151133314Y-76735184D01*
X151266663Y-76790418D01*
X151278990Y-76795524D01*
X151433640Y-76826286D01*
X151433643Y-76826287D01*
X151433645Y-76826287D01*
X151591331Y-76826287D01*
X151591332Y-76826286D01*
X151745984Y-76795524D01*
X151823205Y-76763537D01*
X151892675Y-76756069D01*
X151955154Y-76787344D01*
X151958339Y-76790418D01*
X152039707Y-76871786D01*
X152039711Y-76871789D01*
X152170814Y-76959390D01*
X152170818Y-76959392D01*
X152170821Y-76959394D01*
X152272843Y-77001652D01*
X152327243Y-77045491D01*
X152349309Y-77111785D01*
X152332030Y-77179484D01*
X152280894Y-77227095D01*
X152272841Y-77230773D01*
X152128396Y-77290603D01*
X152128387Y-77290608D01*
X151997284Y-77378209D01*
X151997280Y-77378212D01*
X151885786Y-77489706D01*
X151885783Y-77489710D01*
X151798182Y-77620813D01*
X151798175Y-77620826D01*
X151737837Y-77766497D01*
X151737834Y-77766509D01*
X151707073Y-77921152D01*
X151707073Y-78078845D01*
X151737834Y-78233488D01*
X151737837Y-78233500D01*
X151798175Y-78379171D01*
X151798182Y-78379184D01*
X151885783Y-78510287D01*
X151885786Y-78510291D01*
X151997280Y-78621785D01*
X151997284Y-78621788D01*
X152128387Y-78709389D01*
X152128400Y-78709396D01*
X152274071Y-78769734D01*
X152274076Y-78769736D01*
X152428726Y-78800498D01*
X152428729Y-78800499D01*
X152428731Y-78800499D01*
X152586417Y-78800499D01*
X152586418Y-78800498D01*
X152741070Y-78769736D01*
X152886752Y-78709393D01*
X153017862Y-78621788D01*
X153129362Y-78510288D01*
X153216967Y-78379178D01*
X153277310Y-78233496D01*
X153308073Y-78078841D01*
X153308073Y-77921157D01*
X153308073Y-77921154D01*
X153308072Y-77921152D01*
X153303980Y-77900581D01*
X153277310Y-77766502D01*
X153272791Y-77755591D01*
X153216970Y-77620826D01*
X153216963Y-77620813D01*
X153129362Y-77489710D01*
X153129359Y-77489706D01*
X153017865Y-77378212D01*
X153017861Y-77378209D01*
X152886758Y-77290608D01*
X152886745Y-77290601D01*
X152784732Y-77248347D01*
X152730328Y-77204507D01*
X152708263Y-77138213D01*
X152725542Y-77070513D01*
X152776679Y-77022902D01*
X152784721Y-77019229D01*
X152866303Y-76985438D01*
X152929173Y-76959397D01*
X152929176Y-76959395D01*
X152929179Y-76959394D01*
X153060289Y-76871789D01*
X153171789Y-76760289D01*
X153259394Y-76629179D01*
X153259395Y-76629176D01*
X153259397Y-76629173D01*
X153296962Y-76538481D01*
X153340802Y-76484077D01*
X153387332Y-76464316D01*
X153444970Y-76452850D01*
X153530387Y-76435860D01*
X153676069Y-76375517D01*
X153807179Y-76287912D01*
X153918679Y-76176412D01*
X154006284Y-76045302D01*
X154066627Y-75899620D01*
X154097390Y-75744965D01*
X154097390Y-75587281D01*
X154097390Y-75587278D01*
X154097389Y-75587276D01*
X154090074Y-75550500D01*
X154066627Y-75432626D01*
X154066386Y-75432045D01*
X154006287Y-75286950D01*
X154006280Y-75286937D01*
X153964172Y-75223919D01*
X154691726Y-75223919D01*
X154720567Y-75368906D01*
X154720570Y-75368916D01*
X154777139Y-75505487D01*
X154777146Y-75505500D01*
X154859275Y-75628414D01*
X154859278Y-75628418D01*
X154963807Y-75732947D01*
X154963811Y-75732950D01*
X155086725Y-75815079D01*
X155086734Y-75815084D01*
X155165894Y-75847873D01*
X155220297Y-75891714D01*
X155242362Y-75958008D01*
X155233006Y-76009878D01*
X155230263Y-76016499D01*
X155230261Y-76016505D01*
X155199500Y-76171153D01*
X155199500Y-76328846D01*
X155230261Y-76483489D01*
X155230264Y-76483501D01*
X155290602Y-76629172D01*
X155290609Y-76629185D01*
X155378210Y-76760288D01*
X155378213Y-76760292D01*
X155489707Y-76871786D01*
X155489711Y-76871789D01*
X155620814Y-76959390D01*
X155620827Y-76959397D01*
X155758437Y-77016396D01*
X155766503Y-77019737D01*
X155921153Y-77050499D01*
X155921156Y-77050500D01*
X156018416Y-77050500D01*
X156085455Y-77070185D01*
X156131210Y-77122989D01*
X156141154Y-77192147D01*
X156112129Y-77255703D01*
X156065868Y-77289061D01*
X156016736Y-77309411D01*
X156016723Y-77309418D01*
X155893812Y-77391545D01*
X155893807Y-77391549D01*
X155850106Y-77435250D01*
X155788783Y-77468734D01*
X155762426Y-77471568D01*
X155643545Y-77471568D01*
X155498557Y-77500408D01*
X155498547Y-77500411D01*
X155361976Y-77556980D01*
X155361963Y-77556987D01*
X155239049Y-77639116D01*
X155239045Y-77639119D01*
X155134516Y-77743648D01*
X155134513Y-77743652D01*
X155052384Y-77866566D01*
X155052377Y-77866579D01*
X154995808Y-78003150D01*
X154995805Y-78003160D01*
X154966965Y-78148147D01*
X154966965Y-78148150D01*
X154966965Y-78295986D01*
X154966965Y-78295988D01*
X154966964Y-78295988D01*
X154995805Y-78440975D01*
X154995808Y-78440985D01*
X155052377Y-78577556D01*
X155052384Y-78577569D01*
X155134513Y-78700483D01*
X155134516Y-78700487D01*
X155239045Y-78805016D01*
X155239049Y-78805019D01*
X155361963Y-78887148D01*
X155361976Y-78887155D01*
X155498547Y-78943724D01*
X155498552Y-78943726D01*
X155498556Y-78943726D01*
X155498557Y-78943727D01*
X155643544Y-78972568D01*
X155643547Y-78972568D01*
X155791385Y-78972568D01*
X155888927Y-78953164D01*
X155936378Y-78943726D01*
X156072960Y-78887152D01*
X156195881Y-78805019D01*
X156234402Y-78766498D01*
X156239582Y-78761318D01*
X156300905Y-78727833D01*
X156327263Y-78724999D01*
X156446145Y-78724999D01*
X156569390Y-78700483D01*
X156591138Y-78696157D01*
X156727720Y-78639583D01*
X156850641Y-78557450D01*
X156955176Y-78452915D01*
X157037309Y-78329994D01*
X157093883Y-78193412D01*
X157106660Y-78129179D01*
X157122725Y-78048419D01*
X157122725Y-77900578D01*
X157093884Y-77755591D01*
X157093883Y-77755590D01*
X157093883Y-77755586D01*
X157088938Y-77743648D01*
X157037312Y-77619010D01*
X157037305Y-77618997D01*
X156955176Y-77496083D01*
X156955173Y-77496079D01*
X156850644Y-77391550D01*
X156850640Y-77391547D01*
X156727726Y-77309418D01*
X156727713Y-77309411D01*
X156591142Y-77252842D01*
X156591132Y-77252839D01*
X156446145Y-77223999D01*
X156446143Y-77223999D01*
X156363756Y-77223999D01*
X156296717Y-77204314D01*
X156250962Y-77151510D01*
X156241018Y-77082352D01*
X156270043Y-77018796D01*
X156316304Y-76985438D01*
X156379172Y-76959397D01*
X156379172Y-76959396D01*
X156379179Y-76959394D01*
X156510289Y-76871789D01*
X156621789Y-76760289D01*
X156709394Y-76629179D01*
X156769737Y-76483497D01*
X156800500Y-76328842D01*
X156800500Y-76171158D01*
X156800500Y-76171155D01*
X156800499Y-76171153D01*
X156776499Y-76050499D01*
X156769737Y-76016503D01*
X156745508Y-75958008D01*
X156709397Y-75870827D01*
X156709390Y-75870814D01*
X156621789Y-75739711D01*
X156621786Y-75739707D01*
X156510292Y-75628213D01*
X156510288Y-75628210D01*
X156379185Y-75540609D01*
X156379172Y-75540602D01*
X156242739Y-75484091D01*
X156188335Y-75440251D01*
X156166270Y-75373957D01*
X156168574Y-75345338D01*
X156171856Y-75328842D01*
X156180191Y-75286937D01*
X156192727Y-75223919D01*
X156192727Y-75076078D01*
X156165511Y-74939258D01*
X156163886Y-74931090D01*
X156163883Y-74931081D01*
X156159771Y-74921153D01*
X157699500Y-74921153D01*
X157699500Y-75078846D01*
X157730261Y-75233489D01*
X157730264Y-75233501D01*
X157790602Y-75379172D01*
X157790609Y-75379185D01*
X157878210Y-75510288D01*
X157878213Y-75510292D01*
X157989707Y-75621786D01*
X157989711Y-75621789D01*
X158120814Y-75709390D01*
X158120827Y-75709397D01*
X158266498Y-75769735D01*
X158266503Y-75769737D01*
X158367899Y-75789906D01*
X158421153Y-75800499D01*
X158421156Y-75800500D01*
X158421158Y-75800500D01*
X158578843Y-75800500D01*
X158595939Y-75797099D01*
X158613831Y-75793540D01*
X158683423Y-75799767D01*
X158738601Y-75842629D01*
X158761846Y-75908518D01*
X158752586Y-75962607D01*
X158730264Y-76016499D01*
X158730261Y-76016510D01*
X158699500Y-76171153D01*
X158699500Y-76328846D01*
X158730261Y-76483489D01*
X158730264Y-76483501D01*
X158790602Y-76629172D01*
X158790609Y-76629185D01*
X158878210Y-76760288D01*
X158878213Y-76760292D01*
X158921467Y-76803545D01*
X158924194Y-76808539D01*
X158928927Y-76811701D01*
X158940755Y-76838867D01*
X158954953Y-76864868D01*
X158955141Y-76871910D01*
X158956819Y-76875762D01*
X158955920Y-76900947D01*
X158956192Y-76911051D01*
X158955835Y-76913254D01*
X158952483Y-76930107D01*
X158952483Y-76933952D01*
X158950897Y-76943746D01*
X158937427Y-76971906D01*
X158925734Y-77000864D01*
X158922354Y-77003417D01*
X158920748Y-77006776D01*
X158905177Y-77016396D01*
X158875948Y-77038482D01*
X158870823Y-77040604D01*
X158870814Y-77040609D01*
X158739711Y-77128210D01*
X158739707Y-77128213D01*
X158628213Y-77239707D01*
X158628210Y-77239711D01*
X158540609Y-77370814D01*
X158540602Y-77370827D01*
X158480264Y-77516498D01*
X158480261Y-77516510D01*
X158449500Y-77671153D01*
X158449500Y-77828846D01*
X158480261Y-77983489D01*
X158480264Y-77983501D01*
X158540602Y-78129172D01*
X158540609Y-78129185D01*
X158628210Y-78260288D01*
X158628213Y-78260292D01*
X158739707Y-78371786D01*
X158739711Y-78371789D01*
X158870814Y-78459390D01*
X158870827Y-78459397D01*
X158993691Y-78510288D01*
X159016503Y-78519737D01*
X159171153Y-78550499D01*
X159171156Y-78550500D01*
X159171158Y-78550500D01*
X159328844Y-78550500D01*
X159328845Y-78550499D01*
X159483497Y-78519737D01*
X159629179Y-78459394D01*
X159760289Y-78371789D01*
X159859943Y-78272135D01*
X171014500Y-78272135D01*
X171014500Y-80067870D01*
X171014501Y-80067876D01*
X171020908Y-80127483D01*
X171071202Y-80262328D01*
X171071206Y-80262335D01*
X171157452Y-80377544D01*
X171157455Y-80377547D01*
X171272664Y-80463793D01*
X171272671Y-80463797D01*
X171404082Y-80512810D01*
X171460016Y-80554681D01*
X171484433Y-80620145D01*
X171469582Y-80688418D01*
X171448431Y-80716673D01*
X171334889Y-80830215D01*
X171209951Y-81002179D01*
X171113444Y-81191585D01*
X171047753Y-81393760D01*
X171014500Y-81603713D01*
X171014500Y-81816286D01*
X171046723Y-82019738D01*
X171047754Y-82026243D01*
X171078486Y-82120827D01*
X171113444Y-82228414D01*
X171209951Y-82417820D01*
X171334890Y-82589786D01*
X171485213Y-82740109D01*
X171657179Y-82865048D01*
X171657181Y-82865049D01*
X171657184Y-82865051D01*
X171846588Y-82961557D01*
X172048757Y-83027246D01*
X172258713Y-83060500D01*
X172258714Y-83060500D01*
X172471286Y-83060500D01*
X172471287Y-83060500D01*
X172681243Y-83027246D01*
X172883412Y-82961557D01*
X173072816Y-82865051D01*
X173094789Y-82849086D01*
X173244786Y-82740109D01*
X173244788Y-82740106D01*
X173244792Y-82740104D01*
X173395104Y-82589792D01*
X173395106Y-82589788D01*
X173395109Y-82589786D01*
X173517625Y-82421155D01*
X173520051Y-82417816D01*
X173616557Y-82228412D01*
X173682246Y-82026243D01*
X173715500Y-81816287D01*
X173715500Y-81603713D01*
X173682246Y-81393757D01*
X173616557Y-81191588D01*
X173520051Y-81002184D01*
X173520049Y-81002181D01*
X173520048Y-81002179D01*
X173395109Y-80830213D01*
X173281569Y-80716673D01*
X173248084Y-80655350D01*
X173253068Y-80585658D01*
X173294940Y-80529725D01*
X173325915Y-80512810D01*
X173457331Y-80463796D01*
X173572546Y-80377546D01*
X173658796Y-80262331D01*
X173709091Y-80127483D01*
X173715500Y-80067873D01*
X173715499Y-78272128D01*
X173709091Y-78212517D01*
X173707927Y-78209397D01*
X173658797Y-78077671D01*
X173658793Y-78077664D01*
X173572547Y-77962455D01*
X173572544Y-77962452D01*
X173457335Y-77876206D01*
X173457328Y-77876202D01*
X173322482Y-77825908D01*
X173322483Y-77825908D01*
X173262883Y-77819501D01*
X173262881Y-77819500D01*
X173262873Y-77819500D01*
X173262864Y-77819500D01*
X171467129Y-77819500D01*
X171467123Y-77819501D01*
X171407516Y-77825908D01*
X171272671Y-77876202D01*
X171272664Y-77876206D01*
X171157455Y-77962452D01*
X171157452Y-77962455D01*
X171071206Y-78077664D01*
X171071202Y-78077671D01*
X171020908Y-78212517D01*
X171015772Y-78260292D01*
X171014501Y-78272123D01*
X171014500Y-78272135D01*
X159859943Y-78272135D01*
X159871789Y-78260289D01*
X159933939Y-78167276D01*
X159959390Y-78129185D01*
X159959390Y-78129184D01*
X159959394Y-78129179D01*
X159964510Y-78116829D01*
X159980244Y-78078843D01*
X160019737Y-77983497D01*
X160050500Y-77828842D01*
X160050500Y-77828830D01*
X160051086Y-77822884D01*
X160077241Y-77758094D01*
X160127042Y-77720463D01*
X160132162Y-77718343D01*
X160263272Y-77630738D01*
X160374772Y-77519238D01*
X160462377Y-77388128D01*
X160522720Y-77242446D01*
X160553483Y-77087791D01*
X160553483Y-77030153D01*
X169699500Y-77030153D01*
X169699500Y-77187846D01*
X169730261Y-77342489D01*
X169730264Y-77342501D01*
X169790602Y-77488172D01*
X169790609Y-77488185D01*
X169878210Y-77619288D01*
X169878213Y-77619292D01*
X169989707Y-77730786D01*
X169989711Y-77730789D01*
X170120814Y-77818390D01*
X170120827Y-77818397D01*
X170266498Y-77878735D01*
X170266503Y-77878737D01*
X170421153Y-77909499D01*
X170421156Y-77909500D01*
X170421158Y-77909500D01*
X170578844Y-77909500D01*
X170578845Y-77909499D01*
X170733497Y-77878737D01*
X170853933Y-77828851D01*
X170879172Y-77818397D01*
X170879172Y-77818396D01*
X170879179Y-77818394D01*
X171010289Y-77730789D01*
X171121789Y-77619289D01*
X171209394Y-77488179D01*
X171269737Y-77342497D01*
X171300500Y-77187842D01*
X171300500Y-77030158D01*
X171300500Y-77030155D01*
X171300499Y-77030153D01*
X171292455Y-76989713D01*
X171269737Y-76875503D01*
X171265332Y-76864868D01*
X171209397Y-76729827D01*
X171209390Y-76729814D01*
X171121789Y-76598711D01*
X171121786Y-76598707D01*
X171010292Y-76487213D01*
X171010288Y-76487210D01*
X170879185Y-76399609D01*
X170879172Y-76399602D01*
X170733501Y-76339264D01*
X170733489Y-76339261D01*
X170578845Y-76308500D01*
X170578842Y-76308500D01*
X170421158Y-76308500D01*
X170421155Y-76308500D01*
X170266510Y-76339261D01*
X170266498Y-76339264D01*
X170120827Y-76399602D01*
X170120814Y-76399609D01*
X169989711Y-76487210D01*
X169989707Y-76487213D01*
X169878213Y-76598707D01*
X169878210Y-76598711D01*
X169790609Y-76729814D01*
X169790602Y-76729827D01*
X169730264Y-76875498D01*
X169730261Y-76875510D01*
X169699500Y-77030153D01*
X160553483Y-77030153D01*
X160553483Y-76930107D01*
X160553483Y-76930104D01*
X160553482Y-76930102D01*
X160522720Y-76775452D01*
X160506041Y-76735184D01*
X160462380Y-76629776D01*
X160462373Y-76629763D01*
X160374772Y-76498660D01*
X160374769Y-76498656D01*
X160331515Y-76455403D01*
X160298029Y-76394080D01*
X160297579Y-76343525D01*
X160300500Y-76328842D01*
X160300500Y-76171158D01*
X160300500Y-76171155D01*
X160300499Y-76171153D01*
X160276499Y-76050499D01*
X160269737Y-76016503D01*
X160245508Y-75958008D01*
X160209397Y-75870827D01*
X160209390Y-75870814D01*
X160121789Y-75739711D01*
X160121786Y-75739707D01*
X160010292Y-75628213D01*
X160010288Y-75628210D01*
X159879185Y-75540609D01*
X159879172Y-75540602D01*
X159733501Y-75480264D01*
X159733489Y-75480261D01*
X159578845Y-75449500D01*
X159578842Y-75449500D01*
X159421158Y-75449500D01*
X159421157Y-75449500D01*
X159386164Y-75456460D01*
X159316573Y-75450231D01*
X159261396Y-75407367D01*
X159238153Y-75341477D01*
X159247414Y-75287389D01*
X159247597Y-75286947D01*
X159269737Y-75233497D01*
X159300500Y-75078842D01*
X159300500Y-74921158D01*
X159300500Y-74921155D01*
X159300499Y-74921153D01*
X159298267Y-74909931D01*
X159269737Y-74766503D01*
X159267163Y-74760288D01*
X159209397Y-74620827D01*
X159209390Y-74620814D01*
X159121789Y-74489711D01*
X159121786Y-74489707D01*
X159010292Y-74378213D01*
X159010288Y-74378210D01*
X158879185Y-74290609D01*
X158879172Y-74290602D01*
X158733501Y-74230264D01*
X158733489Y-74230261D01*
X158578845Y-74199500D01*
X158578842Y-74199500D01*
X158421158Y-74199500D01*
X158421155Y-74199500D01*
X158266510Y-74230261D01*
X158266498Y-74230264D01*
X158120827Y-74290602D01*
X158120814Y-74290609D01*
X157989711Y-74378210D01*
X157989707Y-74378213D01*
X157878213Y-74489707D01*
X157878210Y-74489711D01*
X157790609Y-74620814D01*
X157790602Y-74620827D01*
X157730264Y-74766498D01*
X157730261Y-74766510D01*
X157699500Y-74921153D01*
X156159771Y-74921153D01*
X156107314Y-74794510D01*
X156107307Y-74794497D01*
X156025178Y-74671583D01*
X156025175Y-74671579D01*
X155920646Y-74567050D01*
X155920642Y-74567047D01*
X155797728Y-74484918D01*
X155797715Y-74484911D01*
X155661144Y-74428342D01*
X155661134Y-74428339D01*
X155516147Y-74399499D01*
X155516145Y-74399499D01*
X155368309Y-74399499D01*
X155368307Y-74399499D01*
X155223319Y-74428339D01*
X155223309Y-74428342D01*
X155086738Y-74484911D01*
X155086725Y-74484918D01*
X154963811Y-74567047D01*
X154963807Y-74567050D01*
X154859278Y-74671579D01*
X154859275Y-74671583D01*
X154777146Y-74794497D01*
X154777139Y-74794510D01*
X154720570Y-74931081D01*
X154720567Y-74931091D01*
X154691727Y-75076078D01*
X154691727Y-75076081D01*
X154691727Y-75223917D01*
X154691727Y-75223919D01*
X154691726Y-75223919D01*
X153964172Y-75223919D01*
X153918679Y-75155834D01*
X153918676Y-75155830D01*
X153807182Y-75044336D01*
X153807178Y-75044333D01*
X153676075Y-74956732D01*
X153676062Y-74956725D01*
X153530391Y-74896387D01*
X153530379Y-74896384D01*
X153375735Y-74865623D01*
X153375732Y-74865623D01*
X153218048Y-74865623D01*
X153218045Y-74865623D01*
X153063400Y-74896384D01*
X153063388Y-74896387D01*
X152917717Y-74956725D01*
X152917704Y-74956732D01*
X152786601Y-75044333D01*
X152786597Y-75044336D01*
X152675103Y-75155830D01*
X152675100Y-75155834D01*
X152587499Y-75286937D01*
X152587494Y-75286947D01*
X152549927Y-75377642D01*
X152506086Y-75432045D01*
X152459558Y-75451806D01*
X152316508Y-75480261D01*
X152316502Y-75480263D01*
X152239279Y-75512249D01*
X152169809Y-75519716D01*
X152107331Y-75488441D01*
X152104147Y-75485368D01*
X152022779Y-75404000D01*
X152022775Y-75403997D01*
X151891672Y-75316396D01*
X151891659Y-75316389D01*
X151745988Y-75256051D01*
X151745976Y-75256048D01*
X151591332Y-75225287D01*
X151591329Y-75225287D01*
X151436049Y-75225287D01*
X151369010Y-75205602D01*
X151348368Y-75188968D01*
X151276132Y-75116732D01*
X151276128Y-75116729D01*
X151145025Y-75029128D01*
X151145012Y-75029121D01*
X151049669Y-74989630D01*
X150995265Y-74945790D01*
X150979845Y-74909442D01*
X150978236Y-74909931D01*
X150976465Y-74904094D01*
X150919896Y-74767523D01*
X150919889Y-74767510D01*
X150837760Y-74644596D01*
X150837757Y-74644592D01*
X150733228Y-74540063D01*
X150733224Y-74540060D01*
X150610310Y-74457931D01*
X150610297Y-74457924D01*
X150473726Y-74401355D01*
X150473716Y-74401352D01*
X150328729Y-74372512D01*
X150328727Y-74372512D01*
X150180891Y-74372512D01*
X150180889Y-74372512D01*
X150035901Y-74401352D01*
X150035891Y-74401355D01*
X149899320Y-74457924D01*
X149899307Y-74457931D01*
X149776393Y-74540060D01*
X149776389Y-74540063D01*
X149671860Y-74644592D01*
X149671857Y-74644596D01*
X149589728Y-74767510D01*
X149589721Y-74767523D01*
X149533152Y-74904094D01*
X149533149Y-74904104D01*
X149504309Y-75049091D01*
X149504309Y-75049094D01*
X149504309Y-75196930D01*
X149504309Y-75196932D01*
X149504308Y-75196932D01*
X147300500Y-75196932D01*
X147300500Y-75171158D01*
X147300500Y-75171155D01*
X147300499Y-75171153D01*
X147279821Y-75067193D01*
X147272248Y-75029128D01*
X147269737Y-75016503D01*
X147256062Y-74983489D01*
X147209397Y-74870827D01*
X147209390Y-74870814D01*
X147121789Y-74739711D01*
X147121786Y-74739707D01*
X147010292Y-74628213D01*
X147010288Y-74628210D01*
X146879185Y-74540609D01*
X146879172Y-74540602D01*
X146733501Y-74480264D01*
X146733489Y-74480261D01*
X146578845Y-74449500D01*
X146578842Y-74449500D01*
X146421158Y-74449500D01*
X146421155Y-74449500D01*
X146266510Y-74480261D01*
X146266498Y-74480264D01*
X146120827Y-74540602D01*
X146120814Y-74540609D01*
X145989711Y-74628210D01*
X145989707Y-74628213D01*
X145878213Y-74739707D01*
X145878210Y-74739711D01*
X145790609Y-74870814D01*
X145790602Y-74870827D01*
X145730264Y-75016498D01*
X145730261Y-75016510D01*
X145699500Y-75171153D01*
X140931348Y-75171153D01*
X140959394Y-75129179D01*
X141019737Y-74983497D01*
X141050500Y-74828842D01*
X141050500Y-74671158D01*
X141050500Y-74671155D01*
X141050499Y-74671153D01*
X141024531Y-74540606D01*
X141019737Y-74516503D01*
X141019735Y-74516498D01*
X140959397Y-74370827D01*
X140959390Y-74370814D01*
X140871789Y-74239711D01*
X140871786Y-74239707D01*
X140760292Y-74128213D01*
X140760288Y-74128210D01*
X140629185Y-74040609D01*
X140629172Y-74040602D01*
X140483501Y-73980264D01*
X140483489Y-73980261D01*
X140328845Y-73949500D01*
X140328842Y-73949500D01*
X140171158Y-73949500D01*
X140171153Y-73949500D01*
X140105431Y-73962573D01*
X140035839Y-73956346D01*
X139980662Y-73913482D01*
X139966679Y-73888409D01*
X139959795Y-73871789D01*
X139959394Y-73870821D01*
X139959393Y-73870819D01*
X139959392Y-73870817D01*
X139871789Y-73739711D01*
X139871786Y-73739707D01*
X139760292Y-73628213D01*
X139760288Y-73628210D01*
X139643998Y-73550507D01*
X139599193Y-73496895D01*
X139590486Y-73427570D01*
X139620641Y-73364542D01*
X139680084Y-73327823D01*
X139732284Y-73324932D01*
X139893713Y-73350500D01*
X139893714Y-73350500D01*
X140106286Y-73350500D01*
X140106287Y-73350500D01*
X140316243Y-73317246D01*
X140518412Y-73251557D01*
X140676214Y-73171153D01*
X146949500Y-73171153D01*
X146949500Y-73328846D01*
X146980261Y-73483489D01*
X146980264Y-73483501D01*
X147040602Y-73629172D01*
X147040609Y-73629185D01*
X147128210Y-73760288D01*
X147128213Y-73760292D01*
X147239707Y-73871786D01*
X147239711Y-73871789D01*
X147370814Y-73959390D01*
X147370827Y-73959397D01*
X147508683Y-74016498D01*
X147516503Y-74019737D01*
X147671153Y-74050499D01*
X147671156Y-74050500D01*
X147671158Y-74050500D01*
X147828844Y-74050500D01*
X147828845Y-74050499D01*
X147983497Y-74019737D01*
X148129179Y-73959394D01*
X148260289Y-73871789D01*
X148371789Y-73760289D01*
X148459394Y-73629179D01*
X148519737Y-73483497D01*
X148550500Y-73328842D01*
X148550500Y-73171158D01*
X148550500Y-73171155D01*
X148550499Y-73171153D01*
X148547296Y-73155050D01*
X148519737Y-73016503D01*
X148505648Y-72982488D01*
X148481389Y-72923920D01*
X149749499Y-72923920D01*
X149778340Y-73068907D01*
X149778343Y-73068917D01*
X149834912Y-73205488D01*
X149834919Y-73205501D01*
X149917048Y-73328415D01*
X149917051Y-73328419D01*
X150021580Y-73432948D01*
X150021584Y-73432951D01*
X150144498Y-73515080D01*
X150144511Y-73515087D01*
X150281082Y-73571656D01*
X150281087Y-73571658D01*
X150281091Y-73571658D01*
X150281092Y-73571659D01*
X150426079Y-73600500D01*
X150426082Y-73600500D01*
X150573920Y-73600500D01*
X150671462Y-73581096D01*
X150718913Y-73571658D01*
X150846683Y-73518734D01*
X150855488Y-73515087D01*
X150855488Y-73515086D01*
X150855495Y-73515084D01*
X150978416Y-73432951D01*
X151074803Y-73336563D01*
X151136124Y-73303079D01*
X151165066Y-73301401D01*
X151165066Y-73300500D01*
X151328844Y-73300500D01*
X151328845Y-73300499D01*
X151483497Y-73269737D01*
X151629179Y-73209394D01*
X151760289Y-73121789D01*
X151871789Y-73010289D01*
X151959394Y-72879179D01*
X151962854Y-72870827D01*
X152008638Y-72760292D01*
X152019737Y-72733497D01*
X152050500Y-72578842D01*
X152050500Y-72574837D01*
X152051093Y-72572814D01*
X152051097Y-72572782D01*
X152051103Y-72572782D01*
X152070185Y-72507798D01*
X152110968Y-72468349D01*
X152118708Y-72463730D01*
X152129179Y-72459394D01*
X152155864Y-72441563D01*
X152158582Y-72439942D01*
X152189464Y-72431980D01*
X152219900Y-72422450D01*
X152223063Y-72423317D01*
X152226239Y-72422499D01*
X152256517Y-72432495D01*
X152287280Y-72440934D01*
X152289472Y-72443374D01*
X152292587Y-72444403D01*
X152312657Y-72469185D01*
X152333971Y-72492913D01*
X152336540Y-72498675D01*
X152336560Y-72498700D01*
X152336562Y-72498726D01*
X152336675Y-72498978D01*
X152390602Y-72629172D01*
X152390609Y-72629185D01*
X152478210Y-72760288D01*
X152478213Y-72760292D01*
X152589707Y-72871786D01*
X152589711Y-72871789D01*
X152720814Y-72959390D01*
X152720827Y-72959397D01*
X152858683Y-73016498D01*
X152866503Y-73019737D01*
X153021153Y-73050499D01*
X153021156Y-73050500D01*
X153021158Y-73050500D01*
X153178844Y-73050500D01*
X153178845Y-73050499D01*
X153333497Y-73019737D01*
X153479179Y-72959394D01*
X153610289Y-72871789D01*
X153721789Y-72760289D01*
X153759490Y-72703864D01*
X153813101Y-72659061D01*
X153882426Y-72650353D01*
X153945454Y-72680507D01*
X153976088Y-72728633D01*
X153977932Y-72727870D01*
X154040602Y-72879172D01*
X154040609Y-72879185D01*
X154128210Y-73010288D01*
X154128213Y-73010292D01*
X154239707Y-73121786D01*
X154239711Y-73121789D01*
X154370814Y-73209390D01*
X154370827Y-73209397D01*
X154491284Y-73259291D01*
X154516503Y-73269737D01*
X154609760Y-73288287D01*
X154671153Y-73300499D01*
X154671156Y-73300500D01*
X154671158Y-73300500D01*
X154828844Y-73300500D01*
X154828845Y-73300499D01*
X154983497Y-73269737D01*
X155129179Y-73209394D01*
X155260289Y-73121789D01*
X155371789Y-73010289D01*
X155459394Y-72879179D01*
X155462854Y-72870827D01*
X155508638Y-72760292D01*
X155519737Y-72733497D01*
X155525631Y-72703866D01*
X155532338Y-72670152D01*
X161360431Y-72670152D01*
X161360431Y-72827845D01*
X161391192Y-72982488D01*
X161391195Y-72982500D01*
X161451533Y-73128171D01*
X161451540Y-73128184D01*
X161539141Y-73259287D01*
X161539144Y-73259291D01*
X161650638Y-73370785D01*
X161650642Y-73370788D01*
X161781745Y-73458389D01*
X161781758Y-73458396D01*
X161918617Y-73515084D01*
X161927434Y-73518736D01*
X162082084Y-73549498D01*
X162082087Y-73549499D01*
X162082089Y-73549499D01*
X162239775Y-73549499D01*
X162239776Y-73549498D01*
X162394428Y-73518736D01*
X162540110Y-73458393D01*
X162671220Y-73370788D01*
X162782720Y-73259288D01*
X162841610Y-73171153D01*
X167699500Y-73171153D01*
X167699500Y-73328846D01*
X167730261Y-73483489D01*
X167730264Y-73483501D01*
X167790602Y-73629172D01*
X167790609Y-73629185D01*
X167878210Y-73760288D01*
X167878213Y-73760292D01*
X167989707Y-73871786D01*
X167989711Y-73871789D01*
X168120814Y-73959390D01*
X168120827Y-73959397D01*
X168258683Y-74016498D01*
X168266503Y-74019737D01*
X168421153Y-74050499D01*
X168421156Y-74050500D01*
X168421158Y-74050500D01*
X168425162Y-74050500D01*
X168427183Y-74051093D01*
X168427218Y-74051097D01*
X168427217Y-74051103D01*
X168492201Y-74070185D01*
X168537956Y-74122989D01*
X168539715Y-74127029D01*
X168540606Y-74129179D01*
X168540607Y-74129180D01*
X168540609Y-74129185D01*
X168628210Y-74260288D01*
X168628213Y-74260292D01*
X168739707Y-74371786D01*
X168739711Y-74371789D01*
X168870814Y-74459390D01*
X168870827Y-74459397D01*
X168944013Y-74489711D01*
X169016503Y-74519737D01*
X169171153Y-74550499D01*
X169171156Y-74550500D01*
X169171158Y-74550500D01*
X169328844Y-74550500D01*
X169328845Y-74550499D01*
X169483497Y-74519737D01*
X169629179Y-74459394D01*
X169760289Y-74371789D01*
X169871789Y-74260289D01*
X169959394Y-74129179D01*
X169960276Y-74127051D01*
X169991984Y-74050499D01*
X170019737Y-73983497D01*
X170050500Y-73828842D01*
X170050500Y-73671158D01*
X170050500Y-73671155D01*
X170050499Y-73671153D01*
X170030708Y-73571658D01*
X170019737Y-73516503D01*
X170019735Y-73516498D01*
X169959397Y-73370827D01*
X169959390Y-73370814D01*
X169871789Y-73239711D01*
X169871786Y-73239707D01*
X169760292Y-73128213D01*
X169760288Y-73128210D01*
X169629185Y-73040609D01*
X169629172Y-73040602D01*
X169483501Y-72980264D01*
X169483489Y-72980261D01*
X169328845Y-72949500D01*
X169328842Y-72949500D01*
X169324838Y-72949500D01*
X169322816Y-72948906D01*
X169322782Y-72948903D01*
X169322782Y-72948896D01*
X169257799Y-72929815D01*
X169212044Y-72877011D01*
X169210275Y-72872949D01*
X169209394Y-72870821D01*
X169209391Y-72870816D01*
X169209390Y-72870814D01*
X169121789Y-72739711D01*
X169121786Y-72739707D01*
X169010292Y-72628213D01*
X169010288Y-72628210D01*
X168879185Y-72540609D01*
X168879172Y-72540602D01*
X168733501Y-72480264D01*
X168733489Y-72480261D01*
X168578845Y-72449500D01*
X168578842Y-72449500D01*
X168421158Y-72449500D01*
X168421155Y-72449500D01*
X168266510Y-72480261D01*
X168266498Y-72480264D01*
X168120827Y-72540602D01*
X168120814Y-72540609D01*
X167989711Y-72628210D01*
X167989707Y-72628213D01*
X167878213Y-72739707D01*
X167878210Y-72739711D01*
X167790609Y-72870814D01*
X167790602Y-72870827D01*
X167730264Y-73016498D01*
X167730261Y-73016510D01*
X167699500Y-73171153D01*
X162841610Y-73171153D01*
X162870325Y-73128178D01*
X162930668Y-72982496D01*
X162961431Y-72827841D01*
X162961431Y-72670157D01*
X162961431Y-72670154D01*
X162961430Y-72670152D01*
X162953280Y-72629179D01*
X162930668Y-72515502D01*
X162923719Y-72498726D01*
X162870328Y-72369826D01*
X162870321Y-72369813D01*
X162782720Y-72238710D01*
X162782717Y-72238706D01*
X162671223Y-72127212D01*
X162671219Y-72127209D01*
X162540116Y-72039608D01*
X162540103Y-72039601D01*
X162452708Y-72003402D01*
X162394428Y-71979262D01*
X162394420Y-71979260D01*
X162239776Y-71948499D01*
X162239773Y-71948499D01*
X162082089Y-71948499D01*
X162082086Y-71948499D01*
X161927441Y-71979260D01*
X161927429Y-71979263D01*
X161781758Y-72039601D01*
X161781745Y-72039608D01*
X161650642Y-72127209D01*
X161650638Y-72127212D01*
X161539144Y-72238706D01*
X161539141Y-72238710D01*
X161451540Y-72369813D01*
X161451533Y-72369826D01*
X161391195Y-72515497D01*
X161391192Y-72515509D01*
X161360431Y-72670152D01*
X155532338Y-72670152D01*
X155538361Y-72639873D01*
X155538361Y-72639872D01*
X155550499Y-72578846D01*
X155550500Y-72578844D01*
X155550500Y-72421155D01*
X155550499Y-72421153D01*
X155519846Y-72267051D01*
X155519737Y-72266503D01*
X155462510Y-72128343D01*
X155459397Y-72120827D01*
X155459390Y-72120814D01*
X155371789Y-71989711D01*
X155371786Y-71989707D01*
X155260292Y-71878213D01*
X155260288Y-71878210D01*
X155129185Y-71790609D01*
X155129172Y-71790602D01*
X154983501Y-71730264D01*
X154983489Y-71730261D01*
X154828845Y-71699500D01*
X154828842Y-71699500D01*
X154671158Y-71699500D01*
X154671155Y-71699500D01*
X154516510Y-71730261D01*
X154516498Y-71730264D01*
X154370827Y-71790602D01*
X154370814Y-71790609D01*
X154239711Y-71878210D01*
X154239707Y-71878213D01*
X154128213Y-71989707D01*
X154128208Y-71989713D01*
X154090508Y-72046135D01*
X154036896Y-72090939D01*
X153967571Y-72099646D01*
X153904543Y-72069491D01*
X153873917Y-72021363D01*
X153872068Y-72022130D01*
X153809397Y-71870827D01*
X153809390Y-71870814D01*
X153721789Y-71739711D01*
X153721786Y-71739707D01*
X153610292Y-71628213D01*
X153610288Y-71628210D01*
X153479185Y-71540609D01*
X153479175Y-71540604D01*
X153329373Y-71478554D01*
X153319040Y-71470227D01*
X153306437Y-71466078D01*
X153292363Y-71448729D01*
X153274970Y-71434713D01*
X153269796Y-71420910D01*
X153262420Y-71411818D01*
X153257851Y-71389044D01*
X153253580Y-71377649D01*
X153252826Y-71370844D01*
X153252826Y-71288088D01*
X153229566Y-71171153D01*
X156699500Y-71171153D01*
X156699500Y-71328846D01*
X156730261Y-71483489D01*
X156730264Y-71483501D01*
X156790602Y-71629172D01*
X156790609Y-71629185D01*
X156878210Y-71760288D01*
X156878213Y-71760292D01*
X156989707Y-71871786D01*
X156989711Y-71871789D01*
X157120814Y-71959390D01*
X157120827Y-71959397D01*
X157258695Y-72016503D01*
X157266503Y-72019737D01*
X157399214Y-72046135D01*
X157421153Y-72050499D01*
X157421156Y-72050500D01*
X157421158Y-72050500D01*
X157578844Y-72050500D01*
X157578845Y-72050499D01*
X157733497Y-72019737D01*
X157879179Y-71959394D01*
X157977477Y-71893713D01*
X171149500Y-71893713D01*
X171149500Y-72106286D01*
X171174962Y-72267051D01*
X171182754Y-72316243D01*
X171247497Y-72515502D01*
X171248444Y-72518414D01*
X171344951Y-72707820D01*
X171469890Y-72879786D01*
X171620213Y-73030109D01*
X171792179Y-73155048D01*
X171792181Y-73155049D01*
X171792184Y-73155051D01*
X171981588Y-73251557D01*
X172183757Y-73317246D01*
X172393713Y-73350500D01*
X172393714Y-73350500D01*
X172606286Y-73350500D01*
X172606287Y-73350500D01*
X172816243Y-73317246D01*
X173018412Y-73251557D01*
X173207816Y-73155051D01*
X173259343Y-73117615D01*
X173379786Y-73030109D01*
X173379788Y-73030106D01*
X173379792Y-73030104D01*
X173530104Y-72879792D01*
X173530106Y-72879788D01*
X173530109Y-72879786D01*
X173655048Y-72707820D01*
X173655047Y-72707820D01*
X173655051Y-72707816D01*
X173751557Y-72518412D01*
X173817246Y-72316243D01*
X173850500Y-72106287D01*
X173850500Y-71893713D01*
X173817246Y-71683757D01*
X173751557Y-71481588D01*
X173655051Y-71292184D01*
X173655049Y-71292181D01*
X173655048Y-71292179D01*
X173530109Y-71120213D01*
X173379786Y-70969890D01*
X173207820Y-70844951D01*
X173018414Y-70748444D01*
X173018413Y-70748443D01*
X173018412Y-70748443D01*
X172816243Y-70682754D01*
X172816241Y-70682753D01*
X172816240Y-70682753D01*
X172654957Y-70657208D01*
X172606287Y-70649500D01*
X172393713Y-70649500D01*
X172345042Y-70657208D01*
X172183760Y-70682753D01*
X172183757Y-70682754D01*
X171991751Y-70745141D01*
X171981585Y-70748444D01*
X171792179Y-70844951D01*
X171620213Y-70969890D01*
X171469890Y-71120213D01*
X171344951Y-71292179D01*
X171248444Y-71481585D01*
X171182753Y-71683760D01*
X171149500Y-71893713D01*
X157977477Y-71893713D01*
X158010289Y-71871789D01*
X158121789Y-71760289D01*
X158209394Y-71629179D01*
X158269737Y-71483497D01*
X158300500Y-71328842D01*
X158300500Y-71171158D01*
X158300500Y-71171155D01*
X158300499Y-71171153D01*
X158274531Y-71040606D01*
X158269737Y-71016503D01*
X158257825Y-70987744D01*
X158209397Y-70870827D01*
X158209390Y-70870814D01*
X158121789Y-70739711D01*
X158121786Y-70739707D01*
X158010292Y-70628213D01*
X158010288Y-70628210D01*
X157879185Y-70540609D01*
X157879172Y-70540602D01*
X157733501Y-70480264D01*
X157733489Y-70480261D01*
X157578845Y-70449500D01*
X157578842Y-70449500D01*
X157421158Y-70449500D01*
X157421155Y-70449500D01*
X157266510Y-70480261D01*
X157266498Y-70480264D01*
X157120827Y-70540602D01*
X157120814Y-70540609D01*
X156989711Y-70628210D01*
X156989707Y-70628213D01*
X156878213Y-70739707D01*
X156878210Y-70739711D01*
X156790609Y-70870814D01*
X156790602Y-70870827D01*
X156730264Y-71016498D01*
X156730261Y-71016510D01*
X156699500Y-71171153D01*
X153229566Y-71171153D01*
X153222063Y-71133433D01*
X153216585Y-71120208D01*
X153161723Y-70987757D01*
X153161716Y-70987744D01*
X153074115Y-70856641D01*
X153074112Y-70856637D01*
X152962618Y-70745143D01*
X152962614Y-70745140D01*
X152831511Y-70657539D01*
X152831498Y-70657532D01*
X152685827Y-70597194D01*
X152685815Y-70597191D01*
X152531171Y-70566430D01*
X152531168Y-70566430D01*
X152373484Y-70566430D01*
X152373481Y-70566430D01*
X152218836Y-70597191D01*
X152218824Y-70597194D01*
X152073153Y-70657532D01*
X152073140Y-70657539D01*
X151942037Y-70745140D01*
X151942033Y-70745143D01*
X151830539Y-70856637D01*
X151830535Y-70856642D01*
X151805315Y-70894389D01*
X151751704Y-70939195D01*
X151702212Y-70949500D01*
X151671155Y-70949500D01*
X151516510Y-70980261D01*
X151516498Y-70980264D01*
X151370827Y-71040602D01*
X151370814Y-71040609D01*
X151239711Y-71128210D01*
X151239707Y-71128213D01*
X151128213Y-71239707D01*
X151128210Y-71239711D01*
X151040609Y-71370814D01*
X151040602Y-71370827D01*
X150980264Y-71516498D01*
X150980261Y-71516510D01*
X150949500Y-71671153D01*
X150949500Y-71675161D01*
X150948906Y-71677182D01*
X150948903Y-71677218D01*
X150948896Y-71677217D01*
X150929815Y-71742200D01*
X150877011Y-71787955D01*
X150872962Y-71789718D01*
X150870830Y-71790601D01*
X150870814Y-71790609D01*
X150739711Y-71878210D01*
X150739707Y-71878213D01*
X150628213Y-71989707D01*
X150628207Y-71989715D01*
X150591675Y-72044390D01*
X150538063Y-72089196D01*
X150488573Y-72099500D01*
X150426080Y-72099500D01*
X150281092Y-72128340D01*
X150281082Y-72128343D01*
X150144511Y-72184912D01*
X150144498Y-72184919D01*
X150021584Y-72267048D01*
X150021580Y-72267051D01*
X149917051Y-72371580D01*
X149917048Y-72371584D01*
X149834919Y-72494498D01*
X149834912Y-72494511D01*
X149778343Y-72631082D01*
X149778340Y-72631092D01*
X149749500Y-72776079D01*
X149749500Y-72776082D01*
X149749500Y-72923918D01*
X149749500Y-72923920D01*
X149749499Y-72923920D01*
X148481389Y-72923920D01*
X148459397Y-72870827D01*
X148459390Y-72870814D01*
X148438053Y-72838881D01*
X148371789Y-72739711D01*
X148371786Y-72739707D01*
X148260292Y-72628213D01*
X148260288Y-72628210D01*
X148129185Y-72540609D01*
X148129172Y-72540602D01*
X147983501Y-72480264D01*
X147983489Y-72480261D01*
X147828845Y-72449500D01*
X147828842Y-72449500D01*
X147671158Y-72449500D01*
X147671155Y-72449500D01*
X147516510Y-72480261D01*
X147516498Y-72480264D01*
X147370827Y-72540602D01*
X147370814Y-72540609D01*
X147239711Y-72628210D01*
X147239707Y-72628213D01*
X147128213Y-72739707D01*
X147128210Y-72739711D01*
X147040609Y-72870814D01*
X147040602Y-72870827D01*
X146980264Y-73016498D01*
X146980261Y-73016510D01*
X146949500Y-73171153D01*
X140676214Y-73171153D01*
X140707816Y-73155051D01*
X140832110Y-73064747D01*
X140832112Y-73064746D01*
X140879785Y-73030109D01*
X140879783Y-73030109D01*
X140879792Y-73030104D01*
X141030104Y-72879792D01*
X141030106Y-72879788D01*
X141030109Y-72879786D01*
X141155048Y-72707820D01*
X141155047Y-72707820D01*
X141155051Y-72707816D01*
X141251557Y-72518412D01*
X141317246Y-72316243D01*
X141350500Y-72106287D01*
X141350500Y-71893713D01*
X141317246Y-71683757D01*
X141251557Y-71481588D01*
X141155051Y-71292184D01*
X141155049Y-71292181D01*
X141155048Y-71292179D01*
X141030109Y-71120213D01*
X140879786Y-70969890D01*
X140707820Y-70844951D01*
X140518414Y-70748444D01*
X140518413Y-70748443D01*
X140518412Y-70748443D01*
X140316243Y-70682754D01*
X140316241Y-70682753D01*
X140316240Y-70682753D01*
X140154957Y-70657208D01*
X140106287Y-70649500D01*
X139893713Y-70649500D01*
X139845042Y-70657208D01*
X139683760Y-70682753D01*
X139683757Y-70682754D01*
X139491751Y-70745141D01*
X139481585Y-70748444D01*
X139292179Y-70844951D01*
X139120213Y-70969890D01*
X138969890Y-71120213D01*
X138844951Y-71292179D01*
X138748444Y-71481585D01*
X138682753Y-71683760D01*
X138649500Y-71893713D01*
X138649500Y-72106286D01*
X138674962Y-72267051D01*
X138682754Y-72316243D01*
X138747497Y-72515502D01*
X138748444Y-72518414D01*
X138844951Y-72707820D01*
X138969890Y-72879786D01*
X139120213Y-73030109D01*
X139292182Y-73155050D01*
X139292184Y-73155051D01*
X139417886Y-73219099D01*
X139468683Y-73267073D01*
X139485478Y-73334894D01*
X139462941Y-73401029D01*
X139408226Y-73444481D01*
X139338705Y-73451454D01*
X139337407Y-73451203D01*
X139328843Y-73449500D01*
X139328842Y-73449500D01*
X139171158Y-73449500D01*
X139171155Y-73449500D01*
X139016510Y-73480261D01*
X139016498Y-73480264D01*
X138870827Y-73540602D01*
X138870814Y-73540609D01*
X138739711Y-73628210D01*
X138739707Y-73628213D01*
X138628213Y-73739707D01*
X138628210Y-73739711D01*
X138540609Y-73870814D01*
X138540602Y-73870827D01*
X138480264Y-74016498D01*
X138480261Y-74016510D01*
X138449500Y-74171153D01*
X138000500Y-74171153D01*
X138000500Y-70124500D01*
X138020185Y-70057461D01*
X138072989Y-70011706D01*
X138124500Y-70000500D01*
X174375500Y-70000500D01*
X174442539Y-70020185D01*
G37*
%TD.AperFunction*%
%TD*%
M02*
