%TF.GenerationSoftware,KiCad,Pcbnew,9.0.7*%
%TF.CreationDate,2026-01-30T01:35:17+02:00*%
%TF.ProjectId,HM-Collector-Rev2,484d2d43-6f6c-46c6-9563-746f722d5265,rev?*%
%TF.SameCoordinates,Original*%
%TF.FileFunction,Legend,Top*%
%TF.FilePolarity,Positive*%
%FSLAX46Y46*%
G04 Gerber Fmt 4.6, Leading zero omitted, Abs format (unit mm)*
G04 Created by KiCad (PCBNEW 9.0.7) date 2026-01-30 01:35:17*
%MOMM*%
%LPD*%
G01*
G04 APERTURE LIST*
G04 Aperture macros list*
%AMRoundRect*
0 Rectangle with rounded corners*
0 $1 Rounding radius*
0 $2 $3 $4 $5 $6 $7 $8 $9 X,Y pos of 4 corners*
0 Add a 4 corners polygon primitive as box body*
4,1,4,$2,$3,$4,$5,$6,$7,$8,$9,$2,$3,0*
0 Add four circle primitives for the rounded corners*
1,1,$1+$1,$2,$3*
1,1,$1+$1,$4,$5*
1,1,$1+$1,$6,$7*
1,1,$1+$1,$8,$9*
0 Add four rect primitives between the rounded corners*
20,1,$1+$1,$2,$3,$4,$5,0*
20,1,$1+$1,$4,$5,$6,$7,0*
20,1,$1+$1,$6,$7,$8,$9,0*
20,1,$1+$1,$8,$9,$2,$3,0*%
G04 Aperture macros list end*
%ADD10C,0.150000*%
%ADD11C,0.120000*%
%ADD12C,0.000000*%
%ADD13C,0.152400*%
%ADD14C,0.200000*%
%ADD15C,0.100000*%
%ADD16C,0.250000*%
%ADD17RoundRect,0.218750X-0.218750X-0.256250X0.218750X-0.256250X0.218750X0.256250X-0.218750X0.256250X0*%
%ADD18R,0.575000X0.350000*%
%ADD19R,0.350000X0.575000*%
%ADD20R,2.750000X1.500000*%
%ADD21R,2.950000X1.500000*%
%ADD22R,2.550000X1.500000*%
%ADD23C,1.500000*%
%ADD24R,0.850000X0.300000*%
%ADD25R,0.300000X0.850000*%
%ADD26R,2.650000X2.650000*%
%ADD27RoundRect,0.218750X0.256250X-0.218750X0.256250X0.218750X-0.256250X0.218750X-0.256250X-0.218750X0*%
%ADD28RoundRect,0.200000X0.200000X0.275000X-0.200000X0.275000X-0.200000X-0.275000X0.200000X-0.275000X0*%
%ADD29C,2.200000*%
%ADD30RoundRect,0.140000X0.170000X-0.140000X0.170000X0.140000X-0.170000X0.140000X-0.170000X-0.140000X0*%
%ADD31RoundRect,0.225000X-0.225000X-0.250000X0.225000X-0.250000X0.225000X0.250000X-0.225000X0.250000X0*%
%ADD32RoundRect,0.200000X-0.200000X-0.275000X0.200000X-0.275000X0.200000X0.275000X-0.200000X0.275000X0*%
%ADD33RoundRect,0.225000X0.225000X0.250000X-0.225000X0.250000X-0.225000X-0.250000X0.225000X-0.250000X0*%
%ADD34RoundRect,0.200000X-0.275000X0.200000X-0.275000X-0.200000X0.275000X-0.200000X0.275000X0.200000X0*%
%ADD35RoundRect,0.225000X-0.335876X-0.017678X-0.017678X-0.335876X0.335876X0.017678X0.017678X0.335876X0*%
%ADD36RoundRect,0.250000X0.475000X-0.250000X0.475000X0.250000X-0.475000X0.250000X-0.475000X-0.250000X0*%
%ADD37RoundRect,0.250000X-0.250000X-0.475000X0.250000X-0.475000X0.250000X0.475000X-0.250000X0.475000X0*%
%ADD38C,0.650000*%
%ADD39RoundRect,0.150000X-0.150000X-0.425000X0.150000X-0.425000X0.150000X0.425000X-0.150000X0.425000X0*%
%ADD40RoundRect,0.075000X-0.075000X-0.500000X0.075000X-0.500000X0.075000X0.500000X-0.075000X0.500000X0*%
%ADD41O,1.000000X2.100000*%
%ADD42O,1.000000X1.800000*%
%ADD43RoundRect,0.140000X-0.170000X0.140000X-0.170000X-0.140000X0.170000X-0.140000X0.170000X0.140000X0*%
%ADD44RoundRect,0.200000X0.275000X-0.200000X0.275000X0.200000X-0.275000X0.200000X-0.275000X-0.200000X0*%
%ADD45R,1.700000X1.700000*%
%ADD46C,1.700000*%
%ADD47RoundRect,0.140000X0.140000X0.170000X-0.140000X0.170000X-0.140000X-0.170000X0.140000X-0.170000X0*%
%ADD48RoundRect,0.140000X-0.140000X-0.170000X0.140000X-0.170000X0.140000X0.170000X-0.140000X0.170000X0*%
%ADD49RoundRect,0.250000X-0.350000X0.450000X-0.350000X-0.450000X0.350000X-0.450000X0.350000X0.450000X0*%
%ADD50RoundRect,0.225000X0.250000X-0.225000X0.250000X0.225000X-0.250000X0.225000X-0.250000X-0.225000X0*%
%ADD51RoundRect,0.075000X-0.700000X-0.075000X0.700000X-0.075000X0.700000X0.075000X-0.700000X0.075000X0*%
%ADD52RoundRect,0.075000X-0.075000X-0.700000X0.075000X-0.700000X0.075000X0.700000X-0.075000X0.700000X0*%
%ADD53RoundRect,0.225000X-0.250000X0.225000X-0.250000X-0.225000X0.250000X-0.225000X0.250000X0.225000X0*%
%ADD54R,1.000000X1.800000*%
G04 APERTURE END LIST*
D10*
X151325000Y-87053119D02*
X151325000Y-87291214D01*
X151086905Y-87195976D02*
X151325000Y-87291214D01*
X151325000Y-87291214D02*
X151563095Y-87195976D01*
X151182143Y-87481690D02*
X151325000Y-87291214D01*
X151325000Y-87291214D02*
X151467857Y-87481690D01*
X151325000Y-87053119D02*
X151325000Y-87291214D01*
X151086905Y-87195976D02*
X151325000Y-87291214D01*
X151325000Y-87291214D02*
X151563095Y-87195976D01*
X151182143Y-87481690D02*
X151325000Y-87291214D01*
X151325000Y-87291214D02*
X151467857Y-87481690D01*
D11*
%TO.C,D6*%
X141012500Y-79265000D02*
X138727500Y-79265000D01*
X138727500Y-80735000D02*
X141012500Y-80735000D01*
X138727500Y-79265000D02*
X138727500Y-80735000D01*
D12*
%TO.C,U2*%
G36*
X155262000Y-88538801D02*
G01*
X155008000Y-88538801D01*
X155008000Y-88157800D01*
X155262000Y-88157800D01*
X155262000Y-88538801D01*
G37*
D13*
X151731400Y-89969900D02*
X152403710Y-89969900D01*
X154310290Y-89969900D02*
X154982600Y-89969900D01*
X154982600Y-87226700D02*
X154310290Y-87226700D01*
X152403710Y-87226700D02*
X151731400Y-87226700D01*
D14*
%TO.C,J2*%
X161475000Y-98000000D02*
X159875000Y-98000000D01*
X159875000Y-98000000D02*
X159875000Y-100500000D01*
X159875000Y-100500000D02*
X165075000Y-100500000D01*
X165075000Y-100500000D02*
X165075000Y-97960000D01*
X165075000Y-97960000D02*
X161475000Y-98000000D01*
X165075000Y-97960000D02*
X165475000Y-97960000D01*
X165475000Y-97960000D02*
X165475000Y-97100000D01*
X165475000Y-94900000D02*
X165475000Y-90300000D01*
X165475000Y-88100000D02*
X165475000Y-86500000D01*
X165475000Y-86500000D02*
X160675000Y-86500000D01*
X159475000Y-88500000D02*
X159475000Y-92100000D01*
X159875000Y-98000000D02*
X159475000Y-98000000D01*
X159475000Y-98000000D02*
X159475000Y-94300000D01*
X167725000Y-96000000D02*
X167725000Y-96000000D01*
D15*
X167725000Y-96000000D02*
X167725000Y-96000000D01*
X167625000Y-96000000D02*
X167625000Y-96000000D01*
X167625000Y-96000000D02*
G75*
G02*
X167725000Y-96000000I50000J0D01*
G01*
X167725000Y-96000000D02*
G75*
G02*
X167625000Y-96000000I-50000J0D01*
G01*
D16*
%TO.C,IC2*%
X165250000Y-80000000D02*
G75*
G02*
X165000000Y-80000000I-125000J0D01*
G01*
X165000000Y-80000000D02*
G75*
G02*
X165250000Y-80000000I125000J0D01*
G01*
D11*
%TO.C,D7*%
X141765000Y-91220000D02*
X143235000Y-91220000D01*
X143235000Y-91220000D02*
X143235000Y-88935000D01*
X141765000Y-88935000D02*
X141765000Y-91220000D01*
%TO.C,D5*%
X138727500Y-77765000D02*
X138727500Y-79235000D01*
X138727500Y-79235000D02*
X141012500Y-79235000D01*
X141012500Y-77765000D02*
X138727500Y-77765000D01*
%TO.C,D4*%
X138727500Y-76265000D02*
X138727500Y-77735000D01*
X138727500Y-77735000D02*
X141012500Y-77735000D01*
X141012500Y-76265000D02*
X138727500Y-76265000D01*
%TO.C,D3*%
X138727500Y-74765000D02*
X138727500Y-76235000D01*
X138727500Y-76235000D02*
X141012500Y-76235000D01*
X141012500Y-74765000D02*
X138727500Y-74765000D01*
%TO.C,R32*%
X145412258Y-89772500D02*
X144937742Y-89772500D01*
X145412258Y-88727500D02*
X144937742Y-88727500D01*
%TO.C,C19*%
X144390000Y-76437836D02*
X144390000Y-76222164D01*
X145110000Y-76437836D02*
X145110000Y-76222164D01*
%TO.C,C30*%
X153441420Y-90490000D02*
X153722580Y-90490000D01*
X153441420Y-91510000D02*
X153722580Y-91510000D01*
%TO.C,R9*%
X167937742Y-82727500D02*
X168412258Y-82727500D01*
X167937742Y-83772500D02*
X168412258Y-83772500D01*
%TO.C,C27*%
X160615580Y-71240000D02*
X160334420Y-71240000D01*
X160615580Y-72260000D02*
X160334420Y-72260000D01*
%TO.C,R12*%
X165477500Y-72587742D02*
X165477500Y-73062258D01*
X166522500Y-72587742D02*
X166522500Y-73062258D01*
%TO.C,C8*%
X157491962Y-73713211D02*
X157690773Y-73912022D01*
X158213211Y-72991962D02*
X158412022Y-73190773D01*
%TO.C,R11*%
X166977500Y-72587742D02*
X166977500Y-73062258D01*
X168022500Y-72587742D02*
X168022500Y-73062258D01*
%TO.C,C24*%
X165765000Y-80961252D02*
X165765000Y-80438748D01*
X167235000Y-80961252D02*
X167235000Y-80438748D01*
%TO.C,C28*%
X168438748Y-74765000D02*
X168961252Y-74765000D01*
X168438748Y-76235000D02*
X168961252Y-76235000D01*
%TO.C,J3*%
X155920000Y-96400000D02*
X155920000Y-94700000D01*
X146580000Y-96400000D02*
X146580000Y-94700000D01*
%TO.C,C18*%
X143390000Y-76222164D02*
X143390000Y-76437836D01*
X144110000Y-76222164D02*
X144110000Y-76437836D01*
%TO.C,R13*%
X163977500Y-73062258D02*
X163977500Y-72587742D01*
X165022500Y-73062258D02*
X165022500Y-72587742D01*
%TO.C,J1*%
X173442358Y-89760000D02*
X173755000Y-89760000D01*
X182515000Y-89760000D02*
X176515000Y-89760000D01*
X173442358Y-88900000D02*
X173755000Y-88900000D01*
X176515000Y-88900000D02*
X182515000Y-88900000D01*
X182515000Y-88900000D02*
X182515000Y-89760000D01*
X173755000Y-88060000D02*
X176515000Y-88060000D01*
X173442358Y-87220000D02*
X173755000Y-87220000D01*
X182515000Y-87220000D02*
X176515000Y-87220000D01*
X173442358Y-86360000D02*
X173755000Y-86360000D01*
X176515000Y-86360000D02*
X182515000Y-86360000D01*
X182515000Y-86360000D02*
X182515000Y-87220000D01*
X173755000Y-85520000D02*
X176515000Y-85520000D01*
X173442358Y-84680000D02*
X173755000Y-84680000D01*
X182515000Y-84680000D02*
X176515000Y-84680000D01*
X173442358Y-83820000D02*
X173755000Y-83820000D01*
X176515000Y-83820000D02*
X182515000Y-83820000D01*
X182515000Y-83820000D02*
X182515000Y-84680000D01*
X173755000Y-82980000D02*
X176515000Y-82980000D01*
X173442358Y-82140000D02*
X173755000Y-82140000D01*
X182515000Y-82140000D02*
X176515000Y-82140000D01*
X173442358Y-81280000D02*
X173755000Y-81280000D01*
X176515000Y-81280000D02*
X182515000Y-81280000D01*
X182515000Y-81280000D02*
X182515000Y-82140000D01*
X173755000Y-80440000D02*
X176515000Y-80440000D01*
X173525000Y-79600000D02*
X173755000Y-79600000D01*
X171095000Y-79170000D02*
X171095000Y-77900000D01*
X173525000Y-78740000D02*
X173755000Y-78740000D01*
X171095000Y-77900000D02*
X172365000Y-77900000D01*
X176515000Y-78740000D02*
X182515000Y-78740000D01*
X182515000Y-79600000D01*
X176515000Y-79600000D01*
X176515000Y-78740000D01*
G36*
X176515000Y-78740000D02*
G01*
X182515000Y-78740000D01*
X182515000Y-79600000D01*
X176515000Y-79600000D01*
X176515000Y-78740000D01*
G37*
X173755000Y-77790000D02*
X176515000Y-77790000D01*
X176515000Y-90710000D01*
X173755000Y-90710000D01*
X173755000Y-77790000D01*
%TO.C,R7*%
X167727500Y-79262742D02*
X167727500Y-79737258D01*
X168772500Y-79262742D02*
X168772500Y-79737258D01*
%TO.C,R16*%
X149977500Y-89062258D02*
X149977500Y-88587742D01*
X151022500Y-89062258D02*
X151022500Y-88587742D01*
%TO.C,R14*%
X162227500Y-72587742D02*
X162227500Y-73062258D01*
X163272500Y-72587742D02*
X163272500Y-73062258D01*
%TO.C,R10*%
X166912258Y-84227500D02*
X166437742Y-84227500D01*
X166912258Y-85272500D02*
X166437742Y-85272500D01*
%TO.C,C22*%
X160615580Y-81240000D02*
X160334420Y-81240000D01*
X160615580Y-82260000D02*
X160334420Y-82260000D01*
%TO.C,R6*%
X169227500Y-80087742D02*
X169227500Y-80562258D01*
X170272500Y-80087742D02*
X170272500Y-80562258D01*
%TO.C,C26*%
X163377836Y-74640000D02*
X163162164Y-74640000D01*
X163377836Y-75360000D02*
X163162164Y-75360000D01*
%TO.C,C17*%
X144412164Y-78990000D02*
X144627836Y-78990000D01*
X144412164Y-79710000D02*
X144627836Y-79710000D01*
%TO.C,C16*%
X144412164Y-77740000D02*
X144627836Y-77740000D01*
X144412164Y-78460000D02*
X144627836Y-78460000D01*
%TO.C,Y1*%
X141940000Y-79890000D02*
X141940000Y-84010000D01*
X145360000Y-79890000D02*
X141940000Y-79890000D01*
%TO.C,C23*%
X160740000Y-84140580D02*
X160740000Y-83859420D01*
X161760000Y-84140580D02*
X161760000Y-83859420D01*
%TO.C,U1*%
X147140000Y-74490000D02*
X148090000Y-74490000D01*
X147140000Y-75440000D02*
X147140000Y-74490000D01*
X147140000Y-84710000D02*
X147140000Y-83760000D01*
X148090000Y-84710000D02*
X147140000Y-84710000D01*
X156410000Y-74490000D02*
X157360000Y-74490000D01*
X157360000Y-74490000D02*
X157360000Y-75440000D01*
X157360000Y-83760000D02*
X157360000Y-84710000D01*
X157360000Y-84710000D02*
X156410000Y-84710000D01*
X146500000Y-75440000D02*
X146160000Y-74970000D01*
X146840000Y-74970000D01*
X146500000Y-75440000D01*
G36*
X146500000Y-75440000D02*
G01*
X146160000Y-74970000D01*
X146840000Y-74970000D01*
X146500000Y-75440000D01*
G37*
%TO.C,C29*%
X155347000Y-90084420D02*
X155347000Y-90365580D01*
X156367000Y-90084420D02*
X156367000Y-90365580D01*
%TO.C,C6*%
X149115580Y-71590000D02*
X148834420Y-71590000D01*
X149115580Y-72610000D02*
X148834420Y-72610000D01*
%TO.C,R4*%
X163437742Y-84227500D02*
X163912258Y-84227500D01*
X163437742Y-85272500D02*
X163912258Y-85272500D01*
%TO.C,R3*%
X162227500Y-82662258D02*
X162227500Y-82187742D01*
X163272500Y-82662258D02*
X163272500Y-82187742D01*
%TO.C,R8*%
X168912258Y-76727500D02*
X168437742Y-76727500D01*
X168912258Y-77772500D02*
X168437742Y-77772500D01*
%TO.C,R15*%
X160727500Y-73837742D02*
X160727500Y-74312258D01*
X161772500Y-73837742D02*
X161772500Y-74312258D01*
%TO.C,Y2*%
X143575000Y-73225000D02*
X144925000Y-73225000D01*
X143575000Y-74975000D02*
X144925000Y-74975000D01*
%TO.C,R5*%
X164227500Y-82662258D02*
X164227500Y-82187742D01*
X165272500Y-82662258D02*
X165272500Y-82187742D01*
%TO.C,J4*%
X138620000Y-85845000D02*
X140000000Y-85845000D01*
X138620000Y-87225000D02*
X138620000Y-85845000D01*
X138620000Y-88495000D02*
X138620000Y-91145000D01*
X138620000Y-88495000D02*
X141380000Y-88495000D01*
X138620000Y-91145000D02*
X141380000Y-91145000D01*
X141380000Y-88495000D02*
X141380000Y-91145000D01*
%TO.C,C25*%
X165740000Y-76584420D02*
X165740000Y-76865580D01*
X166760000Y-76584420D02*
X166760000Y-76865580D01*
%TD*%
%LPC*%
D17*
%TO.C,D6*%
X141000000Y-80000000D03*
X139425000Y-80000000D03*
%TD*%
D18*
%TO.C,U2*%
X152214000Y-87848299D03*
X152214000Y-88348300D03*
X152214000Y-88848300D03*
X152214000Y-89348301D03*
D19*
X152857001Y-89500000D03*
X153357000Y-89500000D03*
X153856999Y-89500000D03*
D18*
X154500000Y-89348301D03*
X154500000Y-88848300D03*
X154500000Y-88348300D03*
X154500000Y-87848299D03*
D19*
X153856999Y-87696600D03*
X153357000Y-87696600D03*
X152857001Y-87696600D03*
%TD*%
D20*
%TO.C,J2*%
X165850000Y-96000000D03*
D21*
X165750000Y-89200000D03*
D22*
X159000000Y-93200000D03*
X159000000Y-87400000D03*
D23*
X162475000Y-95500000D03*
X162475000Y-89500000D03*
%TD*%
D24*
%TO.C,IC2*%
X164700000Y-79250000D03*
X164700000Y-78750000D03*
X164700000Y-78250000D03*
X164700000Y-77750000D03*
X164700000Y-77250000D03*
D25*
X163750000Y-76300000D03*
X163250000Y-76300000D03*
X162750000Y-76300000D03*
X162250000Y-76300000D03*
X161750000Y-76300000D03*
D24*
X160800000Y-77250000D03*
X160800000Y-77750000D03*
X160800000Y-78250000D03*
X160800000Y-78750000D03*
X160800000Y-79250000D03*
D25*
X161750000Y-80200000D03*
X162250000Y-80200000D03*
X162750000Y-80200000D03*
X163250000Y-80200000D03*
X163750000Y-80200000D03*
D26*
X162750000Y-78250000D03*
%TD*%
D27*
%TO.C,D7*%
X142500000Y-90522500D03*
X142500000Y-88947500D03*
%TD*%
D17*
%TO.C,D5*%
X139425000Y-78500000D03*
X141000000Y-78500000D03*
%TD*%
%TO.C,D4*%
X139425000Y-77000000D03*
X141000000Y-77000000D03*
%TD*%
%TO.C,D3*%
X139425000Y-75500000D03*
X141000000Y-75500000D03*
%TD*%
D28*
%TO.C,R32*%
X146000000Y-89250000D03*
X144350000Y-89250000D03*
%TD*%
D29*
%TO.C,H2*%
X140000000Y-96500000D03*
%TD*%
D30*
%TO.C,C19*%
X144750000Y-76810000D03*
X144750000Y-75850000D03*
%TD*%
D31*
%TO.C,C30*%
X152807000Y-91000000D03*
X154357000Y-91000000D03*
%TD*%
D32*
%TO.C,R9*%
X167350000Y-83250000D03*
X169000000Y-83250000D03*
%TD*%
D33*
%TO.C,C27*%
X161250000Y-71750000D03*
X159700000Y-71750000D03*
%TD*%
D34*
%TO.C,R12*%
X166000000Y-72000000D03*
X166000000Y-73650000D03*
%TD*%
D35*
%TO.C,C8*%
X157403984Y-72903984D03*
X158500000Y-74000000D03*
%TD*%
D34*
%TO.C,R11*%
X167500000Y-72000000D03*
X167500000Y-73650000D03*
%TD*%
D36*
%TO.C,C24*%
X166500000Y-81650000D03*
X166500000Y-79750000D03*
%TD*%
D29*
%TO.C,H3*%
X172500000Y-96500000D03*
%TD*%
D37*
%TO.C,C28*%
X167750000Y-75500000D03*
X169650000Y-75500000D03*
%TD*%
D38*
%TO.C,J3*%
X148360000Y-93895000D03*
X154140000Y-93895000D03*
D39*
X148050000Y-92820000D03*
X148850000Y-92820000D03*
D40*
X150000000Y-92820000D03*
X151000000Y-92820000D03*
X151500000Y-92820000D03*
X152500000Y-92820000D03*
D39*
X153650000Y-92820000D03*
X154450000Y-92820000D03*
X154450000Y-92820000D03*
X153650000Y-92820000D03*
D40*
X153000000Y-92820000D03*
X152000000Y-92820000D03*
X150500000Y-92820000D03*
X149500000Y-92820000D03*
D39*
X148850000Y-92820000D03*
X148050000Y-92820000D03*
D41*
X146930000Y-93395000D03*
D42*
X146930000Y-97575000D03*
D41*
X155570000Y-93395000D03*
D42*
X155570000Y-97575000D03*
%TD*%
D43*
%TO.C,C18*%
X143750000Y-75850000D03*
X143750000Y-76810000D03*
%TD*%
D44*
%TO.C,R13*%
X164500000Y-73650000D03*
X164500000Y-72000000D03*
%TD*%
D45*
%TO.C,J1*%
X172365000Y-79170000D03*
D46*
X172365000Y-81710000D03*
X172365000Y-84250000D03*
X172365000Y-86790000D03*
X172365000Y-89330000D03*
%TD*%
D34*
%TO.C,R7*%
X168250000Y-78675000D03*
X168250000Y-80325000D03*
%TD*%
D44*
%TO.C,R16*%
X150500000Y-89650000D03*
X150500000Y-88000000D03*
%TD*%
D34*
%TO.C,R14*%
X162750000Y-72000000D03*
X162750000Y-73650000D03*
%TD*%
D28*
%TO.C,R10*%
X167500000Y-84750000D03*
X165850000Y-84750000D03*
%TD*%
D33*
%TO.C,C22*%
X161250000Y-81750000D03*
X159700000Y-81750000D03*
%TD*%
D34*
%TO.C,R6*%
X169750000Y-79500000D03*
X169750000Y-81150000D03*
%TD*%
D47*
%TO.C,C26*%
X163750000Y-75000000D03*
X162790000Y-75000000D03*
%TD*%
D48*
%TO.C,C17*%
X144040000Y-79350000D03*
X145000000Y-79350000D03*
%TD*%
%TO.C,C16*%
X144040000Y-78100000D03*
X145000000Y-78100000D03*
%TD*%
D49*
%TO.C,Y1*%
X142800000Y-80850000D03*
X142800000Y-83050000D03*
X144500000Y-83050000D03*
X144500000Y-80850000D03*
%TD*%
D50*
%TO.C,C23*%
X161250000Y-84775000D03*
X161250000Y-83225000D03*
%TD*%
D29*
%TO.C,H4*%
X172500000Y-72000000D03*
%TD*%
D51*
%TO.C,U1*%
X146575000Y-75850000D03*
X146575000Y-76350000D03*
X146575000Y-76850000D03*
X146575000Y-77350000D03*
X146575000Y-77850000D03*
X146575000Y-78350000D03*
X146575000Y-78850000D03*
X146575000Y-79350000D03*
X146575000Y-79850000D03*
X146575000Y-80350000D03*
X146575000Y-80850000D03*
X146575000Y-81350000D03*
X146575000Y-81850000D03*
X146575000Y-82350000D03*
X146575000Y-82850000D03*
X146575000Y-83350000D03*
D52*
X148500000Y-85275000D03*
X149000000Y-85275000D03*
X149500000Y-85275000D03*
X150000000Y-85275000D03*
X150500000Y-85275000D03*
X151000000Y-85275000D03*
X151500000Y-85275000D03*
X152000000Y-85275000D03*
X152500000Y-85275000D03*
X153000000Y-85275000D03*
X153500000Y-85275000D03*
X154000000Y-85275000D03*
X154500000Y-85275000D03*
X155000000Y-85275000D03*
X155500000Y-85275000D03*
X156000000Y-85275000D03*
D51*
X157925000Y-83350000D03*
X157925000Y-82850000D03*
X157925000Y-82350000D03*
X157925000Y-81850000D03*
X157925000Y-81350000D03*
X157925000Y-80850000D03*
X157925000Y-80350000D03*
X157925000Y-79850000D03*
X157925000Y-79350000D03*
X157925000Y-78850000D03*
X157925000Y-78350000D03*
X157925000Y-77850000D03*
X157925000Y-77350000D03*
X157925000Y-76850000D03*
X157925000Y-76350000D03*
X157925000Y-75850000D03*
D52*
X156000000Y-73925000D03*
X155500000Y-73925000D03*
X155000000Y-73925000D03*
X154500000Y-73925000D03*
X154000000Y-73925000D03*
X153500000Y-73925000D03*
X153000000Y-73925000D03*
X152500000Y-73925000D03*
X152000000Y-73925000D03*
X151500000Y-73925000D03*
X151000000Y-73925000D03*
X150500000Y-73925000D03*
X150000000Y-73925000D03*
X149500000Y-73925000D03*
X149000000Y-73925000D03*
X148500000Y-73925000D03*
%TD*%
D53*
%TO.C,C29*%
X155857000Y-89450000D03*
X155857000Y-91000000D03*
%TD*%
D33*
%TO.C,C6*%
X149750000Y-72100000D03*
X148200000Y-72100000D03*
%TD*%
D32*
%TO.C,R4*%
X162850000Y-84750000D03*
X164500000Y-84750000D03*
%TD*%
D44*
%TO.C,R3*%
X162750000Y-83250000D03*
X162750000Y-81600000D03*
%TD*%
D29*
%TO.C,H1*%
X140000000Y-72000000D03*
%TD*%
D28*
%TO.C,R8*%
X169500000Y-77250000D03*
X167850000Y-77250000D03*
%TD*%
D34*
%TO.C,R15*%
X161250000Y-73250000D03*
X161250000Y-74900000D03*
%TD*%
D54*
%TO.C,Y2*%
X145500000Y-74100000D03*
X143000000Y-74100000D03*
%TD*%
D44*
%TO.C,R5*%
X164750000Y-83250000D03*
X164750000Y-81600000D03*
%TD*%
D45*
%TO.C,J4*%
X140000000Y-87225000D03*
D46*
X140000000Y-89765000D03*
%TD*%
D53*
%TO.C,C25*%
X166250000Y-75950000D03*
X166250000Y-77500000D03*
%TD*%
%LPD*%
M02*
