%TF.GenerationSoftware,KiCad,Pcbnew,9.0.7*%
%TF.CreationDate,2026-01-30T01:35:17+02:00*%
%TF.ProjectId,HM-Collector-Rev2,484d2d43-6f6c-46c6-9563-746f722d5265,rev?*%
%TF.SameCoordinates,Original*%
%TF.FileFunction,Soldermask,Bot*%
%TF.FilePolarity,Negative*%
%FSLAX46Y46*%
G04 Gerber Fmt 4.6, Leading zero omitted, Abs format (unit mm)*
G04 Created by KiCad (PCBNEW 9.0.7) date 2026-01-30 01:35:17*
%MOMM*%
%LPD*%
G01*
G04 APERTURE LIST*
G04 Aperture macros list*
%AMRoundRect*
0 Rectangle with rounded corners*
0 $1 Rounding radius*
0 $2 $3 $4 $5 $6 $7 $8 $9 X,Y pos of 4 corners*
0 Add a 4 corners polygon primitive as box body*
4,1,4,$2,$3,$4,$5,$6,$7,$8,$9,$2,$3,0*
0 Add four circle primitives for the rounded corners*
1,1,$1+$1,$2,$3*
1,1,$1+$1,$4,$5*
1,1,$1+$1,$6,$7*
1,1,$1+$1,$8,$9*
0 Add four rect primitives between the rounded corners*
20,1,$1+$1,$2,$3,$4,$5,0*
20,1,$1+$1,$4,$5,$6,$7,0*
20,1,$1+$1,$6,$7,$8,$9,0*
20,1,$1+$1,$8,$9,$2,$3,0*%
G04 Aperture macros list end*
%ADD10C,1.500000*%
%ADD11R,1.200000X0.600000*%
%ADD12RoundRect,0.250000X-0.475000X0.250000X-0.475000X-0.250000X0.475000X-0.250000X0.475000X0.250000X0*%
%ADD13RoundRect,0.200000X-0.200000X-0.275000X0.200000X-0.275000X0.200000X0.275000X-0.200000X0.275000X0*%
%ADD14RoundRect,0.200000X0.200000X0.275000X-0.200000X0.275000X-0.200000X-0.275000X0.200000X-0.275000X0*%
%ADD15C,2.200000*%
%ADD16RoundRect,0.250000X0.250000X0.475000X-0.250000X0.475000X-0.250000X-0.475000X0.250000X-0.475000X0*%
%ADD17C,0.650000*%
%ADD18O,1.000000X2.100000*%
%ADD19O,1.000000X1.800000*%
%ADD20R,1.700000X1.700000*%
%ADD21C,1.700000*%
%ADD22RoundRect,0.225000X-0.375000X0.225000X-0.375000X-0.225000X0.375000X-0.225000X0.375000X0.225000X0*%
%ADD23RoundRect,0.225000X-0.250000X0.225000X-0.250000X-0.225000X0.250000X-0.225000X0.250000X0.225000X0*%
%ADD24RoundRect,0.225000X-0.225000X-0.250000X0.225000X-0.250000X0.225000X0.250000X-0.225000X0.250000X0*%
%ADD25RoundRect,0.225000X0.250000X-0.225000X0.250000X0.225000X-0.250000X0.225000X-0.250000X-0.225000X0*%
%ADD26RoundRect,0.225000X0.225000X0.250000X-0.225000X0.250000X-0.225000X-0.250000X0.225000X-0.250000X0*%
%ADD27RoundRect,0.250000X0.850000X-0.375000X0.850000X0.375000X-0.850000X0.375000X-0.850000X-0.375000X0*%
%ADD28RoundRect,0.162500X0.650000X0.162500X-0.650000X0.162500X-0.650000X-0.162500X0.650000X-0.162500X0*%
%ADD29RoundRect,0.225000X0.225000X0.375000X-0.225000X0.375000X-0.225000X-0.375000X0.225000X-0.375000X0*%
%ADD30RoundRect,0.200000X0.275000X-0.200000X0.275000X0.200000X-0.275000X0.200000X-0.275000X-0.200000X0*%
%ADD31RoundRect,0.250000X0.475000X-0.250000X0.475000X0.250000X-0.475000X0.250000X-0.475000X-0.250000X0*%
G04 APERTURE END LIST*
D10*
%TO.C,J2*%
X162475000Y-95500000D03*
X162475000Y-89500000D03*
%TD*%
D11*
%TO.C,IC3*%
X168523250Y-85350000D03*
X168523250Y-86300000D03*
X168523250Y-87250000D03*
X166023250Y-87250000D03*
X166023250Y-85350000D03*
%TD*%
%TO.C,IC1*%
X146750000Y-88850000D03*
X146750000Y-89800000D03*
X146750000Y-90750000D03*
X144250000Y-90750000D03*
X144250000Y-88850000D03*
%TD*%
D12*
%TO.C,C35*%
X140000000Y-84750000D03*
X140000000Y-82850000D03*
%TD*%
D13*
%TO.C,R2*%
X150000000Y-72100000D03*
X148350000Y-72100000D03*
%TD*%
D14*
%TO.C,R31*%
X141000000Y-80000000D03*
X139350000Y-80000000D03*
%TD*%
%TO.C,R30*%
X141000000Y-78500000D03*
X139350000Y-78500000D03*
%TD*%
%TO.C,R29*%
X141000000Y-77000000D03*
X139350000Y-77000000D03*
%TD*%
%TO.C,R28*%
X141000000Y-75500000D03*
X139350000Y-75500000D03*
%TD*%
D15*
%TO.C,H2*%
X140000000Y-96500000D03*
%TD*%
%TO.C,H3*%
X172500000Y-96500000D03*
%TD*%
D14*
%TO.C,R26*%
X149750000Y-95500000D03*
X148100000Y-95500000D03*
%TD*%
D13*
%TO.C,R27*%
X152600000Y-95500000D03*
X154250000Y-95500000D03*
%TD*%
D16*
%TO.C,C34*%
X150250000Y-97250000D03*
X148350000Y-97250000D03*
%TD*%
D17*
%TO.C,J3*%
X148360000Y-93895000D03*
X154140000Y-93895000D03*
D18*
X146930000Y-93395000D03*
D19*
X146930000Y-97575000D03*
D18*
X155570000Y-93395000D03*
D19*
X155570000Y-97575000D03*
%TD*%
D20*
%TO.C,J1*%
X172365000Y-79170000D03*
D21*
X172365000Y-81710000D03*
X172365000Y-84250000D03*
X172365000Y-86790000D03*
X172365000Y-89330000D03*
%TD*%
D22*
%TO.C,D2*%
X144750000Y-93950000D03*
X144750000Y-97250000D03*
%TD*%
D15*
%TO.C,H4*%
X172500000Y-72000000D03*
%TD*%
%TO.C,H1*%
X140000000Y-72000000D03*
%TD*%
D20*
%TO.C,J4*%
X140000000Y-87225000D03*
D21*
X140000000Y-89765000D03*
%TD*%
D23*
%TO.C,C31*%
X146500000Y-72700000D03*
X146500000Y-74250000D03*
%TD*%
%TO.C,C33*%
X159500000Y-73700000D03*
X159500000Y-75250000D03*
%TD*%
D14*
%TO.C,R24*%
X159250000Y-80000000D03*
X157600000Y-80000000D03*
%TD*%
D24*
%TO.C,C32*%
X145450000Y-87250000D03*
X147000000Y-87250000D03*
%TD*%
D25*
%TO.C,C3*%
X142500000Y-90500000D03*
X142500000Y-88950000D03*
%TD*%
%TO.C,C21*%
X164273250Y-87075000D03*
X164273250Y-85525000D03*
%TD*%
D14*
%TO.C,R19*%
X147000000Y-85500000D03*
X145350000Y-85500000D03*
%TD*%
D23*
%TO.C,C13*%
X149500000Y-81800000D03*
X149500000Y-83350000D03*
%TD*%
D13*
%TO.C,R17*%
X152000000Y-85500000D03*
X153650000Y-85500000D03*
%TD*%
D26*
%TO.C,C1*%
X149525000Y-76350000D03*
X147975000Y-76350000D03*
%TD*%
%TO.C,C5*%
X159800000Y-84600000D03*
X158250000Y-84600000D03*
%TD*%
D25*
%TO.C,C12*%
X148000000Y-83350000D03*
X148000000Y-81800000D03*
%TD*%
D26*
%TO.C,C11*%
X152775000Y-74750000D03*
X151225000Y-74750000D03*
%TD*%
D23*
%TO.C,C10*%
X156500000Y-82200000D03*
X156500000Y-83750000D03*
%TD*%
D26*
%TO.C,C20*%
X168800000Y-83750000D03*
X167250000Y-83750000D03*
%TD*%
D27*
%TO.C,L1*%
X154250000Y-82750000D03*
X154250000Y-80600000D03*
%TD*%
D13*
%TO.C,R21*%
X142350000Y-85250000D03*
X144000000Y-85250000D03*
%TD*%
D28*
%TO.C,U3*%
X168587500Y-74595000D03*
X168587500Y-75865000D03*
X168587500Y-77135000D03*
X168587500Y-78405000D03*
X161412500Y-78405000D03*
X161412500Y-77135000D03*
X161412500Y-75865000D03*
X161412500Y-74595000D03*
%TD*%
D14*
%TO.C,R1*%
X149575000Y-74850000D03*
X147925000Y-74850000D03*
%TD*%
D12*
%TO.C,C9*%
X151750000Y-81350000D03*
X151750000Y-83250000D03*
%TD*%
D14*
%TO.C,R20*%
X144000000Y-86750000D03*
X142350000Y-86750000D03*
%TD*%
D29*
%TO.C,D1*%
X142650000Y-92750000D03*
X139350000Y-92750000D03*
%TD*%
D24*
%TO.C,C4*%
X148950000Y-85500000D03*
X150500000Y-85500000D03*
%TD*%
D23*
%TO.C,C15*%
X148000000Y-78350000D03*
X148000000Y-79900000D03*
%TD*%
D14*
%TO.C,R18*%
X152000000Y-88000000D03*
X150350000Y-88000000D03*
%TD*%
D25*
%TO.C,C2*%
X148500000Y-89250000D03*
X148500000Y-87700000D03*
%TD*%
D30*
%TO.C,R23*%
X154500000Y-77150000D03*
X154500000Y-75500000D03*
%TD*%
D13*
%TO.C,R22*%
X166100000Y-72500000D03*
X167750000Y-72500000D03*
%TD*%
D31*
%TO.C,C7*%
X151750000Y-78950000D03*
X151750000Y-77050000D03*
%TD*%
D25*
%TO.C,C14*%
X149500000Y-79900000D03*
X149500000Y-78350000D03*
%TD*%
D14*
%TO.C,R25*%
X155575000Y-71250000D03*
X153925000Y-71250000D03*
%TD*%
M02*
