%TF.GenerationSoftware,KiCad,Pcbnew,9.0.7*%
%TF.CreationDate,2026-01-30T01:35:17+02:00*%
%TF.ProjectId,HM-Collector-Rev2,484d2d43-6f6c-46c6-9563-746f722d5265,rev?*%
%TF.SameCoordinates,Original*%
%TF.FileFunction,Soldermask,Top*%
%TF.FilePolarity,Negative*%
%FSLAX46Y46*%
G04 Gerber Fmt 4.6, Leading zero omitted, Abs format (unit mm)*
G04 Created by KiCad (PCBNEW 9.0.7) date 2026-01-30 01:35:17*
%MOMM*%
%LPD*%
G01*
G04 APERTURE LIST*
G04 Aperture macros list*
%AMRoundRect*
0 Rectangle with rounded corners*
0 $1 Rounding radius*
0 $2 $3 $4 $5 $6 $7 $8 $9 X,Y pos of 4 corners*
0 Add a 4 corners polygon primitive as box body*
4,1,4,$2,$3,$4,$5,$6,$7,$8,$9,$2,$3,0*
0 Add four circle primitives for the rounded corners*
1,1,$1+$1,$2,$3*
1,1,$1+$1,$4,$5*
1,1,$1+$1,$6,$7*
1,1,$1+$1,$8,$9*
0 Add four rect primitives between the rounded corners*
20,1,$1+$1,$2,$3,$4,$5,0*
20,1,$1+$1,$4,$5,$6,$7,0*
20,1,$1+$1,$6,$7,$8,$9,0*
20,1,$1+$1,$8,$9,$2,$3,0*%
G04 Aperture macros list end*
%ADD10RoundRect,0.218750X-0.218750X-0.256250X0.218750X-0.256250X0.218750X0.256250X-0.218750X0.256250X0*%
%ADD11R,0.575000X0.350000*%
%ADD12R,0.350000X0.575000*%
%ADD13R,2.750000X1.500000*%
%ADD14R,2.950000X1.500000*%
%ADD15R,2.550000X1.500000*%
%ADD16R,0.850000X0.300000*%
%ADD17R,0.300000X0.850000*%
%ADD18R,2.650000X2.650000*%
%ADD19RoundRect,0.218750X0.256250X-0.218750X0.256250X0.218750X-0.256250X0.218750X-0.256250X-0.218750X0*%
%ADD20RoundRect,0.200000X0.200000X0.275000X-0.200000X0.275000X-0.200000X-0.275000X0.200000X-0.275000X0*%
%ADD21RoundRect,0.140000X0.170000X-0.140000X0.170000X0.140000X-0.170000X0.140000X-0.170000X-0.140000X0*%
%ADD22RoundRect,0.225000X-0.225000X-0.250000X0.225000X-0.250000X0.225000X0.250000X-0.225000X0.250000X0*%
%ADD23RoundRect,0.200000X-0.200000X-0.275000X0.200000X-0.275000X0.200000X0.275000X-0.200000X0.275000X0*%
%ADD24RoundRect,0.225000X0.225000X0.250000X-0.225000X0.250000X-0.225000X-0.250000X0.225000X-0.250000X0*%
%ADD25RoundRect,0.200000X-0.275000X0.200000X-0.275000X-0.200000X0.275000X-0.200000X0.275000X0.200000X0*%
%ADD26RoundRect,0.225000X-0.335876X-0.017678X-0.017678X-0.335876X0.335876X0.017678X0.017678X0.335876X0*%
%ADD27RoundRect,0.250000X0.475000X-0.250000X0.475000X0.250000X-0.475000X0.250000X-0.475000X-0.250000X0*%
%ADD28RoundRect,0.250000X-0.250000X-0.475000X0.250000X-0.475000X0.250000X0.475000X-0.250000X0.475000X0*%
%ADD29RoundRect,0.150000X-0.150000X-0.425000X0.150000X-0.425000X0.150000X0.425000X-0.150000X0.425000X0*%
%ADD30RoundRect,0.075000X-0.075000X-0.500000X0.075000X-0.500000X0.075000X0.500000X-0.075000X0.500000X0*%
%ADD31O,1.000000X2.100000*%
%ADD32O,1.000000X1.800000*%
%ADD33RoundRect,0.140000X-0.170000X0.140000X-0.170000X-0.140000X0.170000X-0.140000X0.170000X0.140000X0*%
%ADD34RoundRect,0.200000X0.275000X-0.200000X0.275000X0.200000X-0.275000X0.200000X-0.275000X-0.200000X0*%
%ADD35R,1.700000X1.700000*%
%ADD36C,1.700000*%
%ADD37RoundRect,0.140000X0.140000X0.170000X-0.140000X0.170000X-0.140000X-0.170000X0.140000X-0.170000X0*%
%ADD38RoundRect,0.140000X-0.140000X-0.170000X0.140000X-0.170000X0.140000X0.170000X-0.140000X0.170000X0*%
%ADD39RoundRect,0.250000X-0.350000X0.450000X-0.350000X-0.450000X0.350000X-0.450000X0.350000X0.450000X0*%
%ADD40RoundRect,0.225000X0.250000X-0.225000X0.250000X0.225000X-0.250000X0.225000X-0.250000X-0.225000X0*%
%ADD41RoundRect,0.075000X-0.700000X-0.075000X0.700000X-0.075000X0.700000X0.075000X-0.700000X0.075000X0*%
%ADD42RoundRect,0.075000X-0.075000X-0.700000X0.075000X-0.700000X0.075000X0.700000X-0.075000X0.700000X0*%
%ADD43RoundRect,0.225000X-0.250000X0.225000X-0.250000X-0.225000X0.250000X-0.225000X0.250000X0.225000X0*%
%ADD44R,1.000000X1.800000*%
G04 APERTURE END LIST*
D10*
%TO.C,D6*%
X141000000Y-80000000D03*
X139425000Y-80000000D03*
%TD*%
D11*
%TO.C,U2*%
X152214000Y-87848299D03*
X152214000Y-88348300D03*
X152214000Y-88848300D03*
X152214000Y-89348301D03*
D12*
X152857001Y-89500000D03*
X153357000Y-89500000D03*
X153856999Y-89500000D03*
D11*
X154500000Y-89348301D03*
X154500000Y-88848300D03*
X154500000Y-88348300D03*
X154500000Y-87848299D03*
D12*
X153856999Y-87696600D03*
X153357000Y-87696600D03*
X152857001Y-87696600D03*
%TD*%
D13*
%TO.C,J2*%
X165850000Y-96000000D03*
D14*
X165750000Y-89200000D03*
D15*
X159000000Y-93200000D03*
X159000000Y-87400000D03*
%TD*%
D16*
%TO.C,IC2*%
X164700000Y-79250000D03*
X164700000Y-78750000D03*
X164700000Y-78250000D03*
X164700000Y-77750000D03*
X164700000Y-77250000D03*
D17*
X163750000Y-76300000D03*
X163250000Y-76300000D03*
X162750000Y-76300000D03*
X162250000Y-76300000D03*
X161750000Y-76300000D03*
D16*
X160800000Y-77250000D03*
X160800000Y-77750000D03*
X160800000Y-78250000D03*
X160800000Y-78750000D03*
X160800000Y-79250000D03*
D17*
X161750000Y-80200000D03*
X162250000Y-80200000D03*
X162750000Y-80200000D03*
X163250000Y-80200000D03*
X163750000Y-80200000D03*
D18*
X162750000Y-78250000D03*
%TD*%
D19*
%TO.C,D7*%
X142500000Y-90522500D03*
X142500000Y-88947500D03*
%TD*%
D10*
%TO.C,D5*%
X139425000Y-78500000D03*
X141000000Y-78500000D03*
%TD*%
%TO.C,D4*%
X139425000Y-77000000D03*
X141000000Y-77000000D03*
%TD*%
%TO.C,D3*%
X139425000Y-75500000D03*
X141000000Y-75500000D03*
%TD*%
D20*
%TO.C,R32*%
X146000000Y-89250000D03*
X144350000Y-89250000D03*
%TD*%
D21*
%TO.C,C19*%
X144750000Y-76810000D03*
X144750000Y-75850000D03*
%TD*%
D22*
%TO.C,C30*%
X152807000Y-91000000D03*
X154357000Y-91000000D03*
%TD*%
D23*
%TO.C,R9*%
X167350000Y-83250000D03*
X169000000Y-83250000D03*
%TD*%
D24*
%TO.C,C27*%
X161250000Y-71750000D03*
X159700000Y-71750000D03*
%TD*%
D25*
%TO.C,R12*%
X166000000Y-72000000D03*
X166000000Y-73650000D03*
%TD*%
D26*
%TO.C,C8*%
X157403984Y-72903984D03*
X158500000Y-74000000D03*
%TD*%
D25*
%TO.C,R11*%
X167500000Y-72000000D03*
X167500000Y-73650000D03*
%TD*%
D27*
%TO.C,C24*%
X166500000Y-81650000D03*
X166500000Y-79750000D03*
%TD*%
D28*
%TO.C,C28*%
X167750000Y-75500000D03*
X169650000Y-75500000D03*
%TD*%
D29*
%TO.C,J3*%
X148050000Y-92820000D03*
X148850000Y-92820000D03*
D30*
X150000000Y-92820000D03*
X151000000Y-92820000D03*
X151500000Y-92820000D03*
X152500000Y-92820000D03*
D29*
X153650000Y-92820000D03*
X154450000Y-92820000D03*
X154450000Y-92820000D03*
X153650000Y-92820000D03*
D30*
X153000000Y-92820000D03*
X152000000Y-92820000D03*
X150500000Y-92820000D03*
X149500000Y-92820000D03*
D29*
X148850000Y-92820000D03*
X148050000Y-92820000D03*
D31*
X146930000Y-93395000D03*
D32*
X146930000Y-97575000D03*
D31*
X155570000Y-93395000D03*
D32*
X155570000Y-97575000D03*
%TD*%
D33*
%TO.C,C18*%
X143750000Y-75850000D03*
X143750000Y-76810000D03*
%TD*%
D34*
%TO.C,R13*%
X164500000Y-73650000D03*
X164500000Y-72000000D03*
%TD*%
D35*
%TO.C,J1*%
X172365000Y-79170000D03*
D36*
X172365000Y-81710000D03*
X172365000Y-84250000D03*
X172365000Y-86790000D03*
X172365000Y-89330000D03*
%TD*%
D25*
%TO.C,R7*%
X168250000Y-78675000D03*
X168250000Y-80325000D03*
%TD*%
D34*
%TO.C,R16*%
X150500000Y-89650000D03*
X150500000Y-88000000D03*
%TD*%
D25*
%TO.C,R14*%
X162750000Y-72000000D03*
X162750000Y-73650000D03*
%TD*%
D20*
%TO.C,R10*%
X167500000Y-84750000D03*
X165850000Y-84750000D03*
%TD*%
D24*
%TO.C,C22*%
X161250000Y-81750000D03*
X159700000Y-81750000D03*
%TD*%
D25*
%TO.C,R6*%
X169750000Y-79500000D03*
X169750000Y-81150000D03*
%TD*%
D37*
%TO.C,C26*%
X163750000Y-75000000D03*
X162790000Y-75000000D03*
%TD*%
D38*
%TO.C,C17*%
X144040000Y-79350000D03*
X145000000Y-79350000D03*
%TD*%
%TO.C,C16*%
X144040000Y-78100000D03*
X145000000Y-78100000D03*
%TD*%
D39*
%TO.C,Y1*%
X142800000Y-80850000D03*
X142800000Y-83050000D03*
X144500000Y-83050000D03*
X144500000Y-80850000D03*
%TD*%
D40*
%TO.C,C23*%
X161250000Y-84775000D03*
X161250000Y-83225000D03*
%TD*%
D41*
%TO.C,U1*%
X146575000Y-75850000D03*
X146575000Y-76350000D03*
X146575000Y-76850000D03*
X146575000Y-77350000D03*
X146575000Y-77850000D03*
X146575000Y-78350000D03*
X146575000Y-78850000D03*
X146575000Y-79350000D03*
X146575000Y-79850000D03*
X146575000Y-80350000D03*
X146575000Y-80850000D03*
X146575000Y-81350000D03*
X146575000Y-81850000D03*
X146575000Y-82350000D03*
X146575000Y-82850000D03*
X146575000Y-83350000D03*
D42*
X148500000Y-85275000D03*
X149000000Y-85275000D03*
X149500000Y-85275000D03*
X150000000Y-85275000D03*
X150500000Y-85275000D03*
X151000000Y-85275000D03*
X151500000Y-85275000D03*
X152000000Y-85275000D03*
X152500000Y-85275000D03*
X153000000Y-85275000D03*
X153500000Y-85275000D03*
X154000000Y-85275000D03*
X154500000Y-85275000D03*
X155000000Y-85275000D03*
X155500000Y-85275000D03*
X156000000Y-85275000D03*
D41*
X157925000Y-83350000D03*
X157925000Y-82850000D03*
X157925000Y-82350000D03*
X157925000Y-81850000D03*
X157925000Y-81350000D03*
X157925000Y-80850000D03*
X157925000Y-80350000D03*
X157925000Y-79850000D03*
X157925000Y-79350000D03*
X157925000Y-78850000D03*
X157925000Y-78350000D03*
X157925000Y-77850000D03*
X157925000Y-77350000D03*
X157925000Y-76850000D03*
X157925000Y-76350000D03*
X157925000Y-75850000D03*
D42*
X156000000Y-73925000D03*
X155500000Y-73925000D03*
X155000000Y-73925000D03*
X154500000Y-73925000D03*
X154000000Y-73925000D03*
X153500000Y-73925000D03*
X153000000Y-73925000D03*
X152500000Y-73925000D03*
X152000000Y-73925000D03*
X151500000Y-73925000D03*
X151000000Y-73925000D03*
X150500000Y-73925000D03*
X150000000Y-73925000D03*
X149500000Y-73925000D03*
X149000000Y-73925000D03*
X148500000Y-73925000D03*
%TD*%
D43*
%TO.C,C29*%
X155857000Y-89450000D03*
X155857000Y-91000000D03*
%TD*%
D24*
%TO.C,C6*%
X149750000Y-72100000D03*
X148200000Y-72100000D03*
%TD*%
D23*
%TO.C,R4*%
X162850000Y-84750000D03*
X164500000Y-84750000D03*
%TD*%
D34*
%TO.C,R3*%
X162750000Y-83250000D03*
X162750000Y-81600000D03*
%TD*%
D20*
%TO.C,R8*%
X169500000Y-77250000D03*
X167850000Y-77250000D03*
%TD*%
D25*
%TO.C,R15*%
X161250000Y-73250000D03*
X161250000Y-74900000D03*
%TD*%
D44*
%TO.C,Y2*%
X145500000Y-74100000D03*
X143000000Y-74100000D03*
%TD*%
D34*
%TO.C,R5*%
X164750000Y-83250000D03*
X164750000Y-81600000D03*
%TD*%
D35*
%TO.C,J4*%
X140000000Y-87225000D03*
D36*
X140000000Y-89765000D03*
%TD*%
D43*
%TO.C,C25*%
X166250000Y-75950000D03*
X166250000Y-77500000D03*
%TD*%
M02*
