%TF.GenerationSoftware,KiCad,Pcbnew,9.0.7*%
%TF.CreationDate,2026-01-30T01:35:17+02:00*%
%TF.ProjectId,HM-Collector-Rev2,484d2d43-6f6c-46c6-9563-746f722d5265,rev?*%
%TF.SameCoordinates,Original*%
%TF.FileFunction,Legend,Bot*%
%TF.FilePolarity,Positive*%
%FSLAX46Y46*%
G04 Gerber Fmt 4.6, Leading zero omitted, Abs format (unit mm)*
G04 Created by KiCad (PCBNEW 9.0.7) date 2026-01-30 01:35:17*
%MOMM*%
%LPD*%
G01*
G04 APERTURE LIST*
G04 Aperture macros list*
%AMRoundRect*
0 Rectangle with rounded corners*
0 $1 Rounding radius*
0 $2 $3 $4 $5 $6 $7 $8 $9 X,Y pos of 4 corners*
0 Add a 4 corners polygon primitive as box body*
4,1,4,$2,$3,$4,$5,$6,$7,$8,$9,$2,$3,0*
0 Add four circle primitives for the rounded corners*
1,1,$1+$1,$2,$3*
1,1,$1+$1,$4,$5*
1,1,$1+$1,$6,$7*
1,1,$1+$1,$8,$9*
0 Add four rect primitives between the rounded corners*
20,1,$1+$1,$2,$3,$4,$5,0*
20,1,$1+$1,$4,$5,$6,$7,0*
20,1,$1+$1,$6,$7,$8,$9,0*
20,1,$1+$1,$8,$9,$2,$3,0*%
G04 Aperture macros list end*
%ADD10C,0.200000*%
%ADD11C,0.120000*%
%ADD12C,1.500000*%
%ADD13R,1.200000X0.600000*%
%ADD14RoundRect,0.250000X-0.475000X0.250000X-0.475000X-0.250000X0.475000X-0.250000X0.475000X0.250000X0*%
%ADD15RoundRect,0.200000X-0.200000X-0.275000X0.200000X-0.275000X0.200000X0.275000X-0.200000X0.275000X0*%
%ADD16RoundRect,0.200000X0.200000X0.275000X-0.200000X0.275000X-0.200000X-0.275000X0.200000X-0.275000X0*%
%ADD17C,2.200000*%
%ADD18RoundRect,0.250000X0.250000X0.475000X-0.250000X0.475000X-0.250000X-0.475000X0.250000X-0.475000X0*%
%ADD19C,0.650000*%
%ADD20O,1.000000X2.100000*%
%ADD21O,1.000000X1.800000*%
%ADD22R,1.700000X1.700000*%
%ADD23C,1.700000*%
%ADD24RoundRect,0.225000X-0.375000X0.225000X-0.375000X-0.225000X0.375000X-0.225000X0.375000X0.225000X0*%
%ADD25RoundRect,0.225000X-0.250000X0.225000X-0.250000X-0.225000X0.250000X-0.225000X0.250000X0.225000X0*%
%ADD26RoundRect,0.225000X-0.225000X-0.250000X0.225000X-0.250000X0.225000X0.250000X-0.225000X0.250000X0*%
%ADD27RoundRect,0.225000X0.250000X-0.225000X0.250000X0.225000X-0.250000X0.225000X-0.250000X-0.225000X0*%
%ADD28RoundRect,0.225000X0.225000X0.250000X-0.225000X0.250000X-0.225000X-0.250000X0.225000X-0.250000X0*%
%ADD29RoundRect,0.250000X0.850000X-0.375000X0.850000X0.375000X-0.850000X0.375000X-0.850000X-0.375000X0*%
%ADD30RoundRect,0.162500X0.650000X0.162500X-0.650000X0.162500X-0.650000X-0.162500X0.650000X-0.162500X0*%
%ADD31RoundRect,0.225000X0.225000X0.375000X-0.225000X0.375000X-0.225000X-0.375000X0.225000X-0.375000X0*%
%ADD32RoundRect,0.200000X0.275000X-0.200000X0.275000X0.200000X-0.275000X0.200000X-0.275000X-0.200000X0*%
%ADD33RoundRect,0.250000X0.475000X-0.250000X0.475000X0.250000X-0.475000X0.250000X-0.475000X-0.250000X0*%
G04 APERTURE END LIST*
D10*
%TO.C,IC3*%
X167573250Y-84850000D02*
X166973250Y-84850000D01*
X166973250Y-84850000D02*
X166973250Y-87750000D01*
X166973250Y-87750000D02*
X167573250Y-87750000D01*
X167573250Y-87750000D02*
X167573250Y-84850000D01*
X169123250Y-84800000D02*
X167923250Y-84800000D01*
%TO.C,IC1*%
X145800000Y-88350000D02*
X145200000Y-88350000D01*
X145200000Y-88350000D02*
X145200000Y-91250000D01*
X145200000Y-91250000D02*
X145800000Y-91250000D01*
X145800000Y-91250000D02*
X145800000Y-88350000D01*
X147350000Y-88300000D02*
X146150000Y-88300000D01*
D11*
%TO.C,C35*%
X140735000Y-83538748D02*
X140735000Y-84061252D01*
X139265000Y-83538748D02*
X139265000Y-84061252D01*
%TO.C,R2*%
X148937742Y-72622500D02*
X149412258Y-72622500D01*
X148937742Y-71577500D02*
X149412258Y-71577500D01*
%TO.C,R31*%
X140412258Y-79477500D02*
X139937742Y-79477500D01*
X140412258Y-80522500D02*
X139937742Y-80522500D01*
%TO.C,R30*%
X140412258Y-77977500D02*
X139937742Y-77977500D01*
X140412258Y-79022500D02*
X139937742Y-79022500D01*
%TO.C,R29*%
X140412258Y-76477500D02*
X139937742Y-76477500D01*
X140412258Y-77522500D02*
X139937742Y-77522500D01*
%TO.C,R28*%
X140412258Y-74977500D02*
X139937742Y-74977500D01*
X140412258Y-76022500D02*
X139937742Y-76022500D01*
%TO.C,R26*%
X149162258Y-94977500D02*
X148687742Y-94977500D01*
X149162258Y-96022500D02*
X148687742Y-96022500D01*
%TO.C,R27*%
X153187742Y-96022500D02*
X153662258Y-96022500D01*
X153187742Y-94977500D02*
X153662258Y-94977500D01*
%TO.C,C34*%
X149561252Y-96515000D02*
X149038748Y-96515000D01*
X149561252Y-97985000D02*
X149038748Y-97985000D01*
%TO.C,D2*%
X143750000Y-93240000D02*
X145750000Y-93240000D01*
X143750000Y-93240000D02*
X143750000Y-97250000D01*
X145750000Y-93240000D02*
X145750000Y-97250000D01*
%TO.C,C31*%
X145990000Y-73334420D02*
X145990000Y-73615580D01*
X147010000Y-73334420D02*
X147010000Y-73615580D01*
%TO.C,C33*%
X158990000Y-74334420D02*
X158990000Y-74615580D01*
X160010000Y-74334420D02*
X160010000Y-74615580D01*
%TO.C,R24*%
X158662258Y-79477500D02*
X158187742Y-79477500D01*
X158662258Y-80522500D02*
X158187742Y-80522500D01*
%TO.C,C32*%
X146084420Y-86740000D02*
X146365580Y-86740000D01*
X146084420Y-87760000D02*
X146365580Y-87760000D01*
%TO.C,C3*%
X141990000Y-89865580D02*
X141990000Y-89584420D01*
X143010000Y-89865580D02*
X143010000Y-89584420D01*
%TO.C,C21*%
X163763250Y-86440580D02*
X163763250Y-86159420D01*
X164783250Y-86440580D02*
X164783250Y-86159420D01*
%TO.C,R19*%
X146412258Y-84977500D02*
X145937742Y-84977500D01*
X146412258Y-86022500D02*
X145937742Y-86022500D01*
%TO.C,C13*%
X148990000Y-82434420D02*
X148990000Y-82715580D01*
X150010000Y-82434420D02*
X150010000Y-82715580D01*
%TO.C,R17*%
X152587742Y-84977500D02*
X153062258Y-84977500D01*
X152587742Y-86022500D02*
X153062258Y-86022500D01*
%TO.C,C1*%
X148890580Y-75840000D02*
X148609420Y-75840000D01*
X148890580Y-76860000D02*
X148609420Y-76860000D01*
%TO.C,C5*%
X159165580Y-84090000D02*
X158884420Y-84090000D01*
X159165580Y-85110000D02*
X158884420Y-85110000D01*
%TO.C,C12*%
X147490000Y-82715580D02*
X147490000Y-82434420D01*
X148510000Y-82715580D02*
X148510000Y-82434420D01*
%TO.C,C11*%
X152140580Y-74240000D02*
X151859420Y-74240000D01*
X152140580Y-75260000D02*
X151859420Y-75260000D01*
%TO.C,C10*%
X155990000Y-82834420D02*
X155990000Y-83115580D01*
X157010000Y-82834420D02*
X157010000Y-83115580D01*
%TO.C,C20*%
X168165580Y-83240000D02*
X167884420Y-83240000D01*
X168165580Y-84260000D02*
X167884420Y-84260000D01*
%TO.C,L1*%
X153140000Y-81936252D02*
X153140000Y-81413748D01*
X155360000Y-81936252D02*
X155360000Y-81413748D01*
%TO.C,R21*%
X142937742Y-84727500D02*
X143412258Y-84727500D01*
X142937742Y-85772500D02*
X143412258Y-85772500D01*
%TO.C,U3*%
X162240000Y-73740000D02*
X162240000Y-74010000D01*
X162240000Y-78990000D02*
X162240000Y-79260000D01*
X162240000Y-79260000D02*
X167760000Y-79260000D01*
X167760000Y-73740000D02*
X162240000Y-73740000D01*
X167760000Y-74010000D02*
X167760000Y-73740000D01*
X167760000Y-79260000D02*
X167760000Y-78990000D01*
X168590000Y-74000000D02*
X168250000Y-73530000D01*
X168930000Y-73530000D01*
X168590000Y-74000000D01*
G36*
X168590000Y-74000000D02*
G01*
X168250000Y-73530000D01*
X168930000Y-73530000D01*
X168590000Y-74000000D01*
G37*
%TO.C,R1*%
X148987258Y-74327500D02*
X148512742Y-74327500D01*
X148987258Y-75372500D02*
X148512742Y-75372500D01*
%TO.C,C9*%
X151015000Y-82038748D02*
X151015000Y-82561252D01*
X152485000Y-82038748D02*
X152485000Y-82561252D01*
%TO.C,R20*%
X143412258Y-86227500D02*
X142937742Y-86227500D01*
X143412258Y-87272500D02*
X142937742Y-87272500D01*
%TO.C,D1*%
X143360000Y-91750000D02*
X139350000Y-91750000D01*
X143360000Y-91750000D02*
X143360000Y-93750000D01*
X143360000Y-93750000D02*
X139350000Y-93750000D01*
%TO.C,C4*%
X149584420Y-84990000D02*
X149865580Y-84990000D01*
X149584420Y-86010000D02*
X149865580Y-86010000D01*
%TO.C,C15*%
X147490000Y-78984420D02*
X147490000Y-79265580D01*
X148510000Y-78984420D02*
X148510000Y-79265580D01*
%TO.C,R18*%
X151412258Y-87477500D02*
X150937742Y-87477500D01*
X151412258Y-88522500D02*
X150937742Y-88522500D01*
%TO.C,C2*%
X147990000Y-88615580D02*
X147990000Y-88334420D01*
X149010000Y-88615580D02*
X149010000Y-88334420D01*
%TO.C,R23*%
X153977500Y-76562258D02*
X153977500Y-76087742D01*
X155022500Y-76562258D02*
X155022500Y-76087742D01*
%TO.C,R22*%
X166687742Y-71977500D02*
X167162258Y-71977500D01*
X166687742Y-73022500D02*
X167162258Y-73022500D01*
%TO.C,C7*%
X151015000Y-78261252D02*
X151015000Y-77738748D01*
X152485000Y-78261252D02*
X152485000Y-77738748D01*
%TO.C,C14*%
X148990000Y-79265580D02*
X148990000Y-78984420D01*
X150010000Y-79265580D02*
X150010000Y-78984420D01*
%TO.C,R25*%
X154987258Y-70727500D02*
X154512742Y-70727500D01*
X154987258Y-71772500D02*
X154512742Y-71772500D01*
%TD*%
%LPC*%
D12*
%TO.C,J2*%
X162475000Y-95500000D03*
X162475000Y-89500000D03*
%TD*%
D13*
%TO.C,IC3*%
X168523250Y-85350000D03*
X168523250Y-86300000D03*
X168523250Y-87250000D03*
X166023250Y-87250000D03*
X166023250Y-85350000D03*
%TD*%
%TO.C,IC1*%
X146750000Y-88850000D03*
X146750000Y-89800000D03*
X146750000Y-90750000D03*
X144250000Y-90750000D03*
X144250000Y-88850000D03*
%TD*%
D14*
%TO.C,C35*%
X140000000Y-84750000D03*
X140000000Y-82850000D03*
%TD*%
D15*
%TO.C,R2*%
X150000000Y-72100000D03*
X148350000Y-72100000D03*
%TD*%
D16*
%TO.C,R31*%
X141000000Y-80000000D03*
X139350000Y-80000000D03*
%TD*%
%TO.C,R30*%
X141000000Y-78500000D03*
X139350000Y-78500000D03*
%TD*%
%TO.C,R29*%
X141000000Y-77000000D03*
X139350000Y-77000000D03*
%TD*%
%TO.C,R28*%
X141000000Y-75500000D03*
X139350000Y-75500000D03*
%TD*%
D17*
%TO.C,H2*%
X140000000Y-96500000D03*
%TD*%
%TO.C,H3*%
X172500000Y-96500000D03*
%TD*%
D16*
%TO.C,R26*%
X149750000Y-95500000D03*
X148100000Y-95500000D03*
%TD*%
D15*
%TO.C,R27*%
X152600000Y-95500000D03*
X154250000Y-95500000D03*
%TD*%
D18*
%TO.C,C34*%
X150250000Y-97250000D03*
X148350000Y-97250000D03*
%TD*%
D19*
%TO.C,J3*%
X148360000Y-93895000D03*
X154140000Y-93895000D03*
D20*
X146930000Y-93395000D03*
D21*
X146930000Y-97575000D03*
D20*
X155570000Y-93395000D03*
D21*
X155570000Y-97575000D03*
%TD*%
D22*
%TO.C,J1*%
X172365000Y-79170000D03*
D23*
X172365000Y-81710000D03*
X172365000Y-84250000D03*
X172365000Y-86790000D03*
X172365000Y-89330000D03*
%TD*%
D24*
%TO.C,D2*%
X144750000Y-93950000D03*
X144750000Y-97250000D03*
%TD*%
D17*
%TO.C,H4*%
X172500000Y-72000000D03*
%TD*%
%TO.C,H1*%
X140000000Y-72000000D03*
%TD*%
D22*
%TO.C,J4*%
X140000000Y-87225000D03*
D23*
X140000000Y-89765000D03*
%TD*%
D25*
%TO.C,C31*%
X146500000Y-72700000D03*
X146500000Y-74250000D03*
%TD*%
%TO.C,C33*%
X159500000Y-73700000D03*
X159500000Y-75250000D03*
%TD*%
D16*
%TO.C,R24*%
X159250000Y-80000000D03*
X157600000Y-80000000D03*
%TD*%
D26*
%TO.C,C32*%
X145450000Y-87250000D03*
X147000000Y-87250000D03*
%TD*%
D27*
%TO.C,C3*%
X142500000Y-90500000D03*
X142500000Y-88950000D03*
%TD*%
%TO.C,C21*%
X164273250Y-87075000D03*
X164273250Y-85525000D03*
%TD*%
D16*
%TO.C,R19*%
X147000000Y-85500000D03*
X145350000Y-85500000D03*
%TD*%
D25*
%TO.C,C13*%
X149500000Y-81800000D03*
X149500000Y-83350000D03*
%TD*%
D15*
%TO.C,R17*%
X152000000Y-85500000D03*
X153650000Y-85500000D03*
%TD*%
D28*
%TO.C,C1*%
X149525000Y-76350000D03*
X147975000Y-76350000D03*
%TD*%
%TO.C,C5*%
X159800000Y-84600000D03*
X158250000Y-84600000D03*
%TD*%
D27*
%TO.C,C12*%
X148000000Y-83350000D03*
X148000000Y-81800000D03*
%TD*%
D28*
%TO.C,C11*%
X152775000Y-74750000D03*
X151225000Y-74750000D03*
%TD*%
D25*
%TO.C,C10*%
X156500000Y-82200000D03*
X156500000Y-83750000D03*
%TD*%
D28*
%TO.C,C20*%
X168800000Y-83750000D03*
X167250000Y-83750000D03*
%TD*%
D29*
%TO.C,L1*%
X154250000Y-82750000D03*
X154250000Y-80600000D03*
%TD*%
D15*
%TO.C,R21*%
X142350000Y-85250000D03*
X144000000Y-85250000D03*
%TD*%
D30*
%TO.C,U3*%
X168587500Y-74595000D03*
X168587500Y-75865000D03*
X168587500Y-77135000D03*
X168587500Y-78405000D03*
X161412500Y-78405000D03*
X161412500Y-77135000D03*
X161412500Y-75865000D03*
X161412500Y-74595000D03*
%TD*%
D16*
%TO.C,R1*%
X149575000Y-74850000D03*
X147925000Y-74850000D03*
%TD*%
D14*
%TO.C,C9*%
X151750000Y-81350000D03*
X151750000Y-83250000D03*
%TD*%
D16*
%TO.C,R20*%
X144000000Y-86750000D03*
X142350000Y-86750000D03*
%TD*%
D31*
%TO.C,D1*%
X142650000Y-92750000D03*
X139350000Y-92750000D03*
%TD*%
D26*
%TO.C,C4*%
X148950000Y-85500000D03*
X150500000Y-85500000D03*
%TD*%
D25*
%TO.C,C15*%
X148000000Y-78350000D03*
X148000000Y-79900000D03*
%TD*%
D16*
%TO.C,R18*%
X152000000Y-88000000D03*
X150350000Y-88000000D03*
%TD*%
D27*
%TO.C,C2*%
X148500000Y-89250000D03*
X148500000Y-87700000D03*
%TD*%
D32*
%TO.C,R23*%
X154500000Y-77150000D03*
X154500000Y-75500000D03*
%TD*%
D15*
%TO.C,R22*%
X166100000Y-72500000D03*
X167750000Y-72500000D03*
%TD*%
D33*
%TO.C,C7*%
X151750000Y-78950000D03*
X151750000Y-77050000D03*
%TD*%
D27*
%TO.C,C14*%
X149500000Y-79900000D03*
X149500000Y-78350000D03*
%TD*%
D16*
%TO.C,R25*%
X155575000Y-71250000D03*
X153925000Y-71250000D03*
%TD*%
%LPD*%
M02*
